<?xml version="1.0" encoding="UTF-8" standalone="no"?>
<!DOCTYPE svg PUBLIC "-//W3C//DTD SVG 1.1//EN"
 "http://www.w3.org/Graphics/SVG/1.1/DTD/svg11.dtd">
<!-- Generated by graphviz version 5.0.0 (20220707.1540)
 -->
<!-- Title: graph4 Pages: 1 -->
<svg width="1066pt" height="764pt"
 viewBox="0.00 0.00 1065.87 764.00" xmlns="http://www.w3.org/2000/svg" xmlns:xlink="http://www.w3.org/1999/xlink">
<g id="graph0" class="graph" transform="scale(1 1) rotate(0) translate(4 760)">
<title>graph4</title>
<polygon fill="white" stroke="transparent" points="-4,4 -4,-760 1061.87,-760 1061.87,4 -4,4"/>
<!-- Create Purchase Order Item -->
<g id="node1" class="node">
<title>Create Purchase Order Item</title>
<image xlink:href="1.png" width="208px" height="36px" preserveAspectRatio="xMinYMin meet" x="60.8735" y="-540"/>
<text text-anchor="middle" x="164.87" y="-525.4" font-family="Times New Roman,serif" font-size="12.00" fill="#2d137d">Create Purchase Order Item</text>
<text text-anchor="start" x="68.87" y="-512.4" font-family="Times New Roman,serif" font-size="12.00" fill="#2d137d"> &#160;&#160;&#160;&#160;&#160;&#160;&#160;&#160;&#160;&#160;&#160;&#160;63797</text>
</g>
<!-- endevent -->
<g id="node12" class="node">
<title>endevent</title>
</g>
<!-- Create Purchase Order Item&#45;&gt;endevent -->
<g id="edge8" class="edge">
<title>Create Purchase Order Item&#45;&gt;endevent</title>
<path fill="none" stroke="#2d137d" d="M76.31,-503.99C55.59,-496.15 35.36,-484.71 20.87,-468 -5.62,-437.44 1.87,-419.45 1.87,-379 1.87,-379 1.87,-379 1.87,-161 1.87,-71.31 321.15,-32.86 431.72,-22.23"/>
<polygon fill="#2d137d" stroke="#2d137d" points="432.12,-25.71 441.75,-21.29 431.46,-18.74 432.12,-25.71"/>
</g>
<!-- Create Purchase Order Item &#45;&gt; Record Invoice Receipt -->
<g id="node13" class="node">
<title>Create Purchase Order Item &#45;&gt; Record Invoice Receipt</title>
<image xlink:href="1.png" width="270px" height="36px" preserveAspectRatio="xMinYMin meet" x="29.8735" y="-468"/>
<text text-anchor="middle" x="164.87" y="-453.4" font-family="Times New Roman,serif" font-size="12.00" fill="#2d137d">Create Purchase Order Item &#45;&gt; Record Invoice Receipt</text>
<text text-anchor="start" x="37.87" y="-440.4" font-family="Times New Roman,serif" font-size="12.00" fill="#2d137d"> &#160;&#160;&#160;&#160;&#160;&#160;&#160;&#160;&#160;&#160;&#160;&#160;None</text>
</g>
<!-- Create Purchase Order Item&#45;&gt;Create Purchase Order Item &#45;&gt; Record Invoice Receipt -->
<g id="edge12" class="edge">
<title>Create Purchase Order Item&#45;&gt;Create Purchase Order Item &#45;&gt; Record Invoice Receipt</title>
<path fill="none" stroke="#2d137d" d="M164.87,-503.7C164.87,-495.98 164.87,-486.71 164.87,-478.11"/>
<polygon fill="#2d137d" stroke="#2d137d" points="168.37,-478.1 164.87,-468.1 161.37,-478.1 168.37,-478.1"/>
</g>
<!-- Receive Order Confirmation -->
<g id="node2" class="node">
<title>Receive Order Confirmation</title>
<image xlink:href="1.png" width="208px" height="36px" preserveAspectRatio="xMinYMin meet" x="215.874" y="-684"/>
<text text-anchor="middle" x="319.87" y="-669.4" font-family="Times New Roman,serif" font-size="12.00" fill="#2d137d">Receive Order Confirmation</text>
<text text-anchor="start" x="223.87" y="-656.4" font-family="Times New Roman,serif" font-size="12.00" fill="#2d137d"> &#160;&#160;&#160;&#160;&#160;&#160;&#160;&#160;&#160;&#160;&#160;&#160;7212</text>
</g>
<!-- Receive Order Confirmation&#45;&gt;endevent -->
<g id="edge11" class="edge">
<title>Receive Order Confirmation&#45;&gt;endevent</title>
<path fill="none" stroke="#2d137d" d="M321.45,-647.97C323.79,-621.33 327.87,-568.19 327.87,-523 327.87,-523 327.87,-523 327.87,-161 327.87,-119.53 328.58,-103.22 355.87,-72 375.68,-49.35 407.25,-35.68 431.99,-27.91"/>
<polygon fill="#2d137d" stroke="#2d137d" points="433.18,-31.21 441.78,-25.02 431.2,-24.49 433.18,-31.21"/>
</g>
<!-- Change Price,Receive Order Confirmation &#45;&gt; Vendor creates invoice,Delete Purchase Order Item -->
<g id="node19" class="node">
<title>Change Price,Receive Order Confirmation &#45;&gt; Vendor creates invoice,Delete Purchase Order Item</title>
<image xlink:href="1.png" width="275px" height="36px" preserveAspectRatio="xMinYMin meet" x="519.374" y="-612"/>
<text text-anchor="middle" x="656.87" y="-597.4" font-family="Times New Roman,serif" font-size="12.00" fill="#2d137d">Change Price,Receive Order Confirmation &#45;&gt; Vendor creates invoice,Delete Purchase Order Item</text>
<text text-anchor="start" x="434.37" y="-584.4" font-family="Times New Roman,serif" font-size="12.00" fill="#2d137d"> &#160;&#160;&#160;&#160;&#160;&#160;&#160;&#160;&#160;&#160;&#160;&#160;None</text>
</g>
<!-- Receive Order Confirmation&#45;&gt;Change Price,Receive Order Confirmation &#45;&gt; Vendor creates invoice,Delete Purchase Order Item -->
<g id="edge25" class="edge">
<title>Receive Order Confirmation&#45;&gt;Change Price,Receive Order Confirmation &#45;&gt; Vendor creates invoice,Delete Purchase Order Item</title>
<path fill="none" stroke="#2d137d" d="M401.88,-647.97C451.11,-637.74 513.84,-624.71 564.77,-614.13"/>
<polygon fill="#2d137d" stroke="#2d137d" points="565.71,-617.51 574.79,-612.05 564.29,-610.66 565.71,-617.51"/>
</g>
<!-- Record Goods Receipt -->
<g id="node3" class="node">
<title>Record Goods Receipt</title>
<image xlink:href="1.png" width="208px" height="36px" preserveAspectRatio="xMinYMin meet" x="594.874" y="-756"/>
<text text-anchor="middle" x="698.87" y="-741.4" font-family="Times New Roman,serif" font-size="12.00" fill="#2d137d">Record Goods Receipt</text>
<text text-anchor="start" x="602.87" y="-728.4" font-family="Times New Roman,serif" font-size="12.00" fill="#2d137d"> &#160;&#160;&#160;&#160;&#160;&#160;&#160;&#160;&#160;&#160;&#160;&#160;60246</text>
</g>
<!-- Vendor creates invoice -->
<g id="node4" class="node">
<title>Vendor creates invoice</title>
<image xlink:href="1.png" width="208px" height="36px" preserveAspectRatio="xMinYMin meet" x="374.874" y="-540"/>
<text text-anchor="middle" x="478.87" y="-525.4" font-family="Times New Roman,serif" font-size="12.00" fill="#2d137d">Vendor creates invoice</text>
<text text-anchor="start" x="382.87" y="-512.4" font-family="Times New Roman,serif" font-size="12.00" fill="#2d137d"> &#160;&#160;&#160;&#160;&#160;&#160;&#160;&#160;&#160;&#160;&#160;&#160;53326</text>
</g>
<!-- Vendor creates invoice &#45;&gt; Record Invoice Receipt -->
<g id="node17" class="node">
<title>Vendor creates invoice &#45;&gt; Record Invoice Receipt</title>
<image xlink:href="1.png" width="245px" height="36px" preserveAspectRatio="xMinYMin meet" x="356.374" y="-468"/>
<text text-anchor="middle" x="478.87" y="-453.4" font-family="Times New Roman,serif" font-size="12.00" fill="#2d137d">Vendor creates invoice &#45;&gt; Record Invoice Receipt</text>
<text text-anchor="start" x="364.37" y="-440.4" font-family="Times New Roman,serif" font-size="12.00" fill="#2d137d"> &#160;&#160;&#160;&#160;&#160;&#160;&#160;&#160;&#160;&#160;&#160;&#160;None</text>
</g>
<!-- Vendor creates invoice&#45;&gt;Vendor creates invoice &#45;&gt; Record Invoice Receipt -->
<g id="edge20" class="edge">
<title>Vendor creates invoice&#45;&gt;Vendor creates invoice &#45;&gt; Record Invoice Receipt</title>
<path fill="none" stroke="#2d137d" d="M478.87,-503.7C478.87,-495.98 478.87,-486.71 478.87,-478.11"/>
<polygon fill="#2d137d" stroke="#2d137d" points="482.37,-478.1 478.87,-468.1 475.37,-478.1 482.37,-478.1"/>
</g>
<!-- Record Invoice Receipt -->
<g id="node5" class="node">
<title>Record Invoice Receipt</title>
<image xlink:href="1.png" width="208px" height="36px" preserveAspectRatio="xMinYMin meet" x="374.874" y="-396"/>
<text text-anchor="middle" x="478.87" y="-381.4" font-family="Times New Roman,serif" font-size="12.00" fill="#2d137d">Record Invoice Receipt</text>
<text text-anchor="start" x="382.87" y="-368.4" font-family="Times New Roman,serif" font-size="12.00" fill="#2d137d"> &#160;&#160;&#160;&#160;&#160;&#160;&#160;&#160;&#160;&#160;&#160;&#160;53326</text>
</g>
<!-- Record Invoice Receipt &#45;&gt; Clear Invoice -->
<g id="node14" class="node">
<title>Record Invoice Receipt &#45;&gt; Clear Invoice</title>
<image xlink:href="1.png" width="208px" height="36px" preserveAspectRatio="xMinYMin meet" x="360.874" y="-252"/>
<text text-anchor="middle" x="464.87" y="-237.4" font-family="Times New Roman,serif" font-size="12.00" fill="#2d137d">Record Invoice Receipt &#45;&gt; Clear Invoice</text>
<text text-anchor="start" x="368.87" y="-224.4" font-family="Times New Roman,serif" font-size="12.00" fill="#2d137d"> &#160;&#160;&#160;&#160;&#160;&#160;&#160;&#160;&#160;&#160;&#160;&#160;None</text>
</g>
<!-- Record Invoice Receipt&#45;&gt;Record Invoice Receipt &#45;&gt; Clear Invoice -->
<g id="edge14" class="edge">
<title>Record Invoice Receipt&#45;&gt;Record Invoice Receipt &#45;&gt; Clear Invoice</title>
<path fill="none" stroke="#2d137d" d="M477.18,-359.87C474.8,-335.67 470.42,-291.21 467.57,-262.39"/>
<polygon fill="#2d137d" stroke="#2d137d" points="471.03,-261.8 466.57,-252.19 464.07,-262.48 471.03,-261.8"/>
</g>
<!-- Record Invoice Receipt &#45;&gt; Remove Payment Block -->
<g id="node18" class="node">
<title>Record Invoice Receipt &#45;&gt; Remove Payment Block</title>
<image xlink:href="1.png" width="251px" height="36px" preserveAspectRatio="xMinYMin meet" x="529.374" y="-324"/>
<text text-anchor="middle" x="654.87" y="-309.4" font-family="Times New Roman,serif" font-size="12.00" fill="#2d137d">Record Invoice Receipt &#45;&gt; Remove Payment Block</text>
<text text-anchor="start" x="537.37" y="-296.4" font-family="Times New Roman,serif" font-size="12.00" fill="#2d137d"> &#160;&#160;&#160;&#160;&#160;&#160;&#160;&#160;&#160;&#160;&#160;&#160;None</text>
</g>
<!-- Record Invoice Receipt&#45;&gt;Record Invoice Receipt &#45;&gt; Remove Payment Block -->
<g id="edge22" class="edge">
<title>Record Invoice Receipt&#45;&gt;Record Invoice Receipt &#45;&gt; Remove Payment Block</title>
<path fill="none" stroke="#2d137d" d="M521.93,-359.88C546.2,-350.22 576.71,-338.09 602.38,-327.88"/>
<polygon fill="#2d137d" stroke="#2d137d" points="603.96,-331.02 611.96,-324.07 601.37,-324.51 603.96,-331.02"/>
</g>
<!-- Clear Invoice -->
<g id="node6" class="node">
<title>Clear Invoice</title>
<image xlink:href="1.png" width="208px" height="36px" preserveAspectRatio="xMinYMin meet" x="364.874" y="-108"/>
<text text-anchor="middle" x="468.87" y="-93.4" font-family="Times New Roman,serif" font-size="12.00" fill="#2d137d">Clear Invoice</text>
<text text-anchor="start" x="372.87" y="-80.4" font-family="Times New Roman,serif" font-size="12.00" fill="#2d137d"> &#160;&#160;&#160;&#160;&#160;&#160;&#160;&#160;&#160;&#160;&#160;&#160;53326</text>
</g>
<!-- Clear Invoice&#45;&gt;endevent -->
<g id="edge7" class="edge">
<title>Clear Invoice&#45;&gt;endevent</title>
<path fill="none" stroke="#2d137d" d="M468.87,-71.7C468.87,-63.98 468.87,-54.71 468.87,-46.11"/>
<polygon fill="#2d137d" stroke="#2d137d" points="472.37,-46.1 468.87,-36.1 465.37,-46.1 472.37,-46.1"/>
</g>
<!-- Change Quantity -->
<g id="node7" class="node">
<title>Change Quantity</title>
<image xlink:href="1.png" width="208px" height="36px" preserveAspectRatio="xMinYMin meet" x="623.874" y="-540"/>
<text text-anchor="middle" x="727.87" y="-525.4" font-family="Times New Roman,serif" font-size="12.00" fill="#2d137d">Change Quantity</text>
<text text-anchor="start" x="631.87" y="-512.4" font-family="Times New Roman,serif" font-size="12.00" fill="#2d137d"> &#160;&#160;&#160;&#160;&#160;&#160;&#160;&#160;&#160;&#160;&#160;&#160;1717</text>
</g>
<!-- Change Quantity&#45;&gt;endevent -->
<g id="edge10" class="edge">
<title>Change Quantity&#45;&gt;endevent</title>
<path fill="none" stroke="#2d137d" d="M793.89,-503.92C813.17,-495.93 832.61,-484.42 845.87,-468 871.29,-436.54 864.87,-419.45 864.87,-379 864.87,-379 864.87,-379 864.87,-161 864.87,-85.25 604.85,-39.02 506.21,-24.21"/>
<polygon fill="#2d137d" stroke="#2d137d" points="506.5,-20.72 496.09,-22.72 505.47,-27.64 506.5,-20.72"/>
</g>
<!-- Change Quantity &#45;&gt; Record Invoice Receipt -->
<g id="node16" class="node">
<title>Change Quantity &#45;&gt; Record Invoice Receipt</title>
<image xlink:href="1.png" width="217px" height="36px" preserveAspectRatio="xMinYMin meet" x="619.374" y="-468"/>
<text text-anchor="middle" x="727.87" y="-453.4" font-family="Times New Roman,serif" font-size="12.00" fill="#2d137d">Change Quantity &#45;&gt; Record Invoice Receipt</text>
<text text-anchor="start" x="627.37" y="-440.4" font-family="Times New Roman,serif" font-size="12.00" fill="#2d137d"> &#160;&#160;&#160;&#160;&#160;&#160;&#160;&#160;&#160;&#160;&#160;&#160;None</text>
</g>
<!-- Change Quantity&#45;&gt;Change Quantity &#45;&gt; Record Invoice Receipt -->
<g id="edge18" class="edge">
<title>Change Quantity&#45;&gt;Change Quantity &#45;&gt; Record Invoice Receipt</title>
<path fill="none" stroke="#2d137d" d="M727.87,-503.7C727.87,-495.98 727.87,-486.71 727.87,-478.11"/>
<polygon fill="#2d137d" stroke="#2d137d" points="731.37,-478.1 727.87,-468.1 724.37,-478.1 731.37,-478.1"/>
</g>
<!-- Remove Payment Block -->
<g id="node8" class="node">
<title>Remove Payment Block</title>
<image xlink:href="1.png" width="208px" height="36px" preserveAspectRatio="xMinYMin meet" x="586.874" y="-252"/>
<text text-anchor="middle" x="690.87" y="-237.4" font-family="Times New Roman,serif" font-size="12.00" fill="#2d137d">Remove Payment Block</text>
<text text-anchor="start" x="594.87" y="-224.4" font-family="Times New Roman,serif" font-size="12.00" fill="#2d137d"> &#160;&#160;&#160;&#160;&#160;&#160;&#160;&#160;&#160;&#160;&#160;&#160;10850</text>
</g>
<!-- Remove Payment Block &#45;&gt; Clear Invoice -->
<g id="node15" class="node">
<title>Remove Payment Block &#45;&gt; Clear Invoice</title>
<image xlink:href="1.png" width="208px" height="36px" preserveAspectRatio="xMinYMin meet" x="539.874" y="-180"/>
<text text-anchor="middle" x="643.87" y="-165.4" font-family="Times New Roman,serif" font-size="12.00" fill="#2d137d">Remove Payment Block &#45;&gt; Clear Invoice</text>
<text text-anchor="start" x="547.87" y="-152.4" font-family="Times New Roman,serif" font-size="12.00" fill="#2d137d"> &#160;&#160;&#160;&#160;&#160;&#160;&#160;&#160;&#160;&#160;&#160;&#160;None</text>
</g>
<!-- Remove Payment Block&#45;&gt;Remove Payment Block &#45;&gt; Clear Invoice -->
<g id="edge16" class="edge">
<title>Remove Payment Block&#45;&gt;Remove Payment Block &#45;&gt; Clear Invoice</title>
<path fill="none" stroke="#2d137d" d="M679.26,-215.7C673.73,-207.47 667.03,-197.48 660.94,-188.42"/>
<polygon fill="#2d137d" stroke="#2d137d" points="663.84,-186.46 655.36,-180.1 658.03,-190.36 663.84,-186.46"/>
</g>
<!-- Change Price -->
<g id="node9" class="node">
<title>Change Price</title>
<image xlink:href="1.png" width="208px" height="36px" preserveAspectRatio="xMinYMin meet" x="516.874" y="-684"/>
<text text-anchor="middle" x="620.87" y="-669.4" font-family="Times New Roman,serif" font-size="12.00" fill="#2d137d">Change Price</text>
<text text-anchor="start" x="524.87" y="-656.4" font-family="Times New Roman,serif" font-size="12.00" fill="#2d137d"> &#160;&#160;&#160;&#160;&#160;&#160;&#160;&#160;&#160;&#160;&#160;&#160;1087</text>
</g>
<!-- Change Price&#45;&gt;Change Price,Receive Order Confirmation &#45;&gt; Vendor creates invoice,Delete Purchase Order Item -->
<g id="edge24" class="edge">
<title>Change Price&#45;&gt;Change Price,Receive Order Confirmation &#45;&gt; Vendor creates invoice,Delete Purchase Order Item</title>
<path fill="none" stroke="#2d137d" d="M629.77,-647.7C633.87,-639.73 638.82,-630.1 643.37,-621.26"/>
<polygon fill="#2d137d" stroke="#2d137d" points="646.62,-622.6 648.08,-612.1 640.39,-619.4 646.62,-622.6"/>
</g>
<!-- Delete Purchase Order Item -->
<g id="node10" class="node">
<title>Delete Purchase Order Item</title>
<image xlink:href="1.png" width="208px" height="36px" preserveAspectRatio="xMinYMin meet" x="849.874" y="-540"/>
<text text-anchor="middle" x="953.87" y="-525.4" font-family="Times New Roman,serif" font-size="12.00" fill="#2d137d">Delete Purchase Order Item</text>
<text text-anchor="start" x="857.87" y="-512.4" font-family="Times New Roman,serif" font-size="12.00" fill="#2d137d"> &#160;&#160;&#160;&#160;&#160;&#160;&#160;&#160;&#160;&#160;&#160;&#160;3834</text>
</g>
<!-- Delete Purchase Order Item&#45;&gt;endevent -->
<g id="edge9" class="edge">
<title>Delete Purchase Order Item&#45;&gt;endevent</title>
<path fill="none" stroke="#2d137d" d="M948.81,-503.68C941.51,-477.11 928.87,-424.56 928.87,-379 928.87,-379 928.87,-379 928.87,-161 928.87,-72.73 615.74,-33.45 506.18,-22.41"/>
<polygon fill="#2d137d" stroke="#2d137d" points="506.23,-18.9 495.93,-21.4 505.54,-25.87 506.23,-18.9"/>
</g>
<!-- startevent -->
<g id="node11" class="node">
<title>startevent</title>
</g>
<!-- startevent&#45;&gt;Create Purchase Order Item -->
<g id="edge1" class="edge">
<title>startevent&#45;&gt;Create Purchase Order Item</title>
<path fill="none" stroke="#2d137d" d="M522.86,-736.53C450.27,-734.72 253.33,-725.95 206.87,-684 169.18,-649.96 163.45,-586.74 163.56,-550.47"/>
<polygon fill="#2d137d" stroke="#2d137d" points="167.07,-550.21 163.75,-540.15 160.07,-550.08 167.07,-550.21"/>
</g>
<!-- startevent&#45;&gt;Receive Order Confirmation -->
<g id="edge6" class="edge">
<title>startevent&#45;&gt;Receive Order Confirmation</title>
<path fill="none" stroke="#2d137d" d="M522.59,-728.7C489.11,-718.51 431.21,-700.88 385.84,-687.08"/>
<polygon fill="#2d137d" stroke="#2d137d" points="386.65,-683.67 376.07,-684.1 384.62,-690.36 386.65,-683.67"/>
</g>
<!-- startevent&#45;&gt;Vendor creates invoice -->
<g id="edge2" class="edge">
<title>startevent&#45;&gt;Vendor creates invoice</title>
<path fill="none" stroke="#2d137d" d="M522.74,-721.26C490.5,-700.8 438.38,-661.73 416.87,-612 410.52,-597.31 410.18,-590.53 416.87,-576 422.2,-564.44 431.42,-554.47 441.15,-546.4"/>
<polygon fill="#2d137d" stroke="#2d137d" points="443.58,-548.94 449.37,-540.06 439.31,-543.39 443.58,-548.94"/>
</g>
<!-- startevent&#45;&gt;Change Quantity -->
<g id="edge3" class="edge">
<title>startevent&#45;&gt;Change Quantity</title>
<path fill="none" stroke="#2d137d" d="M577.15,-723.42C580.06,-722.18 583.01,-721.01 585.87,-720 723.82,-671.22 817,-734.6 896.87,-612 918.93,-578.15 881.71,-556.36 836.65,-542.82"/>
<polygon fill="#2d137d" stroke="#2d137d" points="837.51,-539.43 826.93,-540.05 835.59,-546.16 837.51,-539.43"/>
</g>
<!-- startevent&#45;&gt;Change Price -->
<g id="edge4" class="edge">
<title>startevent&#45;&gt;Change Price</title>
<path fill="none" stroke="#2d137d" d="M567.42,-719.7C576.11,-711.14 586.74,-700.66 596.22,-691.3"/>
<polygon fill="#2d137d" stroke="#2d137d" points="598.86,-693.62 603.52,-684.1 593.95,-688.63 598.86,-693.62"/>
</g>
<!-- startevent&#45;&gt;Delete Purchase Order Item -->
<g id="edge5" class="edge">
<title>startevent&#45;&gt;Delete Purchase Order Item</title>
<path fill="none" stroke="#2d137d" d="M577.05,-723.11C579.98,-721.93 582.96,-720.86 585.87,-720 700.7,-686.04 747.85,-741.51 852.87,-684 904.86,-655.54 933.61,-587.76 946.15,-549.85"/>
<polygon fill="#2d137d" stroke="#2d137d" points="949.58,-550.59 949.26,-540 942.91,-548.48 949.58,-550.59"/>
</g>
<!-- Create Purchase Order Item &#45;&gt; Record Invoice Receipt&#45;&gt;Record Invoice Receipt -->
<g id="edge13" class="edge">
<title>Create Purchase Order Item &#45;&gt; Record Invoice Receipt&#45;&gt;Record Invoice Receipt</title>
<path fill="none" stroke="#2d137d" d="M241.29,-431.97C286.96,-421.78 345.12,-408.82 392.46,-398.26"/>
<polygon fill="#2d137d" stroke="#2d137d" points="393.39,-401.64 402.39,-396.05 391.87,-394.81 393.39,-401.64"/>
</g>
<!-- Record Invoice Receipt &#45;&gt; Clear Invoice&#45;&gt;Clear Invoice -->
<g id="edge15" class="edge">
<title>Record Invoice Receipt &#45;&gt; Clear Invoice&#45;&gt;Clear Invoice</title>
<path fill="none" stroke="#2d137d" d="M465.36,-215.87C466.04,-191.67 467.29,-147.21 468.1,-118.39"/>
<polygon fill="#2d137d" stroke="#2d137d" points="471.61,-118.28 468.39,-108.19 464.61,-118.09 471.61,-118.28"/>
</g>
<!-- Remove Payment Block &#45;&gt; Clear Invoice&#45;&gt;Clear Invoice -->
<g id="edge17" class="edge">
<title>Remove Payment Block &#45;&gt; Clear Invoice&#45;&gt;Clear Invoice</title>
<path fill="none" stroke="#2d137d" d="M601.06,-143.88C576.93,-134.22 546.59,-122.09 521.07,-111.88"/>
<polygon fill="#2d137d" stroke="#2d137d" points="522.13,-108.53 511.54,-108.07 519.53,-115.03 522.13,-108.53"/>
</g>
<!-- Change Quantity &#45;&gt; Record Invoice Receipt&#45;&gt;Record Invoice Receipt -->
<g id="edge19" class="edge">
<title>Change Quantity &#45;&gt; Record Invoice Receipt&#45;&gt;Record Invoice Receipt</title>
<path fill="none" stroke="#2d137d" d="M667.28,-431.97C631.73,-421.97 586.65,-409.3 549.5,-398.85"/>
<polygon fill="#2d137d" stroke="#2d137d" points="550.31,-395.45 539.74,-396.11 548.42,-402.19 550.31,-395.45"/>
</g>
<!-- Vendor creates invoice &#45;&gt; Record Invoice Receipt&#45;&gt;Record Invoice Receipt -->
<g id="edge21" class="edge">
<title>Vendor creates invoice &#45;&gt; Record Invoice Receipt&#45;&gt;Record Invoice Receipt</title>
<path fill="none" stroke="#2d137d" d="M478.87,-431.7C478.87,-423.98 478.87,-414.71 478.87,-406.11"/>
<polygon fill="#2d137d" stroke="#2d137d" points="482.37,-406.1 478.87,-396.1 475.37,-406.1 482.37,-406.1"/>
</g>
<!-- Record Invoice Receipt &#45;&gt; Remove Payment Block&#45;&gt;Remove Payment Block -->
<g id="edge23" class="edge">
<title>Record Invoice Receipt &#45;&gt; Remove Payment Block&#45;&gt;Remove Payment Block</title>
<path fill="none" stroke="#2d137d" d="M663.77,-287.7C667.87,-279.73 672.82,-270.1 677.37,-261.26"/>
<polygon fill="#2d137d" stroke="#2d137d" points="680.62,-262.6 682.08,-252.1 674.39,-259.4 680.62,-262.6"/>
</g>
<!-- Change Price,Receive Order Confirmation &#45;&gt; Vendor creates invoice,Delete Purchase Order Item&#45;&gt;Vendor creates invoice -->
<g id="edge26" class="edge">
<title>Change Price,Receive Order Confirmation &#45;&gt; Vendor creates invoice,Delete Purchase Order Item&#45;&gt;Vendor creates invoice</title>
<path fill="none" stroke="#2d137d" d="M613.33,-575.88C588.67,-566.18 557.65,-553.98 531.62,-543.74"/>
<polygon fill="#2d137d" stroke="#2d137d" points="532.86,-540.47 522.28,-540.07 530.3,-546.99 532.86,-540.47"/>
</g>
<!-- Change Price,Receive Order Confirmation &#45;&gt; Vendor creates invoice,Delete Purchase Order Item&#45;&gt;Delete Purchase Order Item -->
<g id="edge27" class="edge">
<title>Change Price,Receive Order Confirmation &#45;&gt; Vendor creates invoice,Delete Purchase Order Item&#45;&gt;Delete Purchase Order Item</title>
<path fill="none" stroke="#2d137d" d="M729.15,-575.97C772.17,-565.83 826.9,-552.93 871.58,-542.4"/>
<polygon fill="#2d137d" stroke="#2d137d" points="872.6,-545.75 881.53,-540.05 871,-538.94 872.6,-545.75"/>
</g>
</g>
</svg>
