<?xml version="1.0" encoding="UTF-8" standalone="no"?>
<!DOCTYPE svg PUBLIC "-//W3C//DTD SVG 1.1//EN"
 "http://www.w3.org/Graphics/SVG/1.1/DTD/svg11.dtd">
<!-- Generated by graphviz version 7.1.0 (20230121.1956)
 -->
<!-- Title: graph3 Pages: 1 -->
<svg width="933pt" height="764pt"
 viewBox="0.00 0.00 932.50 764.00" xmlns="http://www.w3.org/2000/svg" xmlns:xlink="http://www.w3.org/1999/xlink">
<g id="graph0" class="graph" transform="scale(1 1) rotate(0) translate(4 760)">
<title>graph3</title>
<polygon fill="white" stroke="none" points="-4,4 -4,-760 928.5,-760 928.5,4 -4,4"/>
<!-- Create Purchase Order Item -->
<g id="node1" class="node">
<title>Create Purchase Order Item</title>
<image xlink:href="1.png" width="208px" height="36px" preserveAspectRatio="xMinYMin meet" x="25" y="-468"/>
<text text-anchor="middle" x="129" y="-453.4" font-family="Times New Roman,serif" font-size="12.00" fill="#2d137d">Create Purchase Order Item</text>
<text text-anchor="middle" x="129" y="-440.4" font-family="Times New Roman,serif" font-size="12.00" fill="#2d137d">63797</text>
</g>
<!-- endevent -->
<g id="node12" class="node">
<title>endevent</title>
</g>
<!-- Create Purchase Order Item&#45;&gt;endevent -->
<g id="edge10" class="edge">
<title>Create Purchase Order Item&#45;&gt;endevent</title>
<path fill="none" stroke="#2d137d" d="M153.55,-432.19C185.14,-408.34 236,-361.48 236,-307 236,-307 236,-307 236,-161 236,-121.17 243.43,-75.61 249,-47.07"/>
<polygon fill="#2d137d" stroke="#2d137d" points="252.4,-47.93 250.95,-37.43 245.54,-46.54 252.4,-47.93"/>
</g>
<!-- Receive Order Confirmation -->
<g id="node2" class="node">
<title>Receive Order Confirmation</title>
<image xlink:href="1.png" width="208px" height="36px" preserveAspectRatio="xMinYMin meet" x="429" y="-684"/>
<text text-anchor="middle" x="533" y="-669.4" font-family="Times New Roman,serif" font-size="12.00" fill="#2d137d">Receive Order Confirmation</text>
<text text-anchor="middle" x="533" y="-656.4" font-family="Times New Roman,serif" font-size="12.00" fill="#2d137d">7212</text>
</g>
<!-- Change Price,Receive Order Confirmation &#45;&gt; Vendor creates invoice,Delete Purchase Order Item -->
<g id="node18" class="node">
<title>Change Price,Receive Order Confirmation &#45;&gt; Vendor creates invoice,Delete Purchase Order Item</title>
<image xlink:href="1.png" width="275px" height="36px" preserveAspectRatio="xMinYMin meet" x="282.5" y="-612"/>
<text text-anchor="middle" x="420" y="-597.4" font-family="Times New Roman,serif" font-size="12.00" fill="#2d137d">Change Price,Receive Order Confirmation &#45;&gt; Vendor creates invoice,Delete Purchase Order Item</text>
<text text-anchor="middle" x="420" y="-584.4" font-family="Times New Roman,serif" font-size="12.00" fill="#2d137d">None</text>
</g>
<!-- Receive Order Confirmation&#45;&gt;Change Price,Receive Order Confirmation &#45;&gt; Vendor creates invoice,Delete Purchase Order Item -->
<g id="edge22" class="edge">
<title>Receive Order Confirmation&#45;&gt;Change Price,Receive Order Confirmation &#45;&gt; Vendor creates invoice,Delete Purchase Order Item</title>
<path fill="none" stroke="#2d137d" d="M505.65,-648.05C490.93,-638.94 472.59,-627.58 456.66,-617.71"/>
<polygon fill="#2d137d" stroke="#2d137d" points="458.73,-614.88 448.39,-612.59 455.05,-620.83 458.73,-614.88"/>
</g>
<!-- Record Goods Receipt -->
<g id="node3" class="node">
<title>Record Goods Receipt</title>
<image xlink:href="1.png" width="208px" height="36px" preserveAspectRatio="xMinYMin meet" x="0" y="-108"/>
<text text-anchor="middle" x="104" y="-93.4" font-family="Times New Roman,serif" font-size="12.00" fill="#2d137d">Record Goods Receipt</text>
<text text-anchor="middle" x="104" y="-80.4" font-family="Times New Roman,serif" font-size="12.00" fill="#2d137d">60246</text>
</g>
<!-- Record Goods Receipt&#45;&gt;endevent -->
<g id="edge8" class="edge">
<title>Record Goods Receipt&#45;&gt;endevent</title>
<path fill="none" stroke="#2d137d" d="M140.55,-72.05C164.02,-61.18 194.39,-47.1 217.95,-36.17"/>
<polygon fill="#2d137d" stroke="#2d137d" points="219.28,-39.42 226.88,-32.04 216.33,-33.07 219.28,-39.42"/>
</g>
<!-- Vendor creates invoice -->
<g id="node4" class="node">
<title>Vendor creates invoice</title>
<image xlink:href="1.png" width="208px" height="36px" preserveAspectRatio="xMinYMin meet" x="554" y="-540"/>
<text text-anchor="middle" x="658" y="-525.4" font-family="Times New Roman,serif" font-size="12.00" fill="#2d137d">Vendor creates invoice</text>
<text text-anchor="middle" x="658" y="-512.4" font-family="Times New Roman,serif" font-size="12.00" fill="#2d137d">53326</text>
</g>
<!-- Vendor creates invoice &#45;&gt; Record Invoice Receipt -->
<g id="node13" class="node">
<title>Vendor creates invoice &#45;&gt; Record Invoice Receipt</title>
<image xlink:href="1.png" width="245px" height="36px" preserveAspectRatio="xMinYMin meet" x="535.5" y="-468"/>
<text text-anchor="middle" x="658" y="-453.4" font-family="Times New Roman,serif" font-size="12.00" fill="#2d137d">Vendor creates invoice &#45;&gt; Record Invoice Receipt</text>
<text text-anchor="middle" x="658" y="-440.4" font-family="Times New Roman,serif" font-size="12.00" fill="#2d137d">None</text>
</g>
<!-- Vendor creates invoice&#45;&gt;Vendor creates invoice &#45;&gt; Record Invoice Receipt -->
<g id="edge11" class="edge">
<title>Vendor creates invoice&#45;&gt;Vendor creates invoice &#45;&gt; Record Invoice Receipt</title>
<path fill="none" stroke="#2d137d" d="M658,-504.05C658,-496.57 658,-487.58 658,-479.14"/>
<polygon fill="#2d137d" stroke="#2d137d" points="661.5,-479.3 658,-469.3 654.5,-479.3 661.5,-479.3"/>
</g>
<!-- Record Invoice Receipt -->
<g id="node5" class="node">
<title>Record Invoice Receipt</title>
<image xlink:href="1.png" width="208px" height="36px" preserveAspectRatio="xMinYMin meet" x="554" y="-396"/>
<text text-anchor="middle" x="658" y="-381.4" font-family="Times New Roman,serif" font-size="12.00" fill="#2d137d">Record Invoice Receipt</text>
<text text-anchor="middle" x="658" y="-368.4" font-family="Times New Roman,serif" font-size="12.00" fill="#2d137d">53326</text>
</g>
<!-- Record Invoice Receipt &#45;&gt; Clear Invoice -->
<g id="node15" class="node">
<title>Record Invoice Receipt &#45;&gt; Clear Invoice</title>
<image xlink:href="1.png" width="208px" height="36px" preserveAspectRatio="xMinYMin meet" x="328" y="-252"/>
<text text-anchor="middle" x="432" y="-237.4" font-family="Times New Roman,serif" font-size="12.00" fill="#2d137d">Record Invoice Receipt &#45;&gt; Clear Invoice</text>
<text text-anchor="middle" x="432" y="-224.4" font-family="Times New Roman,serif" font-size="12.00" fill="#2d137d">None</text>
</g>
<!-- Record Invoice Receipt&#45;&gt;Record Invoice Receipt &#45;&gt; Clear Invoice -->
<g id="edge15" class="edge">
<title>Record Invoice Receipt&#45;&gt;Record Invoice Receipt &#45;&gt; Clear Invoice</title>
<path fill="none" stroke="#2d137d" d="M600.39,-360.1C575.48,-351.38 546.68,-339.32 523,-324 495.93,-306.49 470.16,-280.03 453,-260.51"/>
<polygon fill="#2d137d" stroke="#2d137d" points="455.68,-258.27 446.51,-252.97 450.38,-262.83 455.68,-258.27"/>
</g>
<!-- Record Invoice Receipt &#45;&gt; Remove Payment Block -->
<g id="node16" class="node">
<title>Record Invoice Receipt &#45;&gt; Remove Payment Block</title>
<image xlink:href="1.png" width="251px" height="36px" preserveAspectRatio="xMinYMin meet" x="532.5" y="-324"/>
<text text-anchor="middle" x="658" y="-309.4" font-family="Times New Roman,serif" font-size="12.00" fill="#2d137d">Record Invoice Receipt &#45;&gt; Remove Payment Block</text>
<text text-anchor="middle" x="658" y="-296.4" font-family="Times New Roman,serif" font-size="12.00" fill="#2d137d">None</text>
</g>
<!-- Record Invoice Receipt&#45;&gt;Record Invoice Receipt &#45;&gt; Remove Payment Block -->
<g id="edge17" class="edge">
<title>Record Invoice Receipt&#45;&gt;Record Invoice Receipt &#45;&gt; Remove Payment Block</title>
<path fill="none" stroke="#2d137d" d="M658,-360.05C658,-352.57 658,-343.58 658,-335.14"/>
<polygon fill="#2d137d" stroke="#2d137d" points="661.5,-335.3 658,-325.3 654.5,-335.3 661.5,-335.3"/>
</g>
<!-- Clear Invoice -->
<g id="node6" class="node">
<title>Clear Invoice</title>
<image xlink:href="1.png" width="208px" height="36px" preserveAspectRatio="xMinYMin meet" x="328" y="-108"/>
<text text-anchor="middle" x="432" y="-93.4" font-family="Times New Roman,serif" font-size="12.00" fill="#2d137d">Clear Invoice</text>
<text text-anchor="middle" x="432" y="-80.4" font-family="Times New Roman,serif" font-size="12.00" fill="#2d137d">53326</text>
</g>
<!-- Clear Invoice&#45;&gt;endevent -->
<g id="edge7" class="edge">
<title>Clear Invoice&#45;&gt;endevent</title>
<path fill="none" stroke="#2d137d" d="M389.15,-72.05C359.62,-60.37 320.74,-45 292.45,-33.81"/>
<polygon fill="#2d137d" stroke="#2d137d" points="293.78,-30.57 283.19,-30.15 291.2,-37.08 293.78,-30.57"/>
</g>
<!-- Change Quantity -->
<g id="node7" class="node">
<title>Change Quantity</title>
<image xlink:href="1.png" width="208px" height="36px" preserveAspectRatio="xMinYMin meet" x="709" y="-684"/>
<text text-anchor="middle" x="813" y="-669.4" font-family="Times New Roman,serif" font-size="12.00" fill="#2d137d">Change Quantity</text>
<text text-anchor="middle" x="813" y="-656.4" font-family="Times New Roman,serif" font-size="12.00" fill="#2d137d">1717</text>
</g>
<!-- Change Quantity &#45;&gt; Record Invoice Receipt -->
<g id="node17" class="node">
<title>Change Quantity &#45;&gt; Record Invoice Receipt</title>
<image xlink:href="1.png" width="217px" height="36px" preserveAspectRatio="xMinYMin meet" x="707.5" y="-612"/>
<text text-anchor="middle" x="816" y="-597.4" font-family="Times New Roman,serif" font-size="12.00" fill="#2d137d">Change Quantity &#45;&gt; Record Invoice Receipt</text>
<text text-anchor="middle" x="816" y="-584.4" font-family="Times New Roman,serif" font-size="12.00" fill="#2d137d">None</text>
</g>
<!-- Change Quantity&#45;&gt;Change Quantity &#45;&gt; Record Invoice Receipt -->
<g id="edge19" class="edge">
<title>Change Quantity&#45;&gt;Change Quantity &#45;&gt; Record Invoice Receipt</title>
<path fill="none" stroke="#2d137d" d="M813.73,-648.05C814.05,-640.57 814.43,-631.58 814.79,-623.14"/>
<polygon fill="#2d137d" stroke="#2d137d" points="818.28,-623.44 815.22,-613.3 811.29,-623.14 818.28,-623.44"/>
</g>
<!-- Remove Payment Block -->
<g id="node8" class="node">
<title>Remove Payment Block</title>
<image xlink:href="1.png" width="208px" height="36px" preserveAspectRatio="xMinYMin meet" x="554" y="-252"/>
<text text-anchor="middle" x="658" y="-237.4" font-family="Times New Roman,serif" font-size="12.00" fill="#2d137d">Remove Payment Block</text>
<text text-anchor="middle" x="658" y="-224.4" font-family="Times New Roman,serif" font-size="12.00" fill="#2d137d">10850</text>
</g>
<!-- Remove Payment Block &#45;&gt; Clear Invoice -->
<g id="node14" class="node">
<title>Remove Payment Block &#45;&gt; Clear Invoice</title>
<image xlink:href="1.png" width="208px" height="36px" preserveAspectRatio="xMinYMin meet" x="507" y="-180"/>
<text text-anchor="middle" x="611" y="-165.4" font-family="Times New Roman,serif" font-size="12.00" fill="#2d137d">Remove Payment Block &#45;&gt; Clear Invoice</text>
<text text-anchor="middle" x="611" y="-152.4" font-family="Times New Roman,serif" font-size="12.00" fill="#2d137d">None</text>
</g>
<!-- Remove Payment Block&#45;&gt;Remove Payment Block &#45;&gt; Clear Invoice -->
<g id="edge13" class="edge">
<title>Remove Payment Block&#45;&gt;Remove Payment Block &#45;&gt; Clear Invoice</title>
<path fill="none" stroke="#2d137d" d="M646.62,-216.05C641.2,-207.97 634.58,-198.12 628.53,-189.11"/>
<polygon fill="#2d137d" stroke="#2d137d" points="631.6,-187.4 623.12,-181.05 625.78,-191.3 631.6,-187.4"/>
</g>
<!-- Change Price -->
<g id="node9" class="node">
<title>Change Price</title>
<image xlink:href="1.png" width="208px" height="36px" preserveAspectRatio="xMinYMin meet" x="203" y="-684"/>
<text text-anchor="middle" x="307" y="-669.4" font-family="Times New Roman,serif" font-size="12.00" fill="#2d137d">Change Price</text>
<text text-anchor="middle" x="307" y="-656.4" font-family="Times New Roman,serif" font-size="12.00" fill="#2d137d">1087</text>
</g>
<!-- Change Price&#45;&gt;Change Price,Receive Order Confirmation &#45;&gt; Vendor creates invoice,Delete Purchase Order Item -->
<g id="edge21" class="edge">
<title>Change Price&#45;&gt;Change Price,Receive Order Confirmation &#45;&gt; Vendor creates invoice,Delete Purchase Order Item</title>
<path fill="none" stroke="#2d137d" d="M334.35,-648.05C349.07,-638.94 367.41,-627.58 383.34,-617.71"/>
<polygon fill="#2d137d" stroke="#2d137d" points="384.95,-620.83 391.61,-612.59 381.27,-614.88 384.95,-620.83"/>
</g>
<!-- Delete Purchase Order Item -->
<g id="node10" class="node">
<title>Delete Purchase Order Item</title>
<image xlink:href="1.png" width="208px" height="36px" preserveAspectRatio="xMinYMin meet" x="170" y="-540"/>
<text text-anchor="middle" x="274" y="-525.4" font-family="Times New Roman,serif" font-size="12.00" fill="#2d137d">Delete Purchase Order Item</text>
<text text-anchor="middle" x="274" y="-512.4" font-family="Times New Roman,serif" font-size="12.00" fill="#2d137d">3834</text>
</g>
<!-- Delete Purchase Order Item&#45;&gt;endevent -->
<g id="edge9" class="edge">
<title>Delete Purchase Order Item&#45;&gt;endevent</title>
<path fill="none" stroke="#2d137d" d="M274,-504.39C274,-477.87 274,-424.36 274,-379 274,-379 274,-379 274,-161 274,-121.17 266.57,-75.61 261,-47.07"/>
<polygon fill="#2d137d" stroke="#2d137d" points="264.46,-46.54 259.05,-37.43 257.6,-47.93 264.46,-46.54"/>
</g>
<!-- startevent -->
<g id="node11" class="node">
<title>startevent</title>
</g>
<!-- startevent&#45;&gt;Create Purchase Order Item -->
<g id="edge1" class="edge">
<title>startevent&#45;&gt;Create Purchase Order Item</title>
<path fill="none" stroke="#2d137d" d="M393.32,-735.18C334.62,-730.62 197.08,-716.61 166,-684 112.6,-627.96 117.88,-527.68 124.3,-479.02"/>
<polygon fill="#2d137d" stroke="#2d137d" points="127.74,-479.72 125.71,-469.32 120.81,-478.71 127.74,-479.72"/>
</g>
<!-- startevent&#45;&gt;Receive Order Confirmation -->
<g id="edge6" class="edge">
<title>startevent&#45;&gt;Receive Order Confirmation</title>
<path fill="none" stroke="#2d137d" d="M446.78,-720.41C461.48,-711.3 479.93,-699.87 495.99,-689.92"/>
<polygon fill="#2d137d" stroke="#2d137d" points="497.68,-692.99 504.34,-684.75 494,-687.04 497.68,-692.99"/>
</g>
<!-- startevent&#45;&gt;Vendor creates invoice -->
<g id="edge2" class="edge">
<title>startevent&#45;&gt;Vendor creates invoice</title>
<path fill="none" stroke="#2d137d" d="M446.94,-734.35C500.78,-728.49 618.8,-712.64 646,-684 679.64,-648.57 673.04,-586.76 665.39,-550.9"/>
<polygon fill="#2d137d" stroke="#2d137d" points="668.83,-550.24 663.16,-541.29 662.01,-551.82 668.83,-550.24"/>
</g>
<!-- startevent&#45;&gt;Change Quantity -->
<g id="edge3" class="edge">
<title>startevent&#45;&gt;Change Quantity</title>
<path fill="none" stroke="#2d137d" d="M446.7,-732.24C499.22,-722.89 618.51,-701.64 706.76,-685.92"/>
<polygon fill="#2d137d" stroke="#2d137d" points="707.18,-689.4 716.42,-684.2 705.96,-682.51 707.18,-689.4"/>
</g>
<!-- startevent&#45;&gt;Change Price -->
<g id="edge4" class="edge">
<title>startevent&#45;&gt;Change Price</title>
<path fill="none" stroke="#2d137d" d="M393.22,-720.41C378.52,-711.3 360.07,-699.87 344.01,-689.92"/>
<polygon fill="#2d137d" stroke="#2d137d" points="346,-687.04 335.66,-684.75 342.32,-692.99 346,-687.04"/>
</g>
<!-- startevent&#45;&gt;Delete Purchase Order Item -->
<g id="edge5" class="edge">
<title>startevent&#45;&gt;Delete Purchase Order Item</title>
<path fill="none" stroke="#2d137d" d="M393.09,-734.32C339.31,-728.41 221.39,-712.46 194,-684 160.44,-649.13 155.59,-617.79 180,-576 187.61,-562.98 199.72,-552.91 212.76,-545.22"/>
<polygon fill="#2d137d" stroke="#2d137d" points="214.36,-548.33 221.51,-540.51 211.05,-542.16 214.36,-548.33"/>
</g>
<!-- Vendor creates invoice &#45;&gt; Record Invoice Receipt&#45;&gt;Record Invoice Receipt -->
<g id="edge12" class="edge">
<title>Vendor creates invoice &#45;&gt; Record Invoice Receipt&#45;&gt;Record Invoice Receipt</title>
<path fill="none" stroke="#2d137d" d="M658,-432.05C658,-424.57 658,-415.58 658,-407.14"/>
<polygon fill="#2d137d" stroke="#2d137d" points="661.5,-407.3 658,-397.3 654.5,-407.3 661.5,-407.3"/>
</g>
<!-- Remove Payment Block &#45;&gt; Clear Invoice&#45;&gt;Clear Invoice -->
<g id="edge14" class="edge">
<title>Remove Payment Block &#45;&gt; Clear Invoice&#45;&gt;Clear Invoice</title>
<path fill="none" stroke="#2d137d" d="M567.67,-144.05C543.02,-134.42 511.95,-122.26 485.76,-112.02"/>
<polygon fill="#2d137d" stroke="#2d137d" points="487.24,-108.84 476.65,-108.46 484.69,-115.36 487.24,-108.84"/>
</g>
<!-- Record Invoice Receipt &#45;&gt; Clear Invoice&#45;&gt;Clear Invoice -->
<g id="edge16" class="edge">
<title>Record Invoice Receipt &#45;&gt; Clear Invoice&#45;&gt;Clear Invoice</title>
<path fill="none" stroke="#2d137d" d="M432,-216.15C432,-192.24 432,-148.15 432,-119.2"/>
<polygon fill="#2d137d" stroke="#2d137d" points="435.5,-119.34 432,-109.34 428.5,-119.34 435.5,-119.34"/>
</g>
<!-- Record Invoice Receipt &#45;&gt; Remove Payment Block&#45;&gt;Remove Payment Block -->
<g id="edge18" class="edge">
<title>Record Invoice Receipt &#45;&gt; Remove Payment Block&#45;&gt;Remove Payment Block</title>
<path fill="none" stroke="#2d137d" d="M658,-288.05C658,-280.57 658,-271.58 658,-263.14"/>
<polygon fill="#2d137d" stroke="#2d137d" points="661.5,-263.3 658,-253.3 654.5,-263.3 661.5,-263.3"/>
</g>
<!-- Change Quantity &#45;&gt; Record Invoice Receipt&#45;&gt;Record Invoice Receipt -->
<g id="edge20" class="edge">
<title>Change Quantity &#45;&gt; Record Invoice Receipt&#45;&gt;Record Invoice Receipt</title>
<path fill="none" stroke="#2d137d" d="M818.12,-576.3C821.2,-544.51 823.24,-474.66 789,-432 777.87,-418.13 762.55,-407.87 746.3,-400.28"/>
<polygon fill="#2d137d" stroke="#2d137d" points="748.05,-397.23 737.48,-396.49 745.28,-403.66 748.05,-397.23"/>
</g>
<!-- Change Price,Receive Order Confirmation &#45;&gt; Vendor creates invoice,Delete Purchase Order Item&#45;&gt;Vendor creates invoice -->
<g id="edge23" class="edge">
<title>Change Price,Receive Order Confirmation &#45;&gt; Vendor creates invoice,Delete Purchase Order Item&#45;&gt;Vendor creates invoice</title>
<path fill="none" stroke="#2d137d" d="M477.61,-576.05C511.4,-566.12 554.28,-553.51 589.75,-543.07"/>
<polygon fill="#2d137d" stroke="#2d137d" points="590.45,-546.52 599.05,-540.34 588.47,-539.8 590.45,-546.52"/>
</g>
<!-- Change Price,Receive Order Confirmation &#45;&gt; Vendor creates invoice,Delete Purchase Order Item&#45;&gt;Delete Purchase Order Item -->
<g id="edge24" class="edge">
<title>Change Price,Receive Order Confirmation &#45;&gt; Vendor creates invoice,Delete Purchase Order Item&#45;&gt;Delete Purchase Order Item</title>
<path fill="none" stroke="#2d137d" d="M384.66,-576.05C365.09,-566.67 340.56,-554.91 319.57,-544.85"/>
<polygon fill="#2d137d" stroke="#2d137d" points="321.16,-541.73 310.63,-540.56 318.14,-548.04 321.16,-541.73"/>
</g>
</g>
</svg>
