<?xml version="1.0" encoding="UTF-8" standalone="no"?>
<!DOCTYPE svg PUBLIC "-//W3C//DTD SVG 1.1//EN"
 "http://www.w3.org/Graphics/SVG/1.1/DTD/svg11.dtd">
<!-- Generated by graphviz version 5.0.0 (20220707.1540)
 -->
<!-- Pages: 1 -->
<svg width="777pt" height="815pt"
 viewBox="0.00 0.00 777.41 815.00" xmlns="http://www.w3.org/2000/svg" xmlns:xlink="http://www.w3.org/1999/xlink">
<g id="graph0" class="graph" transform="scale(1 1) rotate(0) translate(4 811)">
<polygon fill="white" stroke="transparent" points="-4,4 -4,-811 773.41,-811 773.41,4 -4,4"/>
<!-- Create Purchase Order Item -->
<g id="node1" class="node">
<title>Create Purchase Order Item</title>
<polygon fill="#646464" stroke="black" points="510.91,-734 337.91,-734 337.91,-696 510.91,-696 510.91,-734"/>
<text text-anchor="middle" x="424.41" y="-718.8" font-family="Times New Roman,serif" font-size="14.00">Create Purchase Order Item</text>
<text text-anchor="middle" x="424.41" y="-703.8" font-family="Times New Roman,serif" font-size="14.00">count: 63797</text>
</g>
<!-- Receive Order Confirmation -->
<g id="node2" class="node">
<title>Receive Order Confirmation</title>
<polygon fill="#ebebeb" stroke="black" points="387.91,-645 212.91,-645 212.91,-607 387.91,-607 387.91,-645"/>
<text text-anchor="middle" x="300.41" y="-629.8" font-family="Times New Roman,serif" font-size="14.00">Receive Order Confirmation</text>
<text text-anchor="middle" x="300.41" y="-614.8" font-family="Times New Roman,serif" font-size="14.00">count: 7212</text>
</g>
<!-- Create Purchase Order Item&#45;&gt;Receive Order Confirmation -->
<g id="edge40" class="edge">
<title>Create Purchase Order Item&#45;&gt;Receive Order Confirmation</title>
<path fill="none" stroke="black" stroke-width="0.89" d="M398.72,-695.97C380.1,-682.91 354.73,-665.11 334.43,-650.87"/>
<polygon fill="black" stroke="black" stroke-width="0.89" points="336.27,-647.88 326.07,-645 332.25,-653.61 336.27,-647.88"/>
<text text-anchor="middle" x="384.41" y="-666.8" font-family="Times New Roman,serif" font-size="14.00">6844</text>
</g>
<!-- Record Goods Receipt -->
<g id="node3" class="node">
<title>Record Goods Receipt</title>
<polygon fill="#6c6c6c" stroke="black" points="467.41,-556 319.41,-556 319.41,-518 467.41,-518 467.41,-556"/>
<text text-anchor="middle" x="393.41" y="-540.8" font-family="Times New Roman,serif" font-size="14.00">Record Goods Receipt</text>
<text text-anchor="middle" x="393.41" y="-525.8" font-family="Times New Roman,serif" font-size="14.00">count: 60246</text>
</g>
<!-- Create Purchase Order Item&#45;&gt;Record Goods Receipt -->
<g id="edge28" class="edge">
<title>Create Purchase Order Item&#45;&gt;Record Goods Receipt</title>
<path fill="none" stroke="black" stroke-width="2.46" d="M421.21,-695.83C415.79,-665.05 404.77,-602.48 398.35,-566.04"/>
<polygon fill="black" stroke="black" stroke-width="2.46" points="401.78,-565.31 396.6,-556.07 394.88,-566.53 401.78,-565.31"/>
<text text-anchor="middle" x="428.41" y="-622.3" font-family="Times New Roman,serif" font-size="14.00">20497</text>
</g>
<!-- Vendor creates invoice -->
<g id="node4" class="node">
<title>Vendor creates invoice</title>
<polygon fill="#7d7d7d" stroke="black" points="597.91,-467 452.91,-467 452.91,-429 597.91,-429 597.91,-467"/>
<text text-anchor="middle" x="525.41" y="-451.8" font-family="Times New Roman,serif" font-size="14.00">Vendor creates invoice</text>
<text text-anchor="middle" x="525.41" y="-436.8" font-family="Times New Roman,serif" font-size="14.00">count: 53326</text>
</g>
<!-- Create Purchase Order Item&#45;&gt;Vendor creates invoice -->
<g id="edge30" class="edge">
<title>Create Purchase Order Item&#45;&gt;Vendor creates invoice</title>
<path fill="none" stroke="black" stroke-width="3.63" d="M510.95,-696.21C537.49,-686.02 563.37,-670.03 577.41,-645 608.42,-589.71 570.08,-515.23 544.61,-475.91"/>
<polygon fill="black" stroke="black" stroke-width="3.63" points="547.23,-473.54 538.77,-467.16 541.41,-477.42 547.23,-473.54"/>
<text text-anchor="middle" x="605.41" y="-577.8" font-family="Times New Roman,serif" font-size="14.00">30582</text>
</g>
<!-- Change Quantity -->
<g id="node7" class="node">
<title>Change Quantity</title>
<polygon fill="#f8f8f8" stroke="black" points="354.41,-378 244.41,-378 244.41,-340 354.41,-340 354.41,-378"/>
<text text-anchor="middle" x="299.41" y="-362.8" font-family="Times New Roman,serif" font-size="14.00">Change Quantity</text>
<text text-anchor="middle" x="299.41" y="-347.8" font-family="Times New Roman,serif" font-size="14.00">count: 1717</text>
</g>
<!-- Create Purchase Order Item&#45;&gt;Change Quantity -->
<g id="edge29" class="edge">
<title>Create Purchase Order Item&#45;&gt;Change Quantity</title>
<path fill="none" stroke="black" stroke-width="0.27" d="M511.12,-704.8C596.25,-693.3 713.41,-669.7 713.41,-627 713.41,-627 713.41,-627 713.41,-447 713.41,-411.84 481.82,-380.61 365.07,-367.1"/>
<polygon fill="black" stroke="black" stroke-width="0.27" points="365.15,-363.58 354.82,-365.92 364.35,-370.54 365.15,-363.58"/>
<text text-anchor="middle" x="727.41" y="-533.3" font-family="Times New Roman,serif" font-size="14.00">1439</text>
</g>
<!-- Change Price -->
<g id="node9" class="node">
<title>Change Price</title>
<polygon fill="#fafafa" stroke="black" points="567.91,-645 476.91,-645 476.91,-607 567.91,-607 567.91,-645"/>
<text text-anchor="middle" x="522.41" y="-629.8" font-family="Times New Roman,serif" font-size="14.00">Change Price</text>
<text text-anchor="middle" x="522.41" y="-614.8" font-family="Times New Roman,serif" font-size="14.00">count: 1087</text>
</g>
<!-- Create Purchase Order Item&#45;&gt;Change Price -->
<g id="edge16" class="edge">
<title>Create Purchase Order Item&#45;&gt;Change Price</title>
<path fill="none" stroke="black" stroke-width="0.22" d="M436.78,-695.76C444.31,-685.43 454.56,-672.68 465.41,-663 470.23,-658.7 475.61,-654.59 481.1,-650.78"/>
<polygon fill="black" stroke="black" stroke-width="0.22" points="483.33,-653.49 489.73,-645.05 479.46,-647.66 483.33,-653.49"/>
<text text-anchor="middle" x="479.41" y="-666.8" font-family="Times New Roman,serif" font-size="14.00">1066</text>
</g>
<!-- Delete Purchase Order Item -->
<g id="node10" class="node">
<title>Delete Purchase Order Item</title>
<polygon fill="#f3f3f3" stroke="black" points="193.91,-556 22.91,-556 22.91,-518 193.91,-518 193.91,-556"/>
<text text-anchor="middle" x="108.41" y="-540.8" font-family="Times New Roman,serif" font-size="14.00">Delete Purchase Order Item</text>
<text text-anchor="middle" x="108.41" y="-525.8" font-family="Times New Roman,serif" font-size="14.00">count: 3834</text>
</g>
<!-- Create Purchase Order Item&#45;&gt;Delete Purchase Order Item -->
<g id="edge15" class="edge">
<title>Create Purchase Order Item&#45;&gt;Delete Purchase Order Item</title>
<path fill="none" stroke="black" stroke-width="0.49" d="M337.87,-708.3C275.88,-703.01 198.59,-693.54 170.41,-678 130.4,-655.93 116.17,-600.38 111.14,-566.26"/>
<polygon fill="black" stroke="black" stroke-width="0.49" points="114.56,-565.47 109.8,-556 107.62,-566.37 114.56,-565.47"/>
<text text-anchor="middle" x="150.41" y="-622.3" font-family="Times New Roman,serif" font-size="14.00">3364</text>
</g>
<!-- endevent -->
<g id="node12" class="node">
<title>endevent</title>
<ellipse fill="red" stroke="black" cx="158.41" cy="-18" rx="18" ry="18"/>
</g>
<!-- Create Purchase Order Item&#45;&gt;endevent -->
<g id="edge10" class="edge">
<title>Create Purchase Order Item&#45;&gt;endevent</title>
<path fill="none" stroke="black" d="M511.04,-705.59C571.05,-699 645.21,-689.1 674.41,-678 760.63,-645.23 769.41,-585.73 769.41,-493.5 769.41,-493.5 769.41,-493.5 769.41,-91 769.41,-31.57 307.64,-21.06 186.98,-19.32"/>
<polygon fill="black" stroke="black" points="186.75,-15.82 176.7,-19.18 186.65,-22.82 186.75,-15.82"/>
</g>
<!-- Receive Order Confirmation&#45;&gt;Create Purchase Order Item -->
<g id="edge19" class="edge">
<title>Receive Order Confirmation&#45;&gt;Create Purchase Order Item</title>
<path fill="none" stroke="black" stroke-width="0.14" d="M307.04,-645.15C311.81,-655.97 319.2,-669.26 329.41,-678 335.35,-683.08 342.07,-687.48 349.14,-691.28"/>
<polygon fill="black" stroke="black" stroke-width="0.14" points="347.72,-694.49 358.23,-695.79 350.83,-688.21 347.72,-694.49"/>
<text text-anchor="middle" x="339.91" y="-666.8" font-family="Times New Roman,serif" font-size="14.00">368</text>
</g>
<!-- Receive Order Confirmation&#45;&gt;Record Goods Receipt -->
<g id="edge13" class="edge">
<title>Receive Order Confirmation&#45;&gt;Record Goods Receipt</title>
<path fill="none" stroke="black" stroke-width="0.54" d="M319.68,-606.97C333.27,-594.26 351.66,-577.06 366.67,-563.02"/>
<polygon fill="black" stroke="black" stroke-width="0.54" points="369.26,-565.39 374.17,-556 364.47,-560.28 369.26,-565.39"/>
<text text-anchor="middle" x="367.41" y="-577.8" font-family="Times New Roman,serif" font-size="14.00">3795</text>
</g>
<!-- Receive Order Confirmation&#45;&gt;Vendor creates invoice -->
<g id="edge14" class="edge">
<title>Receive Order Confirmation&#45;&gt;Vendor creates invoice</title>
<path fill="none" stroke="black" stroke-width="0.4" d="M289.77,-606.75C277.89,-583.72 262.77,-544 282.41,-518 302.02,-492.05 380.47,-473.01 443,-461.58"/>
<polygon fill="black" stroke="black" stroke-width="0.4" points="443.66,-465.02 452.89,-459.81 442.43,-458.13 443.66,-465.02"/>
<text text-anchor="middle" x="296.41" y="-533.3" font-family="Times New Roman,serif" font-size="14.00">2584</text>
</g>
<!-- Receive Order Confirmation&#45;&gt;Delete Purchase Order Item -->
<g id="edge37" class="edge">
<title>Receive Order Confirmation&#45;&gt;Delete Purchase Order Item</title>
<path fill="none" stroke="black" stroke-width="0.15" d="M260.63,-606.97C230.64,-593.38 189.35,-574.67 157.33,-560.17"/>
<polygon fill="black" stroke="black" stroke-width="0.15" points="158.7,-556.94 148.14,-556 155.81,-563.32 158.7,-556.94"/>
<text text-anchor="middle" x="226.91" y="-577.8" font-family="Times New Roman,serif" font-size="14.00">465</text>
</g>
<!-- Record Goods Receipt&#45;&gt;Record Goods Receipt -->
<g id="edge33" class="edge">
<title>Record Goods Receipt&#45;&gt;Record Goods Receipt</title>
<path fill="none" stroke="black" stroke-width="0.13" d="M467.77,-544.4C478.33,-543.21 485.41,-540.74 485.41,-537 485.41,-534.61 482.51,-532.73 477.64,-531.38"/>
<polygon fill="black" stroke="black" stroke-width="0.13" points="478.24,-527.93 467.77,-529.6 476.99,-534.82 478.24,-527.93"/>
<text text-anchor="middle" x="495.91" y="-533.3" font-family="Times New Roman,serif" font-size="14.00">283</text>
</g>
<!-- Record Goods Receipt&#45;&gt;Vendor creates invoice -->
<g id="edge35" class="edge">
<title>Record Goods Receipt&#45;&gt;Vendor creates invoice</title>
<path fill="none" stroke="black" stroke-width="2.17" d="M442.74,-517.99C453.92,-512.93 465.44,-506.89 475.41,-500 485.67,-492.91 495.58,-483.53 503.84,-474.74"/>
<polygon fill="black" stroke="black" stroke-width="2.17" points="506.51,-477 510.64,-467.24 501.33,-472.3 506.51,-477"/>
<text text-anchor="middle" x="510.41" y="-488.8" font-family="Times New Roman,serif" font-size="14.00">17949</text>
</g>
<!-- Record Invoice Receipt -->
<g id="node5" class="node">
<title>Record Invoice Receipt</title>
<polygon fill="#7d7d7d" stroke="black" points="434.41,-289 284.41,-289 284.41,-251 434.41,-251 434.41,-289"/>
<text text-anchor="middle" x="359.41" y="-273.8" font-family="Times New Roman,serif" font-size="14.00">Record Invoice Receipt</text>
<text text-anchor="middle" x="359.41" y="-258.8" font-family="Times New Roman,serif" font-size="14.00">count: 53326</text>
</g>
<!-- Record Goods Receipt&#45;&gt;Record Invoice Receipt -->
<g id="edge38" class="edge">
<title>Record Goods Receipt&#45;&gt;Record Invoice Receipt</title>
<path fill="none" stroke="black" stroke-width="3.62" d="M391.08,-517.79C385.25,-472.4 370.06,-354.01 363.05,-299.38"/>
<polygon fill="black" stroke="black" stroke-width="3.62" points="366.51,-298.82 361.77,-289.34 359.57,-299.71 366.51,-298.82"/>
<text text-anchor="middle" x="394.41" y="-399.8" font-family="Times New Roman,serif" font-size="14.00">30522</text>
</g>
<!-- Clear Invoice -->
<g id="node6" class="node">
<title>Clear Invoice</title>
<polygon fill="#7d7d7d" stroke="black" points="281.91,-111 190.91,-111 190.91,-73 281.91,-73 281.91,-111"/>
<text text-anchor="middle" x="236.41" y="-95.8" font-family="Times New Roman,serif" font-size="14.00">Clear Invoice</text>
<text text-anchor="middle" x="236.41" y="-80.8" font-family="Times New Roman,serif" font-size="14.00">count: 53326</text>
</g>
<!-- Record Goods Receipt&#45;&gt;Clear Invoice -->
<g id="edge20" class="edge">
<title>Record Goods Receipt&#45;&gt;Clear Invoice</title>
<path fill="none" stroke="black" stroke-width="0.1" d="M324.51,-517.89C314.35,-513.19 304.57,-507.32 296.41,-500 251.29,-459.52 249.34,-437 235.41,-378 231.53,-361.56 234.93,-356.88 235.41,-340 237.67,-260.84 247,-241.11 243.41,-162 242.81,-148.6 241.4,-133.8 240.01,-121.36"/>
<polygon fill="black" stroke="black" stroke-width="0.1" points="243.45,-120.64 238.81,-111.12 236.5,-121.46 243.45,-120.64"/>
<text text-anchor="middle" x="240.91" y="-310.8" font-family="Times New Roman,serif" font-size="14.00">1</text>
</g>
<!-- Record Goods Receipt&#45;&gt;Change Quantity -->
<g id="edge34" class="edge">
<title>Record Goods Receipt&#45;&gt;Change Quantity</title>
<path fill="none" stroke="black" stroke-width="0.1" d="M339.39,-517.96C329.7,-513.13 320.22,-507.2 312.41,-500 300.13,-488.68 298.54,-483.19 294.41,-467 287.74,-440.83 290.25,-409.91 293.67,-388.06"/>
<polygon fill="black" stroke="black" stroke-width="0.1" points="297.13,-388.57 295.38,-378.12 290.23,-387.38 297.13,-388.57"/>
<text text-anchor="middle" x="297.91" y="-444.3" font-family="Times New Roman,serif" font-size="14.00">7</text>
</g>
<!-- Remove Payment Block -->
<g id="node8" class="node">
<title>Remove Payment Block</title>
<polygon fill="#e2e2e2" stroke="black" points="234.41,-200 82.41,-200 82.41,-162 234.41,-162 234.41,-200"/>
<text text-anchor="middle" x="158.41" y="-184.8" font-family="Times New Roman,serif" font-size="14.00">Remove Payment Block</text>
<text text-anchor="middle" x="158.41" y="-169.8" font-family="Times New Roman,serif" font-size="14.00">count: 10850</text>
</g>
<!-- Record Goods Receipt&#45;&gt;Remove Payment Block -->
<g id="edge39" class="edge">
<title>Record Goods Receipt&#45;&gt;Remove Payment Block</title>
<path fill="none" stroke="black" stroke-width="0.66" d="M319.03,-518.79C317.48,-518.52 315.94,-518.25 314.41,-518 224.14,-502.99 120.41,-540.51 120.41,-449 120.41,-449 120.41,-449 120.41,-269 120.41,-247.44 130.33,-225.21 140.03,-208.61"/>
<polygon fill="black" stroke="black" stroke-width="0.66" points="143.07,-210.36 145.34,-200.01 137.11,-206.69 143.07,-210.36"/>
<text text-anchor="middle" x="134.41" y="-355.3" font-family="Times New Roman,serif" font-size="14.00">4847</text>
</g>
<!-- Record Goods Receipt&#45;&gt;endevent -->
<g id="edge8" class="edge">
<title>Record Goods Receipt&#45;&gt;endevent</title>
<path fill="none" stroke="black" d="M319.04,-518.77C317.48,-518.5 315.94,-518.25 314.41,-518 231.54,-504.65 205.09,-529.24 126.41,-500 89.66,-486.34 54.41,-488.21 54.41,-449 54.41,-449 54.41,-449 54.41,-91 54.41,-53.71 100.17,-34.21 130.98,-25.31"/>
<polygon fill="black" stroke="black" points="132.02,-28.65 140.77,-22.68 130.21,-21.89 132.02,-28.65"/>
</g>
<!-- Vendor creates invoice&#45;&gt;Create Purchase Order Item -->
<g id="edge27" class="edge">
<title>Vendor creates invoice&#45;&gt;Create Purchase Order Item</title>
<path fill="none" stroke="black" stroke-width="0.2" d="M583.26,-467.14C591.61,-471.85 599.4,-477.72 605.41,-485 660.02,-551.19 670.68,-616.92 610.41,-678 597.34,-691.24 559.5,-699.81 521.33,-705.25"/>
<polygon fill="black" stroke="black" stroke-width="0.2" points="520.54,-701.83 511.1,-706.64 521.48,-708.76 520.54,-701.83"/>
<text text-anchor="middle" x="660.91" y="-577.8" font-family="Times New Roman,serif" font-size="14.00">827</text>
</g>
<!-- Vendor creates invoice&#45;&gt;Record Goods Receipt -->
<g id="edge22" class="edge">
<title>Vendor creates invoice&#45;&gt;Record Goods Receipt</title>
<path fill="none" stroke="black" stroke-width="3.5" d="M473.88,-467.12C462.71,-472.11 451.29,-478.09 441.41,-485 431.5,-491.94 422.03,-501.19 414.17,-509.91"/>
<polygon fill="black" stroke="black" stroke-width="3.5" points="411.34,-507.83 407.44,-517.68 416.63,-512.42 411.34,-507.83"/>
<text text-anchor="middle" x="458.41" y="-488.8" font-family="Times New Roman,serif" font-size="14.00">29436</text>
</g>
<!-- Vendor creates invoice&#45;&gt;Record Invoice Receipt -->
<g id="edge26" class="edge">
<title>Vendor creates invoice&#45;&gt;Record Invoice Receipt</title>
<path fill="none" stroke="black" stroke-width="2.73" d="M527.38,-428.83C529.52,-399.22 529.09,-340.49 497.41,-307 483.44,-292.23 464.23,-283.23 444.58,-277.82"/>
<polygon fill="black" stroke="black" stroke-width="2.73" points="445.15,-274.35 434.61,-275.37 443.49,-281.15 445.15,-274.35"/>
<text text-anchor="middle" x="542.41" y="-355.3" font-family="Times New Roman,serif" font-size="14.00">22799</text>
</g>
<!-- Vendor creates invoice&#45;&gt;Change Quantity -->
<g id="edge23" class="edge">
<title>Vendor creates invoice&#45;&gt;Change Quantity</title>
<path fill="none" stroke="black" stroke-width="0.13" d="M478.4,-428.84C465.85,-423.52 452.44,-417.4 440.41,-411 429.64,-405.26 428.47,-401.17 417.41,-396 400.71,-388.2 381.9,-381.57 364.29,-376.22"/>
<polygon fill="black" stroke="black" stroke-width="0.13" points="365.24,-372.85 354.65,-373.37 363.25,-379.56 365.24,-372.85"/>
<text text-anchor="middle" x="450.91" y="-399.8" font-family="Times New Roman,serif" font-size="14.00">264</text>
</g>
<!-- Record Invoice Receipt&#45;&gt;Record Goods Receipt -->
<g id="edge32" class="edge">
<title>Record Invoice Receipt&#45;&gt;Record Goods Receipt</title>
<path fill="none" stroke="black" stroke-width="0.66" d="M382.11,-289.3C407.45,-311.41 446.82,-351.27 461.41,-396 463.48,-402.34 463.88,-404.8 461.41,-411 457.35,-421.23 450.63,-419.92 444.41,-429 427.26,-454.02 412.95,-485.71 403.9,-508.09"/>
<polygon fill="black" stroke="black" stroke-width="0.66" points="400.54,-507.07 400.12,-517.66 407.05,-509.64 400.54,-507.07"/>
<text text-anchor="middle" x="476.41" y="-399.8" font-family="Times New Roman,serif" font-size="14.00">4848</text>
</g>
<!-- Record Invoice Receipt&#45;&gt;Clear Invoice -->
<g id="edge17" class="edge">
<title>Record Invoice Receipt&#45;&gt;Clear Invoice</title>
<path fill="none" stroke="black" stroke-width="5" d="M350.79,-250.64C337.21,-222.75 309.01,-168.77 276.41,-129 273.39,-125.31 269.98,-121.66 266.46,-118.18"/>
<polygon fill="black" stroke="black" stroke-width="5" points="269.45,-114.98 259.17,-111.32 263.45,-121.36 269.45,-114.98"/>
<text text-anchor="middle" x="340.41" y="-177.3" font-family="Times New Roman,serif" font-size="14.00">42475</text>
</g>
<!-- Record Invoice Receipt&#45;&gt;Remove Payment Block -->
<g id="edge36" class="edge">
<title>Record Invoice Receipt&#45;&gt;Remove Payment Block</title>
<path fill="none" stroke="black" stroke-width="0.79" d="M317.77,-250.97C286.23,-237.33 242.77,-218.51 209.2,-203.98"/>
<polygon fill="black" stroke="black" stroke-width="0.79" points="210.57,-200.76 200.01,-200 207.79,-207.19 210.57,-200.76"/>
<text text-anchor="middle" x="285.41" y="-221.8" font-family="Times New Roman,serif" font-size="14.00">6003</text>
</g>
<!-- Clear Invoice&#45;&gt;endevent -->
<g id="edge7" class="edge">
<title>Clear Invoice&#45;&gt;endevent</title>
<path fill="none" stroke="black" d="M216.73,-72.83C205.14,-62.14 190.51,-48.63 178.8,-37.82"/>
<polygon fill="black" stroke="black" points="180.96,-35.05 171.24,-30.84 176.21,-40.19 180.96,-35.05"/>
</g>
<!-- Change Quantity&#45;&gt;Create Purchase Order Item -->
<g id="edge12" class="edge">
<title>Change Quantity&#45;&gt;Create Purchase Order Item</title>
<path fill="none" stroke="black" stroke-width="0.1" d="M292.08,-378.32C270.02,-433.49 205.66,-595.02 203.41,-607 200.3,-623.6 193.41,-631.39 203.41,-645 232.03,-683.92 282.49,-701.5 327.97,-709.2"/>
<polygon fill="black" stroke="black" stroke-width="0.1" points="327.47,-712.67 337.89,-710.75 328.54,-705.75 327.47,-712.67"/>
<text text-anchor="middle" x="239.91" y="-533.3" font-family="Times New Roman,serif" font-size="14.00">7</text>
</g>
<!-- Change Quantity&#45;&gt;Record Goods Receipt -->
<g id="edge41" class="edge">
<title>Change Quantity&#45;&gt;Record Goods Receipt</title>
<path fill="none" stroke="black" stroke-width="0.23" d="M304.59,-378.12C311.23,-399.99 323.89,-437.49 340.41,-467 348.95,-482.24 360.59,-497.8 370.79,-510.27"/>
<polygon fill="black" stroke="black" stroke-width="0.23" points="368.14,-512.56 377.24,-517.99 373.51,-508.07 368.14,-512.56"/>
<text text-anchor="middle" x="354.41" y="-444.3" font-family="Times New Roman,serif" font-size="14.00">1133</text>
</g>
<!-- Change Quantity&#45;&gt;Vendor creates invoice -->
<g id="edge42" class="edge">
<title>Change Quantity&#45;&gt;Vendor creates invoice</title>
<path fill="none" stroke="black" stroke-width="0.17" d="M309.09,-378.1C316.04,-389.33 326.45,-403.08 339.41,-411 370.06,-429.73 408.41,-439.03 442.31,-443.54"/>
<polygon fill="black" stroke="black" stroke-width="0.17" points="442.33,-447.06 452.67,-444.79 443.17,-440.11 442.33,-447.06"/>
<text text-anchor="middle" x="349.91" y="-399.8" font-family="Times New Roman,serif" font-size="14.00">572</text>
</g>
<!-- Change Quantity&#45;&gt;Record Invoice Receipt -->
<g id="edge11" class="edge">
<title>Change Quantity&#45;&gt;Record Invoice Receipt</title>
<path fill="none" stroke="black" stroke-width="0.1" d="M311.85,-339.97C320.29,-327.73 331.61,-311.32 341.08,-297.58"/>
<polygon fill="black" stroke="black" stroke-width="0.1" points="344.2,-299.22 347,-289 338.44,-295.25 344.2,-299.22"/>
<text text-anchor="middle" x="336.91" y="-310.8" font-family="Times New Roman,serif" font-size="14.00">5</text>
</g>
<!-- Remove Payment Block&#45;&gt;Clear Invoice -->
<g id="edge31" class="edge">
<title>Remove Payment Block&#45;&gt;Clear Invoice</title>
<path fill="none" stroke="black" stroke-width="1.35" d="M174.57,-161.97C185.77,-149.49 200.83,-132.69 213.29,-118.79"/>
<polygon fill="black" stroke="black" stroke-width="1.35" points="216.2,-120.79 220.27,-111 210.99,-116.11 216.2,-120.79"/>
<text text-anchor="middle" x="219.41" y="-132.8" font-family="Times New Roman,serif" font-size="14.00">10850</text>
</g>
<!-- Change Price&#45;&gt;Create Purchase Order Item -->
<g id="edge25" class="edge">
<title>Change Price&#45;&gt;Create Purchase Order Item</title>
<path fill="none" stroke="black" stroke-width="0.1" d="M515.18,-645.22C510.27,-655.8 502.94,-668.81 493.41,-678 488.58,-682.66 483.02,-686.87 477.2,-690.63"/>
<polygon fill="black" stroke="black" stroke-width="0.1" points="475.32,-687.67 468.54,-695.81 478.92,-693.68 475.32,-687.67"/>
<text text-anchor="middle" x="512.41" y="-666.8" font-family="Times New Roman,serif" font-size="14.00">21</text>
</g>
<!-- Change Price&#45;&gt;Record Goods Receipt -->
<g id="edge18" class="edge">
<title>Change Price&#45;&gt;Record Goods Receipt</title>
<path fill="none" stroke="black" stroke-width="0.13" d="M495.68,-606.97C476.23,-593.85 449.69,-575.95 428.52,-561.68"/>
<polygon fill="black" stroke="black" stroke-width="0.13" points="430.36,-558.69 420.11,-556 426.44,-564.5 430.36,-558.69"/>
<text text-anchor="middle" x="475.91" y="-577.8" font-family="Times New Roman,serif" font-size="14.00">254</text>
</g>
<!-- Change Price&#45;&gt;Vendor creates invoice -->
<g id="edge21" class="edge">
<title>Change Price&#45;&gt;Vendor creates invoice</title>
<path fill="none" stroke="black" stroke-width="0.19" d="M525.28,-606.86C529.11,-580.16 535.03,-528.69 531.41,-485 531.2,-482.46 530.91,-479.83 530.57,-477.19"/>
<polygon fill="black" stroke="black" stroke-width="0.19" points="534.02,-476.6 529.05,-467.24 527.1,-477.65 534.02,-476.6"/>
<text text-anchor="middle" x="542.91" y="-533.3" font-family="Times New Roman,serif" font-size="14.00">812</text>
</g>
<!-- Delete Purchase Order Item&#45;&gt;Create Purchase Order Item -->
<g id="edge24" class="edge">
<title>Delete Purchase Order Item&#45;&gt;Create Purchase Order Item</title>
<path fill="none" stroke="black" stroke-width="0.1" d="M104.34,-556.1C100.3,-578.28 96.53,-616.42 110.41,-645 120.33,-665.42 128.65,-668.82 149.41,-678 180.62,-691.79 261.56,-701.35 327.6,-707.13"/>
<polygon fill="black" stroke="black" stroke-width="0.1" points="327.38,-710.62 337.64,-707.99 327.98,-703.65 327.38,-710.62"/>
<text text-anchor="middle" x="113.91" y="-622.3" font-family="Times New Roman,serif" font-size="14.00">5</text>
</g>
<!-- Delete Purchase Order Item&#45;&gt;endevent -->
<g id="edge9" class="edge">
<title>Delete Purchase Order Item&#45;&gt;endevent</title>
<path fill="none" stroke="black" d="M61.89,-517.99C34.2,-503.9 4.41,-481.25 4.41,-449 4.41,-449 4.41,-449 4.41,-91 4.41,-36.06 85.84,-22.95 130.28,-19.89"/>
<polygon fill="black" stroke="black" points="130.66,-23.37 140.45,-19.31 130.27,-16.38 130.66,-23.37"/>
</g>
<!-- startevent -->
<g id="node11" class="node">
<title>startevent</title>
<ellipse fill="green" stroke="black" cx="267.41" cy="-789" rx="18" ry="18"/>
</g>
<!-- startevent&#45;&gt;Create Purchase Order Item -->
<g id="edge1" class="edge">
<title>startevent&#45;&gt;Create Purchase Order Item</title>
<path fill="none" stroke="black" d="M283.62,-780.57C305.23,-770.66 344.41,-752.69 375.96,-738.22"/>
<polygon fill="black" stroke="black" points="377.42,-741.4 385.05,-734.05 374.5,-735.04 377.42,-741.4"/>
</g>
<!-- startevent&#45;&gt;Receive Order Confirmation -->
<g id="edge6" class="edge">
<title>startevent&#45;&gt;Receive Order Confirmation</title>
<path fill="none" stroke="black" d="M270.88,-771.07C276.53,-743.54 287.76,-688.75 294.62,-655.24"/>
<polygon fill="black" stroke="black" points="298.11,-655.67 296.69,-645.17 291.25,-654.26 298.11,-655.67"/>
</g>
<!-- startevent&#45;&gt;Vendor creates invoice -->
<g id="edge2" class="edge">
<title>startevent&#45;&gt;Vendor creates invoice</title>
<path fill="none" stroke="black" d="M285.38,-787.02C325.55,-784.48 425.38,-776.17 505.41,-753 584.35,-730.14 629.23,-746.64 674.41,-678 723.13,-603.99 696.69,-536.26 624.41,-485 616.96,-479.72 608.65,-475.12 600.1,-471.15"/>
<polygon fill="black" stroke="black" points="601.32,-467.87 590.76,-467.09 598.53,-474.29 601.32,-467.87"/>
</g>
<!-- startevent&#45;&gt;Change Quantity -->
<g id="edge3" class="edge">
<title>startevent&#45;&gt;Change Quantity</title>
<path fill="none" stroke="black" d="M250.87,-781.3C184.04,-753.22 -59.02,-640.77 13.41,-518 60.87,-437.56 165.59,-395.23 234.28,-375.27"/>
<polygon fill="black" stroke="black" points="235.47,-378.57 244.15,-372.48 233.57,-371.83 235.47,-378.57"/>
</g>
<!-- startevent&#45;&gt;Change Price -->
<g id="edge4" class="edge">
<title>startevent&#45;&gt;Change Price</title>
<path fill="none" stroke="black" d="M285.64,-786.89C338.44,-783.29 489.71,-769.94 520.41,-734 538.71,-712.59 536.04,-679.02 530.82,-655.2"/>
<polygon fill="black" stroke="black" points="534.18,-654.21 528.39,-645.34 527.38,-655.88 534.18,-654.21"/>
</g>
<!-- startevent&#45;&gt;Delete Purchase Order Item -->
<g id="edge5" class="edge">
<title>startevent&#45;&gt;Delete Purchase Order Item</title>
<path fill="none" stroke="black" d="M250.93,-781.55C212.78,-765.49 119.99,-719.56 97.41,-645 88.27,-614.8 92.75,-605.21 97.41,-574 97.82,-571.31 98.38,-568.53 99.04,-565.78"/>
<polygon fill="black" stroke="black" points="102.43,-566.64 101.75,-556.07 95.69,-564.76 102.43,-566.64"/>
</g>
</g>
</svg>
