<?xml version="1.0" encoding="UTF-8" standalone="no"?>
<!DOCTYPE svg PUBLIC "-//W3C//DTD SVG 1.1//EN"
 "http://www.w3.org/Graphics/SVG/1.1/DTD/svg11.dtd">
<!-- Generated by graphviz version 5.0.0 (20220707.1540)
 -->
<!-- Title: graph3 Pages: 1 -->
<svg width="933pt" height="764pt"
 viewBox="0.00 0.00 932.50 764.00" xmlns="http://www.w3.org/2000/svg" xmlns:xlink="http://www.w3.org/1999/xlink">
<g id="graph0" class="graph" transform="scale(1 1) rotate(0) translate(4 760)">
<title>graph3</title>
<polygon fill="white" stroke="transparent" points="-4,4 -4,-760 928.5,-760 928.5,4 -4,4"/>
<!-- Create Purchase Order Item -->
<g id="node1" class="node">
<title>Create Purchase Order Item</title>
<image xlink:href="1.png" width="208px" height="36px" preserveAspectRatio="xMinYMin meet" x="25" y="-468"/>
<text text-anchor="middle" x="129" y="-453.4" font-family="Times New Roman,serif" font-size="12.00" fill="#2d137d">Create Purchase Order Item</text>
<text text-anchor="start" x="33" y="-440.4" font-family="Times New Roman,serif" font-size="12.00" fill="#2d137d"> &#160;&#160;&#160;&#160;&#160;&#160;&#160;&#160;&#160;&#160;&#160;&#160;63797</text>
</g>
<!-- endevent -->
<g id="node12" class="node">
<title>endevent</title>
</g>
<!-- Create Purchase Order Item&#45;&gt;endevent -->
<g id="edge8" class="edge">
<title>Create Purchase Order Item&#45;&gt;endevent</title>
<path fill="none" stroke="#2d137d" d="M153.82,-431.98C185.43,-408.07 236,-361.33 236,-307 236,-307 236,-307 236,-161 236,-120.86 243.55,-74.9 249.13,-46.4"/>
<polygon fill="#2d137d" stroke="#2d137d" points="252.61,-46.88 251.16,-36.39 245.74,-45.5 252.61,-46.88"/>
</g>
<!-- Receive Order Confirmation -->
<g id="node2" class="node">
<title>Receive Order Confirmation</title>
<image xlink:href="1.png" width="208px" height="36px" preserveAspectRatio="xMinYMin meet" x="429" y="-684"/>
<text text-anchor="middle" x="533" y="-669.4" font-family="Times New Roman,serif" font-size="12.00" fill="#2d137d">Receive Order Confirmation</text>
<text text-anchor="start" x="437" y="-656.4" font-family="Times New Roman,serif" font-size="12.00" fill="#2d137d"> &#160;&#160;&#160;&#160;&#160;&#160;&#160;&#160;&#160;&#160;&#160;&#160;7212</text>
</g>
<!-- Change Price,Receive Order Confirmation &#45;&gt; Vendor creates invoice,Delete Purchase Order Item -->
<g id="node18" class="node">
<title>Change Price,Receive Order Confirmation &#45;&gt; Vendor creates invoice,Delete Purchase Order Item</title>
<image xlink:href="1.png" width="275px" height="36px" preserveAspectRatio="xMinYMin meet" x="282.5" y="-612"/>
<text text-anchor="middle" x="420" y="-597.4" font-family="Times New Roman,serif" font-size="12.00" fill="#2d137d">Change Price,Receive Order Confirmation &#45;&gt; Vendor creates invoice,Delete Purchase Order Item</text>
<text text-anchor="start" x="197.5" y="-584.4" font-family="Times New Roman,serif" font-size="12.00" fill="#2d137d"> &#160;&#160;&#160;&#160;&#160;&#160;&#160;&#160;&#160;&#160;&#160;&#160;None</text>
</g>
<!-- Receive Order Confirmation&#45;&gt;Change Price,Receive Order Confirmation &#45;&gt; Vendor creates invoice,Delete Purchase Order Item -->
<g id="edge22" class="edge">
<title>Receive Order Confirmation&#45;&gt;Change Price,Receive Order Confirmation &#45;&gt; Vendor creates invoice,Delete Purchase Order Item</title>
<path fill="none" stroke="#2d137d" d="M505.36,-647.88C490.58,-638.72 472.21,-627.34 456.3,-617.48"/>
<polygon fill="#2d137d" stroke="#2d137d" points="458.09,-614.48 447.75,-612.19 454.41,-620.43 458.09,-614.48"/>
</g>
<!-- Record Goods Receipt -->
<g id="node3" class="node">
<title>Record Goods Receipt</title>
<image xlink:href="1.png" width="208px" height="36px" preserveAspectRatio="xMinYMin meet" x="0" y="-108"/>
<text text-anchor="middle" x="104" y="-93.4" font-family="Times New Roman,serif" font-size="12.00" fill="#2d137d">Record Goods Receipt</text>
<text text-anchor="start" x="8" y="-80.4" font-family="Times New Roman,serif" font-size="12.00" fill="#2d137d"> &#160;&#160;&#160;&#160;&#160;&#160;&#160;&#160;&#160;&#160;&#160;&#160;60246</text>
</g>
<!-- Record Goods Receipt&#45;&gt;endevent -->
<g id="edge10" class="edge">
<title>Record Goods Receipt&#45;&gt;endevent</title>
<path fill="none" stroke="#2d137d" d="M140.94,-71.88C164.57,-60.92 195.1,-46.77 218.63,-35.86"/>
<polygon fill="#2d137d" stroke="#2d137d" points="220.31,-38.94 227.91,-31.56 217.37,-32.59 220.31,-38.94"/>
</g>
<!-- Vendor creates invoice -->
<g id="node4" class="node">
<title>Vendor creates invoice</title>
<image xlink:href="1.png" width="208px" height="36px" preserveAspectRatio="xMinYMin meet" x="554" y="-540"/>
<text text-anchor="middle" x="658" y="-525.4" font-family="Times New Roman,serif" font-size="12.00" fill="#2d137d">Vendor creates invoice</text>
<text text-anchor="start" x="562" y="-512.4" font-family="Times New Roman,serif" font-size="12.00" fill="#2d137d"> &#160;&#160;&#160;&#160;&#160;&#160;&#160;&#160;&#160;&#160;&#160;&#160;53326</text>
</g>
<!-- Vendor creates invoice &#45;&gt; Record Invoice Receipt -->
<g id="node16" class="node">
<title>Vendor creates invoice &#45;&gt; Record Invoice Receipt</title>
<image xlink:href="1.png" width="245px" height="36px" preserveAspectRatio="xMinYMin meet" x="535.5" y="-468"/>
<text text-anchor="middle" x="658" y="-453.4" font-family="Times New Roman,serif" font-size="12.00" fill="#2d137d">Vendor creates invoice &#45;&gt; Record Invoice Receipt</text>
<text text-anchor="start" x="543.5" y="-440.4" font-family="Times New Roman,serif" font-size="12.00" fill="#2d137d"> &#160;&#160;&#160;&#160;&#160;&#160;&#160;&#160;&#160;&#160;&#160;&#160;None</text>
</g>
<!-- Vendor creates invoice&#45;&gt;Vendor creates invoice &#45;&gt; Record Invoice Receipt -->
<g id="edge17" class="edge">
<title>Vendor creates invoice&#45;&gt;Vendor creates invoice &#45;&gt; Record Invoice Receipt</title>
<path fill="none" stroke="#2d137d" d="M658,-503.7C658,-495.98 658,-486.71 658,-478.11"/>
<polygon fill="#2d137d" stroke="#2d137d" points="661.5,-478.1 658,-468.1 654.5,-478.1 661.5,-478.1"/>
</g>
<!-- Record Invoice Receipt -->
<g id="node5" class="node">
<title>Record Invoice Receipt</title>
<image xlink:href="1.png" width="208px" height="36px" preserveAspectRatio="xMinYMin meet" x="554" y="-396"/>
<text text-anchor="middle" x="658" y="-381.4" font-family="Times New Roman,serif" font-size="12.00" fill="#2d137d">Record Invoice Receipt</text>
<text text-anchor="start" x="562" y="-368.4" font-family="Times New Roman,serif" font-size="12.00" fill="#2d137d"> &#160;&#160;&#160;&#160;&#160;&#160;&#160;&#160;&#160;&#160;&#160;&#160;53326</text>
</g>
<!-- Record Invoice Receipt &#45;&gt; Clear Invoice -->
<g id="node13" class="node">
<title>Record Invoice Receipt &#45;&gt; Clear Invoice</title>
<image xlink:href="1.png" width="208px" height="36px" preserveAspectRatio="xMinYMin meet" x="328" y="-252"/>
<text text-anchor="middle" x="432" y="-237.4" font-family="Times New Roman,serif" font-size="12.00" fill="#2d137d">Record Invoice Receipt &#45;&gt; Clear Invoice</text>
<text text-anchor="start" x="336" y="-224.4" font-family="Times New Roman,serif" font-size="12.00" fill="#2d137d"> &#160;&#160;&#160;&#160;&#160;&#160;&#160;&#160;&#160;&#160;&#160;&#160;None</text>
</g>
<!-- Record Invoice Receipt&#45;&gt;Record Invoice Receipt &#45;&gt; Clear Invoice -->
<g id="edge11" class="edge">
<title>Record Invoice Receipt&#45;&gt;Record Invoice Receipt &#45;&gt; Clear Invoice</title>
<path fill="none" stroke="#2d137d" d="M600.86,-359.97C576.14,-351.23 547.55,-339.18 524,-324 496.42,-306.22 470.05,-279.34 452.67,-259.77"/>
<polygon fill="#2d137d" stroke="#2d137d" points="455.23,-257.38 446.02,-252.15 449.95,-261.98 455.23,-257.38"/>
</g>
<!-- Record Invoice Receipt &#45;&gt; Remove Payment Block -->
<g id="node17" class="node">
<title>Record Invoice Receipt &#45;&gt; Remove Payment Block</title>
<image xlink:href="1.png" width="251px" height="36px" preserveAspectRatio="xMinYMin meet" x="532.5" y="-324"/>
<text text-anchor="middle" x="658" y="-309.4" font-family="Times New Roman,serif" font-size="12.00" fill="#2d137d">Record Invoice Receipt &#45;&gt; Remove Payment Block</text>
<text text-anchor="start" x="540.5" y="-296.4" font-family="Times New Roman,serif" font-size="12.00" fill="#2d137d"> &#160;&#160;&#160;&#160;&#160;&#160;&#160;&#160;&#160;&#160;&#160;&#160;None</text>
</g>
<!-- Record Invoice Receipt&#45;&gt;Record Invoice Receipt &#45;&gt; Remove Payment Block -->
<g id="edge19" class="edge">
<title>Record Invoice Receipt&#45;&gt;Record Invoice Receipt &#45;&gt; Remove Payment Block</title>
<path fill="none" stroke="#2d137d" d="M658,-359.7C658,-351.98 658,-342.71 658,-334.11"/>
<polygon fill="#2d137d" stroke="#2d137d" points="661.5,-334.1 658,-324.1 654.5,-334.1 661.5,-334.1"/>
</g>
<!-- Clear Invoice -->
<g id="node6" class="node">
<title>Clear Invoice</title>
<image xlink:href="1.png" width="208px" height="36px" preserveAspectRatio="xMinYMin meet" x="328" y="-108"/>
<text text-anchor="middle" x="432" y="-93.4" font-family="Times New Roman,serif" font-size="12.00" fill="#2d137d">Clear Invoice</text>
<text text-anchor="start" x="336" y="-80.4" font-family="Times New Roman,serif" font-size="12.00" fill="#2d137d"> &#160;&#160;&#160;&#160;&#160;&#160;&#160;&#160;&#160;&#160;&#160;&#160;53326</text>
</g>
<!-- Clear Invoice&#45;&gt;endevent -->
<g id="edge7" class="edge">
<title>Clear Invoice&#45;&gt;endevent</title>
<path fill="none" stroke="#2d137d" d="M388.7,-71.88C358.95,-60.11 319.88,-44.66 291.66,-33.5"/>
<polygon fill="#2d137d" stroke="#2d137d" points="292.75,-30.17 282.17,-29.74 290.18,-36.68 292.75,-30.17"/>
</g>
<!-- Change Quantity -->
<g id="node7" class="node">
<title>Change Quantity</title>
<image xlink:href="1.png" width="208px" height="36px" preserveAspectRatio="xMinYMin meet" x="709" y="-684"/>
<text text-anchor="middle" x="813" y="-669.4" font-family="Times New Roman,serif" font-size="12.00" fill="#2d137d">Change Quantity</text>
<text text-anchor="start" x="717" y="-656.4" font-family="Times New Roman,serif" font-size="12.00" fill="#2d137d"> &#160;&#160;&#160;&#160;&#160;&#160;&#160;&#160;&#160;&#160;&#160;&#160;1717</text>
</g>
<!-- Change Quantity &#45;&gt; Record Invoice Receipt -->
<g id="node15" class="node">
<title>Change Quantity &#45;&gt; Record Invoice Receipt</title>
<image xlink:href="1.png" width="217px" height="36px" preserveAspectRatio="xMinYMin meet" x="707.5" y="-612"/>
<text text-anchor="middle" x="816" y="-597.4" font-family="Times New Roman,serif" font-size="12.00" fill="#2d137d">Change Quantity &#45;&gt; Record Invoice Receipt</text>
<text text-anchor="start" x="715.5" y="-584.4" font-family="Times New Roman,serif" font-size="12.00" fill="#2d137d"> &#160;&#160;&#160;&#160;&#160;&#160;&#160;&#160;&#160;&#160;&#160;&#160;None</text>
</g>
<!-- Change Quantity&#45;&gt;Change Quantity &#45;&gt; Record Invoice Receipt -->
<g id="edge15" class="edge">
<title>Change Quantity&#45;&gt;Change Quantity &#45;&gt; Record Invoice Receipt</title>
<path fill="none" stroke="#2d137d" d="M813.74,-647.7C814.07,-639.98 814.47,-630.71 814.84,-622.11"/>
<polygon fill="#2d137d" stroke="#2d137d" points="818.34,-622.25 815.27,-612.1 811.34,-621.95 818.34,-622.25"/>
</g>
<!-- Remove Payment Block -->
<g id="node8" class="node">
<title>Remove Payment Block</title>
<image xlink:href="1.png" width="208px" height="36px" preserveAspectRatio="xMinYMin meet" x="554" y="-252"/>
<text text-anchor="middle" x="658" y="-237.4" font-family="Times New Roman,serif" font-size="12.00" fill="#2d137d">Remove Payment Block</text>
<text text-anchor="start" x="562" y="-224.4" font-family="Times New Roman,serif" font-size="12.00" fill="#2d137d"> &#160;&#160;&#160;&#160;&#160;&#160;&#160;&#160;&#160;&#160;&#160;&#160;10850</text>
</g>
<!-- Remove Payment Block &#45;&gt; Clear Invoice -->
<g id="node14" class="node">
<title>Remove Payment Block &#45;&gt; Clear Invoice</title>
<image xlink:href="1.png" width="208px" height="36px" preserveAspectRatio="xMinYMin meet" x="507" y="-180"/>
<text text-anchor="middle" x="611" y="-165.4" font-family="Times New Roman,serif" font-size="12.00" fill="#2d137d">Remove Payment Block &#45;&gt; Clear Invoice</text>
<text text-anchor="start" x="515" y="-152.4" font-family="Times New Roman,serif" font-size="12.00" fill="#2d137d"> &#160;&#160;&#160;&#160;&#160;&#160;&#160;&#160;&#160;&#160;&#160;&#160;None</text>
</g>
<!-- Remove Payment Block&#45;&gt;Remove Payment Block &#45;&gt; Clear Invoice -->
<g id="edge13" class="edge">
<title>Remove Payment Block&#45;&gt;Remove Payment Block &#45;&gt; Clear Invoice</title>
<path fill="none" stroke="#2d137d" d="M646.38,-215.7C640.86,-207.47 634.15,-197.48 628.07,-188.42"/>
<polygon fill="#2d137d" stroke="#2d137d" points="630.96,-186.46 622.48,-180.1 625.15,-190.36 630.96,-186.46"/>
</g>
<!-- Change Price -->
<g id="node9" class="node">
<title>Change Price</title>
<image xlink:href="1.png" width="208px" height="36px" preserveAspectRatio="xMinYMin meet" x="203" y="-684"/>
<text text-anchor="middle" x="307" y="-669.4" font-family="Times New Roman,serif" font-size="12.00" fill="#2d137d">Change Price</text>
<text text-anchor="start" x="211" y="-656.4" font-family="Times New Roman,serif" font-size="12.00" fill="#2d137d"> &#160;&#160;&#160;&#160;&#160;&#160;&#160;&#160;&#160;&#160;&#160;&#160;1087</text>
</g>
<!-- Change Price&#45;&gt;Change Price,Receive Order Confirmation &#45;&gt; Vendor creates invoice,Delete Purchase Order Item -->
<g id="edge21" class="edge">
<title>Change Price&#45;&gt;Change Price,Receive Order Confirmation &#45;&gt; Vendor creates invoice,Delete Purchase Order Item</title>
<path fill="none" stroke="#2d137d" d="M334.64,-647.88C349.42,-638.72 367.79,-627.34 383.7,-617.48"/>
<polygon fill="#2d137d" stroke="#2d137d" points="385.59,-620.43 392.25,-612.19 381.91,-614.48 385.59,-620.43"/>
</g>
<!-- Delete Purchase Order Item -->
<g id="node10" class="node">
<title>Delete Purchase Order Item</title>
<image xlink:href="1.png" width="208px" height="36px" preserveAspectRatio="xMinYMin meet" x="170" y="-540"/>
<text text-anchor="middle" x="274" y="-525.4" font-family="Times New Roman,serif" font-size="12.00" fill="#2d137d">Delete Purchase Order Item</text>
<text text-anchor="start" x="178" y="-512.4" font-family="Times New Roman,serif" font-size="12.00" fill="#2d137d"> &#160;&#160;&#160;&#160;&#160;&#160;&#160;&#160;&#160;&#160;&#160;&#160;3834</text>
</g>
<!-- Delete Purchase Order Item&#45;&gt;endevent -->
<g id="edge9" class="edge">
<title>Delete Purchase Order Item&#45;&gt;endevent</title>
<path fill="none" stroke="#2d137d" d="M274,-503.95C274,-477.29 274,-424.11 274,-379 274,-379 274,-379 274,-161 274,-120.86 266.45,-74.9 260.87,-46.4"/>
<polygon fill="#2d137d" stroke="#2d137d" points="264.26,-45.5 258.84,-36.39 257.39,-46.88 264.26,-45.5"/>
</g>
<!-- startevent -->
<g id="node11" class="node">
<title>startevent</title>
</g>
<!-- startevent&#45;&gt;Create Purchase Order Item -->
<g id="edge3" class="edge">
<title>startevent&#45;&gt;Create Purchase Order Item</title>
<path fill="none" stroke="#2d137d" d="M392.99,-735.12C334.3,-730.47 197.94,-716.36 167,-684 113.15,-627.68 118.33,-526.5 124.56,-478.16"/>
<polygon fill="#2d137d" stroke="#2d137d" points="128.04,-478.53 125.96,-468.14 121.11,-477.56 128.04,-478.53"/>
</g>
<!-- startevent&#45;&gt;Receive Order Confirmation -->
<g id="edge5" class="edge">
<title>startevent&#45;&gt;Receive Order Confirmation</title>
<path fill="none" stroke="#2d137d" d="M447.07,-720.23C461.94,-711.02 480.59,-699.47 496.71,-689.48"/>
<polygon fill="#2d137d" stroke="#2d137d" points="498.71,-692.36 505.37,-684.12 495.03,-686.41 498.71,-692.36"/>
</g>
<!-- startevent&#45;&gt;Vendor creates invoice -->
<g id="edge6" class="edge">
<title>startevent&#45;&gt;Vendor creates invoice</title>
<path fill="none" stroke="#2d137d" d="M447.32,-734.27C501.29,-728.33 618.68,-712.38 646,-684 680.23,-648.43 673.04,-585.61 665.22,-549.86"/>
<polygon fill="#2d137d" stroke="#2d137d" points="668.63,-549.05 662.93,-540.12 661.81,-550.65 668.63,-549.05"/>
</g>
<!-- startevent&#45;&gt;Change Quantity -->
<g id="edge2" class="edge">
<title>startevent&#45;&gt;Change Quantity</title>
<path fill="none" stroke="#2d137d" d="M447.01,-732.19C499.78,-722.79 619.09,-701.54 707.21,-685.84"/>
<polygon fill="#2d137d" stroke="#2d137d" points="708.02,-689.25 717.25,-684.05 706.8,-682.36 708.02,-689.25"/>
</g>
<!-- startevent&#45;&gt;Change Price -->
<g id="edge1" class="edge">
<title>startevent&#45;&gt;Change Price</title>
<path fill="none" stroke="#2d137d" d="M392.93,-720.23C378.06,-711.02 359.41,-699.47 343.29,-689.48"/>
<polygon fill="#2d137d" stroke="#2d137d" points="344.97,-686.41 334.63,-684.12 341.29,-692.36 344.97,-686.41"/>
</g>
<!-- startevent&#45;&gt;Delete Purchase Order Item -->
<g id="edge4" class="edge">
<title>startevent&#45;&gt;Delete Purchase Order Item</title>
<path fill="none" stroke="#2d137d" d="M392.64,-734.31C338.62,-728.41 221.13,-712.57 194,-684 160.71,-648.94 156.71,-617.8 181,-576 188.59,-562.94 200.73,-552.84 213.76,-545.12"/>
<polygon fill="#2d137d" stroke="#2d137d" points="215.78,-548.01 222.89,-540.16 212.43,-541.86 215.78,-548.01"/>
</g>
<!-- Record Invoice Receipt &#45;&gt; Clear Invoice&#45;&gt;Clear Invoice -->
<g id="edge12" class="edge">
<title>Record Invoice Receipt &#45;&gt; Clear Invoice&#45;&gt;Clear Invoice</title>
<path fill="none" stroke="#2d137d" d="M432,-215.87C432,-191.67 432,-147.21 432,-118.39"/>
<polygon fill="#2d137d" stroke="#2d137d" points="435.5,-118.19 432,-108.19 428.5,-118.19 435.5,-118.19"/>
</g>
<!-- Remove Payment Block &#45;&gt; Clear Invoice&#45;&gt;Clear Invoice -->
<g id="edge14" class="edge">
<title>Remove Payment Block &#45;&gt; Clear Invoice&#45;&gt;Clear Invoice</title>
<path fill="none" stroke="#2d137d" d="M567.21,-143.88C542.42,-134.18 511.22,-121.98 485.04,-111.74"/>
<polygon fill="#2d137d" stroke="#2d137d" points="486.23,-108.45 475.65,-108.07 483.68,-114.97 486.23,-108.45"/>
</g>
<!-- Change Quantity &#45;&gt; Record Invoice Receipt&#45;&gt;Record Invoice Receipt -->
<g id="edge16" class="edge">
<title>Change Quantity &#45;&gt; Record Invoice Receipt&#45;&gt;Record Invoice Receipt</title>
<path fill="none" stroke="#2d137d" d="M818.3,-575.8C821.6,-543.79 823.95,-474.46 790,-432 778.81,-418.01 763.36,-407.69 746.96,-400.08"/>
<polygon fill="#2d137d" stroke="#2d137d" points="748.34,-396.87 737.77,-396.13 745.58,-403.3 748.34,-396.87"/>
</g>
<!-- Vendor creates invoice &#45;&gt; Record Invoice Receipt&#45;&gt;Record Invoice Receipt -->
<g id="edge18" class="edge">
<title>Vendor creates invoice &#45;&gt; Record Invoice Receipt&#45;&gt;Record Invoice Receipt</title>
<path fill="none" stroke="#2d137d" d="M658,-431.7C658,-423.98 658,-414.71 658,-406.11"/>
<polygon fill="#2d137d" stroke="#2d137d" points="661.5,-406.1 658,-396.1 654.5,-406.1 661.5,-406.1"/>
</g>
<!-- Record Invoice Receipt &#45;&gt; Remove Payment Block&#45;&gt;Remove Payment Block -->
<g id="edge20" class="edge">
<title>Record Invoice Receipt &#45;&gt; Remove Payment Block&#45;&gt;Remove Payment Block</title>
<path fill="none" stroke="#2d137d" d="M658,-287.7C658,-279.98 658,-270.71 658,-262.11"/>
<polygon fill="#2d137d" stroke="#2d137d" points="661.5,-262.1 658,-252.1 654.5,-262.1 661.5,-262.1"/>
</g>
<!-- Change Price,Receive Order Confirmation &#45;&gt; Vendor creates invoice,Delete Purchase Order Item&#45;&gt;Vendor creates invoice -->
<g id="edge23" class="edge">
<title>Change Price,Receive Order Confirmation &#45;&gt; Vendor creates invoice,Delete Purchase Order Item&#45;&gt;Vendor creates invoice</title>
<path fill="none" stroke="#2d137d" d="M477.92,-575.97C511.75,-566.01 554.62,-553.41 590.04,-542.99"/>
<polygon fill="#2d137d" stroke="#2d137d" points="591.22,-546.29 599.82,-540.11 589.24,-539.57 591.22,-546.29"/>
</g>
<!-- Change Price,Receive Order Confirmation &#45;&gt; Vendor creates invoice,Delete Purchase Order Item&#45;&gt;Delete Purchase Order Item -->
<g id="edge24" class="edge">
<title>Change Price,Receive Order Confirmation &#45;&gt; Vendor creates invoice,Delete Purchase Order Item&#45;&gt;Delete Purchase Order Item</title>
<path fill="none" stroke="#2d137d" d="M384.28,-575.88C364.5,-566.39 339.73,-554.51 318.67,-544.42"/>
<polygon fill="#2d137d" stroke="#2d137d" points="320.13,-541.24 309.6,-540.07 317.1,-547.55 320.13,-541.24"/>
</g>
</g>
</svg>
