<?xml version="1.0" encoding="UTF-8" standalone="no"?>
<!DOCTYPE svg PUBLIC "-//W3C//DTD SVG 1.1//EN"
 "http://www.w3.org/Graphics/SVG/1.1/DTD/svg11.dtd">
<!-- Generated by graphviz version 8.0.5 (20230430.1635)
 -->
<!-- Title: graph3 Pages: 1 -->
<svg width="923pt" height="769pt"
 viewBox="0.00 0.00 923.12 768.50" xmlns="http://www.w3.org/2000/svg" xmlns:xlink="http://www.w3.org/1999/xlink">
<g id="graph0" class="graph" transform="scale(1 1) rotate(0) translate(4 764.5)">
<title>graph3</title>
<polygon fill="white" stroke="none" points="-4,4 -4,-764.5 919.12,-764.5 919.12,4 -4,4"/>
<!-- Create Purchase Order Item -->
<g id="node1" class="node">
<title>Create Purchase Order Item</title>
<image xlink:href="1.png" width="208px" height="36.5px" preserveAspectRatio="xMinYMin meet" x="13" y="-471"/>
<text text-anchor="middle" x="117" y="-455.6" font-family="Times New Roman,serif" font-size="12.00" fill="#2d137d">Create Purchase Order Item</text>
<text text-anchor="start" x="21" y="-441.35" font-family="Times New Roman,serif" font-size="12.00" fill="#2d137d"> &#160;&#160;&#160;&#160;&#160;&#160;&#160;&#160;&#160;&#160;&#160;&#160;63797</text>
</g>
<!-- endevent -->
<g id="node12" class="node">
<title>endevent</title>
</g>
<!-- Create Purchase Order Item&#45;&gt;endevent -->
<g id="edge8" class="edge">
<title>Create Purchase Order Item&#45;&gt;endevent</title>
<path fill="none" stroke="#2d137d" d="M145.5,-434.63C180.71,-411.08 236,-365.11 236,-308.75 236,-308.75 236,-308.75 236,-161.75 236,-121.32 243.58,-75 249.17,-46.37"/>
<polygon fill="#2d137d" stroke="#2d137d" points="252.79,-47.1 251.34,-36.61 245.93,-45.72 252.79,-47.1"/>
</g>
<!-- Receive Order Confirmation -->
<g id="node2" class="node">
<title>Receive Order Confirmation</title>
<image xlink:href="1.png" width="208px" height="36.5px" preserveAspectRatio="xMinYMin meet" x="422" y="-688.5"/>
<text text-anchor="middle" x="526" y="-673.1" font-family="Times New Roman,serif" font-size="12.00" fill="#2d137d">Receive Order Confirmation</text>
<text text-anchor="start" x="430" y="-658.85" font-family="Times New Roman,serif" font-size="12.00" fill="#2d137d"> &#160;&#160;&#160;&#160;&#160;&#160;&#160;&#160;&#160;&#160;&#160;&#160;7212</text>
</g>
<!-- Receive Order Confirmation,Change Price &#45;&gt; Vendor creates invoice,Delete Purchase Order Item -->
<g id="node18" class="node">
<title>Receive Order Confirmation,Change Price &#45;&gt; Vendor creates invoice,Delete Purchase Order Item</title>
<image xlink:href="1.png" width="275px" height="36.5px" preserveAspectRatio="xMinYMin meet" x="275.5" y="-616"/>
<text text-anchor="middle" x="413" y="-600.6" font-family="Times New Roman,serif" font-size="12.00" fill="#2d137d">Receive Order Confirmation,Change Price &#45;&gt; Vendor creates invoice,Delete Purchase Order Item</text>
<text text-anchor="start" x="191" y="-586.35" font-family="Times New Roman,serif" font-size="12.00" fill="#2d137d"> &#160;&#160;&#160;&#160;&#160;&#160;&#160;&#160;&#160;&#160;&#160;&#160;None</text>
</g>
<!-- Receive Order Confirmation&#45;&gt;Receive Order Confirmation,Change Price &#45;&gt; Vendor creates invoice,Delete Purchase Order Item -->
<g id="edge21" class="edge">
<title>Receive Order Confirmation&#45;&gt;Receive Order Confirmation,Change Price &#45;&gt; Vendor creates invoice,Delete Purchase Order Item</title>
<path fill="none" stroke="#2d137d" d="M498.36,-652C483.61,-642.8 465.28,-631.37 449.39,-621.45"/>
<polygon fill="#2d137d" stroke="#2d137d" points="451.69,-618.14 441.36,-615.82 447.99,-624.08 451.69,-618.14"/>
</g>
<!-- Record Goods Receipt -->
<g id="node3" class="node">
<title>Record Goods Receipt</title>
<image xlink:href="1.png" width="208px" height="36.5px" preserveAspectRatio="xMinYMin meet" x="0" y="-108.5"/>
<text text-anchor="middle" x="104" y="-93.1" font-family="Times New Roman,serif" font-size="12.00" fill="#2d137d">Record Goods Receipt</text>
<text text-anchor="start" x="8" y="-78.85" font-family="Times New Roman,serif" font-size="12.00" fill="#2d137d"> &#160;&#160;&#160;&#160;&#160;&#160;&#160;&#160;&#160;&#160;&#160;&#160;60246</text>
</g>
<!-- Record Goods Receipt&#45;&gt;endevent -->
<g id="edge10" class="edge">
<title>Record Goods Receipt&#45;&gt;endevent</title>
<path fill="none" stroke="#2d137d" d="M140.94,-72.06C164.52,-61.1 194.95,-46.94 218.45,-36"/>
<polygon fill="#2d137d" stroke="#2d137d" points="219.8,-38.77 227.39,-31.38 216.84,-32.43 219.8,-38.77"/>
</g>
<!-- Vendor creates invoice -->
<g id="node4" class="node">
<title>Vendor creates invoice</title>
<image xlink:href="1.png" width="208px" height="36.5px" preserveAspectRatio="xMinYMin meet" x="534" y="-543.5"/>
<text text-anchor="middle" x="638" y="-528.1" font-family="Times New Roman,serif" font-size="12.00" fill="#2d137d">Vendor creates invoice</text>
<text text-anchor="start" x="542" y="-513.85" font-family="Times New Roman,serif" font-size="12.00" fill="#2d137d"> &#160;&#160;&#160;&#160;&#160;&#160;&#160;&#160;&#160;&#160;&#160;&#160;53326</text>
</g>
<!-- Vendor creates invoice &#45;&gt; Record Invoice Receipt -->
<g id="node16" class="node">
<title>Vendor creates invoice &#45;&gt; Record Invoice Receipt</title>
<image xlink:href="1.png" width="244.75px" height="36.5px" preserveAspectRatio="xMinYMin meet" x="515.625" y="-471"/>
<text text-anchor="middle" x="638" y="-455.6" font-family="Times New Roman,serif" font-size="12.00" fill="#2d137d">Vendor creates invoice &#45;&gt; Record Invoice Receipt</text>
<text text-anchor="start" x="523.62" y="-441.35" font-family="Times New Roman,serif" font-size="12.00" fill="#2d137d"> &#160;&#160;&#160;&#160;&#160;&#160;&#160;&#160;&#160;&#160;&#160;&#160;None</text>
</g>
<!-- Vendor creates invoice&#45;&gt;Vendor creates invoice &#45;&gt; Record Invoice Receipt -->
<g id="edge17" class="edge">
<title>Vendor creates invoice&#45;&gt;Vendor creates invoice &#45;&gt; Record Invoice Receipt</title>
<path fill="none" stroke="#2d137d" d="M638,-507.18C638,-499.48 638,-490.17 638,-481.5"/>
<polygon fill="#2d137d" stroke="#2d137d" points="641.5,-481.66 638,-471.66 634.5,-481.66 641.5,-481.66"/>
</g>
<!-- Record Invoice Receipt -->
<g id="node5" class="node">
<title>Record Invoice Receipt</title>
<image xlink:href="1.png" width="208px" height="36.5px" preserveAspectRatio="xMinYMin meet" x="534" y="-398.5"/>
<text text-anchor="middle" x="638" y="-383.1" font-family="Times New Roman,serif" font-size="12.00" fill="#2d137d">Record Invoice Receipt</text>
<text text-anchor="start" x="542" y="-368.85" font-family="Times New Roman,serif" font-size="12.00" fill="#2d137d"> &#160;&#160;&#160;&#160;&#160;&#160;&#160;&#160;&#160;&#160;&#160;&#160;53326</text>
</g>
<!-- Record Invoice Receipt &#45;&gt; Remove Payment Block -->
<g id="node13" class="node">
<title>Record Invoice Receipt &#45;&gt; Remove Payment Block</title>
<image xlink:href="1.png" width="250px" height="36.5px" preserveAspectRatio="xMinYMin meet" x="334" y="-326"/>
<text text-anchor="middle" x="459" y="-310.6" font-family="Times New Roman,serif" font-size="12.00" fill="#2d137d">Record Invoice Receipt &#45;&gt; Remove Payment Block</text>
<text text-anchor="start" x="342" y="-296.35" font-family="Times New Roman,serif" font-size="12.00" fill="#2d137d"> &#160;&#160;&#160;&#160;&#160;&#160;&#160;&#160;&#160;&#160;&#160;&#160;None</text>
</g>
<!-- Record Invoice Receipt&#45;&gt;Record Invoice Receipt &#45;&gt; Remove Payment Block -->
<g id="edge11" class="edge">
<title>Record Invoice Receipt&#45;&gt;Record Invoice Receipt &#45;&gt; Remove Payment Block</title>
<path fill="none" stroke="#2d137d" d="M594.21,-362C569.63,-352.32 538.77,-340.17 512.73,-329.91"/>
<polygon fill="#2d137d" stroke="#2d137d" points="514.23,-326.35 503.65,-325.94 511.67,-332.86 514.23,-326.35"/>
</g>
<!-- Record Invoice Receipt &#45;&gt; Clear Invoice -->
<g id="node14" class="node">
<title>Record Invoice Receipt &#45;&gt; Clear Invoice</title>
<image xlink:href="1.png" width="208px" height="36.5px" preserveAspectRatio="xMinYMin meet" x="534" y="-253.5"/>
<text text-anchor="middle" x="638" y="-238.1" font-family="Times New Roman,serif" font-size="12.00" fill="#2d137d">Record Invoice Receipt &#45;&gt; Clear Invoice</text>
<text text-anchor="start" x="542" y="-223.85" font-family="Times New Roman,serif" font-size="12.00" fill="#2d137d"> &#160;&#160;&#160;&#160;&#160;&#160;&#160;&#160;&#160;&#160;&#160;&#160;None</text>
</g>
<!-- Record Invoice Receipt&#45;&gt;Record Invoice Receipt &#45;&gt; Clear Invoice -->
<g id="edge13" class="edge">
<title>Record Invoice Receipt&#45;&gt;Record Invoice Receipt &#45;&gt; Clear Invoice</title>
<path fill="none" stroke="#2d137d" d="M638,-362C638,-337.61 638,-292.77 638,-263.75"/>
<polygon fill="#2d137d" stroke="#2d137d" points="641.5,-264.12 638,-254.12 634.5,-264.12 641.5,-264.12"/>
</g>
<!-- Clear Invoice -->
<g id="node6" class="node">
<title>Clear Invoice</title>
<image xlink:href="1.png" width="208px" height="36.5px" preserveAspectRatio="xMinYMin meet" x="308" y="-108.5"/>
<text text-anchor="middle" x="412" y="-93.1" font-family="Times New Roman,serif" font-size="12.00" fill="#2d137d">Clear Invoice</text>
<text text-anchor="start" x="316" y="-78.85" font-family="Times New Roman,serif" font-size="12.00" fill="#2d137d"> &#160;&#160;&#160;&#160;&#160;&#160;&#160;&#160;&#160;&#160;&#160;&#160;53326</text>
</g>
<!-- Clear Invoice&#45;&gt;endevent -->
<g id="edge7" class="edge">
<title>Clear Invoice&#45;&gt;endevent</title>
<path fill="none" stroke="#2d137d" d="M373.59,-72.06C348.65,-60.9 316.33,-46.44 291.73,-35.43"/>
<polygon fill="#2d137d" stroke="#2d137d" points="293.26,-31.84 282.7,-30.95 290.4,-38.23 293.26,-31.84"/>
</g>
<!-- Change Quantity -->
<g id="node7" class="node">
<title>Change Quantity</title>
<image xlink:href="1.png" width="208px" height="36.5px" preserveAspectRatio="xMinYMin meet" x="701" y="-688.5"/>
<text text-anchor="middle" x="805" y="-673.1" font-family="Times New Roman,serif" font-size="12.00" fill="#2d137d">Change Quantity</text>
<text text-anchor="start" x="709" y="-658.85" font-family="Times New Roman,serif" font-size="12.00" fill="#2d137d"> &#160;&#160;&#160;&#160;&#160;&#160;&#160;&#160;&#160;&#160;&#160;&#160;1717</text>
</g>
<!-- Change Quantity &#45;&gt; Record Invoice Receipt -->
<g id="node17" class="node">
<title>Change Quantity &#45;&gt; Record Invoice Receipt</title>
<image xlink:href="1.png" width="216.25px" height="36.5px" preserveAspectRatio="xMinYMin meet" x="698.875" y="-616"/>
<text text-anchor="middle" x="807" y="-600.6" font-family="Times New Roman,serif" font-size="12.00" fill="#2d137d">Change Quantity &#45;&gt; Record Invoice Receipt</text>
<text text-anchor="start" x="706.88" y="-586.35" font-family="Times New Roman,serif" font-size="12.00" fill="#2d137d"> &#160;&#160;&#160;&#160;&#160;&#160;&#160;&#160;&#160;&#160;&#160;&#160;None</text>
</g>
<!-- Change Quantity&#45;&gt;Change Quantity &#45;&gt; Record Invoice Receipt -->
<g id="edge19" class="edge">
<title>Change Quantity&#45;&gt;Change Quantity &#45;&gt; Record Invoice Receipt</title>
<path fill="none" stroke="#2d137d" d="M805.48,-652.18C805.7,-644.48 805.97,-635.17 806.21,-626.5"/>
<polygon fill="#2d137d" stroke="#2d137d" points="809.74,-626.75 806.52,-616.66 802.74,-626.56 809.74,-626.75"/>
</g>
<!-- Remove Payment Block -->
<g id="node8" class="node">
<title>Remove Payment Block</title>
<image xlink:href="1.png" width="208px" height="36.5px" preserveAspectRatio="xMinYMin meet" x="308" y="-253.5"/>
<text text-anchor="middle" x="412" y="-238.1" font-family="Times New Roman,serif" font-size="12.00" fill="#2d137d">Remove Payment Block</text>
<text text-anchor="start" x="316" y="-223.85" font-family="Times New Roman,serif" font-size="12.00" fill="#2d137d"> &#160;&#160;&#160;&#160;&#160;&#160;&#160;&#160;&#160;&#160;&#160;&#160;10850</text>
</g>
<!-- Remove Payment Block &#45;&gt; Clear Invoice -->
<g id="node15" class="node">
<title>Remove Payment Block &#45;&gt; Clear Invoice</title>
<image xlink:href="1.png" width="208px" height="36.5px" preserveAspectRatio="xMinYMin meet" x="308" y="-181"/>
<text text-anchor="middle" x="412" y="-165.6" font-family="Times New Roman,serif" font-size="12.00" fill="#2d137d">Remove Payment Block &#45;&gt; Clear Invoice</text>
<text text-anchor="start" x="316" y="-151.35" font-family="Times New Roman,serif" font-size="12.00" fill="#2d137d"> &#160;&#160;&#160;&#160;&#160;&#160;&#160;&#160;&#160;&#160;&#160;&#160;None</text>
</g>
<!-- Remove Payment Block&#45;&gt;Remove Payment Block &#45;&gt; Clear Invoice -->
<g id="edge15" class="edge">
<title>Remove Payment Block&#45;&gt;Remove Payment Block &#45;&gt; Clear Invoice</title>
<path fill="none" stroke="#2d137d" d="M412,-217.18C412,-209.48 412,-200.17 412,-191.5"/>
<polygon fill="#2d137d" stroke="#2d137d" points="415.5,-191.66 412,-181.66 408.5,-191.66 415.5,-191.66"/>
</g>
<!-- Change Price -->
<g id="node9" class="node">
<title>Change Price</title>
<image xlink:href="1.png" width="208px" height="36.5px" preserveAspectRatio="xMinYMin meet" x="196" y="-688.5"/>
<text text-anchor="middle" x="300" y="-673.1" font-family="Times New Roman,serif" font-size="12.00" fill="#2d137d">Change Price</text>
<text text-anchor="start" x="204" y="-658.85" font-family="Times New Roman,serif" font-size="12.00" fill="#2d137d"> &#160;&#160;&#160;&#160;&#160;&#160;&#160;&#160;&#160;&#160;&#160;&#160;1087</text>
</g>
<!-- Change Price&#45;&gt;Receive Order Confirmation,Change Price &#45;&gt; Vendor creates invoice,Delete Purchase Order Item -->
<g id="edge22" class="edge">
<title>Change Price&#45;&gt;Receive Order Confirmation,Change Price &#45;&gt; Vendor creates invoice,Delete Purchase Order Item</title>
<path fill="none" stroke="#2d137d" d="M327.64,-652C342.39,-642.8 360.72,-631.37 376.61,-621.45"/>
<polygon fill="#2d137d" stroke="#2d137d" points="378.01,-624.08 384.64,-615.82 374.31,-618.14 378.01,-624.08"/>
</g>
<!-- Delete Purchase Order Item -->
<g id="node10" class="node">
<title>Delete Purchase Order Item</title>
<image xlink:href="1.png" width="208px" height="36.5px" preserveAspectRatio="xMinYMin meet" x="170" y="-543.5"/>
<text text-anchor="middle" x="274" y="-528.1" font-family="Times New Roman,serif" font-size="12.00" fill="#2d137d">Delete Purchase Order Item</text>
<text text-anchor="start" x="178" y="-513.85" font-family="Times New Roman,serif" font-size="12.00" fill="#2d137d"> &#160;&#160;&#160;&#160;&#160;&#160;&#160;&#160;&#160;&#160;&#160;&#160;3834</text>
</g>
<!-- Delete Purchase Order Item&#45;&gt;endevent -->
<g id="edge9" class="edge">
<title>Delete Purchase Order Item&#45;&gt;endevent</title>
<path fill="none" stroke="#2d137d" d="M274,-507.08C274,-480.23 274,-426.68 274,-381.25 274,-381.25 274,-381.25 274,-161.75 274,-121.32 266.42,-75 260.83,-46.37"/>
<polygon fill="#2d137d" stroke="#2d137d" points="264.07,-45.72 258.66,-36.61 257.21,-47.1 264.07,-45.72"/>
</g>
<!-- startevent -->
<g id="node11" class="node">
<title>startevent</title>
</g>
<!-- startevent&#45;&gt;Create Purchase Order Item -->
<g id="edge3" class="edge">
<title>startevent&#45;&gt;Create Purchase Order Item</title>
<path fill="none" stroke="#2d137d" d="M386.36,-739.64C327.76,-734.98 190.39,-720.81 159,-688.5 104.24,-632.15 107.59,-530.33 112.99,-481.43"/>
<polygon fill="#2d137d" stroke="#2d137d" points="116.55,-482.09 114.29,-471.74 109.61,-481.24 116.55,-482.09"/>
</g>
<!-- startevent&#45;&gt;Receive Order Confirmation -->
<g id="edge5" class="edge">
<title>startevent&#45;&gt;Receive Order Confirmation</title>
<path fill="none" stroke="#2d137d" d="M439.78,-724.85C454.62,-715.63 473.28,-704.02 489.45,-693.97"/>
<polygon fill="#2d137d" stroke="#2d137d" points="490.98,-696.52 497.63,-688.27 487.29,-690.57 490.98,-696.52"/>
</g>
<!-- startevent&#45;&gt;Vendor creates invoice -->
<g id="edge6" class="edge">
<title>startevent&#45;&gt;Vendor creates invoice</title>
<path fill="none" stroke="#2d137d" d="M439.95,-738.85C493.78,-733 611.82,-717.16 639,-688.5 672.99,-652.66 659.95,-589.79 648.35,-553.74"/>
<polygon fill="#2d137d" stroke="#2d137d" points="651.39,-552.81 644.86,-544.47 644.77,-555.06 651.39,-552.81"/>
</g>
<!-- startevent&#45;&gt;Change Quantity -->
<g id="edge2" class="edge">
<title>startevent&#45;&gt;Change Quantity</title>
<path fill="none" stroke="#2d137d" d="M439.94,-736.67C492.33,-727.28 610.48,-706.11 698.26,-690.38"/>
<polygon fill="#2d137d" stroke="#2d137d" points="698.85,-693.65 708.08,-688.44 697.62,-686.76 698.85,-693.65"/>
</g>
<!-- startevent&#45;&gt;Change Price -->
<g id="edge1" class="edge">
<title>startevent&#45;&gt;Change Price</title>
<path fill="none" stroke="#2d137d" d="M386.22,-724.85C371.38,-715.63 352.72,-704.02 336.55,-693.97"/>
<polygon fill="#2d137d" stroke="#2d137d" points="338.71,-690.57 328.37,-688.27 335.02,-696.52 338.71,-690.57"/>
</g>
<!-- startevent&#45;&gt;Delete Purchase Order Item -->
<g id="edge4" class="edge">
<title>startevent&#45;&gt;Delete Purchase Order Item</title>
<path fill="none" stroke="#2d137d" d="M386.05,-738.85C332.22,-733 214.18,-717.16 187,-688.5 153.43,-653.1 148.89,-621.33 174,-579.5 181.98,-566.21 194.52,-556.06 208.07,-548.37"/>
<polygon fill="#2d137d" stroke="#2d137d" points="209.3,-551.15 216.56,-543.43 206.07,-544.94 209.3,-551.15"/>
</g>
<!-- Record Invoice Receipt &#45;&gt; Remove Payment Block&#45;&gt;Remove Payment Block -->
<g id="edge12" class="edge">
<title>Record Invoice Receipt &#45;&gt; Remove Payment Block&#45;&gt;Remove Payment Block</title>
<path fill="none" stroke="#2d137d" d="M447.62,-289.68C442.14,-281.46 435.44,-271.41 429.34,-262.26"/>
<polygon fill="#2d137d" stroke="#2d137d" points="431.73,-260.54 423.27,-254.16 425.91,-264.42 431.73,-260.54"/>
</g>
<!-- Record Invoice Receipt &#45;&gt; Clear Invoice&#45;&gt;Clear Invoice -->
<g id="edge14" class="edge">
<title>Record Invoice Receipt &#45;&gt; Clear Invoice&#45;&gt;Clear Invoice</title>
<path fill="none" stroke="#2d137d" d="M619.41,-217.25C597.8,-198.04 560.54,-166.57 525,-144.5 505.94,-132.66 483.83,-121.69 464.24,-112.83"/>
<polygon fill="#2d137d" stroke="#2d137d" points="465.82,-109.25 455.26,-108.39 462.98,-115.65 465.82,-109.25"/>
</g>
<!-- Remove Payment Block &#45;&gt; Clear Invoice&#45;&gt;Clear Invoice -->
<g id="edge16" class="edge">
<title>Remove Payment Block &#45;&gt; Clear Invoice&#45;&gt;Clear Invoice</title>
<path fill="none" stroke="#2d137d" d="M412,-144.68C412,-136.98 412,-127.67 412,-119"/>
<polygon fill="#2d137d" stroke="#2d137d" points="415.5,-119.16 412,-109.16 408.5,-119.16 415.5,-119.16"/>
</g>
<!-- Vendor creates invoice &#45;&gt; Record Invoice Receipt&#45;&gt;Record Invoice Receipt -->
<g id="edge18" class="edge">
<title>Vendor creates invoice &#45;&gt; Record Invoice Receipt&#45;&gt;Record Invoice Receipt</title>
<path fill="none" stroke="#2d137d" d="M638,-434.68C638,-426.98 638,-417.67 638,-409"/>
<polygon fill="#2d137d" stroke="#2d137d" points="641.5,-409.16 638,-399.16 634.5,-409.16 641.5,-409.16"/>
</g>
<!-- Change Quantity &#45;&gt; Record Invoice Receipt&#45;&gt;Record Invoice Receipt -->
<g id="edge20" class="edge">
<title>Change Quantity &#45;&gt; Record Invoice Receipt&#45;&gt;Record Invoice Receipt</title>
<path fill="none" stroke="#2d137d" d="M807.82,-579.82C808.46,-547.61 805.29,-476.94 769,-434.5 757.13,-420.62 741.1,-410.31 724.32,-402.66"/>
<polygon fill="#2d137d" stroke="#2d137d" points="725.96,-399.13 715.38,-398.47 723.23,-405.58 725.96,-399.13"/>
</g>
<!-- Receive Order Confirmation,Change Price &#45;&gt; Vendor creates invoice,Delete Purchase Order Item&#45;&gt;Vendor creates invoice -->
<g id="edge23" class="edge">
<title>Receive Order Confirmation,Change Price &#45;&gt; Vendor creates invoice,Delete Purchase Order Item&#45;&gt;Vendor creates invoice</title>
<path fill="none" stroke="#2d137d" d="M468.04,-579.5C499.76,-569.57 539.8,-557.02 573.05,-546.6"/>
<polygon fill="#2d137d" stroke="#2d137d" points="573.64,-549.77 582.14,-543.44 571.55,-543.09 573.64,-549.77"/>
</g>
<!-- Receive Order Confirmation,Change Price &#45;&gt; Vendor creates invoice,Delete Purchase Order Item&#45;&gt;Delete Purchase Order Item -->
<g id="edge24" class="edge">
<title>Receive Order Confirmation,Change Price &#45;&gt; Vendor creates invoice,Delete Purchase Order Item&#45;&gt;Delete Purchase Order Item</title>
<path fill="none" stroke="#2d137d" d="M379,-579.5C360.43,-570.09 337.25,-558.33 317.39,-548.26"/>
<polygon fill="#2d137d" stroke="#2d137d" points="319.15,-544.72 308.65,-543.32 315.99,-550.96 319.15,-544.72"/>
</g>
</g>
</svg>
