<?xml version="1.0" encoding="UTF-8" standalone="no"?>
<!DOCTYPE svg PUBLIC "-//W3C//DTD SVG 1.1//EN"
 "http://www.w3.org/Graphics/SVG/1.1/DTD/svg11.dtd">
<!-- Generated by graphviz version 7.1.0 (20230121.1956)
 -->
<!-- Title: graph3 Pages: 1 -->
<svg width="920pt" height="764pt"
 viewBox="0.00 0.00 919.50 764.00" xmlns="http://www.w3.org/2000/svg" xmlns:xlink="http://www.w3.org/1999/xlink">
<g id="graph0" class="graph" transform="scale(1 1) rotate(0) translate(4 760)">
<title>graph3</title>
<polygon fill="white" stroke="none" points="-4,4 -4,-760 915.5,-760 915.5,4 -4,4"/>
<!-- Create Purchase Order Item -->
<g id="node1" class="node">
<title>Create Purchase Order Item</title>
<image xlink:href="11.png" width="208px" height="36px" preserveAspectRatio="xMinYMin meet" x="32" y="-468"/>
<text text-anchor="middle" x="136" y="-453.4" font-family="Times New Roman,serif" font-size="12.00" fill="#2d137d">Create Purchase Order Item</text>
<text text-anchor="middle" x="136" y="-440.4" font-family="Times New Roman,serif" font-size="12.00" fill="#2d137d">63797</text>
</g>
<!-- endevent -->
<g id="node12" class="node">
<title>endevent</title>
</g>
<!-- Create Purchase Order Item&#45;&gt;endevent -->
<g id="edge10" class="edge">
<title>Create Purchase Order Item&#45;&gt;endevent</title>
<path fill="none" stroke="#2d137d" d="M158.69,-432.03C188.2,-407.82 236,-360.37 236,-307 236,-307 236,-307 236,-161 236,-121.17 243.43,-75.61 249,-47.07"/>
<polygon fill="#2d137d" stroke="#2d137d" points="252.4,-47.93 250.95,-37.43 245.54,-46.54 252.4,-47.93"/>
</g>
<!-- Receive Order Confirmation -->
<g id="node2" class="node">
<title>Receive Order Confirmation</title>
<image xlink:href="11.png" width="208px" height="36px" preserveAspectRatio="xMinYMin meet" x="416" y="-684"/>
<text text-anchor="middle" x="520" y="-669.4" font-family="Times New Roman,serif" font-size="12.00" fill="#2d137d">Receive Order Confirmation</text>
<text text-anchor="middle" x="520" y="-656.4" font-family="Times New Roman,serif" font-size="12.00" fill="#2d137d">7212</text>
</g>
<!-- Change Price,Receive Order Confirmation &#45;&gt; Vendor creates invoice,Delete Purchase Order Item -->
<g id="node18" class="node">
<title>Change Price,Receive Order Confirmation &#45;&gt; Vendor creates invoice,Delete Purchase Order Item</title>
<image xlink:href="11.png" width="275px" height="36px" preserveAspectRatio="xMinYMin meet" x="269.5" y="-612"/>
<text text-anchor="middle" x="407" y="-597.4" font-family="Times New Roman,serif" font-size="12.00" fill="#2d137d">Change Price,Receive Order Confirmation &#45;&gt; Vendor creates invoice,Delete Purchase Order Item</text>
<text text-anchor="middle" x="407" y="-584.4" font-family="Times New Roman,serif" font-size="12.00" fill="#2d137d">None</text>
</g>
<!-- Receive Order Confirmation&#45;&gt;Change Price,Receive Order Confirmation &#45;&gt; Vendor creates invoice,Delete Purchase Order Item -->
<g id="edge22" class="edge">
<title>Receive Order Confirmation&#45;&gt;Change Price,Receive Order Confirmation &#45;&gt; Vendor creates invoice,Delete Purchase Order Item</title>
<path fill="none" stroke="#2d137d" d="M492.65,-648.05C477.93,-638.94 459.59,-627.58 443.66,-617.71"/>
<polygon fill="#2d137d" stroke="#2d137d" points="445.73,-614.88 435.39,-612.59 442.05,-620.83 445.73,-614.88"/>
</g>
<!-- Record Goods Receipt -->
<g id="node3" class="node">
<title>Record Goods Receipt</title>
<image xlink:href="11.png" width="208px" height="36px" preserveAspectRatio="xMinYMin meet" x="0" y="-108"/>
<text text-anchor="middle" x="104" y="-93.4" font-family="Times New Roman,serif" font-size="12.00" fill="#2d137d">Record Goods Receipt</text>
<text text-anchor="middle" x="104" y="-80.4" font-family="Times New Roman,serif" font-size="12.00" fill="#2d137d">60246</text>
</g>
<!-- Record Goods Receipt&#45;&gt;endevent -->
<g id="edge8" class="edge">
<title>Record Goods Receipt&#45;&gt;endevent</title>
<path fill="none" stroke="#2d137d" d="M140.55,-72.05C164.02,-61.18 194.39,-47.1 217.95,-36.17"/>
<polygon fill="#2d137d" stroke="#2d137d" points="219.28,-39.42 226.88,-32.04 216.33,-33.07 219.28,-39.42"/>
</g>
<!-- Vendor creates invoice -->
<g id="node4" class="node">
<title>Vendor creates invoice</title>
<image xlink:href="11.png" width="208px" height="36px" preserveAspectRatio="xMinYMin meet" x="541" y="-540"/>
<text text-anchor="middle" x="645" y="-525.4" font-family="Times New Roman,serif" font-size="12.00" fill="#2d137d">Vendor creates invoice</text>
<text text-anchor="middle" x="645" y="-512.4" font-family="Times New Roman,serif" font-size="12.00" fill="#2d137d">53326</text>
</g>
<!-- Vendor creates invoice &#45;&gt; Record Invoice Receipt -->
<g id="node17" class="node">
<title>Vendor creates invoice &#45;&gt; Record Invoice Receipt</title>
<image xlink:href="11.png" width="245px" height="36px" preserveAspectRatio="xMinYMin meet" x="522.5" y="-468"/>
<text text-anchor="middle" x="645" y="-453.4" font-family="Times New Roman,serif" font-size="12.00" fill="#2d137d">Vendor creates invoice &#45;&gt; Record Invoice Receipt</text>
<text text-anchor="middle" x="645" y="-440.4" font-family="Times New Roman,serif" font-size="12.00" fill="#2d137d">None</text>
</g>
<!-- Vendor creates invoice&#45;&gt;Vendor creates invoice &#45;&gt; Record Invoice Receipt -->
<g id="edge19" class="edge">
<title>Vendor creates invoice&#45;&gt;Vendor creates invoice &#45;&gt; Record Invoice Receipt</title>
<path fill="none" stroke="#2d137d" d="M645,-504.05C645,-496.57 645,-487.58 645,-479.14"/>
<polygon fill="#2d137d" stroke="#2d137d" points="648.5,-479.3 645,-469.3 641.5,-479.3 648.5,-479.3"/>
</g>
<!-- Record Invoice Receipt -->
<g id="node5" class="node">
<title>Record Invoice Receipt</title>
<image xlink:href="11.png" width="208px" height="36px" preserveAspectRatio="xMinYMin meet" x="541" y="-396"/>
<text text-anchor="middle" x="645" y="-381.4" font-family="Times New Roman,serif" font-size="12.00" fill="#2d137d">Record Invoice Receipt</text>
<text text-anchor="middle" x="645" y="-368.4" font-family="Times New Roman,serif" font-size="12.00" fill="#2d137d">53326</text>
</g>
<!-- Record Invoice Receipt &#45;&gt; Remove Payment Block -->
<g id="node14" class="node">
<title>Record Invoice Receipt &#45;&gt; Remove Payment Block</title>
<image xlink:href="11.png" width="251px" height="36px" preserveAspectRatio="xMinYMin meet" x="334.5" y="-324"/>
<text text-anchor="middle" x="460" y="-309.4" font-family="Times New Roman,serif" font-size="12.00" fill="#2d137d">Record Invoice Receipt &#45;&gt; Remove Payment Block</text>
<text text-anchor="middle" x="460" y="-296.4" font-family="Times New Roman,serif" font-size="12.00" fill="#2d137d">None</text>
</g>
<!-- Record Invoice Receipt&#45;&gt;Record Invoice Receipt &#45;&gt; Remove Payment Block -->
<g id="edge13" class="edge">
<title>Record Invoice Receipt&#45;&gt;Record Invoice Receipt &#45;&gt; Remove Payment Block</title>
<path fill="none" stroke="#2d137d" d="M600.22,-360.05C574.63,-350.37 542.34,-338.16 515.2,-327.89"/>
<polygon fill="#2d137d" stroke="#2d137d" points="516.7,-324.71 506.11,-324.45 514.22,-331.26 516.7,-324.71"/>
</g>
<!-- Record Invoice Receipt &#45;&gt; Clear Invoice -->
<g id="node16" class="node">
<title>Record Invoice Receipt &#45;&gt; Clear Invoice</title>
<image xlink:href="11.png" width="208px" height="36px" preserveAspectRatio="xMinYMin meet" x="541" y="-252"/>
<text text-anchor="middle" x="645" y="-237.4" font-family="Times New Roman,serif" font-size="12.00" fill="#2d137d">Record Invoice Receipt &#45;&gt; Clear Invoice</text>
<text text-anchor="middle" x="645" y="-224.4" font-family="Times New Roman,serif" font-size="12.00" fill="#2d137d">None</text>
</g>
<!-- Record Invoice Receipt&#45;&gt;Record Invoice Receipt &#45;&gt; Clear Invoice -->
<g id="edge17" class="edge">
<title>Record Invoice Receipt&#45;&gt;Record Invoice Receipt &#45;&gt; Clear Invoice</title>
<path fill="none" stroke="#2d137d" d="M645,-360.15C645,-336.24 645,-292.15 645,-263.2"/>
<polygon fill="#2d137d" stroke="#2d137d" points="648.5,-263.34 645,-253.34 641.5,-263.34 648.5,-263.34"/>
</g>
<!-- Clear Invoice -->
<g id="node6" class="node">
<title>Clear Invoice</title>
<image xlink:href="11.png" width="208px" height="36px" preserveAspectRatio="xMinYMin meet" x="315" y="-108"/>
<text text-anchor="middle" x="419" y="-93.4" font-family="Times New Roman,serif" font-size="12.00" fill="#2d137d">Clear Invoice</text>
<text text-anchor="middle" x="419" y="-80.4" font-family="Times New Roman,serif" font-size="12.00" fill="#2d137d">53326</text>
</g>
<!-- Clear Invoice&#45;&gt;endevent -->
<g id="edge7" class="edge">
<title>Clear Invoice&#45;&gt;endevent</title>
<path fill="none" stroke="#2d137d" d="M379.3,-72.05C352.84,-60.76 318.29,-46.01 292.33,-34.93"/>
<polygon fill="#2d137d" stroke="#2d137d" points="293.74,-31.73 283.17,-31.02 291,-38.17 293.74,-31.73"/>
</g>
<!-- Change Quantity -->
<g id="node7" class="node">
<title>Change Quantity</title>
<image xlink:href="11.png" width="208px" height="36px" preserveAspectRatio="xMinYMin meet" x="696" y="-684"/>
<text text-anchor="middle" x="800" y="-669.4" font-family="Times New Roman,serif" font-size="12.00" fill="#2d137d">Change Quantity</text>
<text text-anchor="middle" x="800" y="-656.4" font-family="Times New Roman,serif" font-size="12.00" fill="#2d137d">1717</text>
</g>
<!-- Change Quantity &#45;&gt; Record Invoice Receipt -->
<g id="node15" class="node">
<title>Change Quantity &#45;&gt; Record Invoice Receipt</title>
<image xlink:href="11.png" width="217px" height="36px" preserveAspectRatio="xMinYMin meet" x="694.5" y="-612"/>
<text text-anchor="middle" x="803" y="-597.4" font-family="Times New Roman,serif" font-size="12.00" fill="#2d137d">Change Quantity &#45;&gt; Record Invoice Receipt</text>
<text text-anchor="middle" x="803" y="-584.4" font-family="Times New Roman,serif" font-size="12.00" fill="#2d137d">None</text>
</g>
<!-- Change Quantity&#45;&gt;Change Quantity &#45;&gt; Record Invoice Receipt -->
<g id="edge15" class="edge">
<title>Change Quantity&#45;&gt;Change Quantity &#45;&gt; Record Invoice Receipt</title>
<path fill="none" stroke="#2d137d" d="M800.73,-648.05C801.05,-640.57 801.43,-631.58 801.79,-623.14"/>
<polygon fill="#2d137d" stroke="#2d137d" points="805.28,-623.44 802.22,-613.3 798.29,-623.14 805.28,-623.44"/>
</g>
<!-- Remove Payment Block -->
<g id="node8" class="node">
<title>Remove Payment Block</title>
<image xlink:href="11.png" width="208px" height="36px" preserveAspectRatio="xMinYMin meet" x="315" y="-252"/>
<text text-anchor="middle" x="419" y="-237.4" font-family="Times New Roman,serif" font-size="12.00" fill="#2d137d">Remove Payment Block</text>
<text text-anchor="middle" x="419" y="-224.4" font-family="Times New Roman,serif" font-size="12.00" fill="#2d137d">10850</text>
</g>
<!-- Remove Payment Block &#45;&gt; Clear Invoice -->
<g id="node13" class="node">
<title>Remove Payment Block &#45;&gt; Clear Invoice</title>
<image xlink:href="11.png" width="208px" height="36px" preserveAspectRatio="xMinYMin meet" x="315" y="-180"/>
<text text-anchor="middle" x="419" y="-165.4" font-family="Times New Roman,serif" font-size="12.00" fill="#2d137d">Remove Payment Block &#45;&gt; Clear Invoice</text>
<text text-anchor="middle" x="419" y="-152.4" font-family="Times New Roman,serif" font-size="12.00" fill="#2d137d">None</text>
</g>
<!-- Remove Payment Block&#45;&gt;Remove Payment Block &#45;&gt; Clear Invoice -->
<g id="edge11" class="edge">
<title>Remove Payment Block&#45;&gt;Remove Payment Block &#45;&gt; Clear Invoice</title>
<path fill="none" stroke="#2d137d" d="M419,-216.05C419,-208.57 419,-199.58 419,-191.14"/>
<polygon fill="#2d137d" stroke="#2d137d" points="422.5,-191.3 419,-181.3 415.5,-191.3 422.5,-191.3"/>
</g>
<!-- Change Price -->
<g id="node9" class="node">
<title>Change Price</title>
<image xlink:href="11.png" width="208px" height="36px" preserveAspectRatio="xMinYMin meet" x="190" y="-684"/>
<text text-anchor="middle" x="294" y="-669.4" font-family="Times New Roman,serif" font-size="12.00" fill="#2d137d">Change Price</text>
<text text-anchor="middle" x="294" y="-656.4" font-family="Times New Roman,serif" font-size="12.00" fill="#2d137d">1087</text>
</g>
<!-- Change Price&#45;&gt;Change Price,Receive Order Confirmation &#45;&gt; Vendor creates invoice,Delete Purchase Order Item -->
<g id="edge21" class="edge">
<title>Change Price&#45;&gt;Change Price,Receive Order Confirmation &#45;&gt; Vendor creates invoice,Delete Purchase Order Item</title>
<path fill="none" stroke="#2d137d" d="M321.35,-648.05C336.07,-638.94 354.41,-627.58 370.34,-617.71"/>
<polygon fill="#2d137d" stroke="#2d137d" points="371.95,-620.83 378.61,-612.59 368.27,-614.88 371.95,-620.83"/>
</g>
<!-- Delete Purchase Order Item -->
<g id="node10" class="node">
<title>Delete Purchase Order Item</title>
<image xlink:href="11.png" width="208px" height="36px" preserveAspectRatio="xMinYMin meet" x="170" y="-540"/>
<text text-anchor="middle" x="274" y="-525.4" font-family="Times New Roman,serif" font-size="12.00" fill="#2d137d">Delete Purchase Order Item</text>
<text text-anchor="middle" x="274" y="-512.4" font-family="Times New Roman,serif" font-size="12.00" fill="#2d137d">3834</text>
</g>
<!-- Delete Purchase Order Item&#45;&gt;endevent -->
<g id="edge9" class="edge">
<title>Delete Purchase Order Item&#45;&gt;endevent</title>
<path fill="none" stroke="#2d137d" d="M274,-504.39C274,-477.87 274,-424.36 274,-379 274,-379 274,-379 274,-161 274,-121.17 266.57,-75.61 261,-47.07"/>
<polygon fill="#2d137d" stroke="#2d137d" points="264.46,-46.54 259.05,-37.43 257.6,-47.93 264.46,-46.54"/>
</g>
<!-- startevent -->
<g id="node11" class="node">
<title>startevent</title>
</g>
<!-- startevent&#45;&gt;Create Purchase Order Item -->
<g id="edge1" class="edge">
<title>startevent&#45;&gt;Create Purchase Order Item</title>
<path fill="none" stroke="#2d137d" d="M380.11,-735.37C321.01,-731.18 182.67,-717.9 153,-684 102.64,-626.46 117.23,-527.31 128.42,-479.04"/>
<polygon fill="#2d137d" stroke="#2d137d" points="131.81,-479.93 130.79,-469.39 125.01,-478.26 131.81,-479.93"/>
</g>
<!-- startevent&#45;&gt;Receive Order Confirmation -->
<g id="edge6" class="edge">
<title>startevent&#45;&gt;Receive Order Confirmation</title>
<path fill="none" stroke="#2d137d" d="M433.78,-720.41C448.48,-711.3 466.93,-699.87 482.99,-689.92"/>
<polygon fill="#2d137d" stroke="#2d137d" points="484.68,-692.99 491.34,-684.75 481,-687.04 484.68,-692.99"/>
</g>
<!-- startevent&#45;&gt;Vendor creates invoice -->
<g id="edge2" class="edge">
<title>startevent&#45;&gt;Vendor creates invoice</title>
<path fill="none" stroke="#2d137d" d="M433.91,-734.32C487.69,-728.41 605.61,-712.46 633,-684 666.88,-648.8 660.19,-586.9 652.47,-550.97"/>
<polygon fill="#2d137d" stroke="#2d137d" points="655.9,-550.27 650.21,-541.34 649.08,-551.87 655.9,-550.27"/>
</g>
<!-- startevent&#45;&gt;Change Quantity -->
<g id="edge3" class="edge">
<title>startevent&#45;&gt;Change Quantity</title>
<path fill="none" stroke="#2d137d" d="M433.7,-732.24C486.22,-722.89 605.51,-701.64 693.76,-685.92"/>
<polygon fill="#2d137d" stroke="#2d137d" points="694.18,-689.4 703.42,-684.2 692.96,-682.51 694.18,-689.4"/>
</g>
<!-- startevent&#45;&gt;Change Price -->
<g id="edge4" class="edge">
<title>startevent&#45;&gt;Change Price</title>
<path fill="none" stroke="#2d137d" d="M380.22,-720.41C365.52,-711.3 347.07,-699.87 331.01,-689.92"/>
<polygon fill="#2d137d" stroke="#2d137d" points="333,-687.04 322.66,-684.75 329.32,-692.99 333,-687.04"/>
</g>
<!-- startevent&#45;&gt;Delete Purchase Order Item -->
<g id="edge5" class="edge">
<title>startevent&#45;&gt;Delete Purchase Order Item</title>
<path fill="none" stroke="#2d137d" d="M380.06,-734.35C326.22,-728.49 208.2,-712.64 181,-684 147.71,-648.94 142.58,-617.13 168,-576 176.23,-562.69 188.92,-552.61 202.7,-545.02"/>
<polygon fill="#2d137d" stroke="#2d137d" points="204.15,-548.21 211.52,-540.6 201.01,-541.95 204.15,-548.21"/>
</g>
<!-- Remove Payment Block &#45;&gt; Clear Invoice&#45;&gt;Clear Invoice -->
<g id="edge12" class="edge">
<title>Remove Payment Block &#45;&gt; Clear Invoice&#45;&gt;Clear Invoice</title>
<path fill="none" stroke="#2d137d" d="M419,-144.05C419,-136.57 419,-127.58 419,-119.14"/>
<polygon fill="#2d137d" stroke="#2d137d" points="422.5,-119.3 419,-109.3 415.5,-119.3 422.5,-119.3"/>
</g>
<!-- Record Invoice Receipt &#45;&gt; Remove Payment Block&#45;&gt;Remove Payment Block -->
<g id="edge14" class="edge">
<title>Record Invoice Receipt &#45;&gt; Remove Payment Block&#45;&gt;Remove Payment Block</title>
<path fill="none" stroke="#2d137d" d="M450.08,-288.05C445.44,-280.14 439.82,-270.54 434.63,-261.69"/>
<polygon fill="#2d137d" stroke="#2d137d" points="437.67,-259.95 429.6,-253.1 431.63,-263.49 437.67,-259.95"/>
</g>
<!-- Change Quantity &#45;&gt; Record Invoice Receipt&#45;&gt;Record Invoice Receipt -->
<g id="edge16" class="edge">
<title>Change Quantity &#45;&gt; Record Invoice Receipt&#45;&gt;Record Invoice Receipt</title>
<path fill="none" stroke="#2d137d" d="M805.25,-576.3C808.58,-544.51 811.13,-474.68 777,-432 765.95,-418.18 750.75,-407.95 734.59,-400.38"/>
<polygon fill="#2d137d" stroke="#2d137d" points="736.39,-397.34 725.82,-396.59 733.61,-403.77 736.39,-397.34"/>
</g>
<!-- Record Invoice Receipt &#45;&gt; Clear Invoice&#45;&gt;Clear Invoice -->
<g id="edge18" class="edge">
<title>Record Invoice Receipt &#45;&gt; Clear Invoice&#45;&gt;Clear Invoice</title>
<path fill="none" stroke="#2d137d" d="M626.39,-216.15C604.76,-197.1 567.49,-165.9 532,-144 512.93,-132.23 490.83,-121.32 471.25,-112.5"/>
<polygon fill="#2d137d" stroke="#2d137d" points="472.92,-109.41 462.36,-108.56 470.09,-115.81 472.92,-109.41"/>
</g>
<!-- Vendor creates invoice &#45;&gt; Record Invoice Receipt&#45;&gt;Record Invoice Receipt -->
<g id="edge20" class="edge">
<title>Vendor creates invoice &#45;&gt; Record Invoice Receipt&#45;&gt;Record Invoice Receipt</title>
<path fill="none" stroke="#2d137d" d="M645,-432.05C645,-424.57 645,-415.58 645,-407.14"/>
<polygon fill="#2d137d" stroke="#2d137d" points="648.5,-407.3 645,-397.3 641.5,-407.3 648.5,-407.3"/>
</g>
<!-- Change Price,Receive Order Confirmation &#45;&gt; Vendor creates invoice,Delete Purchase Order Item&#45;&gt;Vendor creates invoice -->
<g id="edge23" class="edge">
<title>Change Price,Receive Order Confirmation &#45;&gt; Vendor creates invoice,Delete Purchase Order Item&#45;&gt;Vendor creates invoice</title>
<path fill="none" stroke="#2d137d" d="M464.61,-576.05C498.4,-566.12 541.28,-553.51 576.75,-543.07"/>
<polygon fill="#2d137d" stroke="#2d137d" points="577.45,-546.52 586.05,-540.34 575.47,-539.8 577.45,-546.52"/>
</g>
<!-- Change Price,Receive Order Confirmation &#45;&gt; Vendor creates invoice,Delete Purchase Order Item&#45;&gt;Delete Purchase Order Item -->
<g id="edge24" class="edge">
<title>Change Price,Receive Order Confirmation &#45;&gt; Vendor creates invoice,Delete Purchase Order Item&#45;&gt;Delete Purchase Order Item</title>
<path fill="none" stroke="#2d137d" d="M374.8,-576.05C357.16,-566.77 335.08,-555.15 316.09,-545.15"/>
<polygon fill="#2d137d" stroke="#2d137d" points="317.72,-542.05 307.24,-540.49 314.46,-548.25 317.72,-542.05"/>
</g>
</g>
</svg>
