<?xml version="1.0" encoding="UTF-8" standalone="no"?>
<!DOCTYPE svg PUBLIC "-//W3C//DTD SVG 1.1//EN"
 "http://www.w3.org/Graphics/SVG/1.1/DTD/svg11.dtd">
<!-- Generated by graphviz version 8.0.5 (20230430.1635)
 -->
<!-- Title: graph2 Pages: 1 -->
<svg width="980pt" height="564pt"
 viewBox="0.00 0.00 980.00 564.25" xmlns="http://www.w3.org/2000/svg" xmlns:xlink="http://www.w3.org/1999/xlink">
<g id="graph0" class="graph" transform="scale(1 1) rotate(0) translate(4 560.25)">
<title>graph2</title>
<polygon fill="white" stroke="none" points="-4,4 -4,-560.25 976,-560.25 976,4 -4,4"/>
<!-- Create Purchase Order Item -->
<g id="node1" class="node">
<title>Create Purchase Order Item</title>
<image xlink:href="1.png" width="208px" height="36.5px" preserveAspectRatio="xMinYMin meet" x="226" y="-374.25"/>
<text text-anchor="middle" x="330" y="-358.85" font-family="Times New Roman,serif" font-size="12.00" fill="#2d137d">Create Purchase Order Item</text>
<text text-anchor="start" x="234" y="-344.6" font-family="Times New Roman,serif" font-size="12.00" fill="#2d137d"> &#160;&#160;&#160;&#160;&#160;&#160;&#160;&#160;&#160;&#160;&#160;&#160;63797</text>
</g>
<!-- Record Goods Receipt -->
<g id="node3" class="node">
<title>Record Goods Receipt</title>
<image xlink:href="1.png" width="208px" height="36.5px" preserveAspectRatio="xMinYMin meet" x="360" y="-286"/>
<text text-anchor="middle" x="464" y="-270.6" font-family="Times New Roman,serif" font-size="12.00" fill="#2d137d">Record Goods Receipt</text>
<text text-anchor="start" x="368" y="-256.35" font-family="Times New Roman,serif" font-size="12.00" fill="#2d137d"> &#160;&#160;&#160;&#160;&#160;&#160;&#160;&#160;&#160;&#160;&#160;&#160;60246</text>
</g>
<!-- Create Purchase Order Item&#45;&gt;Record Goods Receipt -->
<g id="edge14" class="edge">
<title>Create Purchase Order Item&#45;&gt;Record Goods Receipt</title>
<path fill="none" stroke="#2d137d" d="M356.79,-337.75C377.24,-324.59 405.62,-306.32 428.05,-291.89"/>
<polygon fill="#2d137d" stroke="#2d137d" points="429.74,-294.32 436.25,-285.97 425.95,-288.44 429.74,-294.32"/>
<text text-anchor="middle" x="417.62" y="-306.45" font-family="Times New Roman,serif" font-size="14.00" fill="#2d137d">0.0</text>
</g>
<!-- endevent -->
<g id="node12" class="node">
<title>endevent</title>
</g>
<!-- Create Purchase Order Item&#45;&gt;endevent -->
<g id="edge8" class="edge">
<title>Create Purchase Order Item&#45;&gt;endevent</title>
<path fill="none" stroke="#2d137d" d="M330,-337.82C330,-320.41 330,-292.71 330,-268.75 330,-268.75 330,-268.75 330,-90.25 330,-75.35 333.93,-59.27 338.21,-46.16"/>
<polygon fill="#2d137d" stroke="#2d137d" points="341.79,-47.53 341.82,-36.94 335.19,-45.21 341.79,-47.53"/>
</g>
<!-- Receive Order Confirmation -->
<g id="node2" class="node">
<title>Receive Order Confirmation</title>
<image xlink:href="1.png" width="208px" height="36.5px" preserveAspectRatio="xMinYMin meet" x="366" y="-483.25"/>
<text text-anchor="middle" x="470" y="-467.85" font-family="Times New Roman,serif" font-size="12.00" fill="#2d137d">Receive Order Confirmation</text>
<text text-anchor="start" x="374" y="-453.6" font-family="Times New Roman,serif" font-size="12.00" fill="#2d137d"> &#160;&#160;&#160;&#160;&#160;&#160;&#160;&#160;&#160;&#160;&#160;&#160;7212</text>
</g>
<!-- Receive Order Confirmation&#45;&gt;Record Goods Receipt -->
<g id="edge21" class="edge">
<title>Receive Order Confirmation&#45;&gt;Record Goods Receipt</title>
<path fill="none" stroke="#2d137d" d="M469.48,-447.01C468.44,-413.33 466.12,-337.8 464.86,-296.69"/>
<polygon fill="#2d137d" stroke="#2d137d" points="468.33,-296.72 464.53,-286.84 461.33,-296.94 468.33,-296.72"/>
<text text-anchor="middle" x="475.62" y="-350.57" font-family="Times New Roman,serif" font-size="14.00" fill="#2d137d">0.0</text>
</g>
<!-- Vendor creates invoice -->
<g id="node4" class="node">
<title>Vendor creates invoice</title>
<image xlink:href="1.png" width="208px" height="36.5px" preserveAspectRatio="xMinYMin meet" x="505" y="-374.25"/>
<text text-anchor="middle" x="609" y="-358.85" font-family="Times New Roman,serif" font-size="12.00" fill="#2d137d">Vendor creates invoice</text>
<text text-anchor="start" x="513" y="-344.6" font-family="Times New Roman,serif" font-size="12.00" fill="#2d137d"> &#160;&#160;&#160;&#160;&#160;&#160;&#160;&#160;&#160;&#160;&#160;&#160;53326</text>
</g>
<!-- Receive Order Confirmation&#45;&gt;Vendor creates invoice -->
<g id="edge23" class="edge">
<title>Receive Order Confirmation&#45;&gt;Vendor creates invoice</title>
<path fill="none" stroke="#2d137d" d="M492.33,-446.81C515.54,-428.95 552.02,-400.86 578.01,-380.86"/>
<polygon fill="#2d137d" stroke="#2d137d" points="579.93,-383.02 585.72,-374.15 575.66,-377.48 579.93,-383.02"/>
<text text-anchor="middle" x="568.62" y="-405.07" font-family="Times New Roman,serif" font-size="14.00" fill="#2d137d">0.0</text>
</g>
<!-- Delete Purchase Order Item -->
<g id="node10" class="node">
<title>Delete Purchase Order Item</title>
<image xlink:href="1.png" width="208px" height="36.5px" preserveAspectRatio="xMinYMin meet" x="0" y="-374.25"/>
<text text-anchor="middle" x="104" y="-358.85" font-family="Times New Roman,serif" font-size="12.00" fill="#2d137d">Delete Purchase Order Item</text>
<text text-anchor="start" x="8" y="-344.6" font-family="Times New Roman,serif" font-size="12.00" fill="#2d137d"> &#160;&#160;&#160;&#160;&#160;&#160;&#160;&#160;&#160;&#160;&#160;&#160;3834</text>
</g>
<!-- Receive Order Confirmation&#45;&gt;Delete Purchase Order Item -->
<g id="edge11" class="edge">
<title>Receive Order Confirmation&#45;&gt;Delete Purchase Order Item</title>
<path fill="none" stroke="#2d137d" d="M411.2,-446.81C346.33,-427.84 242.04,-397.36 173.26,-377.25"/>
<polygon fill="#2d137d" stroke="#2d137d" points="174.54,-373.68 163.96,-374.24 172.58,-380.4 174.54,-373.68"/>
<text text-anchor="middle" x="349.62" y="-405.07" font-family="Times New Roman,serif" font-size="14.00" fill="#2d137d">0.0</text>
</g>
<!-- Clear Invoice -->
<g id="node6" class="node">
<title>Clear Invoice</title>
<image xlink:href="1.png" width="208px" height="36.5px" preserveAspectRatio="xMinYMin meet" x="410" y="-109.5"/>
<text text-anchor="middle" x="514" y="-94.1" font-family="Times New Roman,serif" font-size="12.00" fill="#2d137d">Clear Invoice</text>
<text text-anchor="start" x="418" y="-79.85" font-family="Times New Roman,serif" font-size="12.00" fill="#2d137d"> &#160;&#160;&#160;&#160;&#160;&#160;&#160;&#160;&#160;&#160;&#160;&#160;53326</text>
</g>
<!-- Record Goods Receipt&#45;&gt;Clear Invoice -->
<g id="edge17" class="edge">
<title>Record Goods Receipt&#45;&gt;Clear Invoice</title>
<path fill="none" stroke="#2d137d" d="M448.42,-249.54C431.21,-228.32 407.77,-191.36 422.75,-161.25 432.47,-141.72 450.65,-126.24 468.24,-114.94"/>
<polygon fill="#2d137d" stroke="#2d137d" points="469.61,-117.59 476.34,-109.41 465.97,-111.61 469.61,-117.59"/>
<text text-anchor="middle" x="430.62" y="-174.07" font-family="Times New Roman,serif" font-size="14.00" fill="#2d137d">0.0</text>
</g>
<!-- Remove Payment Block -->
<g id="node8" class="node">
<title>Remove Payment Block</title>
<image xlink:href="1.png" width="208px" height="36.5px" preserveAspectRatio="xMinYMin meet" x="449" y="-197.75"/>
<text text-anchor="middle" x="553" y="-182.35" font-family="Times New Roman,serif" font-size="12.00" fill="#2d137d">Remove Payment Block</text>
<text text-anchor="start" x="457" y="-168.1" font-family="Times New Roman,serif" font-size="12.00" fill="#2d137d"> &#160;&#160;&#160;&#160;&#160;&#160;&#160;&#160;&#160;&#160;&#160;&#160;10850</text>
</g>
<!-- Record Goods Receipt&#45;&gt;Remove Payment Block -->
<g id="edge15" class="edge">
<title>Record Goods Receipt&#45;&gt;Remove Payment Block</title>
<path fill="none" stroke="#2d137d" d="M481.58,-249.71C494.75,-236.95 512.95,-219.31 527.68,-205.04"/>
<polygon fill="#2d137d" stroke="#2d137d" points="529.71,-207.98 534.45,-198.5 524.84,-202.95 529.71,-207.98"/>
<text text-anchor="middle" x="524.62" y="-218.2" font-family="Times New Roman,serif" font-size="14.00" fill="#2d137d">0.0</text>
</g>
<!-- Record Goods Receipt&#45;&gt;endevent -->
<g id="edge10" class="edge">
<title>Record Goods Receipt&#45;&gt;endevent</title>
<path fill="none" stroke="#2d137d" d="M439.17,-249.69C432.89,-244.44 426.63,-238.25 422,-231.5 381.55,-172.59 361.61,-89.17 353.54,-46.49"/>
<polygon fill="#2d137d" stroke="#2d137d" points="356.83,-46.04 351.61,-36.82 349.95,-47.29 356.83,-46.04"/>
</g>
<!-- Record Invoice Receipt -->
<g id="node5" class="node">
<title>Record Invoice Receipt</title>
<image xlink:href="1.png" width="208px" height="36.5px" preserveAspectRatio="xMinYMin meet" x="587" y="-286"/>
<text text-anchor="middle" x="691" y="-270.6" font-family="Times New Roman,serif" font-size="12.00" fill="#2d137d">Record Invoice Receipt</text>
<text text-anchor="start" x="595" y="-256.35" font-family="Times New Roman,serif" font-size="12.00" fill="#2d137d"> &#160;&#160;&#160;&#160;&#160;&#160;&#160;&#160;&#160;&#160;&#160;&#160;53326</text>
</g>
<!-- Vendor creates invoice&#45;&gt;Record Invoice Receipt -->
<g id="edge18" class="edge">
<title>Vendor creates invoice&#45;&gt;Record Invoice Receipt</title>
<path fill="none" stroke="#2d137d" d="M625.2,-337.96C637.22,-325.32 653.79,-307.89 667.29,-293.69"/>
<polygon fill="#2d137d" stroke="#2d137d" points="669.48,-296.41 673.83,-286.75 664.41,-291.59 669.48,-296.41"/>
<text text-anchor="middle" x="665.62" y="-306.45" font-family="Times New Roman,serif" font-size="14.00" fill="#2d137d">0.0</text>
</g>
<!-- Record Invoice Receipt&#45;&gt;Clear Invoice -->
<g id="edge13" class="edge">
<title>Record Invoice Receipt&#45;&gt;Clear Invoice</title>
<path fill="none" stroke="#2d137d" d="M691.37,-249.77C690.97,-227.1 687.05,-186.83 666,-161.25 647.71,-139.03 620.73,-123.66 594.57,-113.18"/>
<polygon fill="#2d137d" stroke="#2d137d" points="596.19,-109.67 585.6,-109.4 593.7,-116.22 596.19,-109.67"/>
<text text-anchor="middle" x="692.62" y="-174.07" font-family="Times New Roman,serif" font-size="14.00" fill="#2d137d">0.0</text>
</g>
<!-- Record Invoice Receipt&#45;&gt;Remove Payment Block -->
<g id="edge12" class="edge">
<title>Record Invoice Receipt&#45;&gt;Remove Payment Block</title>
<path fill="none" stroke="#2d137d" d="M663.41,-249.5C642.25,-236.28 612.86,-217.91 589.72,-203.45"/>
<polygon fill="#2d137d" stroke="#2d137d" points="591.88,-200.05 581.55,-197.72 588.17,-205.98 591.88,-200.05"/>
<text text-anchor="middle" x="642.62" y="-218.2" font-family="Times New Roman,serif" font-size="14.00" fill="#2d137d">0.0</text>
</g>
<!-- Clear Invoice&#45;&gt;endevent -->
<g id="edge7" class="edge">
<title>Clear Invoice&#45;&gt;endevent</title>
<path fill="none" stroke="#2d137d" d="M474.06,-73C447.2,-61.4 412.05,-46.23 385.86,-34.92"/>
<polygon fill="#2d137d" stroke="#2d137d" points="387.51,-31.39 376.94,-30.63 384.74,-37.81 387.51,-31.39"/>
</g>
<!-- Change Quantity -->
<g id="node7" class="node">
<title>Change Quantity</title>
<image xlink:href="1.png" width="208px" height="36.5px" preserveAspectRatio="xMinYMin meet" x="764" y="-428.75"/>
<text text-anchor="middle" x="868" y="-413.35" font-family="Times New Roman,serif" font-size="12.00" fill="#2d137d">Change Quantity</text>
<text text-anchor="start" x="772" y="-399.1" font-family="Times New Roman,serif" font-size="12.00" fill="#2d137d"> &#160;&#160;&#160;&#160;&#160;&#160;&#160;&#160;&#160;&#160;&#160;&#160;1717</text>
</g>
<!-- Change Quantity&#45;&gt;Record Invoice Receipt -->
<g id="edge19" class="edge">
<title>Change Quantity&#45;&gt;Record Invoice Receipt</title>
<path fill="none" stroke="#2d137d" d="M854.16,-392.41C835.33,-369.96 799.77,-330.33 763,-304 756.32,-299.21 748.89,-294.76 741.41,-290.74"/>
<polygon fill="#2d137d" stroke="#2d137d" points="743.45,-287.34 732.96,-285.89 740.26,-293.57 743.45,-287.34"/>
<text text-anchor="middle" x="845.62" y="-350.57" font-family="Times New Roman,serif" font-size="14.00" fill="#2d137d">0.0</text>
</g>
<!-- Remove Payment Block&#45;&gt;Clear Invoice -->
<g id="edge16" class="edge">
<title>Remove Payment Block&#45;&gt;Clear Invoice</title>
<path fill="none" stroke="#2d137d" d="M545.29,-161.46C539.85,-149.41 532.43,-133.01 526.18,-119.2"/>
<polygon fill="#2d137d" stroke="#2d137d" points="529,-117.92 521.69,-110.25 522.62,-120.81 529,-117.92"/>
<text text-anchor="middle" x="544.62" y="-129.95" font-family="Times New Roman,serif" font-size="14.00" fill="#2d137d">0.0</text>
</g>
<!-- Change Price -->
<g id="node9" class="node">
<title>Change Price</title>
<image xlink:href="1.png" width="208px" height="36.5px" preserveAspectRatio="xMinYMin meet" x="630" y="-483.25"/>
<text text-anchor="middle" x="734" y="-467.85" font-family="Times New Roman,serif" font-size="12.00" fill="#2d137d">Change Price</text>
<text text-anchor="start" x="638" y="-453.6" font-family="Times New Roman,serif" font-size="12.00" fill="#2d137d"> &#160;&#160;&#160;&#160;&#160;&#160;&#160;&#160;&#160;&#160;&#160;&#160;1087</text>
</g>
<!-- Change Price&#45;&gt;Record Goods Receipt -->
<g id="edge20" class="edge">
<title>Change Price&#45;&gt;Record Goods Receipt</title>
<path fill="none" stroke="#2d137d" d="M736.48,-446.82C739.31,-421.29 741.3,-372.61 722,-337.75 710.06,-316.19 700.62,-313.8 678,-304 672.88,-301.78 626.61,-294.06 578.4,-286.4"/>
<polygon fill="#2d137d" stroke="#2d137d" points="579.19,-282.83 568.77,-284.72 578.1,-289.74 579.19,-282.83"/>
<text text-anchor="middle" x="742.62" y="-350.57" font-family="Times New Roman,serif" font-size="14.00" fill="#2d137d">0.0</text>
</g>
<!-- Change Price&#45;&gt;Vendor creates invoice -->
<g id="edge22" class="edge">
<title>Change Price&#45;&gt;Vendor creates invoice</title>
<path fill="none" stroke="#2d137d" d="M713.92,-446.81C693.14,-429.03 660.53,-401.11 637.18,-381.12"/>
<polygon fill="#2d137d" stroke="#2d137d" points="639.91,-377.99 630.03,-374.15 635.35,-383.31 639.91,-377.99"/>
<text text-anchor="middle" x="698.62" y="-405.07" font-family="Times New Roman,serif" font-size="14.00" fill="#2d137d">0.0</text>
</g>
<!-- Delete Purchase Order Item&#45;&gt;endevent -->
<g id="edge9" class="edge">
<title>Delete Purchase Order Item&#45;&gt;endevent</title>
<path fill="none" stroke="#2d137d" d="M143.05,-337.78C168.87,-323.46 198,-300.31 198,-268.75 198,-268.75 198,-268.75 198,-90.25 198,-40.28 266.47,-25.3 311.2,-20.84"/>
<polygon fill="#2d137d" stroke="#2d137d" points="311.34,-24.26 321,-19.92 310.74,-17.29 311.34,-24.26"/>
</g>
<!-- startevent -->
<g id="node11" class="node">
<title>startevent</title>
</g>
<!-- startevent&#45;&gt;Create Purchase Order Item -->
<g id="edge3" class="edge">
<title>startevent&#45;&gt;Create Purchase Order Item</title>
<path fill="none" stroke="#2d137d" d="M542.21,-533.95C491.12,-527.12 382.54,-509.8 357,-483.25 331.73,-456.99 327.67,-413.15 328.07,-384.67"/>
<polygon fill="#2d137d" stroke="#2d137d" points="331.6,-384.97 328.44,-374.85 324.6,-384.72 331.6,-384.97"/>
</g>
<!-- startevent&#45;&gt;Receive Order Confirmation -->
<g id="edge5" class="edge">
<title>startevent&#45;&gt;Receive Order Confirmation</title>
<path fill="none" stroke="#2d137d" d="M545.54,-520.36C532.69,-511.12 516.56,-499.51 502.51,-489.4"/>
<polygon fill="#2d137d" stroke="#2d137d" points="504.8,-486.01 494.64,-483.01 500.71,-491.69 504.8,-486.01"/>
</g>
<!-- startevent&#45;&gt;Vendor creates invoice -->
<g id="edge6" class="edge">
<title>startevent&#45;&gt;Vendor creates invoice</title>
<path fill="none" stroke="#2d137d" d="M573.63,-520.28C576.47,-509.67 580.11,-495.7 583,-483.25 590.82,-449.6 598.66,-410.63 603.66,-384.99"/>
<polygon fill="#2d137d" stroke="#2d137d" points="607.28,-385.7 605.74,-375.21 600.41,-384.37 607.28,-385.7"/>
</g>
<!-- startevent&#45;&gt;Change Quantity -->
<g id="edge2" class="edge">
<title>startevent&#45;&gt;Change Quantity</title>
<path fill="none" stroke="#2d137d" d="M595.99,-535.52C658.43,-530.98 810.29,-516.7 847,-483.25 859.16,-472.17 864.42,-454.49 866.64,-439.44"/>
<polygon fill="#2d137d" stroke="#2d137d" points="870.22,-439.93 867.81,-429.61 863.26,-439.18 870.22,-439.93"/>
</g>
<!-- startevent&#45;&gt;Change Price -->
<g id="edge1" class="edge">
<title>startevent&#45;&gt;Change Price</title>
<path fill="none" stroke="#2d137d" d="M595.88,-525.64C619.73,-515.34 655.19,-500.03 684.21,-487.5"/>
<polygon fill="#2d137d" stroke="#2d137d" points="685.39,-490.37 693.18,-483.2 682.61,-483.95 685.39,-490.37"/>
</g>
<!-- startevent&#45;&gt;Delete Purchase Order Item -->
<g id="edge4" class="edge">
<title>startevent&#45;&gt;Delete Purchase Order Item</title>
<path fill="none" stroke="#2d137d" d="M542.19,-533.5C506.1,-528.14 440.06,-517.26 385,-502.25 288.98,-476.08 188.09,-414.17 137.34,-380.24"/>
<polygon fill="#2d137d" stroke="#2d137d" points="139.71,-376.94 129.46,-374.25 135.79,-382.74 139.71,-376.94"/>
</g>
</g>
</svg>
