<?xml version="1.0" encoding="UTF-8" standalone="no"?>
<!DOCTYPE svg PUBLIC "-//W3C//DTD SVG 1.1//EN"
 "http://www.w3.org/Graphics/SVG/1.1/DTD/svg11.dtd">
<!-- Generated by graphviz version 5.0.0 (20220707.1540)
 -->
<!-- Title: graph1 Pages: 1 -->
<svg width="866pt" height="799pt"
 viewBox="0.00 0.00 865.58 799.00" xmlns="http://www.w3.org/2000/svg" xmlns:xlink="http://www.w3.org/1999/xlink">
<g id="graph0" class="graph" transform="scale(1 1) rotate(0) translate(4 795)">
<title>graph1</title>
<polygon fill="white" stroke="transparent" points="-4,4 -4,-795 861.58,-795 861.58,4 -4,4"/>
<!-- Create Purchase Order Item -->
<g id="node1" class="node">
<title>Create Purchase Order Item</title>
<image xlink:href="1.png" width="208px" height="36px" preserveAspectRatio="xMinYMin meet" x="348.58" y="-718"/>
<text text-anchor="middle" x="452.58" y="-703.4" font-family="Times New Roman,serif" font-size="12.00" fill="#2d137d">Create Purchase Order Item</text>
<text text-anchor="start" x="356.58" y="-690.4" font-family="Times New Roman,serif" font-size="12.00" fill="#2d137d"> &#160;&#160;&#160;&#160;&#160;&#160;&#160;&#160;&#160;&#160;&#160;&#160;63797</text>
</g>
<!-- Receive Order Confirmation -->
<g id="node2" class="node">
<title>Receive Order Confirmation</title>
<image xlink:href="1.png" width="208px" height="36px" preserveAspectRatio="xMinYMin meet" x="208.58" y="-631"/>
<text text-anchor="middle" x="312.58" y="-616.4" font-family="Times New Roman,serif" font-size="12.00" fill="#2d137d">Receive Order Confirmation</text>
<text text-anchor="start" x="216.58" y="-603.4" font-family="Times New Roman,serif" font-size="12.00" fill="#2d137d"> &#160;&#160;&#160;&#160;&#160;&#160;&#160;&#160;&#160;&#160;&#160;&#160;7212</text>
</g>
<!-- Create Purchase Order Item&#45;&gt;Receive Order Confirmation -->
<g id="edge36" class="edge">
<title>Create Purchase Order Item&#45;&gt;Receive Order Confirmation</title>
<path fill="none" stroke="#2d137d" d="M430.12,-681.93C416.42,-671.84 398.37,-659.1 381.58,-649 373.97,-644.42 365.69,-639.88 357.59,-635.65"/>
<polygon fill="#2d137d" stroke="#2d137d" points="359.06,-632.47 348.57,-631.03 355.87,-638.7 359.06,-632.47"/>
<text text-anchor="middle" x="412.58" y="-652.8" font-family="Times New Roman,serif" font-size="14.00" fill="#2d137d">0.0</text>
</g>
<!-- Record Goods Receipt -->
<g id="node3" class="node">
<title>Record Goods Receipt</title>
<image xlink:href="1.png" width="208px" height="36px" preserveAspectRatio="xMinYMin meet" x="357.58" y="-544"/>
<text text-anchor="middle" x="461.58" y="-529.4" font-family="Times New Roman,serif" font-size="12.00" fill="#2d137d">Record Goods Receipt</text>
<text text-anchor="start" x="365.58" y="-516.4" font-family="Times New Roman,serif" font-size="12.00" fill="#2d137d"> &#160;&#160;&#160;&#160;&#160;&#160;&#160;&#160;&#160;&#160;&#160;&#160;60246</text>
</g>
<!-- Create Purchase Order Item&#45;&gt;Record Goods Receipt -->
<g id="edge37" class="edge">
<title>Create Purchase Order Item&#45;&gt;Record Goods Receipt</title>
<path fill="none" stroke="#2d137d" d="M453.48,-681.88C455.04,-652 458.28,-590.11 460.15,-554.27"/>
<polygon fill="#2d137d" stroke="#2d137d" points="463.66,-554.22 460.69,-544.05 456.67,-553.86 463.66,-554.22"/>
<text text-anchor="middle" x="466.58" y="-609.3" font-family="Times New Roman,serif" font-size="14.00" fill="#2d137d">0.0</text>
</g>
<!-- Vendor creates invoice -->
<g id="node4" class="node">
<title>Vendor creates invoice</title>
<image xlink:href="1.png" width="208px" height="36px" preserveAspectRatio="xMinYMin meet" x="537.58" y="-457"/>
<text text-anchor="middle" x="641.58" y="-442.4" font-family="Times New Roman,serif" font-size="12.00" fill="#2d137d">Vendor creates invoice</text>
<text text-anchor="start" x="545.58" y="-429.4" font-family="Times New Roman,serif" font-size="12.00" fill="#2d137d"> &#160;&#160;&#160;&#160;&#160;&#160;&#160;&#160;&#160;&#160;&#160;&#160;53326</text>
</g>
<!-- Create Purchase Order Item&#45;&gt;Vendor creates invoice -->
<g id="edge30" class="edge">
<title>Create Purchase Order Item&#45;&gt;Vendor creates invoice</title>
<path fill="none" stroke="#2d137d" d="M556.65,-684.14C617.99,-673 687.11,-655.45 705.58,-631 715.22,-618.23 708.69,-610.69 705.58,-595 696.18,-547.59 672.05,-496.48 656.25,-466.41"/>
<polygon fill="#2d137d" stroke="#2d137d" points="659.25,-464.59 651.45,-457.42 653.07,-467.89 659.25,-464.59"/>
<text text-anchor="middle" x="709.58" y="-565.8" font-family="Times New Roman,serif" font-size="14.00" fill="#2d137d">0.0</text>
</g>
<!-- Change Quantity -->
<g id="node7" class="node">
<title>Change Quantity</title>
<image xlink:href="1.png" width="208px" height="36px" preserveAspectRatio="xMinYMin meet" x="238.58" y="-370"/>
<text text-anchor="middle" x="342.58" y="-355.4" font-family="Times New Roman,serif" font-size="12.00" fill="#2d137d">Change Quantity</text>
<text text-anchor="start" x="246.58" y="-342.4" font-family="Times New Roman,serif" font-size="12.00" fill="#2d137d"> &#160;&#160;&#160;&#160;&#160;&#160;&#160;&#160;&#160;&#160;&#160;&#160;1717</text>
</g>
<!-- Create Purchase Order Item&#45;&gt;Change Quantity -->
<g id="edge39" class="edge">
<title>Create Purchase Order Item&#45;&gt;Change Quantity</title>
<path fill="none" stroke="#2d137d" d="M556.69,-690.67C613.94,-684.89 678.52,-676.05 704.58,-664 804.66,-617.72 826.51,-504.57 754.58,-421 735.23,-398.52 572.19,-376.98 457.12,-364.38"/>
<polygon fill="#2d137d" stroke="#2d137d" points="457.15,-360.86 446.83,-363.26 456.4,-367.82 457.15,-360.86"/>
<text text-anchor="middle" x="805.58" y="-522.3" font-family="Times New Roman,serif" font-size="14.00" fill="#2d137d">0.0</text>
</g>
<!-- Change Price -->
<g id="node9" class="node">
<title>Change Price</title>
<image xlink:href="1.png" width="208px" height="36px" preserveAspectRatio="xMinYMin meet" x="488.58" y="-631"/>
<text text-anchor="middle" x="592.58" y="-616.4" font-family="Times New Roman,serif" font-size="12.00" fill="#2d137d">Change Price</text>
<text text-anchor="start" x="496.58" y="-603.4" font-family="Times New Roman,serif" font-size="12.00" fill="#2d137d"> &#160;&#160;&#160;&#160;&#160;&#160;&#160;&#160;&#160;&#160;&#160;&#160;1087</text>
</g>
<!-- Create Purchase Order Item&#45;&gt;Change Price -->
<g id="edge13" class="edge">
<title>Create Purchase Order Item&#45;&gt;Change Price</title>
<path fill="none" stroke="#2d137d" d="M480.91,-681.8C502.45,-668.72 532.26,-650.62 555.67,-636.41"/>
<polygon fill="#2d137d" stroke="#2d137d" points="557.56,-639.36 564.29,-631.18 553.93,-633.37 557.56,-639.36"/>
<text text-anchor="middle" x="539.58" y="-652.8" font-family="Times New Roman,serif" font-size="14.00" fill="#2d137d">0.0</text>
</g>
<!-- Delete Purchase Order Item -->
<g id="node10" class="node">
<title>Delete Purchase Order Item</title>
<image xlink:href="1.png" width="208px" height="36px" preserveAspectRatio="xMinYMin meet" x="23.5796" y="-544"/>
<text text-anchor="middle" x="127.58" y="-529.4" font-family="Times New Roman,serif" font-size="12.00" fill="#2d137d">Delete Purchase Order Item</text>
<text text-anchor="start" x="31.58" y="-516.4" font-family="Times New Roman,serif" font-size="12.00" fill="#2d137d"> &#160;&#160;&#160;&#160;&#160;&#160;&#160;&#160;&#160;&#160;&#160;&#160;3834</text>
</g>
<!-- Create Purchase Order Item&#45;&gt;Delete Purchase Order Item -->
<g id="edge42" class="edge">
<title>Create Purchase Order Item&#45;&gt;Delete Purchase Order Item</title>
<path fill="none" stroke="#2d137d" d="M348.21,-696.11C278.96,-692.36 195.65,-683.74 166.58,-664 131.66,-640.28 125.97,-587.28 126.05,-554.59"/>
<polygon fill="#2d137d" stroke="#2d137d" points="129.56,-554.43 126.27,-544.36 122.56,-554.28 129.56,-554.43"/>
<text text-anchor="middle" x="148.58" y="-609.3" font-family="Times New Roman,serif" font-size="14.00" fill="#2d137d">0.0</text>
</g>
<!-- endevent -->
<g id="node12" class="node">
<title>endevent</title>
</g>
<!-- Create Purchase Order Item&#45;&gt;endevent -->
<g id="edge8" class="edge">
<title>Create Purchase Order Item&#45;&gt;endevent</title>
<path fill="none" stroke="#2d137d" d="M556.82,-685.75C566.88,-684.48 576.92,-683.21 586.58,-682 651.01,-673.91 670.76,-686.76 731.58,-664 809.06,-635.01 857.58,-609.73 857.58,-527 857.58,-527 857.58,-527 857.58,-90 857.58,-26.23 369.26,-19.61 228.27,-19.02"/>
<polygon fill="#2d137d" stroke="#2d137d" points="227.98,-15.52 217.97,-18.99 227.96,-22.52 227.98,-15.52"/>
</g>
<!-- Receive Order Confirmation&#45;&gt;Create Purchase Order Item -->
<g id="edge18" class="edge">
<title>Receive Order Confirmation&#45;&gt;Create Purchase Order Item</title>
<path fill="none" stroke="#2d137d" d="M326.79,-631.09C336.32,-641.69 349.64,-654.96 363.58,-664 371.65,-669.23 380.61,-673.88 389.67,-677.95"/>
<polygon fill="#2d137d" stroke="#2d137d" points="388.52,-681.27 399.09,-681.98 391.27,-674.83 388.52,-681.27"/>
<text text-anchor="middle" x="372.58" y="-652.8" font-family="Times New Roman,serif" font-size="14.00" fill="#2d137d">0.0</text>
</g>
<!-- Receive Order Confirmation&#45;&gt;Record Goods Receipt -->
<g id="edge21" class="edge">
<title>Receive Order Confirmation&#45;&gt;Record Goods Receipt</title>
<path fill="none" stroke="#2d137d" d="M342.73,-594.8C365.83,-581.62 397.87,-563.34 422.87,-549.08"/>
<polygon fill="#2d137d" stroke="#2d137d" points="424.77,-552.03 431.73,-544.03 421.31,-545.95 424.77,-552.03"/>
<text text-anchor="middle" x="404.58" y="-565.8" font-family="Times New Roman,serif" font-size="14.00" fill="#2d137d">0.0</text>
</g>
<!-- Receive Order Confirmation&#45;&gt;Vendor creates invoice -->
<g id="edge27" class="edge">
<title>Receive Order Confirmation&#45;&gt;Vendor creates invoice</title>
<path fill="none" stroke="#2d137d" d="M310.22,-594.7C308.14,-571.72 308.28,-531.3 330.58,-508 357.64,-479.72 449.96,-461.92 527.04,-451.66"/>
<polygon fill="#2d137d" stroke="#2d137d" points="527.86,-455.08 537.33,-450.32 526.96,-448.14 527.86,-455.08"/>
<text text-anchor="middle" x="339.58" y="-522.3" font-family="Times New Roman,serif" font-size="14.00" fill="#2d137d">0.0</text>
</g>
<!-- Receive Order Confirmation&#45;&gt;Delete Purchase Order Item -->
<g id="edge22" class="edge">
<title>Receive Order Confirmation&#45;&gt;Delete Purchase Order Item</title>
<path fill="none" stroke="#2d137d" d="M275.14,-594.8C245.96,-581.39 205.28,-562.7 174.02,-548.34"/>
<polygon fill="#2d137d" stroke="#2d137d" points="175.19,-545.02 164.65,-544.03 172.27,-551.39 175.19,-545.02"/>
<text text-anchor="middle" x="239.58" y="-565.8" font-family="Times New Roman,serif" font-size="14.00" fill="#2d137d">0.0</text>
</g>
<!-- Record Goods Receipt&#45;&gt;Record Goods Receipt -->
<g id="edge17" class="edge">
<title>Record Goods Receipt&#45;&gt;Record Goods Receipt</title>
<path fill="none" stroke="#2d137d" d="M565.7,-532.52C576.6,-531.25 583.58,-529.08 583.58,-526 583.58,-524.03 580.71,-522.43 575.79,-521.2"/>
<polygon fill="#2d137d" stroke="#2d137d" points="576.15,-517.71 565.7,-519.48 574.97,-524.61 576.15,-517.71"/>
<text text-anchor="middle" x="592.58" y="-522.3" font-family="Times New Roman,serif" font-size="14.00" fill="#2d137d">0.0</text>
</g>
<!-- Record Goods Receipt&#45;&gt;Vendor creates invoice -->
<g id="edge40" class="edge">
<title>Record Goods Receipt&#45;&gt;Vendor creates invoice</title>
<path fill="none" stroke="#2d137d" d="M533.15,-507.94C548.24,-503.11 563.76,-497.16 577.58,-490 591.18,-482.95 604.76,-472.88 615.89,-463.62"/>
<polygon fill="#2d137d" stroke="#2d137d" points="618.21,-466.25 623.53,-457.08 613.66,-460.93 618.21,-466.25"/>
<text text-anchor="middle" x="608.58" y="-478.8" font-family="Times New Roman,serif" font-size="14.00" fill="#2d137d">0.0</text>
</g>
<!-- Record Invoice Receipt -->
<g id="node5" class="node">
<title>Record Invoice Receipt</title>
<image xlink:href="1.png" width="208px" height="36px" preserveAspectRatio="xMinYMin meet" x="354.58" y="-283"/>
<text text-anchor="middle" x="458.58" y="-268.4" font-family="Times New Roman,serif" font-size="12.00" fill="#2d137d">Record Invoice Receipt</text>
<text text-anchor="start" x="362.58" y="-255.4" font-family="Times New Roman,serif" font-size="12.00" fill="#2d137d"> &#160;&#160;&#160;&#160;&#160;&#160;&#160;&#160;&#160;&#160;&#160;&#160;53326</text>
</g>
<!-- Record Goods Receipt&#45;&gt;Record Invoice Receipt -->
<g id="edge20" class="edge">
<title>Record Goods Receipt&#45;&gt;Record Invoice Receipt</title>
<path fill="none" stroke="#2d137d" d="M461.38,-507.6C460.87,-463.46 459.52,-346.83 458.9,-293.42"/>
<polygon fill="#2d137d" stroke="#2d137d" points="462.4,-293.28 458.78,-283.32 455.4,-293.36 462.4,-293.28"/>
<text text-anchor="middle" x="468.58" y="-391.8" font-family="Times New Roman,serif" font-size="14.00" fill="#2d137d">0.0</text>
</g>
<!-- Clear Invoice -->
<g id="node6" class="node">
<title>Clear Invoice</title>
<image xlink:href="1.png" width="208px" height="36px" preserveAspectRatio="xMinYMin meet" x="181.58" y="-109"/>
<text text-anchor="middle" x="285.58" y="-94.4" font-family="Times New Roman,serif" font-size="12.00" fill="#2d137d">Clear Invoice</text>
<text text-anchor="start" x="189.58" y="-81.4" font-family="Times New Roman,serif" font-size="12.00" fill="#2d137d"> &#160;&#160;&#160;&#160;&#160;&#160;&#160;&#160;&#160;&#160;&#160;&#160;53326</text>
</g>
<!-- Record Goods Receipt&#45;&gt;Clear Invoice -->
<g id="edge12" class="edge">
<title>Record Goods Receipt&#45;&gt;Clear Invoice</title>
<path fill="none" stroke="#2d137d" d="M408.85,-507.99C351.8,-486.3 264.35,-442.64 229.58,-370 191.9,-291.28 302.1,-281.29 320.58,-196 323.97,-180.36 324.35,-175.55 320.58,-160 317.02,-145.3 309.69,-130.21 302.66,-117.99"/>
<polygon fill="#2d137d" stroke="#2d137d" points="305.56,-116.03 297.4,-109.26 299.56,-119.64 305.56,-116.03"/>
<text text-anchor="middle" x="246.58" y="-304.8" font-family="Times New Roman,serif" font-size="14.00" fill="#2d137d">0.0</text>
</g>
<!-- Record Goods Receipt&#45;&gt;Change Quantity -->
<g id="edge16" class="edge">
<title>Record Goods Receipt&#45;&gt;Change Quantity</title>
<path fill="none" stroke="#2d137d" d="M426.74,-507.87C406.53,-496.21 382.26,-478.92 367.58,-457 352.21,-434.06 346.26,-402.69 343.98,-380.42"/>
<polygon fill="#2d137d" stroke="#2d137d" points="347.45,-379.96 343.12,-370.29 340.47,-380.55 347.45,-379.96"/>
<text text-anchor="middle" x="376.58" y="-435.3" font-family="Times New Roman,serif" font-size="14.00" fill="#2d137d">0.0</text>
</g>
<!-- Remove Payment Block -->
<g id="node8" class="node">
<title>Remove Payment Block</title>
<image xlink:href="1.png" width="208px" height="36px" preserveAspectRatio="xMinYMin meet" x="103.58" y="-196"/>
<text text-anchor="middle" x="207.58" y="-181.4" font-family="Times New Roman,serif" font-size="12.00" fill="#2d137d">Remove Payment Block</text>
<text text-anchor="start" x="111.58" y="-168.4" font-family="Times New Roman,serif" font-size="12.00" fill="#2d137d"> &#160;&#160;&#160;&#160;&#160;&#160;&#160;&#160;&#160;&#160;&#160;&#160;10850</text>
</g>
<!-- Record Goods Receipt&#45;&gt;Remove Payment Block -->
<g id="edge23" class="edge">
<title>Record Goods Receipt&#45;&gt;Remove Payment Block</title>
<path fill="none" stroke="#2d137d" d="M357.46,-508.66C355.82,-508.43 354.19,-508.21 352.58,-508 264.5,-496.3 164.58,-528.85 164.58,-440 164.58,-440 164.58,-440 164.58,-264 164.58,-242.37 175.8,-220.66 186.78,-204.59"/>
<polygon fill="#2d137d" stroke="#2d137d" points="189.76,-206.44 192.78,-196.28 184.09,-202.34 189.76,-206.44"/>
<text text-anchor="middle" x="173.58" y="-348.3" font-family="Times New Roman,serif" font-size="14.00" fill="#2d137d">0.0</text>
</g>
<!-- Record Goods Receipt&#45;&gt;endevent -->
<g id="edge10" class="edge">
<title>Record Goods Receipt&#45;&gt;endevent</title>
<path fill="none" stroke="#2d137d" d="M357.46,-508.63C355.82,-508.42 354.19,-508.21 352.58,-508 289.7,-500.01 75.58,-503.38 75.58,-440 75.58,-440 75.58,-440 75.58,-90 75.58,-52.79 119.72,-34.43 153.3,-25.85"/>
<polygon fill="#2d137d" stroke="#2d137d" points="154.39,-29.19 163.33,-23.49 152.79,-22.38 154.39,-29.19"/>
</g>
<!-- Vendor creates invoice&#45;&gt;Create Purchase Order Item -->
<g id="edge33" class="edge">
<title>Vendor creates invoice&#45;&gt;Create Purchase Order Item</title>
<path fill="none" stroke="#2d137d" d="M661.2,-457.32C666.79,-462.71 672.69,-468.86 677.58,-475 722.44,-531.37 754.8,-567.08 721.58,-631 709.81,-653.65 698.24,-654.43 674.58,-664 640.77,-677.67 602.06,-686.02 566.53,-691.12"/>
<polygon fill="#2d137d" stroke="#2d137d" points="566.04,-687.66 556.6,-692.47 566.98,-694.59 566.04,-687.66"/>
<text text-anchor="middle" x="743.58" y="-565.8" font-family="Times New Roman,serif" font-size="14.00" fill="#2d137d">0.0</text>
</g>
<!-- Vendor creates invoice&#45;&gt;Record Goods Receipt -->
<g id="edge32" class="edge">
<title>Vendor creates invoice&#45;&gt;Record Goods Receipt</title>
<path fill="none" stroke="#2d137d" d="M600.04,-457.08C587.01,-462.61 572.62,-468.9 559.58,-475 540.89,-483.74 520.53,-494.01 503.24,-502.95"/>
<polygon fill="#2d137d" stroke="#2d137d" points="501.23,-500.05 493.97,-507.77 504.46,-506.26 501.23,-500.05"/>
<text text-anchor="middle" x="568.58" y="-478.8" font-family="Times New Roman,serif" font-size="14.00" fill="#2d137d">0.0</text>
</g>
<!-- Vendor creates invoice&#45;&gt;Record Invoice Receipt -->
<g id="edge34" class="edge">
<title>Vendor creates invoice&#45;&gt;Record Invoice Receipt</title>
<path fill="none" stroke="#2d137d" d="M636.82,-420.55C628.03,-391.51 606.47,-333.3 567.58,-301 561.15,-295.66 553.89,-291.13 546.25,-287.29"/>
<polygon fill="#2d137d" stroke="#2d137d" points="547.68,-284.09 537.13,-283.09 544.75,-290.45 547.68,-284.09"/>
<text text-anchor="middle" x="625.58" y="-348.3" font-family="Times New Roman,serif" font-size="14.00" fill="#2d137d">0.0</text>
</g>
<!-- Vendor creates invoice&#45;&gt;Change Quantity -->
<g id="edge31" class="edge">
<title>Vendor creates invoice&#45;&gt;Change Quantity</title>
<path fill="none" stroke="#2d137d" d="M564.07,-420.97C547.08,-416.1 529.44,-410.13 513.58,-403 502.45,-398 501.8,-392.81 490.58,-388 476.65,-382.03 461.52,-376.97 446.43,-372.72"/>
<polygon fill="#2d137d" stroke="#2d137d" points="447.1,-369.28 436.53,-370.05 445.27,-376.04 447.1,-369.28"/>
<text text-anchor="middle" x="522.58" y="-391.8" font-family="Times New Roman,serif" font-size="14.00" fill="#2d137d">0.0</text>
</g>
<!-- Record Invoice Receipt&#45;&gt;Record Goods Receipt -->
<g id="edge24" class="edge">
<title>Record Invoice Receipt&#45;&gt;Record Goods Receipt</title>
<path fill="none" stroke="#2d137d" d="M473.04,-283.18C490.87,-305.6 520.21,-346.84 531.58,-388 533.36,-394.43 533.3,-396.56 531.58,-403 521.89,-439.36 498.51,-476.14 481.42,-499.67"/>
<polygon fill="#2d137d" stroke="#2d137d" points="478.6,-497.6 475.45,-507.72 484.22,-501.77 478.6,-497.6"/>
<text text-anchor="middle" x="541.58" y="-391.8" font-family="Times New Roman,serif" font-size="14.00" fill="#2d137d">0.0</text>
</g>
<!-- Record Invoice Receipt&#45;&gt;Clear Invoice -->
<g id="edge19" class="edge">
<title>Record Invoice Receipt&#45;&gt;Clear Invoice</title>
<path fill="none" stroke="#2d137d" d="M448.91,-246.89C432.4,-218.87 396.35,-162.74 353.58,-127 347.91,-122.26 341.48,-117.92 334.91,-114.04"/>
<polygon fill="#2d137d" stroke="#2d137d" points="336.34,-110.83 325.9,-109.04 332.94,-116.95 336.34,-110.83"/>
<text text-anchor="middle" x="422.58" y="-174.3" font-family="Times New Roman,serif" font-size="14.00" fill="#2d137d">0.0</text>
</g>
<!-- Record Invoice Receipt&#45;&gt;Remove Payment Block -->
<g id="edge26" class="edge">
<title>Record Invoice Receipt&#45;&gt;Remove Payment Block</title>
<path fill="none" stroke="#2d137d" d="M408.09,-246.9C367.5,-233.15 310.37,-213.81 267.47,-199.28"/>
<polygon fill="#2d137d" stroke="#2d137d" points="268.58,-195.96 257.99,-196.07 266.34,-202.59 268.58,-195.96"/>
<text text-anchor="middle" x="356.58" y="-217.8" font-family="Times New Roman,serif" font-size="14.00" fill="#2d137d">0.0</text>
</g>
<!-- Clear Invoice&#45;&gt;endevent -->
<g id="edge7" class="edge">
<title>Clear Invoice&#45;&gt;endevent</title>
<path fill="none" stroke="#2d137d" d="M262.58,-72.81C250.21,-63.57 234.79,-52.04 221.4,-42.03"/>
<polygon fill="#2d137d" stroke="#2d137d" points="223.47,-39.21 213.36,-36.03 219.28,-44.82 223.47,-39.21"/>
</g>
<!-- Change Quantity&#45;&gt;Create Purchase Order Item -->
<g id="edge14" class="edge">
<title>Change Quantity&#45;&gt;Create Purchase Order Item</title>
<path fill="none" stroke="#2d137d" d="M336.08,-370.18C320.53,-409.75 278.16,-509.12 220.58,-577 212.63,-586.37 204.72,-583.83 199.58,-595 192.89,-609.54 189.84,-618.3 199.58,-631 217.17,-653.95 279.7,-670.87 338.18,-682.1"/>
<polygon fill="#2d137d" stroke="#2d137d" points="337.81,-685.59 348.28,-683.99 339.1,-678.71 337.81,-685.59"/>
<text text-anchor="middle" x="277.58" y="-522.3" font-family="Times New Roman,serif" font-size="14.00" fill="#2d137d">0.0</text>
</g>
<!-- Change Quantity&#45;&gt;Record Goods Receipt -->
<g id="edge11" class="edge">
<title>Change Quantity&#45;&gt;Record Goods Receipt</title>
<path fill="none" stroke="#2d137d" d="M354.38,-370.05C375.37,-400.39 419.31,-463.91 443.92,-499.48"/>
<polygon fill="#2d137d" stroke="#2d137d" points="441.17,-501.65 449.73,-507.88 446.92,-497.66 441.17,-501.65"/>
<text text-anchor="middle" x="422.58" y="-435.3" font-family="Times New Roman,serif" font-size="14.00" fill="#2d137d">0.0</text>
</g>
<!-- Change Quantity&#45;&gt;Vendor creates invoice -->
<g id="edge35" class="edge">
<title>Change Quantity&#45;&gt;Vendor creates invoice</title>
<path fill="none" stroke="#2d137d" d="M376.14,-370.05C386.64,-375.58 398.19,-381.87 408.58,-388 419.09,-394.2 420.21,-398.57 431.58,-403 461.65,-414.71 495.63,-422.51 527.36,-427.7"/>
<polygon fill="#2d137d" stroke="#2d137d" points="527.15,-431.21 537.57,-429.29 528.23,-424.29 527.15,-431.21"/>
<text text-anchor="middle" x="440.58" y="-391.8" font-family="Times New Roman,serif" font-size="14.00" fill="#2d137d">0.0</text>
</g>
<!-- Change Quantity&#45;&gt;Record Invoice Receipt -->
<g id="edge15" class="edge">
<title>Change Quantity&#45;&gt;Record Invoice Receipt</title>
<path fill="none" stroke="#2d137d" d="M366.05,-333.8C383.59,-320.95 407.73,-303.26 426.96,-289.17"/>
<polygon fill="#2d137d" stroke="#2d137d" points="429.14,-291.91 435.14,-283.18 425.01,-286.26 429.14,-291.91"/>
<text text-anchor="middle" x="415.58" y="-304.8" font-family="Times New Roman,serif" font-size="14.00" fill="#2d137d">0.0</text>
</g>
<!-- Remove Payment Block&#45;&gt;Clear Invoice -->
<g id="edge28" class="edge">
<title>Remove Payment Block&#45;&gt;Clear Invoice</title>
<path fill="none" stroke="#2d137d" d="M223.36,-159.8C234.68,-147.47 250.09,-130.68 262.74,-116.89"/>
<polygon fill="#2d137d" stroke="#2d137d" points="265.64,-118.91 269.82,-109.18 260.48,-114.18 265.64,-118.91"/>
<text text-anchor="middle" x="259.58" y="-130.8" font-family="Times New Roman,serif" font-size="14.00" fill="#2d137d">0.0</text>
</g>
<!-- Change Price&#45;&gt;Create Purchase Order Item -->
<g id="edge38" class="edge">
<title>Change Price&#45;&gt;Create Purchase Order Item</title>
<path fill="none" stroke="#2d137d" d="M582.27,-631.38C575.12,-642.09 564.73,-655.39 552.58,-664 544.95,-669.41 536.41,-674.04 527.61,-678.01"/>
<polygon fill="#2d137d" stroke="#2d137d" points="526.24,-674.79 518.39,-681.9 528.96,-681.24 526.24,-674.79"/>
<text text-anchor="middle" x="576.58" y="-652.8" font-family="Times New Roman,serif" font-size="14.00" fill="#2d137d">0.0</text>
</g>
<!-- Change Price&#45;&gt;Record Goods Receipt -->
<g id="edge41" class="edge">
<title>Change Price&#45;&gt;Record Goods Receipt</title>
<path fill="none" stroke="#2d137d" d="M566.07,-594.8C546.09,-581.84 518.51,-563.94 496.7,-549.79"/>
<polygon fill="#2d137d" stroke="#2d137d" points="498.34,-546.68 488.05,-544.18 494.53,-552.55 498.34,-546.68"/>
<text text-anchor="middle" x="543.58" y="-565.8" font-family="Times New Roman,serif" font-size="14.00" fill="#2d137d">0.0</text>
</g>
<!-- Change Price&#45;&gt;Vendor creates invoice -->
<g id="edge29" class="edge">
<title>Change Price&#45;&gt;Vendor creates invoice</title>
<path fill="none" stroke="#2d137d" d="M597.46,-594.88C606.01,-564.87 623.75,-502.58 633.94,-466.81"/>
<polygon fill="#2d137d" stroke="#2d137d" points="637.35,-467.63 636.72,-457.05 630.62,-465.71 637.35,-467.63"/>
<text text-anchor="middle" x="630.58" y="-522.3" font-family="Times New Roman,serif" font-size="14.00" fill="#2d137d">0.0</text>
</g>
<!-- Delete Purchase Order Item&#45;&gt;Create Purchase Order Item -->
<g id="edge25" class="edge">
<title>Delete Purchase Order Item&#45;&gt;Create Purchase Order Item</title>
<path fill="none" stroke="#2d137d" d="M116.59,-544.08C108.72,-557.37 98.81,-576.58 94.58,-595 87.24,-626.94 91.89,-648.17 120.58,-664 157.08,-684.14 257.38,-692.7 338.27,-696.33"/>
<polygon fill="#2d137d" stroke="#2d137d" points="338.39,-699.84 348.53,-696.77 338.69,-692.85 338.39,-699.84"/>
<text text-anchor="middle" x="103.58" y="-609.3" font-family="Times New Roman,serif" font-size="14.00" fill="#2d137d">0.0</text>
</g>
<!-- Delete Purchase Order Item&#45;&gt;endevent -->
<g id="edge9" class="edge">
<title>Delete Purchase Order Item&#45;&gt;endevent</title>
<path fill="none" stroke="#2d137d" d="M82.84,-507.89C55.43,-494.19 25.58,-471.93 25.58,-440 25.58,-440 25.58,-440 25.58,-90 25.58,-34.8 104.47,-21.99 153.15,-19.34"/>
<polygon fill="#2d137d" stroke="#2d137d" points="153.49,-22.83 163.33,-18.91 153.19,-15.84 153.49,-22.83"/>
</g>
<!-- startevent -->
<g id="node11" class="node">
<title>startevent</title>
</g>
<!-- startevent&#45;&gt;Create Purchase Order Item -->
<g id="edge3" class="edge">
<title>startevent&#45;&gt;Create Purchase Order Item</title>
<path fill="none" stroke="#2d137d" d="M307.83,-760.75C333.07,-750.33 371.24,-734.58 402.05,-721.86"/>
<polygon fill="#2d137d" stroke="#2d137d" points="403.44,-725.07 411.35,-718.02 400.77,-718.6 403.44,-725.07"/>
</g>
<!-- startevent&#45;&gt;Receive Order Confirmation -->
<g id="edge5" class="edge">
<title>startevent&#45;&gt;Receive Order Confirmation</title>
<path fill="none" stroke="#2d137d" d="M284.07,-754.79C289.6,-727.48 300.43,-673.99 307.03,-641.38"/>
<polygon fill="#2d137d" stroke="#2d137d" points="310.54,-641.68 309.1,-631.19 303.68,-640.29 310.54,-641.68"/>
</g>
<!-- startevent&#45;&gt;Vendor creates invoice -->
<g id="edge6" class="edge">
<title>startevent&#45;&gt;Vendor creates invoice</title>
<path fill="none" stroke="#2d137d" d="M307.82,-770.1C354.97,-766.4 454.61,-756.81 536.58,-737 561.31,-731.02 566.7,-726.77 590.58,-718 653.57,-694.86 685.86,-713.12 731.58,-664 763.38,-629.84 767.64,-607.35 756.58,-562 745.45,-516.37 732.99,-504.67 696.58,-475 691.33,-470.72 685.54,-466.54 679.73,-462.63"/>
<polygon fill="#2d137d" stroke="#2d137d" points="681.58,-459.65 671.29,-457.13 677.76,-465.52 681.58,-459.65"/>
</g>
<!-- startevent&#45;&gt;Change Quantity -->
<g id="edge2" class="edge">
<title>startevent&#45;&gt;Change Quantity</title>
<path fill="none" stroke="#2d137d" d="M253.45,-761.73C172.17,-729.35 -59.32,-624.66 14.58,-508 62.64,-432.13 158.93,-392.69 234.81,-372.64"/>
<polygon fill="#2d137d" stroke="#2d137d" points="236.08,-375.92 244.9,-370.05 234.34,-369.14 236.08,-375.92"/>
</g>
<!-- startevent&#45;&gt;Change Price -->
<g id="edge1" class="edge">
<title>startevent&#45;&gt;Change Price</title>
<path fill="none" stroke="#2d137d" d="M307.95,-770.02C371.31,-764.95 525.71,-749.58 565.58,-718 588.25,-700.04 593.37,-665.68 593.87,-641.38"/>
<polygon fill="#2d137d" stroke="#2d137d" points="597.37,-641.33 593.84,-631.34 590.37,-641.35 597.37,-641.33"/>
</g>
<!-- startevent&#45;&gt;Delete Purchase Order Item -->
<g id="edge4" class="edge">
<title>startevent&#45;&gt;Delete Purchase Order Item</title>
<path fill="none" stroke="#2d137d" d="M253.29,-762.83C213.61,-748.14 140.2,-715.63 98.58,-664 70.12,-628.7 75.02,-601.89 96.58,-562 98.38,-558.66 100.56,-555.38 102.92,-552.23"/>
<polygon fill="#2d137d" stroke="#2d137d" points="105.78,-554.26 109.44,-544.32 100.38,-549.81 105.78,-554.26"/>
</g>
</g>
</svg>
