<?xml version="1.0" encoding="UTF-8" standalone="no"?>
<!DOCTYPE svg PUBLIC "-//W3C//DTD SVG 1.1//EN"
 "http://www.w3.org/Graphics/SVG/1.1/DTD/svg11.dtd">
<!-- Generated by graphviz version 8.0.5 (20230430.1635)
 -->
<!-- Title: graph4 Pages: 1 -->
<svg width="1065pt" height="769pt"
 viewBox="0.00 0.00 1064.91 769.00" xmlns="http://www.w3.org/2000/svg" xmlns:xlink="http://www.w3.org/1999/xlink">
<g id="graph0" class="graph" transform="scale(1 1) rotate(0) translate(4 765)">
<title>graph4</title>
<polygon fill="white" stroke="none" points="-4,4 -4,-765 1060.91,-765 1060.91,4 -4,4"/>
<!-- Create Purchase Order Item -->
<g id="node1" class="node">
<title>Create Purchase Order Item</title>
<image xlink:href="1.png" width="208px" height="36.5px" preserveAspectRatio="xMinYMin meet" x="60.9144" y="-543.5"/>
<text text-anchor="middle" x="164.91" y="-528.1" font-family="Times New Roman,serif" font-size="12.00" fill="#2d137d">Create Purchase Order Item</text>
<text text-anchor="start" x="68.91" y="-513.85" font-family="Times New Roman,serif" font-size="12.00" fill="#2d137d"> &#160;&#160;&#160;&#160;&#160;&#160;&#160;&#160;&#160;&#160;&#160;&#160;63797</text>
</g>
<!-- endevent -->
<g id="node12" class="node">
<title>endevent</title>
</g>
<!-- Create Purchase Order Item&#45;&gt;endevent -->
<g id="edge8" class="edge">
<title>Create Purchase Order Item&#45;&gt;endevent</title>
<path fill="none" stroke="#2d137d" d="M76.33,-507.1C55.6,-499.22 35.38,-487.74 20.91,-471 -5.74,-440.15 1.91,-422.02 1.91,-381.25 1.91,-381.25 1.91,-381.25 1.91,-161.75 1.91,-49.82 414.97,-25.13 543.32,-20.16"/>
<polygon fill="#2d137d" stroke="#2d137d" points="543.28,-23.63 553.15,-19.76 543.03,-16.63 543.28,-23.63"/>
</g>
<!-- Create Purchase Order Item &#45;&gt; Record Invoice Receipt -->
<g id="node16" class="node">
<title>Create Purchase Order Item &#45;&gt; Record Invoice Receipt</title>
<image xlink:href="1.png" width="269.5px" height="36.5px" preserveAspectRatio="xMinYMin meet" x="30.1644" y="-471"/>
<text text-anchor="middle" x="164.91" y="-455.6" font-family="Times New Roman,serif" font-size="12.00" fill="#2d137d">Create Purchase Order Item &#45;&gt; Record Invoice Receipt</text>
<text text-anchor="start" x="38.16" y="-441.35" font-family="Times New Roman,serif" font-size="12.00" fill="#2d137d"> &#160;&#160;&#160;&#160;&#160;&#160;&#160;&#160;&#160;&#160;&#160;&#160;None</text>
</g>
<!-- Create Purchase Order Item&#45;&gt;Create Purchase Order Item &#45;&gt; Record Invoice Receipt -->
<g id="edge18" class="edge">
<title>Create Purchase Order Item&#45;&gt;Create Purchase Order Item &#45;&gt; Record Invoice Receipt</title>
<path fill="none" stroke="#2d137d" d="M164.91,-507.18C164.91,-499.48 164.91,-490.17 164.91,-481.5"/>
<polygon fill="#2d137d" stroke="#2d137d" points="168.41,-481.66 164.91,-471.66 161.41,-481.66 168.41,-481.66"/>
</g>
<!-- Receive Order Confirmation -->
<g id="node2" class="node">
<title>Receive Order Confirmation</title>
<image xlink:href="1.png" width="208px" height="36.5px" preserveAspectRatio="xMinYMin meet" x="215.914" y="-688.5"/>
<text text-anchor="middle" x="319.91" y="-673.1" font-family="Times New Roman,serif" font-size="12.00" fill="#2d137d">Receive Order Confirmation</text>
<text text-anchor="start" x="223.91" y="-658.85" font-family="Times New Roman,serif" font-size="12.00" fill="#2d137d"> &#160;&#160;&#160;&#160;&#160;&#160;&#160;&#160;&#160;&#160;&#160;&#160;7212</text>
</g>
<!-- Receive Order Confirmation&#45;&gt;endevent -->
<g id="edge11" class="edge">
<title>Receive Order Confirmation&#45;&gt;endevent</title>
<path fill="none" stroke="#2d137d" d="M321.49,-652.1C323.83,-625.27 327.91,-571.75 327.91,-526.25 327.91,-526.25 327.91,-526.25 327.91,-161.75 327.91,-63.85 473.38,-32.34 543.71,-22.83"/>
<polygon fill="#2d137d" stroke="#2d137d" points="543.84,-26.22 553.32,-21.49 542.96,-19.27 543.84,-26.22"/>
</g>
<!-- Receive Order Confirmation,Change Price &#45;&gt; Vendor creates invoice,Delete Purchase Order Item -->
<g id="node19" class="node">
<title>Receive Order Confirmation,Change Price &#45;&gt; Vendor creates invoice,Delete Purchase Order Item</title>
<image xlink:href="1.png" width="275px" height="36.5px" preserveAspectRatio="xMinYMin meet" x="519.414" y="-616"/>
<text text-anchor="middle" x="656.91" y="-600.6" font-family="Times New Roman,serif" font-size="12.00" fill="#2d137d">Receive Order Confirmation,Change Price &#45;&gt; Vendor creates invoice,Delete Purchase Order Item</text>
<text text-anchor="start" x="434.91" y="-586.35" font-family="Times New Roman,serif" font-size="12.00" fill="#2d137d"> &#160;&#160;&#160;&#160;&#160;&#160;&#160;&#160;&#160;&#160;&#160;&#160;None</text>
</g>
<!-- Receive Order Confirmation&#45;&gt;Receive Order Confirmation,Change Price &#45;&gt; Vendor creates invoice,Delete Purchase Order Item -->
<g id="edge24" class="edge">
<title>Receive Order Confirmation&#45;&gt;Receive Order Confirmation,Change Price &#45;&gt; Vendor creates invoice,Delete Purchase Order Item</title>
<path fill="none" stroke="#2d137d" d="M402.35,-652C451.29,-641.77 513.47,-628.76 564.12,-618.16"/>
<polygon fill="#2d137d" stroke="#2d137d" points="564.67,-621.41 573.74,-615.94 563.24,-614.56 564.67,-621.41"/>
</g>
<!-- Record Goods Receipt -->
<g id="node3" class="node">
<title>Record Goods Receipt</title>
<image xlink:href="1.png" width="208px" height="36.5px" preserveAspectRatio="xMinYMin meet" x="594.914" y="-761"/>
<text text-anchor="middle" x="698.91" y="-745.6" font-family="Times New Roman,serif" font-size="12.00" fill="#2d137d">Record Goods Receipt</text>
<text text-anchor="start" x="602.91" y="-731.35" font-family="Times New Roman,serif" font-size="12.00" fill="#2d137d"> &#160;&#160;&#160;&#160;&#160;&#160;&#160;&#160;&#160;&#160;&#160;&#160;60246</text>
</g>
<!-- Vendor creates invoice -->
<g id="node4" class="node">
<title>Vendor creates invoice</title>
<image xlink:href="1.png" width="208px" height="36.5px" preserveAspectRatio="xMinYMin meet" x="373.914" y="-543.5"/>
<text text-anchor="middle" x="477.91" y="-528.1" font-family="Times New Roman,serif" font-size="12.00" fill="#2d137d">Vendor creates invoice</text>
<text text-anchor="start" x="381.91" y="-513.85" font-family="Times New Roman,serif" font-size="12.00" fill="#2d137d"> &#160;&#160;&#160;&#160;&#160;&#160;&#160;&#160;&#160;&#160;&#160;&#160;53326</text>
</g>
<!-- Vendor creates invoice &#45;&gt; Record Invoice Receipt -->
<g id="node17" class="node">
<title>Vendor creates invoice &#45;&gt; Record Invoice Receipt</title>
<image xlink:href="1.png" width="244.75px" height="36.5px" preserveAspectRatio="xMinYMin meet" x="355.539" y="-471"/>
<text text-anchor="middle" x="477.91" y="-455.6" font-family="Times New Roman,serif" font-size="12.00" fill="#2d137d">Vendor creates invoice &#45;&gt; Record Invoice Receipt</text>
<text text-anchor="start" x="363.54" y="-441.35" font-family="Times New Roman,serif" font-size="12.00" fill="#2d137d"> &#160;&#160;&#160;&#160;&#160;&#160;&#160;&#160;&#160;&#160;&#160;&#160;None</text>
</g>
<!-- Vendor creates invoice&#45;&gt;Vendor creates invoice &#45;&gt; Record Invoice Receipt -->
<g id="edge20" class="edge">
<title>Vendor creates invoice&#45;&gt;Vendor creates invoice &#45;&gt; Record Invoice Receipt</title>
<path fill="none" stroke="#2d137d" d="M477.91,-507.18C477.91,-499.48 477.91,-490.17 477.91,-481.5"/>
<polygon fill="#2d137d" stroke="#2d137d" points="481.41,-481.66 477.91,-471.66 474.41,-481.66 481.41,-481.66"/>
</g>
<!-- Record Invoice Receipt -->
<g id="node5" class="node">
<title>Record Invoice Receipt</title>
<image xlink:href="1.png" width="208px" height="36.5px" preserveAspectRatio="xMinYMin meet" x="373.914" y="-398.5"/>
<text text-anchor="middle" x="477.91" y="-383.1" font-family="Times New Roman,serif" font-size="12.00" fill="#2d137d">Record Invoice Receipt</text>
<text text-anchor="start" x="381.91" y="-368.85" font-family="Times New Roman,serif" font-size="12.00" fill="#2d137d"> &#160;&#160;&#160;&#160;&#160;&#160;&#160;&#160;&#160;&#160;&#160;&#160;53326</text>
</g>
<!-- Record Invoice Receipt &#45;&gt; Remove Payment Block -->
<g id="node13" class="node">
<title>Record Invoice Receipt &#45;&gt; Remove Payment Block</title>
<image xlink:href="1.png" width="250px" height="36.5px" preserveAspectRatio="xMinYMin meet" x="533.914" y="-326"/>
<text text-anchor="middle" x="658.91" y="-310.6" font-family="Times New Roman,serif" font-size="12.00" fill="#2d137d">Record Invoice Receipt &#45;&gt; Remove Payment Block</text>
<text text-anchor="start" x="541.91" y="-296.35" font-family="Times New Roman,serif" font-size="12.00" fill="#2d137d"> &#160;&#160;&#160;&#160;&#160;&#160;&#160;&#160;&#160;&#160;&#160;&#160;None</text>
</g>
<!-- Record Invoice Receipt&#45;&gt;Record Invoice Receipt &#45;&gt; Remove Payment Block -->
<g id="edge12" class="edge">
<title>Record Invoice Receipt&#45;&gt;Record Invoice Receipt &#45;&gt; Remove Payment Block</title>
<path fill="none" stroke="#2d137d" d="M522.19,-362C547.05,-352.32 578.26,-340.17 604.58,-329.91"/>
<polygon fill="#2d137d" stroke="#2d137d" points="605.73,-332.83 613.78,-325.94 603.19,-326.31 605.73,-332.83"/>
</g>
<!-- Record Invoice Receipt &#45;&gt; Clear Invoice -->
<g id="node14" class="node">
<title>Record Invoice Receipt &#45;&gt; Clear Invoice</title>
<image xlink:href="1.png" width="208px" height="36.5px" preserveAspectRatio="xMinYMin meet" x="364.914" y="-253.5"/>
<text text-anchor="middle" x="468.91" y="-238.1" font-family="Times New Roman,serif" font-size="12.00" fill="#2d137d">Record Invoice Receipt &#45;&gt; Clear Invoice</text>
<text text-anchor="start" x="372.91" y="-223.85" font-family="Times New Roman,serif" font-size="12.00" fill="#2d137d"> &#160;&#160;&#160;&#160;&#160;&#160;&#160;&#160;&#160;&#160;&#160;&#160;None</text>
</g>
<!-- Record Invoice Receipt&#45;&gt;Record Invoice Receipt &#45;&gt; Clear Invoice -->
<g id="edge14" class="edge">
<title>Record Invoice Receipt&#45;&gt;Record Invoice Receipt &#45;&gt; Clear Invoice</title>
<path fill="none" stroke="#2d137d" d="M476.83,-362C475.29,-337.61 472.47,-292.77 470.65,-263.75"/>
<polygon fill="#2d137d" stroke="#2d137d" points="474.1,-263.88 469.98,-254.12 467.11,-264.32 474.1,-263.88"/>
</g>
<!-- Clear Invoice -->
<g id="node6" class="node">
<title>Clear Invoice</title>
<image xlink:href="1.png" width="208px" height="36.5px" preserveAspectRatio="xMinYMin meet" x="476.914" y="-108.5"/>
<text text-anchor="middle" x="580.91" y="-93.1" font-family="Times New Roman,serif" font-size="12.00" fill="#2d137d">Clear Invoice</text>
<text text-anchor="start" x="484.91" y="-78.85" font-family="Times New Roman,serif" font-size="12.00" fill="#2d137d"> &#160;&#160;&#160;&#160;&#160;&#160;&#160;&#160;&#160;&#160;&#160;&#160;53326</text>
</g>
<!-- Clear Invoice&#45;&gt;endevent -->
<g id="edge7" class="edge">
<title>Clear Invoice&#45;&gt;endevent</title>
<path fill="none" stroke="#2d137d" d="M580.91,-72.24C580.91,-64.56 580.91,-55.29 580.91,-46.65"/>
<polygon fill="#2d137d" stroke="#2d137d" points="584.41,-46.85 580.91,-36.85 577.41,-46.85 584.41,-46.85"/>
</g>
<!-- Change Quantity -->
<g id="node7" class="node">
<title>Change Quantity</title>
<image xlink:href="1.png" width="208px" height="36.5px" preserveAspectRatio="xMinYMin meet" x="622.914" y="-543.5"/>
<text text-anchor="middle" x="726.91" y="-528.1" font-family="Times New Roman,serif" font-size="12.00" fill="#2d137d">Change Quantity</text>
<text text-anchor="start" x="630.91" y="-513.85" font-family="Times New Roman,serif" font-size="12.00" fill="#2d137d"> &#160;&#160;&#160;&#160;&#160;&#160;&#160;&#160;&#160;&#160;&#160;&#160;1717</text>
</g>
<!-- Change Quantity&#45;&gt;endevent -->
<g id="edge10" class="edge">
<title>Change Quantity&#45;&gt;endevent</title>
<path fill="none" stroke="#2d137d" d="M792.1,-507.05C811.32,-499.01 830.72,-487.45 843.91,-471 869.43,-439.2 862.91,-422.02 862.91,-381.25 862.91,-381.25 862.91,-381.25 862.91,-161.75 862.91,-53.36 695.01,-27.25 618.32,-20.97"/>
<polygon fill="#2d137d" stroke="#2d137d" points="618.93,-17.44 608.7,-20.19 618.41,-24.42 618.93,-17.44"/>
</g>
<!-- Change Quantity &#45;&gt; Record Invoice Receipt -->
<g id="node18" class="node">
<title>Change Quantity &#45;&gt; Record Invoice Receipt</title>
<image xlink:href="1.png" width="216.25px" height="36.5px" preserveAspectRatio="xMinYMin meet" x="618.789" y="-471"/>
<text text-anchor="middle" x="726.91" y="-455.6" font-family="Times New Roman,serif" font-size="12.00" fill="#2d137d">Change Quantity &#45;&gt; Record Invoice Receipt</text>
<text text-anchor="start" x="626.79" y="-441.35" font-family="Times New Roman,serif" font-size="12.00" fill="#2d137d"> &#160;&#160;&#160;&#160;&#160;&#160;&#160;&#160;&#160;&#160;&#160;&#160;None</text>
</g>
<!-- Change Quantity&#45;&gt;Change Quantity &#45;&gt; Record Invoice Receipt -->
<g id="edge22" class="edge">
<title>Change Quantity&#45;&gt;Change Quantity &#45;&gt; Record Invoice Receipt</title>
<path fill="none" stroke="#2d137d" d="M726.91,-507.18C726.91,-499.48 726.91,-490.17 726.91,-481.5"/>
<polygon fill="#2d137d" stroke="#2d137d" points="730.41,-481.66 726.91,-471.66 723.41,-481.66 730.41,-481.66"/>
</g>
<!-- Remove Payment Block -->
<g id="node8" class="node">
<title>Remove Payment Block</title>
<image xlink:href="1.png" width="208px" height="36.5px" preserveAspectRatio="xMinYMin meet" x="590.914" y="-253.5"/>
<text text-anchor="middle" x="694.91" y="-238.1" font-family="Times New Roman,serif" font-size="12.00" fill="#2d137d">Remove Payment Block</text>
<text text-anchor="start" x="598.91" y="-223.85" font-family="Times New Roman,serif" font-size="12.00" fill="#2d137d"> &#160;&#160;&#160;&#160;&#160;&#160;&#160;&#160;&#160;&#160;&#160;&#160;10850</text>
</g>
<!-- Remove Payment Block &#45;&gt; Clear Invoice -->
<g id="node15" class="node">
<title>Remove Payment Block &#45;&gt; Clear Invoice</title>
<image xlink:href="1.png" width="208px" height="36.5px" preserveAspectRatio="xMinYMin meet" x="543.914" y="-181"/>
<text text-anchor="middle" x="647.91" y="-165.6" font-family="Times New Roman,serif" font-size="12.00" fill="#2d137d">Remove Payment Block &#45;&gt; Clear Invoice</text>
<text text-anchor="start" x="551.91" y="-151.35" font-family="Times New Roman,serif" font-size="12.00" fill="#2d137d"> &#160;&#160;&#160;&#160;&#160;&#160;&#160;&#160;&#160;&#160;&#160;&#160;None</text>
</g>
<!-- Remove Payment Block&#45;&gt;Remove Payment Block &#45;&gt; Clear Invoice -->
<g id="edge16" class="edge">
<title>Remove Payment Block&#45;&gt;Remove Payment Block &#45;&gt; Clear Invoice</title>
<path fill="none" stroke="#2d137d" d="M683.54,-217.18C678.05,-208.96 671.36,-198.91 665.25,-189.76"/>
<polygon fill="#2d137d" stroke="#2d137d" points="667.65,-188.04 659.19,-181.66 661.82,-191.92 667.65,-188.04"/>
</g>
<!-- Change Price -->
<g id="node9" class="node">
<title>Change Price</title>
<image xlink:href="1.png" width="208px" height="36.5px" preserveAspectRatio="xMinYMin meet" x="516.914" y="-688.5"/>
<text text-anchor="middle" x="620.91" y="-673.1" font-family="Times New Roman,serif" font-size="12.00" fill="#2d137d">Change Price</text>
<text text-anchor="start" x="524.91" y="-658.85" font-family="Times New Roman,serif" font-size="12.00" fill="#2d137d"> &#160;&#160;&#160;&#160;&#160;&#160;&#160;&#160;&#160;&#160;&#160;&#160;1087</text>
</g>
<!-- Change Price&#45;&gt;Receive Order Confirmation,Change Price &#45;&gt; Vendor creates invoice,Delete Purchase Order Item -->
<g id="edge25" class="edge">
<title>Change Price&#45;&gt;Receive Order Confirmation,Change Price &#45;&gt; Vendor creates invoice,Delete Purchase Order Item</title>
<path fill="none" stroke="#2d137d" d="M629.63,-652.18C633.74,-644.13 638.74,-634.33 643.34,-625.34"/>
<polygon fill="#2d137d" stroke="#2d137d" points="646.85,-627.16 648.28,-616.66 640.62,-623.97 646.85,-627.16"/>
</g>
<!-- Delete Purchase Order Item -->
<g id="node10" class="node">
<title>Delete Purchase Order Item</title>
<image xlink:href="1.png" width="208px" height="36.5px" preserveAspectRatio="xMinYMin meet" x="848.914" y="-543.5"/>
<text text-anchor="middle" x="952.91" y="-528.1" font-family="Times New Roman,serif" font-size="12.00" fill="#2d137d">Delete Purchase Order Item</text>
<text text-anchor="start" x="856.91" y="-513.85" font-family="Times New Roman,serif" font-size="12.00" fill="#2d137d"> &#160;&#160;&#160;&#160;&#160;&#160;&#160;&#160;&#160;&#160;&#160;&#160;3834</text>
</g>
<!-- Delete Purchase Order Item&#45;&gt;endevent -->
<g id="edge9" class="edge">
<title>Delete Purchase Order Item&#45;&gt;endevent</title>
<path fill="none" stroke="#2d137d" d="M947.78,-507.26C940.2,-480.66 926.91,-427.43 926.91,-381.25 926.91,-381.25 926.91,-381.25 926.91,-161.75 926.91,-106.5 889.29,-98.68 840.91,-72 769.13,-32.42 671.52,-22.26 618.67,-19.74"/>
<polygon fill="#2d137d" stroke="#2d137d" points="618.92,-16.2 608.79,-19.3 618.64,-23.2 618.92,-16.2"/>
</g>
<!-- startevent -->
<g id="node11" class="node">
<title>startevent</title>
</g>
<!-- startevent&#45;&gt;Create Purchase Order Item -->
<g id="edge1" class="edge">
<title>startevent&#45;&gt;Create Purchase Order Item</title>
<path fill="none" stroke="#2d137d" d="M523.16,-741.27C450.77,-739.43 253.37,-730.56 206.91,-688.5 169.06,-654.23 163.37,-590.69 163.53,-554.12"/>
<polygon fill="#2d137d" stroke="#2d137d" points="167.05,-554.34 163.76,-544.27 160.05,-554.19 167.05,-554.34"/>
</g>
<!-- startevent&#45;&gt;Receive Order Confirmation -->
<g id="edge6" class="edge">
<title>startevent&#45;&gt;Receive Order Confirmation</title>
<path fill="none" stroke="#2d137d" d="M523.08,-733.52C489.77,-723.31 431.8,-705.54 386.28,-691.59"/>
<polygon fill="#2d137d" stroke="#2d137d" points="387.47,-687.99 376.89,-688.41 385.42,-694.68 387.47,-687.99"/>
</g>
<!-- startevent&#45;&gt;Vendor creates invoice -->
<g id="edge2" class="edge">
<title>startevent&#45;&gt;Vendor creates invoice</title>
<path fill="none" stroke="#2d137d" d="M522.97,-725.82C490.97,-705.14 439.23,-665.75 417.91,-616 411.53,-601.09 411.26,-594.3 417.91,-579.5 423.04,-568.1 431.94,-558.15 441.34,-550.04"/>
<polygon fill="#2d137d" stroke="#2d137d" points="443.03,-552.37 448.65,-543.39 438.66,-546.9 443.03,-552.37"/>
</g>
<!-- startevent&#45;&gt;Change Quantity -->
<g id="edge3" class="edge">
<title>startevent&#45;&gt;Change Quantity</title>
<path fill="none" stroke="#2d137d" d="M576.78,-728.13C579.83,-726.81 582.91,-725.57 585.91,-724.5 723.4,-675.44 816.53,-738.5 895.91,-616 917.92,-582.05 880.74,-560.09 835.7,-546.39"/>
<polygon fill="#2d137d" stroke="#2d137d" points="836.95,-542.82 826.37,-543.43 835.02,-549.55 836.95,-542.82"/>
</g>
<!-- startevent&#45;&gt;Change Price -->
<g id="edge4" class="edge">
<title>startevent&#45;&gt;Change Price</title>
<path fill="none" stroke="#2d137d" d="M566.74,-725.04C575.45,-716.39 586.27,-705.65 595.94,-696.05"/>
<polygon fill="#2d137d" stroke="#2d137d" points="598.09,-698.86 602.72,-689.33 593.15,-693.89 598.09,-698.86"/>
</g>
<!-- startevent&#45;&gt;Delete Purchase Order Item -->
<g id="edge5" class="edge">
<title>startevent&#45;&gt;Delete Purchase Order Item</title>
<path fill="none" stroke="#2d137d" d="M576.68,-727.81C579.74,-726.55 582.86,-725.41 585.91,-724.5 700.64,-690.21 747.99,-746.19 852.91,-688.5 904.77,-659.99 932.98,-592.13 945.27,-553.81"/>
<polygon fill="#2d137d" stroke="#2d137d" points="948.88,-554.98 948.45,-544.39 942.18,-552.93 948.88,-554.98"/>
</g>
<!-- Record Invoice Receipt &#45;&gt; Remove Payment Block&#45;&gt;Remove Payment Block -->
<g id="edge13" class="edge">
<title>Record Invoice Receipt &#45;&gt; Remove Payment Block&#45;&gt;Remove Payment Block</title>
<path fill="none" stroke="#2d137d" d="M667.63,-289.68C671.74,-281.63 676.74,-271.83 681.34,-262.84"/>
<polygon fill="#2d137d" stroke="#2d137d" points="684.85,-264.66 686.28,-254.16 678.62,-261.47 684.85,-264.66"/>
</g>
<!-- Record Invoice Receipt &#45;&gt; Clear Invoice&#45;&gt;Clear Invoice -->
<g id="edge15" class="edge">
<title>Record Invoice Receipt &#45;&gt; Clear Invoice&#45;&gt;Clear Invoice</title>
<path fill="none" stroke="#2d137d" d="M480.93,-217.08C493.87,-198.79 515.26,-169.15 534.91,-144.5 542.42,-135.09 550.96,-125.04 558.63,-116.23"/>
<polygon fill="#2d137d" stroke="#2d137d" points="561.68,-119.05 565.65,-109.23 556.42,-114.44 561.68,-119.05"/>
</g>
<!-- Remove Payment Block &#45;&gt; Clear Invoice&#45;&gt;Clear Invoice -->
<g id="edge17" class="edge">
<title>Remove Payment Block &#45;&gt; Clear Invoice&#45;&gt;Clear Invoice</title>
<path fill="none" stroke="#2d137d" d="M631.7,-144.68C623.55,-136.11 613.52,-125.56 604.54,-116.11"/>
<polygon fill="#2d137d" stroke="#2d137d" points="607.41,-114 597.98,-109.16 602.34,-118.82 607.41,-114"/>
</g>
<!-- Create Purchase Order Item &#45;&gt; Record Invoice Receipt&#45;&gt;Record Invoice Receipt -->
<g id="edge19" class="edge">
<title>Create Purchase Order Item &#45;&gt; Record Invoice Receipt&#45;&gt;Record Invoice Receipt</title>
<path fill="none" stroke="#2d137d" d="M241.48,-434.5C286.74,-424.31 344.2,-411.37 391.14,-400.8"/>
<polygon fill="#2d137d" stroke="#2d137d" points="391.61,-404.05 400.59,-398.44 390.07,-397.22 391.61,-404.05"/>
</g>
<!-- Vendor creates invoice &#45;&gt; Record Invoice Receipt&#45;&gt;Record Invoice Receipt -->
<g id="edge21" class="edge">
<title>Vendor creates invoice &#45;&gt; Record Invoice Receipt&#45;&gt;Record Invoice Receipt</title>
<path fill="none" stroke="#2d137d" d="M477.91,-434.68C477.91,-426.98 477.91,-417.67 477.91,-409"/>
<polygon fill="#2d137d" stroke="#2d137d" points="481.41,-409.16 477.91,-399.16 474.41,-409.16 481.41,-409.16"/>
</g>
<!-- Change Quantity &#45;&gt; Record Invoice Receipt&#45;&gt;Record Invoice Receipt -->
<g id="edge23" class="edge">
<title>Change Quantity &#45;&gt; Record Invoice Receipt&#45;&gt;Record Invoice Receipt</title>
<path fill="none" stroke="#2d137d" d="M666,-434.5C630.6,-424.48 585.82,-411.8 548.84,-401.33"/>
<polygon fill="#2d137d" stroke="#2d137d" points="550.2,-397.8 539.63,-398.44 548.3,-404.53 550.2,-397.8"/>
</g>
<!-- Receive Order Confirmation,Change Price &#45;&gt; Vendor creates invoice,Delete Purchase Order Item&#45;&gt;Vendor creates invoice -->
<g id="edge26" class="edge">
<title>Receive Order Confirmation,Change Price &#45;&gt; Vendor creates invoice,Delete Purchase Order Item&#45;&gt;Vendor creates invoice</title>
<path fill="none" stroke="#2d137d" d="M613.13,-579.5C588.55,-569.82 557.68,-557.67 531.65,-547.41"/>
<polygon fill="#2d137d" stroke="#2d137d" points="533.15,-543.85 522.56,-543.44 530.58,-550.36 533.15,-543.85"/>
</g>
<!-- Receive Order Confirmation,Change Price &#45;&gt; Vendor creates invoice,Delete Purchase Order Item&#45;&gt;Delete Purchase Order Item -->
<g id="edge27" class="edge">
<title>Receive Order Confirmation,Change Price &#45;&gt; Vendor creates invoice,Delete Purchase Order Item&#45;&gt;Delete Purchase Order Item</title>
<path fill="none" stroke="#2d137d" d="M729.32,-579.5C771.95,-569.35 826,-556.48 870.29,-545.93"/>
<polygon fill="#2d137d" stroke="#2d137d" points="870.82,-549.16 879.74,-543.44 869.2,-542.35 870.82,-549.16"/>
</g>
</g>
</svg>
