<?xml version="1.0" encoding="UTF-8" standalone="no"?>
<!DOCTYPE svg PUBLIC "-//W3C//DTD SVG 1.1//EN"
 "http://www.w3.org/Graphics/SVG/1.1/DTD/svg11.dtd">
<!-- Generated by graphviz version 8.0.5 (20230430.1635)
 -->
<!-- Title: graph1 Pages: 1 -->
<svg width="859pt" height="808pt"
 viewBox="0.00 0.00 858.58 808.25" xmlns="http://www.w3.org/2000/svg" xmlns:xlink="http://www.w3.org/1999/xlink">
<g id="graph0" class="graph" transform="scale(1 1) rotate(0) translate(4 804.25)">
<title>graph1</title>
<polygon fill="white" stroke="none" points="-4,4 -4,-804.25 854.58,-804.25 854.58,4 -4,4"/>
<!-- Create Purchase Order Item -->
<g id="node1" class="node">
<title>Create Purchase Order Item</title>
<image xlink:href="1.png" width="208px" height="36.5px" preserveAspectRatio="xMinYMin meet" x="346.577" y="-727.25"/>
<text text-anchor="middle" x="450.58" y="-711.85" font-family="Times New Roman,serif" font-size="12.00" fill="#2d137d">Create Purchase Order Item</text>
<text text-anchor="start" x="354.58" y="-697.6" font-family="Times New Roman,serif" font-size="12.00" fill="#2d137d"> &#160;&#160;&#160;&#160;&#160;&#160;&#160;&#160;&#160;&#160;&#160;&#160;63797</text>
</g>
<!-- Receive Order Confirmation -->
<g id="node2" class="node">
<title>Receive Order Confirmation</title>
<image xlink:href="1.png" width="208px" height="36.5px" preserveAspectRatio="xMinYMin meet" x="206.577" y="-639"/>
<text text-anchor="middle" x="310.58" y="-623.6" font-family="Times New Roman,serif" font-size="12.00" fill="#2d137d">Receive Order Confirmation</text>
<text text-anchor="start" x="214.58" y="-609.35" font-family="Times New Roman,serif" font-size="12.00" fill="#2d137d"> &#160;&#160;&#160;&#160;&#160;&#160;&#160;&#160;&#160;&#160;&#160;&#160;7212</text>
</g>
<!-- Create Purchase Order Item&#45;&gt;Receive Order Confirmation -->
<g id="edge26" class="edge">
<title>Create Purchase Order Item&#45;&gt;Receive Order Confirmation</title>
<path fill="none" stroke="#2d137d" d="M422.58,-690.75C401.12,-677.53 371.3,-659.16 347.83,-644.7"/>
<polygon fill="#2d137d" stroke="#2d137d" points="349.87,-641.23 339.52,-638.97 346.2,-647.19 349.87,-641.23"/>
<text text-anchor="middle" x="401.2" y="-659.45" font-family="Times New Roman,serif" font-size="14.00" fill="#2d137d">0.0</text>
</g>
<!-- Record Goods Receipt -->
<g id="node3" class="node">
<title>Record Goods Receipt</title>
<image xlink:href="1.png" width="208px" height="36.5px" preserveAspectRatio="xMinYMin meet" x="355.577" y="-550.75"/>
<text text-anchor="middle" x="459.58" y="-535.35" font-family="Times New Roman,serif" font-size="12.00" fill="#2d137d">Record Goods Receipt</text>
<text text-anchor="start" x="363.58" y="-521.1" font-family="Times New Roman,serif" font-size="12.00" fill="#2d137d"> &#160;&#160;&#160;&#160;&#160;&#160;&#160;&#160;&#160;&#160;&#160;&#160;60246</text>
</g>
<!-- Create Purchase Order Item&#45;&gt;Record Goods Receipt -->
<g id="edge36" class="edge">
<title>Create Purchase Order Item&#45;&gt;Record Goods Receipt</title>
<path fill="none" stroke="#2d137d" d="M451.46,-690.95C453.01,-660.85 456.25,-598.02 458.13,-561.48"/>
<polygon fill="#2d137d" stroke="#2d137d" points="461.67,-561.79 458.69,-551.62 454.68,-561.43 461.67,-561.79"/>
<text text-anchor="middle" x="464.2" y="-615.33" font-family="Times New Roman,serif" font-size="14.00" fill="#2d137d">0.0</text>
</g>
<!-- Vendor creates invoice -->
<g id="node4" class="node">
<title>Vendor creates invoice</title>
<image xlink:href="1.png" width="208px" height="36.5px" preserveAspectRatio="xMinYMin meet" x="534.577" y="-462.5"/>
<text text-anchor="middle" x="638.58" y="-447.1" font-family="Times New Roman,serif" font-size="12.00" fill="#2d137d">Vendor creates invoice</text>
<text text-anchor="start" x="542.58" y="-432.85" font-family="Times New Roman,serif" font-size="12.00" fill="#2d137d"> &#160;&#160;&#160;&#160;&#160;&#160;&#160;&#160;&#160;&#160;&#160;&#160;53326</text>
</g>
<!-- Create Purchase Order Item&#45;&gt;Vendor creates invoice -->
<g id="edge29" class="edge">
<title>Create Purchase Order Item&#45;&gt;Vendor creates invoice</title>
<path fill="none" stroke="#2d137d" d="M554.31,-692.71C615.43,-681.31 684.29,-663.49 702.58,-639 741.4,-587.02 691.92,-510.25 660.61,-470.76"/>
<polygon fill="#2d137d" stroke="#2d137d" points="662.89,-469.02 653.86,-463.47 657.46,-473.44 662.89,-469.02"/>
<text text-anchor="middle" x="724.2" y="-571.2" font-family="Times New Roman,serif" font-size="14.00" fill="#2d137d">0.0</text>
</g>
<!-- Change Quantity -->
<g id="node7" class="node">
<title>Change Quantity</title>
<image xlink:href="1.png" width="208px" height="36.5px" preserveAspectRatio="xMinYMin meet" x="237.577" y="-374.25"/>
<text text-anchor="middle" x="341.58" y="-358.85" font-family="Times New Roman,serif" font-size="12.00" fill="#2d137d">Change Quantity</text>
<text text-anchor="start" x="245.58" y="-344.6" font-family="Times New Roman,serif" font-size="12.00" fill="#2d137d"> &#160;&#160;&#160;&#160;&#160;&#160;&#160;&#160;&#160;&#160;&#160;&#160;1717</text>
</g>
<!-- Create Purchase Order Item&#45;&gt;Change Quantity -->
<g id="edge16" class="edge">
<title>Create Purchase Order Item&#45;&gt;Change Quantity</title>
<path fill="none" stroke="#2d137d" d="M554.51,-704.37C625.86,-700.23 713.14,-691.42 744.58,-672.75 838.9,-616.72 829.41,-503.32 751.58,-426 710.86,-385.55 562.49,-368.73 455.95,-361.79"/>
<polygon fill="#2d137d" stroke="#2d137d" points="456.33,-358.24 446.13,-361.11 455.89,-365.23 456.33,-358.24"/>
<text text-anchor="middle" x="820.2" y="-527.08" font-family="Times New Roman,serif" font-size="14.00" fill="#2d137d">0.0</text>
</g>
<!-- Change Price -->
<g id="node9" class="node">
<title>Change Price</title>
<image xlink:href="1.png" width="208px" height="36.5px" preserveAspectRatio="xMinYMin meet" x="485.577" y="-639"/>
<text text-anchor="middle" x="589.58" y="-623.6" font-family="Times New Roman,serif" font-size="12.00" fill="#2d137d">Change Price</text>
<text text-anchor="start" x="493.58" y="-609.35" font-family="Times New Roman,serif" font-size="12.00" fill="#2d137d"> &#160;&#160;&#160;&#160;&#160;&#160;&#160;&#160;&#160;&#160;&#160;&#160;1087</text>
</g>
<!-- Create Purchase Order Item&#45;&gt;Change Price -->
<g id="edge17" class="edge">
<title>Create Purchase Order Item&#45;&gt;Change Price</title>
<path fill="none" stroke="#2d137d" d="M478.37,-690.75C499.68,-677.53 529.29,-659.16 552.59,-644.7"/>
<polygon fill="#2d137d" stroke="#2d137d" points="554.18,-647.21 560.83,-638.97 550.49,-641.27 554.18,-647.21"/>
<text text-anchor="middle" x="540.2" y="-659.45" font-family="Times New Roman,serif" font-size="14.00" fill="#2d137d">0.0</text>
</g>
<!-- Delete Purchase Order Item -->
<g id="node10" class="node">
<title>Delete Purchase Order Item</title>
<image xlink:href="1.png" width="208px" height="36.5px" preserveAspectRatio="xMinYMin meet" x="23.5767" y="-550.75"/>
<text text-anchor="middle" x="127.58" y="-535.35" font-family="Times New Roman,serif" font-size="12.00" fill="#2d137d">Delete Purchase Order Item</text>
<text text-anchor="start" x="31.58" y="-521.1" font-family="Times New Roman,serif" font-size="12.00" fill="#2d137d"> &#160;&#160;&#160;&#160;&#160;&#160;&#160;&#160;&#160;&#160;&#160;&#160;3834</text>
</g>
<!-- Create Purchase Order Item&#45;&gt;Delete Purchase Order Item -->
<g id="edge39" class="edge">
<title>Create Purchase Order Item&#45;&gt;Delete Purchase Order Item</title>
<path fill="none" stroke="#2d137d" d="M346.78,-705.29C277.3,-701.61 193.48,-692.97 164.58,-672.75 129.56,-648.25 124.8,-594.43 125.51,-561.33"/>
<polygon fill="#2d137d" stroke="#2d137d" points="129.04,-561.71 125.95,-551.58 122.05,-561.43 129.04,-561.71"/>
<text text-anchor="middle" x="146.2" y="-615.33" font-family="Times New Roman,serif" font-size="14.00" fill="#2d137d">0.0</text>
</g>
<!-- endevent -->
<g id="node12" class="node">
<title>endevent</title>
</g>
<!-- Create Purchase Order Item&#45;&gt;endevent -->
<g id="edge8" class="edge">
<title>Create Purchase Order Item&#45;&gt;endevent</title>
<path fill="none" stroke="#2d137d" d="M554.52,-699.51C639.64,-692.05 749.09,-681.12 768.58,-672.75 834.57,-644.41 850.58,-605.32 850.58,-533.5 850.58,-533.5 850.58,-533.5 850.58,-90.25 850.58,-29.95 391.05,-20.68 255.06,-19.26"/>
<polygon fill="#2d137d" stroke="#2d137d" points="255.4,-15.75 245.37,-19.16 255.34,-22.75 255.4,-15.75"/>
</g>
<!-- Receive Order Confirmation&#45;&gt;Create Purchase Order Item -->
<g id="edge42" class="edge">
<title>Receive Order Confirmation&#45;&gt;Create Purchase Order Item</title>
<path fill="none" stroke="#2d137d" d="M318.75,-638.57C324.93,-649.68 334.38,-663.81 346.33,-672.75 353.47,-678.1 361.48,-682.67 369.8,-686.57"/>
<polygon fill="#2d137d" stroke="#2d137d" points="368.11,-690.08 378.68,-690.84 370.89,-683.66 368.11,-690.08"/>
<text text-anchor="middle" x="354.2" y="-659.45" font-family="Times New Roman,serif" font-size="14.00" fill="#2d137d">0.0</text>
</g>
<!-- Receive Order Confirmation&#45;&gt;Record Goods Receipt -->
<g id="edge32" class="edge">
<title>Receive Order Confirmation&#45;&gt;Record Goods Receipt</title>
<path fill="none" stroke="#2d137d" d="M340.37,-602.5C363.41,-589.16 395.51,-570.58 420.6,-556.06"/>
<polygon fill="#2d137d" stroke="#2d137d" points="421.93,-558.76 428.83,-550.72 418.43,-552.7 421.93,-558.76"/>
<text text-anchor="middle" x="406.2" y="-571.2" font-family="Times New Roman,serif" font-size="14.00" fill="#2d137d">0.0</text>
</g>
<!-- Receive Order Confirmation&#45;&gt;Vendor creates invoice -->
<g id="edge23" class="edge">
<title>Receive Order Confirmation&#45;&gt;Vendor creates invoice</title>
<path fill="none" stroke="#2d137d" d="M308.33,-602.61C306.31,-579.36 306.56,-538.04 329.33,-514.25 356.21,-486.17 447.69,-468.06 524.23,-457.47"/>
<polygon fill="#2d137d" stroke="#2d137d" points="524.49,-460.84 533.93,-456.03 523.55,-453.9 524.49,-460.84"/>
<text text-anchor="middle" x="337.2" y="-527.08" font-family="Times New Roman,serif" font-size="14.00" fill="#2d137d">0.0</text>
</g>
<!-- Receive Order Confirmation&#45;&gt;Delete Purchase Order Item -->
<g id="edge33" class="edge">
<title>Receive Order Confirmation&#45;&gt;Delete Purchase Order Item</title>
<path fill="none" stroke="#2d137d" d="M273.98,-602.5C245.18,-588.93 204.87,-569.93 173.83,-555.3"/>
<polygon fill="#2d137d" stroke="#2d137d" points="175.64,-551.81 165.11,-550.72 172.66,-558.15 175.64,-551.81"/>
<text text-anchor="middle" x="243.2" y="-571.2" font-family="Times New Roman,serif" font-size="14.00" fill="#2d137d">0.0</text>
</g>
<!-- Record Goods Receipt&#45;&gt;Record Goods Receipt -->
<g id="edge35" class="edge">
<title>Record Goods Receipt&#45;&gt;Record Goods Receipt</title>
<path fill="none" stroke="#2d137d" d="M563.26,-539.41C574.41,-538.08 581.58,-535.77 581.58,-532.5 581.58,-530.45 578.78,-528.79 573.96,-527.5"/>
<polygon fill="#2d137d" stroke="#2d137d" points="574.72,-523.9 564.26,-525.59 573.49,-530.79 574.72,-523.9"/>
<text text-anchor="middle" x="590.2" y="-527.08" font-family="Times New Roman,serif" font-size="14.00" fill="#2d137d">0.0</text>
</g>
<!-- Record Goods Receipt&#45;&gt;Vendor creates invoice -->
<g id="edge28" class="edge">
<title>Record Goods Receipt&#45;&gt;Vendor creates invoice</title>
<path fill="none" stroke="#2d137d" d="M532.83,-514.3C547.74,-509.46 563.01,-503.5 576.58,-496.25 589.77,-489.2 602.8,-479.1 613.48,-469.75"/>
<polygon fill="#2d137d" stroke="#2d137d" points="615.44,-472.79 620.5,-463.48 610.74,-467.6 615.44,-472.79"/>
<text text-anchor="middle" x="608.2" y="-482.95" font-family="Times New Roman,serif" font-size="14.00" fill="#2d137d">0.0</text>
</g>
<!-- Record Invoice Receipt -->
<g id="node5" class="node">
<title>Record Invoice Receipt</title>
<image xlink:href="1.png" width="208px" height="36.5px" preserveAspectRatio="xMinYMin meet" x="347.577" y="-286"/>
<text text-anchor="middle" x="451.58" y="-270.6" font-family="Times New Roman,serif" font-size="12.00" fill="#2d137d">Record Invoice Receipt</text>
<text text-anchor="start" x="355.58" y="-256.35" font-family="Times New Roman,serif" font-size="12.00" fill="#2d137d"> &#160;&#160;&#160;&#160;&#160;&#160;&#160;&#160;&#160;&#160;&#160;&#160;53326</text>
</g>
<!-- Record Goods Receipt&#45;&gt;Record Invoice Receipt -->
<g id="edge20" class="edge">
<title>Record Goods Receipt&#45;&gt;Record Invoice Receipt</title>
<path fill="none" stroke="#2d137d" d="M459.24,-514.39C458.54,-480.62 456.84,-402.99 454.58,-337.75 454.11,-324.17 453.46,-309.09 452.9,-296.51"/>
<polygon fill="#2d137d" stroke="#2d137d" points="456.36,-296.59 452.4,-286.76 449.36,-296.91 456.36,-296.59"/>
<text text-anchor="middle" x="465.2" y="-394.7" font-family="Times New Roman,serif" font-size="14.00" fill="#2d137d">0.0</text>
</g>
<!-- Clear Invoice -->
<g id="node6" class="node">
<title>Clear Invoice</title>
<image xlink:href="1.png" width="208px" height="36.5px" preserveAspectRatio="xMinYMin meet" x="229.577" y="-109.5"/>
<text text-anchor="middle" x="333.58" y="-94.1" font-family="Times New Roman,serif" font-size="12.00" fill="#2d137d">Clear Invoice</text>
<text text-anchor="start" x="237.58" y="-79.85" font-family="Times New Roman,serif" font-size="12.00" fill="#2d137d"> &#160;&#160;&#160;&#160;&#160;&#160;&#160;&#160;&#160;&#160;&#160;&#160;53326</text>
</g>
<!-- Record Goods Receipt&#45;&gt;Clear Invoice -->
<g id="edge37" class="edge">
<title>Record Goods Receipt&#45;&gt;Clear Invoice</title>
<path fill="none" stroke="#2d137d" d="M401.57,-514.27C388.63,-509.32 375.28,-503.32 363.58,-496.25 294.35,-454.44 261.4,-448.16 228.58,-374.25 191.8,-291.45 305.39,-284.78 330.58,-197.75 337.96,-172.24 337.94,-141.79 336.54,-120.18"/>
<polygon fill="#2d137d" stroke="#2d137d" points="339.97,-120.15 335.68,-110.46 332.99,-120.71 339.97,-120.15"/>
<text text-anchor="middle" x="247.2" y="-306.45" font-family="Times New Roman,serif" font-size="14.00" fill="#2d137d">0.0</text>
</g>
<!-- Record Goods Receipt&#45;&gt;Change Quantity -->
<g id="edge15" class="edge">
<title>Record Goods Receipt&#45;&gt;Change Quantity</title>
<path fill="none" stroke="#2d137d" d="M413.22,-514.44C402.89,-509.46 392.39,-503.4 383.58,-496.25 369.03,-484.45 365.62,-479.76 358.33,-462.5 347.8,-437.59 343.83,-406.84 342.36,-384.97"/>
<polygon fill="#2d137d" stroke="#2d137d" points="345.81,-384.93 341.79,-375.13 338.82,-385.3 345.81,-384.93"/>
<text text-anchor="middle" x="366.2" y="-438.82" font-family="Times New Roman,serif" font-size="14.00" fill="#2d137d">0.0</text>
</g>
<!-- Remove Payment Block -->
<g id="node8" class="node">
<title>Remove Payment Block</title>
<image xlink:href="1.png" width="208px" height="36.5px" preserveAspectRatio="xMinYMin meet" x="113.577" y="-197.75"/>
<text text-anchor="middle" x="217.58" y="-182.35" font-family="Times New Roman,serif" font-size="12.00" fill="#2d137d">Remove Payment Block</text>
<text text-anchor="start" x="121.58" y="-168.1" font-family="Times New Roman,serif" font-size="12.00" fill="#2d137d"> &#160;&#160;&#160;&#160;&#160;&#160;&#160;&#160;&#160;&#160;&#160;&#160;10850</text>
</g>
<!-- Record Goods Receipt&#45;&gt;Remove Payment Block -->
<g id="edge12" class="edge">
<title>Record Goods Receipt&#45;&gt;Remove Payment Block</title>
<path fill="none" stroke="#2d137d" d="M355.67,-515.08C353.62,-514.8 351.59,-514.52 349.58,-514.25 313.9,-509.46 217.85,-517.2 188.58,-496.25 168.2,-481.67 164.58,-470.3 164.58,-445.25 164.58,-445.25 164.58,-445.25 164.58,-266.75 164.58,-243.55 178.67,-221.35 192.32,-205.28"/>
<polygon fill="#2d137d" stroke="#2d137d" points="194.26,-208.24 198.34,-198.46 189.05,-203.56 194.26,-208.24"/>
<text text-anchor="middle" x="173.2" y="-350.57" font-family="Times New Roman,serif" font-size="14.00" fill="#2d137d">0.0</text>
</g>
<!-- Record Goods Receipt&#45;&gt;endevent -->
<g id="edge10" class="edge">
<title>Record Goods Receipt&#45;&gt;endevent</title>
<path fill="none" stroke="#2d137d" d="M355.67,-515.04C353.62,-514.77 351.59,-514.51 349.58,-514.25 268.95,-503.95 244.54,-522.4 167.58,-496.25 126.94,-482.44 85.58,-488.17 85.58,-445.25 85.58,-445.25 85.58,-445.25 85.58,-90.25 85.58,-47.02 141.08,-29.89 180.11,-23.2"/>
<polygon fill="#2d137d" stroke="#2d137d" points="180.52,-26.52 189.86,-21.54 179.45,-19.6 180.52,-26.52"/>
</g>
<!-- Vendor creates invoice&#45;&gt;Create Purchase Order Item -->
<g id="edge21" class="edge">
<title>Vendor creates invoice&#45;&gt;Create Purchase Order Item</title>
<path fill="none" stroke="#2d137d" d="M676.74,-462.46C684.49,-467.37 691.97,-473.38 697.58,-480.5 750.92,-548.24 790.69,-618.61 723.58,-672.75 699.27,-692.36 628.63,-701.13 565.3,-705.02"/>
<polygon fill="#2d137d" stroke="#2d137d" points="565.18,-701.58 555.4,-705.65 565.58,-708.57 565.18,-701.58"/>
<text text-anchor="middle" x="764.2" y="-571.2" font-family="Times New Roman,serif" font-size="14.00" fill="#2d137d">0.0</text>
</g>
<!-- Vendor creates invoice&#45;&gt;Record Goods Receipt -->
<g id="edge11" class="edge">
<title>Vendor creates invoice&#45;&gt;Record Goods Receipt</title>
<path fill="none" stroke="#2d137d" d="M598.88,-462.4C586.18,-468.03 572.1,-474.4 559.33,-480.5 540.22,-489.62 519.33,-500.21 501.63,-509.36"/>
<polygon fill="#2d137d" stroke="#2d137d" points="500.41,-506.57 493.15,-514.28 503.64,-512.78 500.41,-506.57"/>
<text text-anchor="middle" x="567.2" y="-482.95" font-family="Times New Roman,serif" font-size="14.00" fill="#2d137d">0.0</text>
</g>
<!-- Vendor creates invoice&#45;&gt;Record Invoice Receipt -->
<g id="edge30" class="edge">
<title>Vendor creates invoice&#45;&gt;Record Invoice Receipt</title>
<path fill="none" stroke="#2d137d" d="M633.94,-426.43C625.03,-397.23 602.74,-337.11 562.58,-304 556.16,-298.71 548.94,-294.21 541.34,-290.38"/>
<polygon fill="#2d137d" stroke="#2d137d" points="543.09,-286.88 532.54,-285.89 540.17,-293.24 543.09,-286.88"/>
<text text-anchor="middle" x="621.2" y="-350.57" font-family="Times New Roman,serif" font-size="14.00" fill="#2d137d">0.0</text>
</g>
<!-- Vendor creates invoice&#45;&gt;Change Quantity -->
<g id="edge22" class="edge">
<title>Vendor creates invoice&#45;&gt;Change Quantity</title>
<path fill="none" stroke="#2d137d" d="M558.8,-426.05C542.08,-421.2 524.82,-415.22 509.33,-408 498.18,-402.81 497.8,-397.29 486.58,-392.25 473.45,-386.36 459.2,-381.36 444.93,-377.16"/>
<polygon fill="#2d137d" stroke="#2d137d" points="446.12,-373.57 435.55,-374.23 444.22,-380.31 446.12,-373.57"/>
<text text-anchor="middle" x="517.2" y="-394.7" font-family="Times New Roman,serif" font-size="14.00" fill="#2d137d">0.0</text>
</g>
<!-- Record Invoice Receipt&#45;&gt;Record Goods Receipt -->
<g id="edge25" class="edge">
<title>Record Invoice Receipt&#45;&gt;Record Goods Receipt</title>
<path fill="none" stroke="#2d137d" d="M466.11,-285.71C484.39,-308.27 514.81,-350.22 526.58,-392.25 528.46,-398.99 528.3,-401.22 526.58,-408 517.36,-444.32 495.08,-481.52 478.73,-505.46"/>
<polygon fill="#2d137d" stroke="#2d137d" points="475.44,-503.07 472.58,-513.27 481.18,-507.08 475.44,-503.07"/>
<text text-anchor="middle" x="536.2" y="-394.7" font-family="Times New Roman,serif" font-size="14.00" fill="#2d137d">0.0</text>
</g>
<!-- Record Invoice Receipt&#45;&gt;Clear Invoice -->
<g id="edge27" class="edge">
<title>Record Invoice Receipt&#45;&gt;Clear Invoice</title>
<path fill="none" stroke="#2d137d" d="M441.76,-249.52C426.23,-222.7 394.59,-169.65 363.58,-127.5 361.2,-124.27 358.61,-120.96 355.97,-117.72"/>
<polygon fill="#2d137d" stroke="#2d137d" points="358.14,-115.85 349.03,-110.42 352.77,-120.34 358.14,-115.85"/>
<text text-anchor="middle" x="417.2" y="-174.07" font-family="Times New Roman,serif" font-size="14.00" fill="#2d137d">0.0</text>
</g>
<!-- Record Invoice Receipt&#45;&gt;Remove Payment Block -->
<g id="edge34" class="edge">
<title>Record Invoice Receipt&#45;&gt;Remove Payment Block</title>
<path fill="none" stroke="#2d137d" d="M404.79,-249.5C367.24,-235.66 314.39,-216.19 274.42,-201.45"/>
<polygon fill="#2d137d" stroke="#2d137d" points="275.88,-197.89 265.29,-197.72 273.46,-204.46 275.88,-197.89"/>
<text text-anchor="middle" x="363.2" y="-218.2" font-family="Times New Roman,serif" font-size="14.00" fill="#2d137d">0.0</text>
</g>
<!-- Clear Invoice&#45;&gt;endevent -->
<g id="edge7" class="edge">
<title>Clear Invoice&#45;&gt;endevent</title>
<path fill="none" stroke="#2d137d" d="M305.5,-73C289.77,-63.34 270,-51.2 253.19,-40.88"/>
<polygon fill="#2d137d" stroke="#2d137d" points="255.56,-37.61 245.2,-35.35 251.89,-43.57 255.56,-37.61"/>
</g>
<!-- Change Quantity&#45;&gt;Create Purchase Order Item -->
<g id="edge31" class="edge">
<title>Change Quantity&#45;&gt;Create Purchase Order Item</title>
<path fill="none" stroke="#2d137d" d="M335.45,-373.99C320.39,-414.09 278.38,-516.31 218.58,-584.5 210.47,-593.74 202.71,-591.33 197.58,-602.5 190.8,-617.24 187.73,-626.11 197.58,-639 215.14,-662 277.64,-679.17 336.12,-690.63"/>
<polygon fill="#2d137d" stroke="#2d137d" points="335.12,-694.19 345.6,-692.63 336.44,-687.32 335.12,-694.19"/>
<text text-anchor="middle" x="276.2" y="-527.08" font-family="Times New Roman,serif" font-size="14.00" fill="#2d137d">0.0</text>
</g>
<!-- Change Quantity&#45;&gt;Record Goods Receipt -->
<g id="edge19" class="edge">
<title>Change Quantity&#45;&gt;Record Goods Receipt</title>
<path fill="none" stroke="#2d137d" d="M353.15,-374.12C373.9,-404.79 417.51,-469.29 441.98,-505.47"/>
<polygon fill="#2d137d" stroke="#2d137d" points="439.55,-507.13 448.05,-513.45 445.35,-503.21 439.55,-507.13"/>
<text text-anchor="middle" x="420.2" y="-438.82" font-family="Times New Roman,serif" font-size="14.00" fill="#2d137d">0.0</text>
</g>
<!-- Change Quantity&#45;&gt;Vendor creates invoice -->
<g id="edge13" class="edge">
<title>Change Quantity&#45;&gt;Vendor creates invoice</title>
<path fill="none" stroke="#2d137d" d="M375.04,-374.25C385.29,-379.77 396.52,-386.06 406.58,-392.25 417.05,-398.69 417.93,-403.37 429.33,-408 458.99,-420.06 492.63,-428 524.14,-433.22"/>
<polygon fill="#2d137d" stroke="#2d137d" points="523.31,-436.79 533.73,-434.89 524.39,-429.87 523.31,-436.79"/>
<text text-anchor="middle" x="437.2" y="-394.7" font-family="Times New Roman,serif" font-size="14.00" fill="#2d137d">0.0</text>
</g>
<!-- Change Quantity&#45;&gt;Record Invoice Receipt -->
<g id="edge38" class="edge">
<title>Change Quantity&#45;&gt;Record Invoice Receipt</title>
<path fill="none" stroke="#2d137d" d="M363.57,-337.75C380.06,-324.83 402.83,-306.97 421.07,-292.67"/>
<polygon fill="#2d137d" stroke="#2d137d" points="422.91,-294.89 428.62,-285.97 418.59,-289.38 422.91,-294.89"/>
<text text-anchor="middle" x="414.2" y="-306.45" font-family="Times New Roman,serif" font-size="14.00" fill="#2d137d">0.0</text>
</g>
<!-- Remove Payment Block&#45;&gt;Clear Invoice -->
<g id="edge14" class="edge">
<title>Remove Payment Block&#45;&gt;Clear Invoice</title>
<path fill="none" stroke="#2d137d" d="M240.77,-161.25C258.24,-148.27 282.39,-130.31 301.67,-115.97"/>
<polygon fill="#2d137d" stroke="#2d137d" points="303.48,-118.24 309.42,-109.47 299.31,-112.62 303.48,-118.24"/>
<text text-anchor="middle" x="294.2" y="-129.95" font-family="Times New Roman,serif" font-size="14.00" fill="#2d137d">0.0</text>
</g>
<!-- Change Price&#45;&gt;Create Purchase Order Item -->
<g id="edge24" class="edge">
<title>Change Price&#45;&gt;Create Purchase Order Item</title>
<path fill="none" stroke="#2d137d" d="M580.63,-638.52C573.94,-649.62 563.86,-663.73 551.58,-672.75 544.37,-678.04 536.3,-682.59 527.94,-686.49"/>
<polygon fill="#2d137d" stroke="#2d137d" points="526.83,-683.59 519.04,-690.77 529.61,-690.01 526.83,-683.59"/>
<text text-anchor="middle" x="576.2" y="-659.45" font-family="Times New Roman,serif" font-size="14.00" fill="#2d137d">0.0</text>
</g>
<!-- Change Price&#45;&gt;Record Goods Receipt -->
<g id="edge18" class="edge">
<title>Change Price&#45;&gt;Record Goods Receipt</title>
<path fill="none" stroke="#2d137d" d="M563.58,-602.5C543.74,-589.34 516.21,-571.07 494.46,-556.64"/>
<polygon fill="#2d137d" stroke="#2d137d" points="496.79,-553.33 486.53,-550.72 492.92,-559.16 496.79,-553.33"/>
<text text-anchor="middle" x="544.2" y="-571.2" font-family="Times New Roman,serif" font-size="14.00" fill="#2d137d">0.0</text>
</g>
<!-- Change Price&#45;&gt;Vendor creates invoice -->
<g id="edge40" class="edge">
<title>Change Price&#45;&gt;Vendor creates invoice</title>
<path fill="none" stroke="#2d137d" d="M594.36,-602.7C602.85,-572.47 620.61,-509.22 630.85,-472.76"/>
<polygon fill="#2d137d" stroke="#2d137d" points="634.44,-473.94 633.77,-463.37 627.7,-472.05 634.44,-473.94"/>
<text text-anchor="middle" x="627.2" y="-527.08" font-family="Times New Roman,serif" font-size="14.00" fill="#2d137d">0.0</text>
</g>
<!-- Delete Purchase Order Item&#45;&gt;Create Purchase Order Item -->
<g id="edge41" class="edge">
<title>Delete Purchase Order Item&#45;&gt;Create Purchase Order Item</title>
<path fill="none" stroke="#2d137d" d="M117.94,-550.66C107.24,-572.15 93.11,-609.71 106.33,-639 115.65,-659.66 123.86,-663.53 144.58,-672.75 178.16,-687.7 263.93,-696.76 336.15,-701.94"/>
<polygon fill="#2d137d" stroke="#2d137d" points="335.48,-705.47 345.7,-702.68 335.97,-698.49 335.48,-705.47"/>
<text text-anchor="middle" x="115.2" y="-615.33" font-family="Times New Roman,serif" font-size="14.00" fill="#2d137d">0.0</text>
</g>
<!-- Delete Purchase Order Item&#45;&gt;endevent -->
<g id="edge9" class="edge">
<title>Delete Purchase Order Item&#45;&gt;endevent</title>
<path fill="none" stroke="#2d137d" d="M89.89,-514.37C64.48,-499.96 35.58,-476.67 35.58,-445.25 35.58,-445.25 35.58,-445.25 35.58,-90.25 35.58,-67.54 51.78,-65.13 71.58,-54 105.37,-35 149.18,-26.27 179.96,-22.28"/>
<polygon fill="#2d137d" stroke="#2d137d" points="180.15,-25.66 189.67,-21.02 179.33,-18.71 180.15,-25.66"/>
</g>
<!-- startevent -->
<g id="node11" class="node">
<title>startevent</title>
</g>
<!-- startevent&#45;&gt;Create Purchase Order Item -->
<g id="edge3" class="edge">
<title>startevent&#45;&gt;Create Purchase Order Item</title>
<path fill="none" stroke="#2d137d" d="M306.3,-770.12C331.11,-759.78 368.72,-744.11 399.32,-731.36"/>
<polygon fill="#2d137d" stroke="#2d137d" points="400.52,-734.23 408.4,-727.16 397.82,-727.77 400.52,-734.23"/>
</g>
<!-- startevent&#45;&gt;Receive Order Confirmation -->
<g id="edge5" class="edge">
<title>startevent&#45;&gt;Receive Order Confirmation</title>
<path fill="none" stroke="#2d137d" d="M282.84,-764.48C288.15,-737.15 298.73,-682.72 305.17,-649.54"/>
<polygon fill="#2d137d" stroke="#2d137d" points="308.8,-650.26 307.27,-639.77 301.92,-648.92 308.8,-650.26"/>
</g>
<!-- startevent&#45;&gt;Vendor creates invoice -->
<g id="edge6" class="edge">
<title>startevent&#45;&gt;Vendor creates invoice</title>
<path fill="none" stroke="#2d137d" d="M306.37,-779.56C399.91,-773.04 709.48,-746.16 768.58,-672.75 813.21,-617.3 786.05,-572.8 745.58,-514.25 734.49,-498.22 733.1,-492.28 717.58,-480.5 711.09,-475.58 703.8,-471.16 696.35,-467.25"/>
<polygon fill="#2d137d" stroke="#2d137d" points="698.03,-463.68 687.51,-462.41 694.94,-469.96 698.03,-463.68"/>
</g>
<!-- startevent&#45;&gt;Change Quantity -->
<g id="edge2" class="edge">
<title>startevent&#45;&gt;Change Quantity</title>
<path fill="none" stroke="#2d137d" d="M252.82,-770.92C172.07,-738.15 -59.29,-631.74 14.58,-514.25 62.77,-437.6 159.94,-397.45 235.89,-376.97"/>
<polygon fill="#2d137d" stroke="#2d137d" points="236.66,-380.13 245.45,-374.21 234.89,-373.35 236.66,-380.13"/>
</g>
<!-- startevent&#45;&gt;Change Price -->
<g id="edge1" class="edge">
<title>startevent&#45;&gt;Change Price</title>
<path fill="none" stroke="#2d137d" d="M306.36,-779.27C369.15,-774.13 523.57,-758.58 563.58,-727.25 586.53,-709.28 591.24,-674.56 591.38,-649.87"/>
<polygon fill="#2d137d" stroke="#2d137d" points="594.86,-649.92 591.15,-639.99 587.86,-650.06 594.86,-649.92"/>
</g>
<!-- startevent&#45;&gt;Delete Purchase Order Item -->
<g id="edge4" class="edge">
<title>startevent&#45;&gt;Delete Purchase Order Item</title>
<path fill="none" stroke="#2d137d" d="M252.77,-769.14C217.3,-751.99 154.61,-717.67 114.58,-672.75 83.59,-637.97 84.44,-612.07 101.58,-568.75 102.8,-565.67 104.35,-562.61 106.1,-559.67"/>
<polygon fill="#2d137d" stroke="#2d137d" points="109.45,-561.96 112.13,-551.72 103.64,-558.05 109.45,-561.96"/>
</g>
</g>
</svg>
