<?xml version="1.0" encoding="UTF-8" standalone="no"?>
<!DOCTYPE svg PUBLIC "-//W3C//DTD SVG 1.1//EN"
 "http://www.w3.org/Graphics/SVG/1.1/DTD/svg11.dtd">
<!-- Generated by graphviz version 5.0.0 (20220707.1540)
 -->
<!-- Title: graph0 Pages: 1 -->
<svg width="910pt" height="625pt"
 viewBox="0.00 0.00 910.29 625.00" xmlns="http://www.w3.org/2000/svg" xmlns:xlink="http://www.w3.org/1999/xlink">
<g id="graph0" class="graph" transform="scale(1 1) rotate(0) translate(4 621)">
<title>graph0</title>
<polygon fill="white" stroke="transparent" points="-4,4 -4,-621 906.29,-621 906.29,4 -4,4"/>
<!-- Create Purchase Order Item -->
<g id="node1" class="node">
<title>Create Purchase Order Item</title>
<image xlink:href="1.png" width="208px" height="36px" preserveAspectRatio="xMinYMin meet" x="262" y="-544"/>
<text text-anchor="middle" x="366" y="-529.4" font-family="Times New Roman,serif" font-size="12.00" fill="#2d137d">Create Purchase Order Item</text>
<text text-anchor="start" x="270" y="-516.4" font-family="Times New Roman,serif" font-size="12.00" fill="#2d137d"> &#160;&#160;&#160;&#160;&#160;&#160;&#160;&#160;&#160;&#160;&#160;&#160;63797</text>
</g>
<!-- Receive Order Confirmation -->
<g id="node2" class="node">
<title>Receive Order Confirmation</title>
<image xlink:href="1.png" width="208px" height="36px" preserveAspectRatio="xMinYMin meet" x="80" y="-457"/>
<text text-anchor="middle" x="184" y="-442.4" font-family="Times New Roman,serif" font-size="12.00" fill="#2d137d">Receive Order Confirmation</text>
<text text-anchor="start" x="88" y="-429.4" font-family="Times New Roman,serif" font-size="12.00" fill="#2d137d"> &#160;&#160;&#160;&#160;&#160;&#160;&#160;&#160;&#160;&#160;&#160;&#160;7212</text>
</g>
<!-- Create Purchase Order Item&#45;&gt;Receive Order Confirmation -->
<g id="edge24" class="edge">
<title>Create Purchase Order Item&#45;&gt;Receive Order Confirmation</title>
<path fill="none" stroke="#2d137d" d="M324.49,-507.86C311.46,-502.32 297.06,-496.05 284,-490 264.8,-481.11 243.82,-470.73 226.06,-461.73"/>
<polygon fill="#2d137d" stroke="#2d137d" points="227.59,-458.59 217.09,-457.17 224.42,-464.83 227.59,-458.59"/>
<text text-anchor="middle" x="293" y="-478.8" font-family="Times New Roman,serif" font-size="14.00" fill="#2d137d">0.0</text>
</g>
<!-- Record Goods Receipt -->
<g id="node3" class="node">
<title>Record Goods Receipt</title>
<image xlink:href="1.png" width="208px" height="36px" preserveAspectRatio="xMinYMin meet" x="324" y="-370"/>
<text text-anchor="middle" x="428" y="-355.4" font-family="Times New Roman,serif" font-size="12.00" fill="#2d137d">Record Goods Receipt</text>
<text text-anchor="start" x="332" y="-342.4" font-family="Times New Roman,serif" font-size="12.00" fill="#2d137d"> &#160;&#160;&#160;&#160;&#160;&#160;&#160;&#160;&#160;&#160;&#160;&#160;60246</text>
</g>
<!-- Create Purchase Order Item&#45;&gt;Record Goods Receipt -->
<g id="edge25" class="edge">
<title>Create Purchase Order Item&#45;&gt;Record Goods Receipt</title>
<path fill="none" stroke="#2d137d" d="M363.56,-507.74C361.29,-486.52 359.74,-449.79 371,-421 377.4,-404.64 389.4,-389.37 400.75,-377.45"/>
<polygon fill="#2d137d" stroke="#2d137d" points="403.47,-379.69 408.05,-370.13 398.51,-374.74 403.47,-379.69"/>
<text text-anchor="middle" x="380" y="-435.3" font-family="Times New Roman,serif" font-size="14.00" fill="#2d137d">0.0</text>
</g>
<!-- Vendor creates invoice -->
<g id="node4" class="node">
<title>Vendor creates invoice</title>
<image xlink:href="1.png" width="208px" height="36px" preserveAspectRatio="xMinYMin meet" x="640" y="-370"/>
<text text-anchor="middle" x="744" y="-355.4" font-family="Times New Roman,serif" font-size="12.00" fill="#2d137d">Vendor creates invoice</text>
<text text-anchor="start" x="648" y="-342.4" font-family="Times New Roman,serif" font-size="12.00" fill="#2d137d"> &#160;&#160;&#160;&#160;&#160;&#160;&#160;&#160;&#160;&#160;&#160;&#160;53326</text>
</g>
<!-- Create Purchase Order Item&#45;&gt;Vendor creates invoice -->
<g id="edge22" class="edge">
<title>Create Purchase Order Item&#45;&gt;Vendor creates invoice</title>
<path fill="none" stroke="#2d137d" d="M470.06,-509.12C516.61,-498.94 570.82,-482.65 615,-457 634.57,-445.64 633.82,-435.72 651,-421 669.67,-405.01 691.84,-388.7 709.86,-376.06"/>
<polygon fill="#2d137d" stroke="#2d137d" points="712.12,-378.75 718.33,-370.17 708.12,-373.01 712.12,-378.75"/>
<text text-anchor="middle" x="660" y="-435.3" font-family="Times New Roman,serif" font-size="14.00" fill="#2d137d">0.0</text>
</g>
<!-- Change Quantity -->
<g id="node7" class="node">
<title>Change Quantity</title>
<image xlink:href="1.png" width="208px" height="36px" preserveAspectRatio="xMinYMin meet" x="398" y="-457"/>
<text text-anchor="middle" x="502" y="-442.4" font-family="Times New Roman,serif" font-size="12.00" fill="#2d137d">Change Quantity</text>
<text text-anchor="start" x="406" y="-429.4" font-family="Times New Roman,serif" font-size="12.00" fill="#2d137d"> &#160;&#160;&#160;&#160;&#160;&#160;&#160;&#160;&#160;&#160;&#160;&#160;1717</text>
</g>
<!-- Create Purchase Order Item&#45;&gt;Change Quantity -->
<g id="edge26" class="edge">
<title>Create Purchase Order Item&#45;&gt;Change Quantity</title>
<path fill="none" stroke="#2d137d" d="M393.52,-507.8C414.35,-494.78 443.15,-476.78 465.84,-462.6"/>
<polygon fill="#2d137d" stroke="#2d137d" points="467.89,-465.44 474.52,-457.18 464.18,-459.51 467.89,-465.44"/>
<text text-anchor="middle" x="451" y="-478.8" font-family="Times New Roman,serif" font-size="14.00" fill="#2d137d">0.0</text>
</g>
<!-- Change Price -->
<g id="node9" class="node">
<title>Change Price</title>
<image xlink:href="1.png" width="208px" height="36px" preserveAspectRatio="xMinYMin meet" x="678" y="-457"/>
<text text-anchor="middle" x="782" y="-442.4" font-family="Times New Roman,serif" font-size="12.00" fill="#2d137d">Change Price</text>
<text text-anchor="start" x="686" y="-429.4" font-family="Times New Roman,serif" font-size="12.00" fill="#2d137d"> &#160;&#160;&#160;&#160;&#160;&#160;&#160;&#160;&#160;&#160;&#160;&#160;1087</text>
</g>
<!-- Create Purchase Order Item&#45;&gt;Change Price -->
<g id="edge12" class="edge">
<title>Create Purchase Order Item&#45;&gt;Change Price</title>
<path fill="none" stroke="#2d137d" d="M470.2,-518.95C525.96,-514.08 595.42,-505.4 656,-490 683.56,-482.99 713.18,-471.46 736.77,-461.23"/>
<polygon fill="#2d137d" stroke="#2d137d" points="738.42,-464.33 746.16,-457.1 735.6,-457.93 738.42,-464.33"/>
<text text-anchor="middle" x="711" y="-478.8" font-family="Times New Roman,serif" font-size="14.00" fill="#2d137d">0.0</text>
</g>
<!-- Delete Purchase Order Item -->
<g id="node10" class="node">
<title>Delete Purchase Order Item</title>
<image xlink:href="1.png" width="208px" height="36px" preserveAspectRatio="xMinYMin meet" x="0" y="-370"/>
<text text-anchor="middle" x="104" y="-355.4" font-family="Times New Roman,serif" font-size="12.00" fill="#2d137d">Delete Purchase Order Item</text>
<text text-anchor="start" x="8" y="-342.4" font-family="Times New Roman,serif" font-size="12.00" fill="#2d137d"> &#160;&#160;&#160;&#160;&#160;&#160;&#160;&#160;&#160;&#160;&#160;&#160;3834</text>
</g>
<!-- Create Purchase Order Item&#45;&gt;Delete Purchase Order Item -->
<g id="edge29" class="edge">
<title>Create Purchase Order Item&#45;&gt;Delete Purchase Order Item</title>
<path fill="none" stroke="#2d137d" d="M261.7,-516.24C181.11,-507.06 79.04,-489.31 53,-457 33.47,-432.77 56.19,-399.83 77.21,-377.56"/>
<polygon fill="#2d137d" stroke="#2d137d" points="79.98,-379.74 84.51,-370.17 75,-374.83 79.98,-379.74"/>
<text text-anchor="middle" x="62" y="-435.3" font-family="Times New Roman,serif" font-size="14.00" fill="#2d137d">0.0</text>
</g>
<!-- endevent -->
<g id="node12" class="node">
<title>endevent</title>
</g>
<!-- Create Purchase Order Item&#45;&gt;endevent -->
<g id="edge8" class="edge">
<title>Create Purchase Order Item&#45;&gt;endevent</title>
<path fill="none" stroke="#2d137d" d="M353.81,-507.87C333.75,-477.96 296,-413.61 296,-353 296,-353 296,-353 296,-90 296,-75.1 299.95,-59.02 304.25,-45.93"/>
<polygon fill="#2d137d" stroke="#2d137d" points="307.67,-46.76 307.71,-36.16 301.08,-44.43 307.67,-46.76"/>
</g>
<!-- Receive Order Confirmation&#45;&gt;Record Goods Receipt -->
<g id="edge17" class="edge">
<title>Receive Order Confirmation&#45;&gt;Record Goods Receipt</title>
<path fill="none" stroke="#2d137d" d="M233.08,-420.9C272.46,-407.18 327.85,-387.89 369.52,-373.37"/>
<polygon fill="#2d137d" stroke="#2d137d" points="370.7,-376.67 378.99,-370.07 368.4,-370.06 370.7,-376.67"/>
<text text-anchor="middle" x="329" y="-391.8" font-family="Times New Roman,serif" font-size="14.00" fill="#2d137d">0.0</text>
</g>
<!-- Receive Order Confirmation&#45;&gt;Vendor creates invoice -->
<g id="edge27" class="edge">
<title>Receive Order Confirmation&#45;&gt;Vendor creates invoice</title>
<path fill="none" stroke="#2d137d" d="M288.33,-426.76C359.83,-418.88 448.16,-408.77 485,-403 519.01,-397.67 527.2,-394.57 561,-388 588.01,-382.75 617.27,-377.13 644.31,-371.96"/>
<polygon fill="#2d137d" stroke="#2d137d" points="644.99,-375.39 654.16,-370.07 643.68,-368.51 644.99,-375.39"/>
<text text-anchor="middle" x="570" y="-391.8" font-family="Times New Roman,serif" font-size="14.00" fill="#2d137d">0.0</text>
</g>
<!-- Receive Order Confirmation&#45;&gt;Delete Purchase Order Item -->
<g id="edge16" class="edge">
<title>Receive Order Confirmation&#45;&gt;Delete Purchase Order Item</title>
<path fill="none" stroke="#2d137d" d="M167.81,-420.8C156.1,-408.36 140.11,-391.36 127.06,-377.5"/>
<polygon fill="#2d137d" stroke="#2d137d" points="129.57,-375.06 120.17,-370.18 124.47,-379.86 129.57,-375.06"/>
<text text-anchor="middle" x="158" y="-391.8" font-family="Times New Roman,serif" font-size="14.00" fill="#2d137d">0.0</text>
</g>
<!-- Record Goods Receipt&#45;&gt;Record Goods Receipt -->
<g id="edge14" class="edge">
<title>Record Goods Receipt&#45;&gt;Record Goods Receipt</title>
<path fill="none" stroke="#2d137d" d="M532.13,-358.52C543.02,-357.25 550,-355.08 550,-352 550,-350.03 547.14,-348.43 542.21,-347.2"/>
<polygon fill="#2d137d" stroke="#2d137d" points="542.57,-343.71 532.13,-345.48 541.39,-350.61 542.57,-343.71"/>
<text text-anchor="middle" x="559" y="-348.3" font-family="Times New Roman,serif" font-size="14.00" fill="#2d137d">0.0</text>
</g>
<!-- Remove Payment Block -->
<g id="node8" class="node">
<title>Remove Payment Block</title>
<image xlink:href="1.png" width="208px" height="36px" preserveAspectRatio="xMinYMin meet" x="500" y="-196"/>
<text text-anchor="middle" x="604" y="-181.4" font-family="Times New Roman,serif" font-size="12.00" fill="#2d137d">Remove Payment Block</text>
<text text-anchor="start" x="508" y="-168.4" font-family="Times New Roman,serif" font-size="12.00" fill="#2d137d"> &#160;&#160;&#160;&#160;&#160;&#160;&#160;&#160;&#160;&#160;&#160;&#160;10850</text>
</g>
<!-- Record Goods Receipt&#45;&gt;Remove Payment Block -->
<g id="edge18" class="edge">
<title>Record Goods Receipt&#45;&gt;Remove Payment Block</title>
<path fill="none" stroke="#2d137d" d="M431.61,-333.92C437.12,-311.54 449.53,-272.19 473,-247 492.21,-226.39 519.08,-210.94 543.49,-200.02"/>
<polygon fill="#2d137d" stroke="#2d137d" points="544.91,-203.22 552.71,-196.05 542.14,-196.79 544.91,-203.22"/>
<text text-anchor="middle" x="482" y="-261.3" font-family="Times New Roman,serif" font-size="14.00" fill="#2d137d">0.0</text>
</g>
<!-- Record Goods Receipt&#45;&gt;endevent -->
<g id="edge10" class="edge">
<title>Record Goods Receipt&#45;&gt;endevent</title>
<path fill="none" stroke="#2d137d" d="M388.41,-333.88C362.72,-319.82 334,-297.13 334,-266 334,-266 334,-266 334,-90 334,-75.1 330.05,-59.02 325.75,-45.93"/>
<polygon fill="#2d137d" stroke="#2d137d" points="328.92,-44.43 322.29,-36.16 322.33,-46.76 328.92,-44.43"/>
</g>
<!-- Record Invoice Receipt -->
<g id="node5" class="node">
<title>Record Invoice Receipt</title>
<image xlink:href="1.png" width="208px" height="36px" preserveAspectRatio="xMinYMin meet" x="500" y="-283"/>
<text text-anchor="middle" x="604" y="-268.4" font-family="Times New Roman,serif" font-size="12.00" fill="#2d137d">Record Invoice Receipt</text>
<text text-anchor="start" x="508" y="-255.4" font-family="Times New Roman,serif" font-size="12.00" fill="#2d137d"> &#160;&#160;&#160;&#160;&#160;&#160;&#160;&#160;&#160;&#160;&#160;&#160;53326</text>
</g>
<!-- Vendor creates invoice&#45;&gt;Record Invoice Receipt -->
<g id="edge23" class="edge">
<title>Vendor creates invoice&#45;&gt;Record Invoice Receipt</title>
<path fill="none" stroke="#2d137d" d="M715.67,-333.8C694.13,-320.72 664.32,-302.62 640.91,-288.41"/>
<polygon fill="#2d137d" stroke="#2d137d" points="642.65,-285.37 632.29,-283.18 639.02,-291.36 642.65,-285.37"/>
<text text-anchor="middle" x="691" y="-304.8" font-family="Times New Roman,serif" font-size="14.00" fill="#2d137d">0.0</text>
</g>
<!-- Clear Invoice -->
<g id="node6" class="node">
<title>Clear Invoice</title>
<image xlink:href="1.png" width="208px" height="36px" preserveAspectRatio="xMinYMin meet" x="362" y="-109"/>
<text text-anchor="middle" x="466" y="-94.4" font-family="Times New Roman,serif" font-size="12.00" fill="#2d137d">Clear Invoice</text>
<text text-anchor="start" x="370" y="-81.4" font-family="Times New Roman,serif" font-size="12.00" fill="#2d137d"> &#160;&#160;&#160;&#160;&#160;&#160;&#160;&#160;&#160;&#160;&#160;&#160;53326</text>
</g>
<!-- Record Invoice Receipt&#45;&gt;Clear Invoice -->
<g id="edge15" class="edge">
<title>Record Invoice Receipt&#45;&gt;Clear Invoice</title>
<path fill="none" stroke="#2d137d" d="M542.22,-246.87C516.48,-236.46 488.93,-220.33 473,-196 458.18,-173.36 458.28,-141.69 460.93,-119.25"/>
<polygon fill="#2d137d" stroke="#2d137d" points="464.44,-119.46 462.39,-109.07 457.51,-118.47 464.44,-119.46"/>
<text text-anchor="middle" x="482" y="-174.3" font-family="Times New Roman,serif" font-size="14.00" fill="#2d137d">0.0</text>
</g>
<!-- Record Invoice Receipt&#45;&gt;Remove Payment Block -->
<g id="edge19" class="edge">
<title>Record Invoice Receipt&#45;&gt;Remove Payment Block</title>
<path fill="none" stroke="#2d137d" d="M604,-246.8C604,-235.16 604,-219.55 604,-206.24"/>
<polygon fill="#2d137d" stroke="#2d137d" points="607.5,-206.18 604,-196.18 600.5,-206.18 607.5,-206.18"/>
<text text-anchor="middle" x="613" y="-217.8" font-family="Times New Roman,serif" font-size="14.00" fill="#2d137d">0.0</text>
</g>
<!-- Clear Invoice&#45;&gt;endevent -->
<g id="edge7" class="edge">
<title>Clear Invoice&#45;&gt;endevent</title>
<path fill="none" stroke="#2d137d" d="M429.83,-72.99C406.11,-61.84 375.2,-47.3 351.42,-36.13"/>
<polygon fill="#2d137d" stroke="#2d137d" points="352.9,-32.95 342.36,-31.87 349.92,-39.29 352.9,-32.95"/>
</g>
<!-- Change Quantity&#45;&gt;Record Goods Receipt -->
<g id="edge11" class="edge">
<title>Change Quantity&#45;&gt;Record Goods Receipt</title>
<path fill="none" stroke="#2d137d" d="M484.12,-420.96C478.49,-415.38 472.35,-409.05 467,-403 460.07,-395.16 452.92,-386.26 446.65,-378.16"/>
<polygon fill="#2d137d" stroke="#2d137d" points="449.35,-375.91 440.5,-370.08 443.78,-380.16 449.35,-375.91"/>
<text text-anchor="middle" x="476" y="-391.8" font-family="Times New Roman,serif" font-size="14.00" fill="#2d137d">0.0</text>
</g>
<!-- Change Quantity&#45;&gt;Record Invoice Receipt -->
<g id="edge13" class="edge">
<title>Change Quantity&#45;&gt;Record Invoice Receipt</title>
<path fill="none" stroke="#2d137d" d="M568.61,-420.99C576.85,-416.36 584.35,-410.48 590,-403 613.88,-371.4 612.71,-323.33 608.92,-293.34"/>
<polygon fill="#2d137d" stroke="#2d137d" points="612.34,-292.56 607.45,-283.17 605.42,-293.57 612.34,-292.56"/>
<text text-anchor="middle" x="619" y="-348.3" font-family="Times New Roman,serif" font-size="14.00" fill="#2d137d">0.0</text>
</g>
<!-- Remove Payment Block&#45;&gt;Clear Invoice -->
<g id="edge20" class="edge">
<title>Remove Payment Block&#45;&gt;Clear Invoice</title>
<path fill="none" stroke="#2d137d" d="M576.07,-159.8C554.94,-146.78 525.72,-128.78 502.69,-114.6"/>
<polygon fill="#2d137d" stroke="#2d137d" points="504.23,-111.44 493.88,-109.18 500.56,-117.4 504.23,-111.44"/>
<text text-anchor="middle" x="552" y="-130.8" font-family="Times New Roman,serif" font-size="14.00" fill="#2d137d">0.0</text>
</g>
<!-- Change Price&#45;&gt;Record Goods Receipt -->
<g id="edge28" class="edge">
<title>Change Price&#45;&gt;Record Goods Receipt</title>
<path fill="none" stroke="#2d137d" d="M710.79,-420.9C652.46,-406.89 569.91,-387.07 509.05,-372.46"/>
<polygon fill="#2d137d" stroke="#2d137d" points="509.64,-369 499.1,-370.07 508,-375.81 509.64,-369"/>
<text text-anchor="middle" x="635" y="-391.8" font-family="Times New Roman,serif" font-size="14.00" fill="#2d137d">0.0</text>
</g>
<!-- Change Price&#45;&gt;Vendor creates invoice -->
<g id="edge21" class="edge">
<title>Change Price&#45;&gt;Vendor creates invoice</title>
<path fill="none" stroke="#2d137d" d="M774.31,-420.8C769,-408.93 761.85,-392.93 755.82,-379.45"/>
<polygon fill="#2d137d" stroke="#2d137d" points="758.96,-377.88 751.68,-370.18 752.56,-380.73 758.96,-377.88"/>
<text text-anchor="middle" x="774" y="-391.8" font-family="Times New Roman,serif" font-size="14.00" fill="#2d137d">0.0</text>
</g>
<!-- Delete Purchase Order Item&#45;&gt;endevent -->
<g id="edge9" class="edge">
<title>Delete Purchase Order Item&#45;&gt;endevent</title>
<path fill="none" stroke="#2d137d" d="M152.18,-333.9C180.58,-320.4 211,-298.38 211,-266 211,-266 211,-266 211,-90 211,-56.51 248.24,-37.68 278.15,-27.95"/>
<polygon fill="#2d137d" stroke="#2d137d" points="279.38,-31.24 287.95,-25 277.36,-24.53 279.38,-31.24"/>
</g>
<!-- startevent -->
<g id="node11" class="node">
<title>startevent</title>
</g>
<!-- startevent&#45;&gt;Create Purchase Order Item -->
<g id="edge3" class="edge">
<title>startevent&#45;&gt;Create Purchase Order Item</title>
<path fill="none" stroke="#2d137d" d="M443.57,-580.99C430.17,-571.67 413.37,-559.97 398.84,-549.86"/>
<polygon fill="#2d137d" stroke="#2d137d" points="400.79,-546.95 390.59,-544.11 396.79,-552.7 400.79,-546.95"/>
</g>
<!-- startevent&#45;&gt;Receive Order Confirmation -->
<g id="edge5" class="edge">
<title>startevent&#45;&gt;Receive Order Confirmation</title>
<path fill="none" stroke="#2d137d" d="M440.97,-597.33C397.52,-595 311.13,-585.11 253,-544 225.48,-524.54 205.93,-490.32 194.82,-466.47"/>
<polygon fill="#2d137d" stroke="#2d137d" points="197.98,-464.98 190.71,-457.27 191.59,-467.83 197.98,-464.98"/>
</g>
<!-- startevent&#45;&gt;Vendor creates invoice -->
<g id="edge6" class="edge">
<title>startevent&#45;&gt;Vendor creates invoice</title>
<path fill="none" stroke="#2d137d" d="M495.19,-593.36C581.71,-577.99 847.72,-525.75 895,-457 921.14,-418.99 869.3,-390.69 819.39,-373.28"/>
<polygon fill="#2d137d" stroke="#2d137d" points="820.38,-369.92 809.79,-370.05 818.15,-376.56 820.38,-369.92"/>
</g>
<!-- startevent&#45;&gt;Change Quantity -->
<g id="edge2" class="edge">
<title>startevent&#45;&gt;Change Quantity</title>
<path fill="none" stroke="#2d137d" d="M471.7,-580.79C477.58,-553.48 489.09,-499.99 496.11,-467.38"/>
<polygon fill="#2d137d" stroke="#2d137d" points="499.62,-467.7 498.3,-457.19 492.78,-466.23 499.62,-467.7"/>
</g>
<!-- startevent&#45;&gt;Change Price -->
<g id="edge1" class="edge">
<title>startevent&#45;&gt;Change Price</title>
<path fill="none" stroke="#2d137d" d="M495.12,-589.68C543.37,-574.22 646.33,-538.19 724,-490 735.77,-482.7 747.56,-473.06 757.41,-464.2"/>
<polygon fill="#2d137d" stroke="#2d137d" points="759.89,-466.67 764.85,-457.32 755.14,-461.53 759.89,-466.67"/>
</g>
<!-- startevent&#45;&gt;Delete Purchase Order Item -->
<g id="edge4" class="edge">
<title>startevent&#45;&gt;Delete Purchase Order Item</title>
<path fill="none" stroke="#2d137d" d="M440.73,-593.84C403.98,-588.03 336.65,-576.64 280,-563 167.42,-535.89 102.88,-555.5 42,-457 25.64,-430.52 35.05,-412.7 54,-388 57.18,-383.85 61,-380 65.08,-376.49"/>
<polygon fill="#2d137d" stroke="#2d137d" points="67.45,-379.08 73.17,-370.16 63.14,-373.56 67.45,-379.08"/>
</g>
</g>
</svg>
