<?xml version="1.0" encoding="UTF-8" standalone="no"?>
<!DOCTYPE svg PUBLIC "-//W3C//DTD SVG 1.1//EN"
 "http://www.w3.org/Graphics/SVG/1.1/DTD/svg11.dtd">
<!-- Generated by graphviz version 7.1.0 (20230121.1956)
 -->
<!-- Title: graph0 Pages: 1 -->
<svg width="922pt" height="600pt"
 viewBox="0.00 0.00 922.20 600.00" xmlns="http://www.w3.org/2000/svg" xmlns:xlink="http://www.w3.org/1999/xlink">
<g id="graph0" class="graph" transform="scale(1 1) rotate(0) translate(4 596)">
<title>graph0</title>
<polygon fill="white" stroke="none" points="-4,4 -4,-596 918.2,-596 918.2,4 -4,4"/>
<!-- Create Purchase Order Item -->
<g id="node1" class="node">
<title>Create Purchase Order Item</title>
<image xlink:href="1.png" width="208px" height="36px" preserveAspectRatio="xMinYMin meet" x="265" y="-519"/>
<text text-anchor="middle" x="369" y="-504.4" font-family="Times New Roman,serif" font-size="12.00" fill="#2d137d">Create Purchase Order Item</text>
<text text-anchor="middle" x="369" y="-491.4" font-family="Times New Roman,serif" font-size="12.00" fill="#2d137d">63797</text>
</g>
<!-- Receive Order Confirmation -->
<g id="node2" class="node">
<title>Receive Order Confirmation</title>
<image xlink:href="1.png" width="208px" height="36px" preserveAspectRatio="xMinYMin meet" x="81" y="-437"/>
<text text-anchor="middle" x="185" y="-422.4" font-family="Times New Roman,serif" font-size="12.00" fill="#2d137d">Receive Order Confirmation</text>
<text text-anchor="middle" x="185" y="-409.4" font-family="Times New Roman,serif" font-size="12.00" fill="#2d137d">7212</text>
</g>
<!-- Create Purchase Order Item&#45;&gt;Receive Order Confirmation -->
<g id="edge13" class="edge">
<title>Create Purchase Order Item&#45;&gt;Receive Order Confirmation</title>
<path fill="none" stroke="#2d137d" d="M326.94,-483.03C313.21,-477.4 297.91,-471.02 284,-465 266.95,-457.62 248.37,-449.26 231.96,-441.76"/>
<polygon fill="#2d137d" stroke="#2d137d" points="233.46,-438.6 222.91,-437.62 230.54,-444.96 233.46,-438.6"/>
<text text-anchor="middle" x="293.5" y="-457.8" font-family="Times New Roman,serif" font-size="9.00" fill="#2d137d">6844</text>
</g>
<!-- Record Goods Receipt -->
<g id="node3" class="node">
<title>Record Goods Receipt</title>
<image xlink:href="1.png" width="208px" height="36px" preserveAspectRatio="xMinYMin meet" x="324" y="-355"/>
<text text-anchor="middle" x="428" y="-340.4" font-family="Times New Roman,serif" font-size="12.00" fill="#2d137d">Record Goods Receipt</text>
<text text-anchor="middle" x="428" y="-327.4" font-family="Times New Roman,serif" font-size="12.00" fill="#2d137d">60246</text>
</g>
<!-- Create Purchase Order Item&#45;&gt;Record Goods Receipt -->
<g id="edge19" class="edge">
<title>Create Purchase Order Item&#45;&gt;Record Goods Receipt</title>
<path fill="none" stroke="#2d137d" d="M366.13,-483.19C363.42,-462.91 361.2,-428.16 372,-401 377.72,-386.62 388.26,-373.37 398.68,-362.77"/>
<polygon fill="#2d137d" stroke="#2d137d" points="401.03,-365.37 405.81,-355.92 396.18,-360.32 401.03,-365.37"/>
<text text-anchor="middle" x="383.5" y="-416.8" font-family="Times New Roman,serif" font-size="9.00" fill="#2d137d">20497</text>
</g>
<!-- Vendor creates invoice -->
<g id="node4" class="node">
<title>Vendor creates invoice</title>
<image xlink:href="1.png" width="208px" height="36px" preserveAspectRatio="xMinYMin meet" x="623" y="-355"/>
<text text-anchor="middle" x="727" y="-340.4" font-family="Times New Roman,serif" font-size="12.00" fill="#2d137d">Vendor creates invoice</text>
<text text-anchor="middle" x="727" y="-327.4" font-family="Times New Roman,serif" font-size="12.00" fill="#2d137d">53326</text>
</g>
<!-- Create Purchase Order Item&#45;&gt;Vendor creates invoice -->
<g id="edge16" class="edge">
<title>Create Purchase Order Item&#45;&gt;Vendor creates invoice</title>
<path fill="none" stroke="#2d137d" d="M472.75,-487.03C520.19,-477.93 575.77,-462.61 621,-437 640.69,-425.85 640.58,-416.57 657,-401 670.68,-388.02 686.25,-373.94 699.23,-362.39"/>
<polygon fill="#2d137d" stroke="#2d137d" points="701.45,-365.1 706.61,-355.85 696.8,-359.86 701.45,-365.1"/>
<text text-anchor="middle" x="668.5" y="-416.8" font-family="Times New Roman,serif" font-size="9.00" fill="#2d137d">30582</text>
</g>
<!-- Change Quantity -->
<g id="node7" class="node">
<title>Change Quantity</title>
<image xlink:href="1.png" width="208px" height="36px" preserveAspectRatio="xMinYMin meet" x="404" y="-437"/>
<text text-anchor="middle" x="508" y="-422.4" font-family="Times New Roman,serif" font-size="12.00" fill="#2d137d">Change Quantity</text>
<text text-anchor="middle" x="508" y="-409.4" font-family="Times New Roman,serif" font-size="12.00" fill="#2d137d">1717</text>
</g>
<!-- Create Purchase Order Item&#45;&gt;Change Quantity -->
<g id="edge11" class="edge">
<title>Create Purchase Order Item&#45;&gt;Change Quantity</title>
<path fill="none" stroke="#2d137d" d="M398.48,-483.03C418.93,-471.26 446.41,-455.45 468.72,-442.61"/>
<polygon fill="#2d137d" stroke="#2d137d" points="470.33,-445.72 477.25,-437.7 466.84,-439.65 470.33,-445.72"/>
<text text-anchor="middle" x="455.5" y="-457.8" font-family="Times New Roman,serif" font-size="9.00" fill="#2d137d">1439</text>
</g>
<!-- Change Price -->
<g id="node9" class="node">
<title>Change Price</title>
<image xlink:href="1.png" width="208px" height="36px" preserveAspectRatio="xMinYMin meet" x="689" y="-437"/>
<text text-anchor="middle" x="793" y="-422.4" font-family="Times New Roman,serif" font-size="12.00" fill="#2d137d">Change Price</text>
<text text-anchor="middle" x="793" y="-409.4" font-family="Times New Roman,serif" font-size="12.00" fill="#2d137d">1087</text>
</g>
<!-- Create Purchase Order Item&#45;&gt;Change Price -->
<g id="edge18" class="edge">
<title>Create Purchase Order Item&#45;&gt;Change Price</title>
<path fill="none" stroke="#2d137d" d="M472.97,-492.98C529.4,-487.82 600.07,-479.17 662,-465 688.43,-458.95 716.98,-449.51 740.67,-440.83"/>
<polygon fill="#2d137d" stroke="#2d137d" points="741.62,-444.21 749.76,-437.44 739.17,-437.65 741.62,-444.21"/>
<text text-anchor="middle" x="707.5" y="-457.8" font-family="Times New Roman,serif" font-size="9.00" fill="#2d137d">1066</text>
</g>
<!-- Delete Purchase Order Item -->
<g id="node10" class="node">
<title>Delete Purchase Order Item</title>
<image xlink:href="1.png" width="208px" height="36px" preserveAspectRatio="xMinYMin meet" x="0" y="-355"/>
<text text-anchor="middle" x="104" y="-340.4" font-family="Times New Roman,serif" font-size="12.00" fill="#2d137d">Delete Purchase Order Item</text>
<text text-anchor="middle" x="104" y="-327.4" font-family="Times New Roman,serif" font-size="12.00" fill="#2d137d">3834</text>
</g>
<!-- Create Purchase Order Item&#45;&gt;Delete Purchase Order Item -->
<g id="edge15" class="edge">
<title>Create Purchase Order Item&#45;&gt;Delete Purchase Order Item</title>
<path fill="none" stroke="#2d137d" d="M265.02,-493.23C183.53,-485.49 79.61,-469.44 53,-437 34.38,-414.3 55.79,-383.7 76.3,-362.56"/>
<polygon fill="#2d137d" stroke="#2d137d" points="78.56,-365.24 83.24,-355.74 73.65,-360.25 78.56,-365.24"/>
<text text-anchor="middle" x="62.5" y="-416.8" font-family="Times New Roman,serif" font-size="9.00" fill="#2d137d">3364</text>
</g>
<!-- endevent -->
<g id="node12" class="node">
<title>endevent</title>
</g>
<!-- Create Purchase Order Item&#45;&gt;endevent -->
<g id="edge10" class="edge">
<title>Create Purchase Order Item&#45;&gt;endevent</title>
<path fill="none" stroke="#2d137d" d="M355.61,-483.16C334.54,-454.9 296,-395.38 296,-338 296,-338 296,-338 296,-90 296,-75.29 299.85,-59.44 304.08,-46.45"/>
<polygon fill="#2d137d" stroke="#2d137d" points="307.29,-47.9 307.31,-37.3 300.68,-45.57 307.29,-47.9"/>
</g>
<!-- Receive Order Confirmation&#45;&gt;Record Goods Receipt -->
<g id="edge12" class="edge">
<title>Receive Order Confirmation&#45;&gt;Record Goods Receipt</title>
<path fill="none" stroke="#2d137d" d="M236.53,-401.03C274.31,-388.6 325.77,-371.66 365.83,-358.47"/>
<polygon fill="#2d137d" stroke="#2d137d" points="366.7,-361.87 375.1,-355.41 364.51,-355.22 366.7,-361.87"/>
<text text-anchor="middle" x="330.5" y="-375.8" font-family="Times New Roman,serif" font-size="9.00" fill="#2d137d">3795</text>
</g>
<!-- Receive Order Confirmation&#45;&gt;Vendor creates invoice -->
<g id="edge26" class="edge">
<title>Receive Order Confirmation&#45;&gt;Vendor creates invoice</title>
<path fill="none" stroke="#2d137d" d="M288.97,-406.63C360.22,-398.69 448.25,-388.55 485,-383 533.79,-375.63 587.8,-365.75 632.39,-357.13"/>
<polygon fill="#2d137d" stroke="#2d137d" points="632.88,-360.6 642.03,-355.25 631.55,-353.73 632.88,-360.6"/>
<text text-anchor="middle" x="553.5" y="-375.8" font-family="Times New Roman,serif" font-size="9.00" fill="#2d137d">2584</text>
</g>
<!-- Receive Order Confirmation&#45;&gt;Delete Purchase Order Item -->
<g id="edge24" class="edge">
<title>Receive Order Confirmation&#45;&gt;Delete Purchase Order Item</title>
<path fill="none" stroke="#2d137d" d="M167.82,-401.03C156.55,-389.9 141.61,-375.15 129.02,-362.71"/>
<polygon fill="#2d137d" stroke="#2d137d" points="131.8,-360.54 122.23,-356.01 126.89,-365.52 131.8,-360.54"/>
<text text-anchor="middle" x="157" y="-375.8" font-family="Times New Roman,serif" font-size="9.00" fill="#2d137d">465</text>
</g>
<!-- Record Goods Receipt&#45;&gt;Record Goods Receipt -->
<g id="edge20" class="edge">
<title>Record Goods Receipt&#45;&gt;Record Goods Receipt</title>
<path fill="none" stroke="#2d137d" d="M531.69,-343.42C542.83,-342.18 550,-340.04 550,-337 550,-335.15 547.34,-333.63 542.74,-332.44"/>
<polygon fill="#2d137d" stroke="#2d137d" points="543.62,-329.04 533.18,-330.83 542.46,-335.95 543.62,-329.04"/>
<text text-anchor="middle" x="557" y="-334.8" font-family="Times New Roman,serif" font-size="9.00" fill="#2d137d">283</text>
</g>
<!-- Remove Payment Block -->
<g id="node8" class="node">
<title>Remove Payment Block</title>
<image xlink:href="1.png" width="208px" height="36px" preserveAspectRatio="xMinYMin meet" x="496" y="-191"/>
<text text-anchor="middle" x="600" y="-176.4" font-family="Times New Roman,serif" font-size="12.00" fill="#2d137d">Remove Payment Block</text>
<text text-anchor="middle" x="600" y="-163.4" font-family="Times New Roman,serif" font-size="12.00" fill="#2d137d">10850</text>
</g>
<!-- Record Goods Receipt&#45;&gt;Remove Payment Block -->
<g id="edge27" class="edge">
<title>Record Goods Receipt&#45;&gt;Remove Payment Block</title>
<path fill="none" stroke="#2d137d" d="M430.88,-319.27C435.36,-297.79 445.9,-260.5 468,-237 485.27,-218.64 509,-205.04 531.58,-195.28"/>
<polygon fill="#2d137d" stroke="#2d137d" points="532.86,-198.53 540.79,-191.5 530.21,-192.06 532.86,-198.53"/>
<text text-anchor="middle" x="477.5" y="-252.8" font-family="Times New Roman,serif" font-size="9.00" fill="#2d137d">4847</text>
</g>
<!-- Record Goods Receipt&#45;&gt;endevent -->
<g id="edge8" class="edge">
<title>Record Goods Receipt&#45;&gt;endevent</title>
<path fill="none" stroke="#2d137d" d="M385.67,-319.1C360.72,-306.05 334,-285.25 334,-256 334,-256 334,-256 334,-90 334,-75.29 330.15,-59.44 325.92,-46.45"/>
<polygon fill="#2d137d" stroke="#2d137d" points="329.32,-45.57 322.69,-37.3 322.71,-47.9 329.32,-45.57"/>
</g>
<!-- Record Invoice Receipt -->
<g id="node5" class="node">
<title>Record Invoice Receipt</title>
<image xlink:href="1.png" width="208px" height="36px" preserveAspectRatio="xMinYMin meet" x="496" y="-273"/>
<text text-anchor="middle" x="600" y="-258.4" font-family="Times New Roman,serif" font-size="12.00" fill="#2d137d">Record Invoice Receipt</text>
<text text-anchor="middle" x="600" y="-245.4" font-family="Times New Roman,serif" font-size="12.00" fill="#2d137d">53326</text>
</g>
<!-- Vendor creates invoice&#45;&gt;Record Invoice Receipt -->
<g id="edge14" class="edge">
<title>Vendor creates invoice&#45;&gt;Record Invoice Receipt</title>
<path fill="none" stroke="#2d137d" d="M700.07,-319.03C681.55,-307.37 656.73,-291.73 636.44,-278.96"/>
<polygon fill="#2d137d" stroke="#2d137d" points="638.5,-276.12 628.18,-273.75 634.77,-282.04 638.5,-276.12"/>
<text text-anchor="middle" x="682.5" y="-293.8" font-family="Times New Roman,serif" font-size="9.00" fill="#2d137d">22799</text>
</g>
<!-- Clear Invoice -->
<g id="node6" class="node">
<title>Clear Invoice</title>
<image xlink:href="1.png" width="208px" height="36px" preserveAspectRatio="xMinYMin meet" x="362" y="-109"/>
<text text-anchor="middle" x="466" y="-94.4" font-family="Times New Roman,serif" font-size="12.00" fill="#2d137d">Clear Invoice</text>
<text text-anchor="middle" x="466" y="-81.4" font-family="Times New Roman,serif" font-size="12.00" fill="#2d137d">53326</text>
</g>
<!-- Record Invoice Receipt&#45;&gt;Clear Invoice -->
<g id="edge25" class="edge">
<title>Record Invoice Receipt&#45;&gt;Clear Invoice</title>
<path fill="none" stroke="#2d137d" d="M526.36,-237.04C502.3,-227.63 478.15,-213.15 464,-191 450.63,-170.07 452.99,-141.24 457.58,-120.09"/>
<polygon fill="#2d137d" stroke="#2d137d" points="460.97,-120.95 459.99,-110.4 454.18,-119.26 460.97,-120.95"/>
<text text-anchor="middle" x="475.5" y="-170.8" font-family="Times New Roman,serif" font-size="9.00" fill="#2d137d">42475</text>
</g>
<!-- Record Invoice Receipt&#45;&gt;Remove Payment Block -->
<g id="edge21" class="edge">
<title>Record Invoice Receipt&#45;&gt;Remove Payment Block</title>
<path fill="none" stroke="#2d137d" d="M600,-237.03C600,-226.96 600,-213.92 600,-202.32"/>
<polygon fill="#2d137d" stroke="#2d137d" points="603.5,-202.45 600,-192.46 596.5,-202.46 603.5,-202.45"/>
<text text-anchor="middle" x="609.5" y="-211.8" font-family="Times New Roman,serif" font-size="9.00" fill="#2d137d">6003</text>
</g>
<!-- Clear Invoice&#45;&gt;endevent -->
<g id="edge7" class="edge">
<title>Clear Invoice&#45;&gt;endevent</title>
<path fill="none" stroke="#2d137d" d="M430.22,-73.17C406.62,-62.08 375.79,-47.58 351.96,-36.38"/>
<polygon fill="#2d137d" stroke="#2d137d" points="353.46,-33.22 342.92,-32.13 350.48,-39.55 353.46,-33.22"/>
</g>
<!-- Change Quantity&#45;&gt;Record Goods Receipt -->
<g id="edge28" class="edge">
<title>Change Quantity&#45;&gt;Record Goods Receipt</title>
<path fill="none" stroke="#2d137d" d="M486.43,-401.25C479.67,-395.68 472.33,-389.29 466,-383 459.92,-376.96 453.74,-370.04 448.18,-363.48"/>
<polygon fill="#2d137d" stroke="#2d137d" points="451.09,-361.5 442.02,-356.02 445.7,-365.96 451.09,-361.5"/>
<text text-anchor="middle" x="475.5" y="-375.8" font-family="Times New Roman,serif" font-size="9.00" fill="#2d137d">1133</text>
</g>
<!-- Change Quantity&#45;&gt;Record Invoice Receipt -->
<g id="edge29" class="edge">
<title>Change Quantity&#45;&gt;Record Invoice Receipt</title>
<path fill="none" stroke="#2d137d" d="M564.77,-401.2C572.98,-396.52 580.5,-390.56 586,-383 606.93,-354.26 607.14,-311.72 604.37,-283.93"/>
<polygon fill="#2d137d" stroke="#2d137d" points="607.86,-283.67 603.18,-274.16 600.91,-284.51 607.86,-283.67"/>
<text text-anchor="middle" x="607.5" y="-334.8" font-family="Times New Roman,serif" font-size="9.00" fill="#2d137d">5</text>
</g>
<!-- Remove Payment Block&#45;&gt;Clear Invoice -->
<g id="edge23" class="edge">
<title>Remove Payment Block&#45;&gt;Clear Invoice</title>
<path fill="none" stroke="#2d137d" d="M571.58,-155.03C551.95,-143.31 525.62,-127.59 504.16,-114.78"/>
<polygon fill="#2d137d" stroke="#2d137d" points="506.06,-111.84 495.68,-109.72 502.47,-117.85 506.06,-111.84"/>
<text text-anchor="middle" x="552.5" y="-129.8" font-family="Times New Roman,serif" font-size="9.00" fill="#2d137d">10850</text>
</g>
<!-- Change Price&#45;&gt;Record Goods Receipt -->
<g id="edge22" class="edge">
<title>Change Price&#45;&gt;Record Goods Receipt</title>
<path fill="none" stroke="#2d137d" d="M715.59,-401.03C657.28,-388.25 577.25,-370.71 516.42,-357.38"/>
<polygon fill="#2d137d" stroke="#2d137d" points="517.29,-353.99 506.77,-355.27 515.79,-360.83 517.29,-353.99"/>
<text text-anchor="middle" x="639" y="-375.8" font-family="Times New Roman,serif" font-size="9.00" fill="#2d137d">254</text>
</g>
<!-- Change Price&#45;&gt;Vendor creates invoice -->
<g id="edge17" class="edge">
<title>Change Price&#45;&gt;Vendor creates invoice</title>
<path fill="none" stroke="#2d137d" d="M779,-401.03C770.08,-390.22 758.34,-375.99 748.27,-363.79"/>
<polygon fill="#2d137d" stroke="#2d137d" points="751,-361.6 741.94,-356.11 745.6,-366.05 751,-361.6"/>
<text text-anchor="middle" x="770" y="-375.8" font-family="Times New Roman,serif" font-size="9.00" fill="#2d137d">812</text>
</g>
<!-- Delete Purchase Order Item&#45;&gt;endevent -->
<g id="edge9" class="edge">
<title>Delete Purchase Order Item&#45;&gt;endevent</title>
<path fill="none" stroke="#2d137d" d="M155.62,-319.14C182.98,-306.62 211,-286.38 211,-256 211,-256 211,-256 211,-90 211,-56.85 247.49,-38.06 277.24,-28.25"/>
<polygon fill="#2d137d" stroke="#2d137d" points="278.22,-31.61 286.77,-25.36 276.18,-24.91 278.22,-31.61"/>
</g>
<!-- startevent -->
<g id="node11" class="node">
<title>startevent</title>
</g>
<!-- startevent&#45;&gt;Create Purchase Order Item -->
<g id="edge1" class="edge">
<title>startevent&#45;&gt;Create Purchase Order Item</title>
<path fill="none" stroke="#2d137d" d="M448.35,-556.17C434.85,-546.96 417.91,-535.39 403.15,-525.32"/>
<polygon fill="#2d137d" stroke="#2d137d" points="405.31,-522.55 395.08,-519.8 401.37,-528.33 405.31,-522.55"/>
</g>
<!-- startevent&#45;&gt;Receive Order Confirmation -->
<g id="edge6" class="edge">
<title>startevent&#45;&gt;Receive Order Confirmation</title>
<path fill="none" stroke="#2d137d" d="M446.25,-572.17C402.76,-569.63 315.59,-559.44 256,-519 229.41,-500.95 209.37,-469.46 197.48,-446.83"/>
<polygon fill="#2d137d" stroke="#2d137d" points="200.75,-445.55 193.12,-438.19 194.5,-448.69 200.75,-445.55"/>
</g>
<!-- startevent&#45;&gt;Vendor creates invoice -->
<g id="edge2" class="edge">
<title>startevent&#45;&gt;Vendor creates invoice</title>
<path fill="none" stroke="#2d137d" d="M499.86,-568.79C586.62,-554.59 856.65,-505.48 906,-437 933.69,-398.58 883.96,-373.32 829.95,-357.94"/>
<polygon fill="#2d137d" stroke="#2d137d" points="831.14,-354.64 820.57,-355.39 829.3,-361.39 831.14,-354.64"/>
</g>
<!-- startevent&#45;&gt;Change Quantity -->
<g id="edge3" class="edge">
<title>startevent&#45;&gt;Change Quantity</title>
<path fill="none" stroke="#2d137d" d="M476.88,-556.04C482.88,-529.83 494.46,-479.19 501.68,-447.64"/>
<polygon fill="#2d137d" stroke="#2d137d" points="505.05,-448.57 503.87,-438.04 498.23,-447.01 505.05,-448.57"/>
</g>
<!-- startevent&#45;&gt;Change Price -->
<g id="edge4" class="edge">
<title>startevent&#45;&gt;Change Price</title>
<path fill="none" stroke="#2d137d" d="M499.66,-562.89C545.75,-545.1 642.88,-506.13 721,-465 733.53,-458.4 746.8,-450.42 758.49,-443.01"/>
<polygon fill="#2d137d" stroke="#2d137d" points="760.09,-446.15 766.61,-437.8 756.3,-440.26 760.09,-446.15"/>
</g>
<!-- startevent&#45;&gt;Delete Purchase Order Item -->
<g id="edge5" class="edge">
<title>startevent&#45;&gt;Delete Purchase Order Item</title>
<path fill="none" stroke="#2d137d" d="M446.25,-569.04C359.23,-555.5 87.15,-508.01 42,-437 26.38,-412.43 37.19,-395.23 56,-373 59.31,-369.09 63.15,-365.37 67.18,-361.93"/>
<polygon fill="#2d137d" stroke="#2d137d" points="69.3,-364.71 75,-355.78 64.97,-359.21 69.3,-364.71"/>
</g>
</g>
</svg>
