<?xml version="1.0" encoding="UTF-8" standalone="no"?>
<!DOCTYPE svg PUBLIC "-//W3C//DTD SVG 1.1//EN"
 "http://www.w3.org/Graphics/SVG/1.1/DTD/svg11.dtd">
<!-- Generated by graphviz version 7.1.0 (20230121.1956)
 -->
<!-- Title: graph1 Pages: 1 -->
<svg width="861pt" height="764pt"
 viewBox="0.00 0.00 861.38 764.00" xmlns="http://www.w3.org/2000/svg" xmlns:xlink="http://www.w3.org/1999/xlink">
<g id="graph0" class="graph" transform="scale(1 1) rotate(0) translate(4 760)">
<title>graph1</title>
<polygon fill="white" stroke="none" points="-4,4 -4,-760 857.38,-760 857.38,4 -4,4"/>
<!-- Create Purchase Order Item -->
<g id="node1" class="node">
<title>Create Purchase Order Item</title>
<image xlink:href="11.png" width="208px" height="36px" preserveAspectRatio="xMinYMin meet" x="342.381" y="-683"/>
<text text-anchor="middle" x="446.38" y="-668.4" font-family="Times New Roman,serif" font-size="12.00" fill="#2d137d">Create Purchase Order Item</text>
<text text-anchor="middle" x="446.38" y="-655.4" font-family="Times New Roman,serif" font-size="12.00" fill="#2d137d">63797</text>
</g>
<!-- Receive Order Confirmation -->
<g id="node2" class="node">
<title>Receive Order Confirmation</title>
<image xlink:href="11.png" width="208px" height="36px" preserveAspectRatio="xMinYMin meet" x="202.381" y="-601"/>
<text text-anchor="middle" x="306.38" y="-586.4" font-family="Times New Roman,serif" font-size="12.00" fill="#2d137d">Receive Order Confirmation</text>
<text text-anchor="middle" x="306.38" y="-573.4" font-family="Times New Roman,serif" font-size="12.00" fill="#2d137d">7212</text>
</g>
<!-- Create Purchase Order Item&#45;&gt;Receive Order Confirmation -->
<g id="edge17" class="edge">
<title>Create Purchase Order Item&#45;&gt;Receive Order Confirmation</title>
<path fill="none" stroke="#2d137d" d="M416.69,-647.03C396.09,-635.26 368.42,-619.45 345.94,-606.61"/>
<polygon fill="#2d137d" stroke="#2d137d" points="347.76,-603.61 337.34,-601.69 344.29,-609.69 347.76,-603.61"/>
<text text-anchor="middle" x="393.88" y="-621.8" font-family="Times New Roman,serif" font-size="9.00" fill="#2d137d">6844</text>
</g>
<!-- Record Goods Receipt -->
<g id="node3" class="node">
<title>Record Goods Receipt</title>
<image xlink:href="11.png" width="208px" height="36px" preserveAspectRatio="xMinYMin meet" x="345.381" y="-519"/>
<text text-anchor="middle" x="449.38" y="-504.4" font-family="Times New Roman,serif" font-size="12.00" fill="#2d137d">Record Goods Receipt</text>
<text text-anchor="middle" x="449.38" y="-491.4" font-family="Times New Roman,serif" font-size="12.00" fill="#2d137d">60246</text>
</g>
<!-- Create Purchase Order Item&#45;&gt;Record Goods Receipt -->
<g id="edge16" class="edge">
<title>Create Purchase Order Item&#45;&gt;Record Goods Receipt</title>
<path fill="none" stroke="#2d137d" d="M446.69,-647.27C447.2,-619.63 448.23,-564.1 448.86,-530.27"/>
<polygon fill="#2d137d" stroke="#2d137d" points="452.35,-530.45 449.04,-520.39 445.36,-530.33 452.35,-530.45"/>
<text text-anchor="middle" x="458.88" y="-580.8" font-family="Times New Roman,serif" font-size="9.00" fill="#2d137d">20497</text>
</g>
<!-- Vendor creates invoice -->
<g id="node4" class="node">
<title>Vendor creates invoice</title>
<image xlink:href="11.png" width="208px" height="36px" preserveAspectRatio="xMinYMin meet" x="517.381" y="-437"/>
<text text-anchor="middle" x="621.38" y="-422.4" font-family="Times New Roman,serif" font-size="12.00" fill="#2d137d">Vendor creates invoice</text>
<text text-anchor="middle" x="621.38" y="-409.4" font-family="Times New Roman,serif" font-size="12.00" fill="#2d137d">53326</text>
</g>
<!-- Create Purchase Order Item&#45;&gt;Vendor creates invoice -->
<g id="edge38" class="edge">
<title>Create Purchase Order Item&#45;&gt;Vendor creates invoice</title>
<path fill="none" stroke="#2d137d" d="M550.19,-651.76C613.15,-641.96 684.98,-625.71 704.38,-601 743.09,-551.71 685.35,-481.46 648.35,-444.65"/>
<polygon fill="#2d137d" stroke="#2d137d" points="651.06,-442.41 641.45,-437.96 646.19,-447.43 651.06,-442.41"/>
<text text-anchor="middle" x="725.88" y="-539.8" font-family="Times New Roman,serif" font-size="9.00" fill="#2d137d">30582</text>
</g>
<!-- Change Quantity -->
<g id="node7" class="node">
<title>Change Quantity</title>
<image xlink:href="11.png" width="208px" height="36px" preserveAspectRatio="xMinYMin meet" x="229.381" y="-355"/>
<text text-anchor="middle" x="333.38" y="-340.4" font-family="Times New Roman,serif" font-size="12.00" fill="#2d137d">Change Quantity</text>
<text text-anchor="middle" x="333.38" y="-327.4" font-family="Times New Roman,serif" font-size="12.00" fill="#2d137d">1717</text>
</g>
<!-- Create Purchase Order Item&#45;&gt;Change Quantity -->
<g id="edge22" class="edge">
<title>Create Purchase Order Item&#45;&gt;Change Quantity</title>
<path fill="none" stroke="#2d137d" d="M550.2,-660C622.54,-655.69 711.7,-646.86 744.38,-629 781.89,-608.51 778.19,-579.34 772.38,-537 763.86,-474.82 781.27,-442.72 734.38,-401 713.15,-382.11 559.41,-362.01 448.62,-349.72"/>
<polygon fill="#2d137d" stroke="#2d137d" points="449.19,-346.26 438.87,-348.65 448.42,-353.22 449.19,-346.26"/>
<text text-anchor="middle" x="779.88" y="-498.8" font-family="Times New Roman,serif" font-size="9.00" fill="#2d137d">1439</text>
</g>
<!-- Change Price -->
<g id="node9" class="node">
<title>Change Price</title>
<image xlink:href="11.png" width="208px" height="36px" preserveAspectRatio="xMinYMin meet" x="487.381" y="-601"/>
<text text-anchor="middle" x="591.38" y="-586.4" font-family="Times New Roman,serif" font-size="12.00" fill="#2d137d">Change Price</text>
<text text-anchor="middle" x="591.38" y="-573.4" font-family="Times New Roman,serif" font-size="12.00" fill="#2d137d">1087</text>
</g>
<!-- Create Purchase Order Item&#45;&gt;Change Price -->
<g id="edge23" class="edge">
<title>Create Purchase Order Item&#45;&gt;Change Price</title>
<path fill="none" stroke="#2d137d" d="M477.13,-647.03C498.57,-635.21 527.39,-619.31 550.72,-606.43"/>
<polygon fill="#2d137d" stroke="#2d137d" points="552.28,-609.57 559.35,-601.67 548.9,-603.44 552.28,-609.57"/>
<text text-anchor="middle" x="536.88" y="-621.8" font-family="Times New Roman,serif" font-size="9.00" fill="#2d137d">1066</text>
</g>
<!-- Delete Purchase Order Item -->
<g id="node10" class="node">
<title>Delete Purchase Order Item</title>
<image xlink:href="11.png" width="208px" height="36px" preserveAspectRatio="xMinYMin meet" x="23.3812" y="-519"/>
<text text-anchor="middle" x="127.38" y="-504.4" font-family="Times New Roman,serif" font-size="12.00" fill="#2d137d">Delete Purchase Order Item</text>
<text text-anchor="middle" x="127.38" y="-491.4" font-family="Times New Roman,serif" font-size="12.00" fill="#2d137d">3834</text>
</g>
<!-- Create Purchase Order Item&#45;&gt;Delete Purchase Order Item -->
<g id="edge25" class="edge">
<title>Create Purchase Order Item&#45;&gt;Delete Purchase Order Item</title>
<path fill="none" stroke="#2d137d" d="M342.58,-660.24C273.59,-656.07 190.37,-647.31 160.38,-629 127.94,-609.19 123.77,-561.25 124.8,-530.27"/>
<polygon fill="#2d137d" stroke="#2d137d" points="128.28,-530.62 125.34,-520.44 121.29,-530.23 128.28,-530.62"/>
<text text-anchor="middle" x="144.88" y="-580.8" font-family="Times New Roman,serif" font-size="9.00" fill="#2d137d">3364</text>
</g>
<!-- endevent -->
<g id="node12" class="node">
<title>endevent</title>
</g>
<!-- Create Purchase Order Item&#45;&gt;endevent -->
<g id="edge10" class="edge">
<title>Create Purchase Order Item&#45;&gt;endevent</title>
<path fill="none" stroke="#2d137d" d="M550.11,-654.47C639.23,-645.99 754.87,-634.15 764.38,-629 799.09,-610.2 853.38,-551.63 853.38,-502 853.38,-502 853.38,-502 853.38,-90 853.38,-27.01 372.02,-19.83 231.47,-19.07"/>
<polygon fill="#2d137d" stroke="#2d137d" points="231.6,-15.57 221.58,-19.03 231.57,-22.57 231.6,-15.57"/>
</g>
<!-- Receive Order Confirmation&#45;&gt;Create Purchase Order Item -->
<g id="edge21" class="edge">
<title>Receive Order Confirmation&#45;&gt;Create Purchase Order Item</title>
<path fill="none" stroke="#2d137d" d="M319.19,-600.84C327.04,-610.2 337.79,-621.45 349.38,-629 357.36,-634.2 366.21,-638.74 375.23,-642.69"/>
<polygon fill="#2d137d" stroke="#2d137d" points="373.86,-645.91 384.44,-646.47 376.52,-639.44 373.86,-645.91"/>
<text text-anchor="middle" x="356.38" y="-621.8" font-family="Times New Roman,serif" font-size="9.00" fill="#2d137d">368</text>
</g>
<!-- Receive Order Confirmation&#45;&gt;Record Goods Receipt -->
<g id="edge30" class="edge">
<title>Receive Order Confirmation&#45;&gt;Record Goods Receipt</title>
<path fill="none" stroke="#2d137d" d="M336.71,-565.03C357.85,-553.21 386.27,-537.31 409.28,-524.43"/>
<polygon fill="#2d137d" stroke="#2d137d" points="410.76,-527.62 417.78,-519.68 407.34,-521.51 410.76,-527.62"/>
<text text-anchor="middle" x="395.88" y="-539.8" font-family="Times New Roman,serif" font-size="9.00" fill="#2d137d">3795</text>
</g>
<!-- Receive Order Confirmation&#45;&gt;Vendor creates invoice -->
<g id="edge12" class="edge">
<title>Receive Order Confirmation&#45;&gt;Vendor creates invoice</title>
<path fill="none" stroke="#2d137d" d="M302.87,-565.26C299.35,-543.42 297.01,-505.38 317.38,-483 342.75,-455.14 431.09,-438.92 506.05,-429.93"/>
<polygon fill="#2d137d" stroke="#2d137d" points="506.45,-433.41 515.98,-428.78 505.64,-426.46 506.45,-433.41"/>
<text text-anchor="middle" x="326.88" y="-498.8" font-family="Times New Roman,serif" font-size="9.00" fill="#2d137d">2584</text>
</g>
<!-- Receive Order Confirmation&#45;&gt;Delete Purchase Order Item -->
<g id="edge35" class="edge">
<title>Receive Order Confirmation&#45;&gt;Delete Purchase Order Item</title>
<path fill="none" stroke="#2d137d" d="M268.42,-565.03C241.37,-552.94 204.78,-536.59 175.65,-523.57"/>
<polygon fill="#2d137d" stroke="#2d137d" points="177.23,-520.44 166.67,-519.56 174.37,-526.83 177.23,-520.44"/>
<text text-anchor="middle" x="234.38" y="-539.8" font-family="Times New Roman,serif" font-size="9.00" fill="#2d137d">465</text>
</g>
<!-- Record Goods Receipt&#45;&gt;Record Goods Receipt -->
<g id="edge20" class="edge">
<title>Record Goods Receipt&#45;&gt;Record Goods Receipt</title>
<path fill="none" stroke="#2d137d" d="M553.07,-507.42C564.21,-506.18 571.38,-504.04 571.38,-501 571.38,-499.15 568.72,-497.63 564.12,-496.44"/>
<polygon fill="#2d137d" stroke="#2d137d" points="565,-493.04 554.56,-494.83 563.84,-499.95 565,-493.04"/>
<text text-anchor="middle" x="578.38" y="-498.8" font-family="Times New Roman,serif" font-size="9.00" fill="#2d137d">283</text>
</g>
<!-- Record Goods Receipt&#45;&gt;Vendor creates invoice -->
<g id="edge40" class="edge">
<title>Record Goods Receipt&#45;&gt;Vendor creates invoice</title>
<path fill="none" stroke="#2d137d" d="M509.64,-483.01C524.58,-477.96 540.33,-471.9 554.38,-465 566.73,-458.93 579.47,-450.9 590.48,-443.29"/>
<polygon fill="#2d137d" stroke="#2d137d" points="592.29,-446.3 598.42,-437.66 588.24,-440.59 592.29,-446.3"/>
<text text-anchor="middle" x="582.88" y="-457.8" font-family="Times New Roman,serif" font-size="9.00" fill="#2d137d">17949</text>
</g>
<!-- Record Invoice Receipt -->
<g id="node5" class="node">
<title>Record Invoice Receipt</title>
<image xlink:href="11.png" width="208px" height="36px" preserveAspectRatio="xMinYMin meet" x="349.381" y="-273"/>
<text text-anchor="middle" x="453.38" y="-258.4" font-family="Times New Roman,serif" font-size="12.00" fill="#2d137d">Record Invoice Receipt</text>
<text text-anchor="middle" x="453.38" y="-245.4" font-family="Times New Roman,serif" font-size="12.00" fill="#2d137d">53326</text>
</g>
<!-- Record Goods Receipt&#45;&gt;Record Invoice Receipt -->
<g id="edge33" class="edge">
<title>Record Goods Receipt&#45;&gt;Record Invoice Receipt</title>
<path fill="none" stroke="#2d137d" d="M448.41,-483.15C447.14,-458.83 445.2,-412.46 446.38,-373 447.29,-342.52 449.54,-307.62 451.24,-283.93"/>
<polygon fill="#2d137d" stroke="#2d137d" points="454.72,-284.39 451.96,-274.16 447.73,-283.87 454.72,-284.39"/>
<text text-anchor="middle" x="457.88" y="-375.8" font-family="Times New Roman,serif" font-size="9.00" fill="#2d137d">30522</text>
</g>
<!-- Clear Invoice -->
<g id="node6" class="node">
<title>Clear Invoice</title>
<image xlink:href="11.png" width="208px" height="36px" preserveAspectRatio="xMinYMin meet" x="183.381" y="-109"/>
<text text-anchor="middle" x="287.38" y="-94.4" font-family="Times New Roman,serif" font-size="12.00" fill="#2d137d">Clear Invoice</text>
<text text-anchor="middle" x="287.38" y="-81.4" font-family="Times New Roman,serif" font-size="12.00" fill="#2d137d">53326</text>
</g>
<!-- Record Goods Receipt&#45;&gt;Clear Invoice -->
<g id="edge28" class="edge">
<title>Record Goods Receipt&#45;&gt;Clear Invoice</title>
<path fill="none" stroke="#2d137d" d="M390.61,-483C333.94,-462.95 252.24,-423.35 220.38,-355 213.62,-340.5 214.99,-334.07 220.38,-319 245.16,-249.72 300.6,-260.28 325.38,-191 334.29,-166.09 321.22,-137.94 308.04,-118.05"/>
<polygon fill="#2d137d" stroke="#2d137d" points="310.96,-116.11 302.33,-109.96 305.24,-120.15 310.96,-116.11"/>
<text text-anchor="middle" x="235.88" y="-293.8" font-family="Times New Roman,serif" font-size="9.00" fill="#2d137d">1</text>
</g>
<!-- Record Goods Receipt&#45;&gt;Change Quantity -->
<g id="edge26" class="edge">
<title>Record Goods Receipt&#45;&gt;Change Quantity</title>
<path fill="none" stroke="#2d137d" d="M390.75,-483.12C380.82,-478.4 371.2,-472.45 363.38,-465 336.69,-439.56 331.81,-395.14 331.8,-366.15"/>
<polygon fill="#2d137d" stroke="#2d137d" points="335.29,-366.36 332.01,-356.29 328.3,-366.21 335.29,-366.36"/>
<text text-anchor="middle" x="345.88" y="-416.8" font-family="Times New Roman,serif" font-size="9.00" fill="#2d137d">7</text>
</g>
<!-- Remove Payment Block -->
<g id="node8" class="node">
<title>Remove Payment Block</title>
<image xlink:href="11.png" width="208px" height="36px" preserveAspectRatio="xMinYMin meet" x="108.381" y="-191"/>
<text text-anchor="middle" x="212.38" y="-176.4" font-family="Times New Roman,serif" font-size="12.00" fill="#2d137d">Remove Payment Block</text>
<text text-anchor="middle" x="212.38" y="-163.4" font-family="Times New Roman,serif" font-size="12.00" fill="#2d137d">10850</text>
</g>
<!-- Record Goods Receipt&#45;&gt;Remove Payment Block -->
<g id="edge34" class="edge">
<title>Record Goods Receipt&#45;&gt;Remove Payment Block</title>
<path fill="none" stroke="#2d137d" d="M345.55,-483.7C343.81,-483.46 342.09,-483.23 340.38,-483 253.87,-471.45 154.38,-507.28 154.38,-420 154.38,-420 154.38,-420 154.38,-254 154.38,-232.63 168.11,-213.12 182.21,-198.71"/>
<polygon fill="#2d137d" stroke="#2d137d" points="184.54,-201.33 189.36,-191.89 179.71,-196.26 184.54,-201.33"/>
<text text-anchor="middle" x="163.88" y="-334.8" font-family="Times New Roman,serif" font-size="9.00" fill="#2d137d">4847</text>
</g>
<!-- Record Goods Receipt&#45;&gt;endevent -->
<g id="edge8" class="edge">
<title>Record Goods Receipt&#45;&gt;endevent</title>
<path fill="none" stroke="#2d137d" d="M345.55,-483.67C343.82,-483.44 342.09,-483.22 340.38,-483 281.41,-475.47 80.38,-479.45 80.38,-420 80.38,-420 80.38,-420 80.38,-90 80.38,-53.73 122.63,-35.27 155.47,-26.4"/>
<polygon fill="#2d137d" stroke="#2d137d" points="156.26,-29.81 165.13,-24.01 154.58,-23.01 156.26,-29.81"/>
</g>
<!-- Vendor creates invoice&#45;&gt;Create Purchase Order Item -->
<g id="edge13" class="edge">
<title>Vendor creates invoice&#45;&gt;Create Purchase Order Item</title>
<path fill="none" stroke="#2d137d" d="M674.05,-437C683.03,-441.72 691.63,-447.64 698.38,-455 751.29,-512.66 787.9,-581.93 725.38,-629 699.67,-648.36 626.41,-657.06 561.42,-660.95"/>
<polygon fill="#2d137d" stroke="#2d137d" points="561.53,-657.44 551.74,-661.49 561.92,-664.43 561.53,-657.44"/>
<text text-anchor="middle" x="761.38" y="-539.8" font-family="Times New Roman,serif" font-size="9.00" fill="#2d137d">827</text>
</g>
<!-- Vendor creates invoice&#45;&gt;Record Goods Receipt -->
<g id="edge27" class="edge">
<title>Vendor creates invoice&#45;&gt;Record Goods Receipt</title>
<path fill="none" stroke="#2d137d" d="M574.64,-436.84C560.58,-442.27 545.21,-448.55 531.38,-455 516.96,-461.73 501.56,-469.9 488.04,-477.43"/>
<polygon fill="#2d137d" stroke="#2d137d" points="486.43,-474.31 479.44,-482.28 489.87,-480.41 486.43,-474.31"/>
<text text-anchor="middle" x="542.88" y="-457.8" font-family="Times New Roman,serif" font-size="9.00" fill="#2d137d">29436</text>
</g>
<!-- Vendor creates invoice&#45;&gt;Record Invoice Receipt -->
<g id="edge36" class="edge">
<title>Vendor creates invoice&#45;&gt;Record Invoice Receipt</title>
<path fill="none" stroke="#2d137d" d="M615.64,-401.14C605.67,-374.22 582.65,-321.47 546.38,-291 540.3,-285.89 533.39,-281.48 526.16,-277.7"/>
<polygon fill="#2d137d" stroke="#2d137d" points="528.03,-274.71 517.5,-273.56 525.01,-281.03 528.03,-274.71"/>
<text text-anchor="middle" x="605.88" y="-334.8" font-family="Times New Roman,serif" font-size="9.00" fill="#2d137d">22799</text>
</g>
<!-- Vendor creates invoice&#45;&gt;Change Quantity -->
<g id="edge31" class="edge">
<title>Vendor creates invoice&#45;&gt;Change Quantity</title>
<path fill="none" stroke="#2d137d" d="M554.36,-401.06C535.44,-395.78 514.96,-389.61 496.38,-383 485.88,-379.27 483.94,-376.59 473.38,-373 457.04,-367.45 439.35,-362.35 422.22,-357.86"/>
<polygon fill="#2d137d" stroke="#2d137d" points="423.09,-354.47 412.53,-355.37 421.35,-361.25 423.09,-354.47"/>
<text text-anchor="middle" x="503.38" y="-375.8" font-family="Times New Roman,serif" font-size="9.00" fill="#2d137d">264</text>
</g>
<!-- Record Invoice Receipt&#45;&gt;Record Goods Receipt -->
<g id="edge42" class="edge">
<title>Record Invoice Receipt&#45;&gt;Record Goods Receipt</title>
<path fill="none" stroke="#2d137d" d="M469.22,-272.95C489.42,-296.65 520.56,-341.45 510.38,-383 502.17,-416.53 482.48,-451.13 467.68,-473.92"/>
<polygon fill="#2d137d" stroke="#2d137d" points="464.96,-471.69 462.32,-481.96 470.78,-475.58 464.96,-471.69"/>
<text text-anchor="middle" x="520.88" y="-375.8" font-family="Times New Roman,serif" font-size="9.00" fill="#2d137d">4848</text>
</g>
<!-- Record Invoice Receipt&#45;&gt;Clear Invoice -->
<g id="edge15" class="edge">
<title>Record Invoice Receipt&#45;&gt;Clear Invoice</title>
<path fill="none" stroke="#2d137d" d="M444.31,-237.2C429.38,-210.82 397.35,-159.38 358.38,-127 352.7,-122.28 346.27,-118 339.67,-114.18"/>
<polygon fill="#2d137d" stroke="#2d137d" points="341.72,-111.31 331.26,-109.64 338.39,-117.47 341.72,-111.31"/>
<text text-anchor="middle" x="424.88" y="-170.8" font-family="Times New Roman,serif" font-size="9.00" fill="#2d137d">42475</text>
</g>
<!-- Record Invoice Receipt&#45;&gt;Remove Payment Block -->
<g id="edge24" class="edge">
<title>Record Invoice Receipt&#45;&gt;Remove Payment Block</title>
<path fill="none" stroke="#2d137d" d="M402.27,-237.03C364.89,-224.62 313.99,-207.73 274.29,-194.55"/>
<polygon fill="#2d137d" stroke="#2d137d" points="275.45,-191.25 264.85,-191.42 273.24,-197.89 275.45,-191.25"/>
<text text-anchor="middle" x="355.88" y="-211.8" font-family="Times New Roman,serif" font-size="9.00" fill="#2d137d">6003</text>
</g>
<!-- Clear Invoice&#45;&gt;endevent -->
<g id="edge7" class="edge">
<title>Clear Invoice&#45;&gt;endevent</title>
<path fill="none" stroke="#2d137d" d="M265.1,-73.17C253.02,-64.04 237.88,-52.61 224.63,-42.61"/>
<polygon fill="#2d137d" stroke="#2d137d" points="227.12,-40.1 217.03,-36.86 222.9,-45.68 227.12,-40.1"/>
</g>
<!-- Change Quantity&#45;&gt;Create Purchase Order Item -->
<g id="edge19" class="edge">
<title>Change Quantity&#45;&gt;Create Purchase Order Item</title>
<path fill="none" stroke="#2d137d" d="M329.72,-354.72C320.42,-393.51 292.4,-490.62 234.38,-547 220.11,-560.87 204.26,-548.34 193.38,-565 184.63,-578.4 183.53,-588.39 193.38,-601 211.02,-623.57 273.08,-639.23 331.32,-649.29"/>
<polygon fill="#2d137d" stroke="#2d137d" points="330.58,-652.71 341.02,-650.91 331.74,-645.81 330.58,-652.71"/>
<text text-anchor="middle" x="283.88" y="-498.8" font-family="Times New Roman,serif" font-size="9.00" fill="#2d137d">7</text>
</g>
<!-- Change Quantity&#45;&gt;Record Goods Receipt -->
<g id="edge29" class="edge">
<title>Change Quantity&#45;&gt;Record Goods Receipt</title>
<path fill="none" stroke="#2d137d" d="M345.47,-354.88C365.77,-383.24 406.86,-440.62 430.84,-474.11"/>
<polygon fill="#2d137d" stroke="#2d137d" points="427.86,-475.95 436.52,-482.04 433.55,-471.87 427.86,-475.95"/>
<text text-anchor="middle" x="411.88" y="-416.8" font-family="Times New Roman,serif" font-size="9.00" fill="#2d137d">1133</text>
</g>
<!-- Change Quantity&#45;&gt;Vendor creates invoice -->
<g id="edge14" class="edge">
<title>Change Quantity&#45;&gt;Vendor creates invoice</title>
<path fill="none" stroke="#2d137d" d="M358.25,-354.96C373.52,-364.6 393.85,-376.1 413.38,-383 442.75,-393.37 475.56,-400.72 506.29,-405.9"/>
<polygon fill="#2d137d" stroke="#2d137d" points="505.58,-409.33 516.01,-407.47 506.7,-402.42 505.58,-409.33"/>
<text text-anchor="middle" x="420.38" y="-375.8" font-family="Times New Roman,serif" font-size="9.00" fill="#2d137d">572</text>
</g>
<!-- Change Quantity&#45;&gt;Record Invoice Receipt -->
<g id="edge39" class="edge">
<title>Change Quantity&#45;&gt;Record Invoice Receipt</title>
<path fill="none" stroke="#2d137d" d="M358.83,-319.03C376.17,-307.47 399.35,-292.02 418.42,-279.3"/>
<polygon fill="#2d137d" stroke="#2d137d" points="420.33,-282.24 426.71,-273.78 416.45,-276.42 420.33,-282.24"/>
<text text-anchor="middle" x="402.88" y="-293.8" font-family="Times New Roman,serif" font-size="9.00" fill="#2d137d">5</text>
</g>
<!-- Remove Payment Block&#45;&gt;Clear Invoice -->
<g id="edge11" class="edge">
<title>Remove Payment Block&#45;&gt;Clear Invoice</title>
<path fill="none" stroke="#2d137d" d="M228.29,-155.03C238.63,-144 252.29,-129.43 263.88,-117.07"/>
<polygon fill="#2d137d" stroke="#2d137d" points="266.18,-119.73 270.46,-110.05 261.07,-114.95 266.18,-119.73"/>
<text text-anchor="middle" x="264.88" y="-129.8" font-family="Times New Roman,serif" font-size="9.00" fill="#2d137d">10850</text>
</g>
<!-- Change Price&#45;&gt;Create Purchase Order Item -->
<g id="edge37" class="edge">
<title>Change Price&#45;&gt;Create Purchase Order Item</title>
<path fill="none" stroke="#2d137d" d="M579.38,-600.95C571.96,-610.36 561.71,-621.61 550.38,-629 542.21,-634.33 533.14,-638.93 523.87,-642.88"/>
<polygon fill="#2d137d" stroke="#2d137d" points="522.75,-639.56 514.75,-646.5 525.34,-646.06 522.75,-639.56"/>
<text text-anchor="middle" x="566.38" y="-621.8" font-family="Times New Roman,serif" font-size="9.00" fill="#2d137d">21</text>
</g>
<!-- Change Price&#45;&gt;Record Goods Receipt -->
<g id="edge41" class="edge">
<title>Change Price&#45;&gt;Record Goods Receipt</title>
<path fill="none" stroke="#2d137d" d="M561.27,-565.03C540.28,-553.21 512.05,-537.31 489.2,-524.43"/>
<polygon fill="#2d137d" stroke="#2d137d" points="491.2,-521.54 480.77,-519.68 487.77,-527.64 491.2,-521.54"/>
<text text-anchor="middle" x="535.38" y="-539.8" font-family="Times New Roman,serif" font-size="9.00" fill="#2d137d">254</text>
</g>
<!-- Change Price&#45;&gt;Vendor creates invoice -->
<g id="edge32" class="edge">
<title>Change Price&#45;&gt;Vendor creates invoice</title>
<path fill="none" stroke="#2d137d" d="M594.48,-565.27C599.62,-537.5 609.97,-481.61 616.23,-447.82"/>
<polygon fill="#2d137d" stroke="#2d137d" points="619.6,-448.84 617.98,-438.37 612.72,-447.56 619.6,-448.84"/>
<text text-anchor="middle" x="615.38" y="-498.8" font-family="Times New Roman,serif" font-size="9.00" fill="#2d137d">812</text>
</g>
<!-- Delete Purchase Order Item&#45;&gt;Create Purchase Order Item -->
<g id="edge18" class="edge">
<title>Delete Purchase Order Item&#45;&gt;Create Purchase Order Item</title>
<path fill="none" stroke="#2d137d" d="M117.97,-518.77C111.6,-531.12 103.75,-548.56 100.38,-565 94.33,-594.46 96.08,-614.42 122.38,-629 157.4,-648.41 252.74,-657.06 330.99,-660.91"/>
<polygon fill="#2d137d" stroke="#2d137d" points="330.74,-664.4 340.89,-661.37 331.06,-657.41 330.74,-664.4"/>
<text text-anchor="middle" x="102.88" y="-580.8" font-family="Times New Roman,serif" font-size="9.00" fill="#2d137d">5</text>
</g>
<!-- Delete Purchase Order Item&#45;&gt;endevent -->
<g id="edge9" class="edge">
<title>Delete Purchase Order Item&#45;&gt;endevent</title>
<path fill="none" stroke="#2d137d" d="M82.86,-483.03C57.36,-470.1 30.38,-449.47 30.38,-420 30.38,-420 30.38,-420 30.38,-90 30.38,-35.82 107.01,-22.56 155.19,-19.58"/>
<polygon fill="#2d137d" stroke="#2d137d" points="155.13,-23.08 164.95,-19.1 154.8,-16.09 155.13,-23.08"/>
</g>
<!-- startevent -->
<g id="node11" class="node">
<title>startevent</title>
</g>
<!-- startevent&#45;&gt;Create Purchase Order Item -->
<g id="edge1" class="edge">
<title>startevent&#45;&gt;Create Purchase Order Item</title>
<path fill="none" stroke="#2d137d" d="M305.37,-725.59C329.77,-715.28 366.3,-699.84 396.07,-687.26"/>
<polygon fill="#2d137d" stroke="#2d137d" points="397.05,-690.65 404.9,-683.53 394.32,-684.2 397.05,-690.65"/>
</g>
<!-- startevent&#45;&gt;Receive Order Confirmation -->
<g id="edge6" class="edge">
<title>startevent&#45;&gt;Receive Order Confirmation</title>
<path fill="none" stroke="#2d137d" d="M281.48,-720.04C286.28,-693.83 295.55,-643.19 301.32,-611.64"/>
<polygon fill="#2d137d" stroke="#2d137d" points="304.72,-612.52 303.08,-602.06 297.83,-611.26 304.72,-612.52"/>
</g>
<!-- startevent&#45;&gt;Vendor creates invoice -->
<g id="edge2" class="edge">
<title>startevent&#45;&gt;Vendor creates invoice</title>
<path fill="none" stroke="#2d137d" d="M305.3,-735.26C398.53,-728.61 705.22,-701.49 764.38,-629 805.72,-578.35 785.13,-535.66 746.38,-483 735.57,-468.31 731.91,-464.56 716.38,-455 708.01,-449.84 698.76,-445.27 689.41,-441.27"/>
<polygon fill="#2d137d" stroke="#2d137d" points="690.85,-438.08 680.27,-437.56 688.22,-444.56 690.85,-438.08"/>
</g>
<!-- startevent&#45;&gt;Change Quantity -->
<g id="edge3" class="edge">
<title>startevent&#45;&gt;Change Quantity</title>
<path fill="none" stroke="#2d137d" d="M251.48,-727.23C170.88,-696.4 -58.7,-596.5 14.38,-483 59.26,-413.31 146.73,-376.73 218.75,-357.75"/>
<polygon fill="#2d137d" stroke="#2d137d" points="219.41,-361.19 228.24,-355.34 217.69,-354.41 219.41,-361.19"/>
</g>
<!-- startevent&#45;&gt;Change Price -->
<g id="edge4" class="edge">
<title>startevent&#45;&gt;Change Price</title>
<path fill="none" stroke="#2d137d" d="M305.13,-735.28C367.81,-730.71 521.7,-716.32 559.38,-683 579.57,-665.15 587.1,-634.48 589.86,-612"/>
<polygon fill="#2d137d" stroke="#2d137d" points="593.32,-612.59 590.79,-602.3 586.35,-611.92 593.32,-612.59"/>
</g>
<!-- startevent&#45;&gt;Delete Purchase Order Item -->
<g id="edge5" class="edge">
<title>startevent&#45;&gt;Delete Purchase Order Item</title>
<path fill="none" stroke="#2d137d" d="M251.52,-726.66C213.95,-710.93 145.78,-677.6 105.38,-629 79.23,-597.54 84.61,-573.85 102.38,-537 103.81,-534.04 105.49,-531.06 107.29,-528.15"/>
<polygon fill="#2d137d" stroke="#2d137d" points="110.12,-530.21 112.83,-519.97 104.33,-526.28 110.12,-530.21"/>
</g>
</g>
</svg>
