<?xml version="1.0" encoding="UTF-8" standalone="no"?>
<!DOCTYPE svg PUBLIC "-//W3C//DTD SVG 1.1//EN"
 "http://www.w3.org/Graphics/SVG/1.1/DTD/svg11.dtd">
<!-- Generated by graphviz version 5.0.0 (20220707.1540)
 -->
<!-- Pages: 1 -->
<svg width="710pt" height="776pt"
 viewBox="0.00 0.00 710.00 776.00" xmlns="http://www.w3.org/2000/svg" xmlns:xlink="http://www.w3.org/1999/xlink">
<g id="graph0" class="graph" transform="scale(1 1) rotate(0) translate(4 772)">
<polygon fill="white" stroke="transparent" points="-4,4 -4,-772 706,-772 706,4 -4,4"/>
<!-- Create Purchase Order Item -->
<g id="node1" class="node">
<title>Create Purchase Order Item</title>
<polygon fill="#646464" stroke="black" points="173,-548 0,-548 0,-510 173,-510 173,-548"/>
<text text-anchor="middle" x="86.5" y="-532.8" font-family="Times New Roman,serif" font-size="14.00">Create Purchase Order Item</text>
<text text-anchor="middle" x="86.5" y="-517.8" font-family="Times New Roman,serif" font-size="14.00">count: 63797</text>
</g>
<!-- endevent -->
<g id="node12" class="node">
<title>endevent</title>
<ellipse fill="red" stroke="black" cx="365.5" cy="-18" rx="18" ry="18"/>
</g>
<!-- Create Purchase Order Item&#45;&gt;endevent -->
<g id="edge8" class="edge">
<title>Create Purchase Order Item&#45;&gt;endevent</title>
<path fill="none" stroke="black" d="M86.91,-509.82C87.5,-482.5 88.5,-429.25 88.5,-384 88.5,-384 88.5,-384 88.5,-163 88.5,-51.87 266.18,-26.38 336.93,-20.64"/>
<polygon fill="black" stroke="black" points="337.61,-24.1 347.33,-19.87 337.1,-17.11 337.61,-24.1"/>
</g>
<!-- Create Purchase Order Item &#45;&gt; Record Invoice Receipt -->
<g id="node18" class="node">
<title>Create Purchase Order Item &#45;&gt; Record Invoice Receipt</title>
<ellipse fill="none" stroke="black" cx="145.5" cy="-456" rx="27" ry="18"/>
</g>
<!-- Create Purchase Order Item&#45;&gt;Create Purchase Order Item &#45;&gt; Record Invoice Receipt -->
<g id="edge22" class="edge">
<title>Create Purchase Order Item&#45;&gt;Create Purchase Order Item &#45;&gt; Record Invoice Receipt</title>
<path fill="none" stroke="black" d="M101.69,-509.72C109.27,-500.6 118.51,-489.48 126.54,-479.82"/>
<polygon fill="black" stroke="black" points="129.25,-482.04 132.94,-472.11 123.86,-477.56 129.25,-482.04"/>
</g>
<!-- Receive Order Confirmation -->
<g id="node2" class="node">
<title>Receive Order Confirmation</title>
<polygon fill="#ebebeb" stroke="black" points="289,-694 114,-694 114,-656 289,-656 289,-694"/>
<text text-anchor="middle" x="201.5" y="-678.8" font-family="Times New Roman,serif" font-size="14.00">Receive Order Confirmation</text>
<text text-anchor="middle" x="201.5" y="-663.8" font-family="Times New Roman,serif" font-size="14.00">count: 7212</text>
</g>
<!-- Receive Order Confirmation&#45;&gt;endevent -->
<g id="edge11" class="edge">
<title>Receive Order Confirmation&#45;&gt;endevent</title>
<path fill="none" stroke="black" d="M201.5,-655.81C201.5,-628.5 201.5,-575.25 201.5,-530 201.5,-530 201.5,-530 201.5,-163 201.5,-90.63 292.78,-46.1 339.14,-28.14"/>
<polygon fill="black" stroke="black" points="340.43,-31.4 348.57,-24.62 337.97,-24.84 340.43,-31.4"/>
</g>
<!-- Change Price,Receive Order Confirmation &#45;&gt; Delete Purchase Order Item,Vendor creates invoice -->
<g id="node19" class="node">
<title>Change Price,Receive Order Confirmation &#45;&gt; Delete Purchase Order Item,Vendor creates invoice</title>
<ellipse fill="none" stroke="black" cx="382.5" cy="-602" rx="27" ry="18"/>
</g>
<!-- Receive Order Confirmation&#45;&gt;Change Price,Receive Order Confirmation &#45;&gt; Delete Purchase Order Item,Vendor creates invoice -->
<g id="edge25" class="edge">
<title>Receive Order Confirmation&#45;&gt;Change Price,Receive Order Confirmation &#45;&gt; Delete Purchase Order Item,Vendor creates invoice</title>
<path fill="none" stroke="black" d="M247.64,-655.9C279.68,-643.33 321.58,-626.9 350.12,-615.7"/>
<polygon fill="black" stroke="black" points="351.59,-618.89 359.62,-611.98 349.03,-612.37 351.59,-618.89"/>
</g>
<!-- Record Goods Receipt -->
<g id="node3" class="node">
<title>Record Goods Receipt</title>
<polygon fill="#6c6c6c" stroke="black" points="538.5,-768 390.5,-768 390.5,-730 538.5,-730 538.5,-768"/>
<text text-anchor="middle" x="464.5" y="-752.8" font-family="Times New Roman,serif" font-size="14.00">Record Goods Receipt</text>
<text text-anchor="middle" x="464.5" y="-737.8" font-family="Times New Roman,serif" font-size="14.00">count: 60246</text>
</g>
<!-- Vendor creates invoice -->
<g id="node4" class="node">
<title>Vendor creates invoice</title>
<polygon fill="#7d7d7d" stroke="black" points="384,-548 239,-548 239,-510 384,-510 384,-548"/>
<text text-anchor="middle" x="311.5" y="-532.8" font-family="Times New Roman,serif" font-size="14.00">Vendor creates invoice</text>
<text text-anchor="middle" x="311.5" y="-517.8" font-family="Times New Roman,serif" font-size="14.00">count: 53326</text>
</g>
<!-- Vendor creates invoice &#45;&gt; Record Invoice Receipt -->
<g id="node14" class="node">
<title>Vendor creates invoice &#45;&gt; Record Invoice Receipt</title>
<ellipse fill="none" stroke="black" cx="311.5" cy="-456" rx="27" ry="18"/>
</g>
<!-- Vendor creates invoice&#45;&gt;Vendor creates invoice &#45;&gt; Record Invoice Receipt -->
<g id="edge14" class="edge">
<title>Vendor creates invoice&#45;&gt;Vendor creates invoice &#45;&gt; Record Invoice Receipt</title>
<path fill="none" stroke="black" d="M311.5,-509.72C311.5,-501.97 311.5,-492.79 311.5,-484.27"/>
<polygon fill="black" stroke="black" points="315,-484 311.5,-474 308,-484 315,-484"/>
</g>
<!-- Record Invoice Receipt -->
<g id="node5" class="node">
<title>Record Invoice Receipt</title>
<polygon fill="#7d7d7d" stroke="black" points="386.5,-402 236.5,-402 236.5,-364 386.5,-364 386.5,-402"/>
<text text-anchor="middle" x="311.5" y="-386.8" font-family="Times New Roman,serif" font-size="14.00">Record Invoice Receipt</text>
<text text-anchor="middle" x="311.5" y="-371.8" font-family="Times New Roman,serif" font-size="14.00">count: 53326</text>
</g>
<!-- Record Invoice Receipt &#45;&gt; Remove Payment Block -->
<g id="node15" class="node">
<title>Record Invoice Receipt &#45;&gt; Remove Payment Block</title>
<ellipse fill="none" stroke="black" cx="308.5" cy="-310" rx="27" ry="18"/>
</g>
<!-- Record Invoice Receipt&#45;&gt;Record Invoice Receipt &#45;&gt; Remove Payment Block -->
<g id="edge16" class="edge">
<title>Record Invoice Receipt&#45;&gt;Record Invoice Receipt &#45;&gt; Remove Payment Block</title>
<path fill="none" stroke="black" d="M310.73,-363.72C310.4,-355.97 310.01,-346.79 309.65,-338.27"/>
<polygon fill="black" stroke="black" points="313.14,-337.85 309.22,-328 306.14,-338.14 313.14,-337.85"/>
</g>
<!-- Record Invoice Receipt &#45;&gt; Clear Invoice -->
<g id="node16" class="node">
<title>Record Invoice Receipt &#45;&gt; Clear Invoice</title>
<ellipse fill="none" stroke="black" cx="426.5" cy="-237" rx="27" ry="18"/>
</g>
<!-- Record Invoice Receipt&#45;&gt;Record Invoice Receipt &#45;&gt; Clear Invoice -->
<g id="edge18" class="edge">
<title>Record Invoice Receipt&#45;&gt;Record Invoice Receipt &#45;&gt; Clear Invoice</title>
<path fill="none" stroke="black" d="M326.06,-363.76C346.86,-337.73 385.06,-289.9 407.88,-261.32"/>
<polygon fill="black" stroke="black" points="410.65,-263.45 414.16,-253.46 405.18,-259.09 410.65,-263.45"/>
</g>
<!-- Clear Invoice -->
<g id="node6" class="node">
<title>Clear Invoice</title>
<polygon fill="#7d7d7d" stroke="black" points="411,-110 320,-110 320,-72 411,-72 411,-110"/>
<text text-anchor="middle" x="365.5" y="-94.8" font-family="Times New Roman,serif" font-size="14.00">Clear Invoice</text>
<text text-anchor="middle" x="365.5" y="-79.8" font-family="Times New Roman,serif" font-size="14.00">count: 53326</text>
</g>
<!-- Clear Invoice&#45;&gt;endevent -->
<g id="edge7" class="edge">
<title>Clear Invoice&#45;&gt;endevent</title>
<path fill="none" stroke="black" d="M365.5,-71.72C365.5,-63.97 365.5,-54.79 365.5,-46.27"/>
<polygon fill="black" stroke="black" points="369,-46 365.5,-36 362,-46 369,-46"/>
</g>
<!-- Change Quantity -->
<g id="node7" class="node">
<title>Change Quantity</title>
<polygon fill="#f8f8f8" stroke="black" points="512.5,-548 402.5,-548 402.5,-510 512.5,-510 512.5,-548"/>
<text text-anchor="middle" x="457.5" y="-532.8" font-family="Times New Roman,serif" font-size="14.00">Change Quantity</text>
<text text-anchor="middle" x="457.5" y="-517.8" font-family="Times New Roman,serif" font-size="14.00">count: 1717</text>
</g>
<!-- Change Quantity&#45;&gt;endevent -->
<g id="edge10" class="edge">
<title>Change Quantity&#45;&gt;endevent</title>
<path fill="none" stroke="black" d="M462.47,-509.98C469.5,-482.86 481.5,-429.87 481.5,-384 481.5,-384 481.5,-384 481.5,-163 481.5,-104.65 423.03,-56.57 389.11,-33.59"/>
<polygon fill="black" stroke="black" points="390.94,-30.6 380.66,-28.04 387.1,-36.45 390.94,-30.6"/>
</g>
<!-- Change Quantity &#45;&gt; Record Invoice Receipt -->
<g id="node13" class="node">
<title>Change Quantity &#45;&gt; Record Invoice Receipt</title>
<ellipse fill="none" stroke="black" cx="405.5" cy="-456" rx="27" ry="18"/>
</g>
<!-- Change Quantity&#45;&gt;Change Quantity &#45;&gt; Record Invoice Receipt -->
<g id="edge12" class="edge">
<title>Change Quantity&#45;&gt;Change Quantity &#45;&gt; Record Invoice Receipt</title>
<path fill="none" stroke="black" d="M444.11,-509.72C437.66,-500.91 429.84,-490.23 422.93,-480.8"/>
<polygon fill="black" stroke="black" points="425.64,-478.58 416.91,-472.58 419.99,-482.71 425.64,-478.58"/>
</g>
<!-- Remove Payment Block -->
<g id="node8" class="node">
<title>Remove Payment Block</title>
<polygon fill="#e2e2e2" stroke="black" points="381.5,-256 229.5,-256 229.5,-218 381.5,-218 381.5,-256"/>
<text text-anchor="middle" x="305.5" y="-240.8" font-family="Times New Roman,serif" font-size="14.00">Remove Payment Block</text>
<text text-anchor="middle" x="305.5" y="-225.8" font-family="Times New Roman,serif" font-size="14.00">count: 10850</text>
</g>
<!-- Remove Payment Block &#45;&gt; Clear Invoice -->
<g id="node17" class="node">
<title>Remove Payment Block &#45;&gt; Clear Invoice</title>
<ellipse fill="none" stroke="black" cx="321.5" cy="-164" rx="27" ry="18"/>
</g>
<!-- Remove Payment Block&#45;&gt;Remove Payment Block &#45;&gt; Clear Invoice -->
<g id="edge20" class="edge">
<title>Remove Payment Block&#45;&gt;Remove Payment Block &#45;&gt; Clear Invoice</title>
<path fill="none" stroke="black" d="M309.62,-217.72C311.38,-209.89 313.48,-200.59 315.42,-191.99"/>
<polygon fill="black" stroke="black" points="318.88,-192.53 317.67,-182 312.06,-190.99 318.88,-192.53"/>
</g>
<!-- Change Price -->
<g id="node9" class="node">
<title>Change Price</title>
<polygon fill="#fafafa" stroke="black" points="437,-694 346,-694 346,-656 437,-656 437,-694"/>
<text text-anchor="middle" x="391.5" y="-678.8" font-family="Times New Roman,serif" font-size="14.00">Change Price</text>
<text text-anchor="middle" x="391.5" y="-663.8" font-family="Times New Roman,serif" font-size="14.00">count: 1087</text>
</g>
<!-- Change Price&#45;&gt;Change Price,Receive Order Confirmation &#45;&gt; Delete Purchase Order Item,Vendor creates invoice -->
<g id="edge24" class="edge">
<title>Change Price&#45;&gt;Change Price,Receive Order Confirmation &#45;&gt; Delete Purchase Order Item,Vendor creates invoice</title>
<path fill="none" stroke="black" d="M389.18,-655.72C388.19,-647.89 387.01,-638.59 385.92,-629.99"/>
<polygon fill="black" stroke="black" points="389.39,-629.48 384.66,-620 382.44,-630.36 389.39,-629.48"/>
</g>
<!-- Delete Purchase Order Item -->
<g id="node10" class="node">
<title>Delete Purchase Order Item</title>
<polygon fill="#f3f3f3" stroke="black" points="702,-548 531,-548 531,-510 702,-510 702,-548"/>
<text text-anchor="middle" x="616.5" y="-532.8" font-family="Times New Roman,serif" font-size="14.00">Delete Purchase Order Item</text>
<text text-anchor="middle" x="616.5" y="-517.8" font-family="Times New Roman,serif" font-size="14.00">count: 3834</text>
</g>
<!-- Delete Purchase Order Item&#45;&gt;endevent -->
<g id="edge9" class="edge">
<title>Delete Purchase Order Item&#45;&gt;endevent</title>
<path fill="none" stroke="black" d="M605.87,-509.58C591.46,-482.84 567.5,-431.27 567.5,-384 567.5,-384 567.5,-384 567.5,-163 567.5,-78.24 448.1,-38.69 392.9,-24.94"/>
<polygon fill="black" stroke="black" points="393.61,-21.51 383.07,-22.6 391.99,-28.32 393.61,-21.51"/>
</g>
<!-- startevent -->
<g id="node11" class="node">
<title>startevent</title>
<ellipse fill="green" stroke="black" cx="354.5" cy="-749" rx="18" ry="18"/>
</g>
<!-- startevent&#45;&gt;Create Purchase Order Item -->
<g id="edge1" class="edge">
<title>startevent&#45;&gt;Create Purchase Order Item</title>
<path fill="none" stroke="black" d="M336.29,-746.73C284.26,-742.71 136.69,-728.41 105.5,-694 71.95,-656.98 75.28,-594.35 80.82,-558.14"/>
<polygon fill="black" stroke="black" points="84.28,-558.68 82.49,-548.24 77.37,-557.52 84.28,-558.68"/>
</g>
<!-- startevent&#45;&gt;Receive Order Confirmation -->
<g id="edge6" class="edge">
<title>startevent&#45;&gt;Receive Order Confirmation</title>
<path fill="none" stroke="black" d="M338.42,-740.43C317.42,-730.55 279.75,-712.82 249.23,-698.46"/>
<polygon fill="black" stroke="black" points="250.55,-695.21 240.01,-694.12 247.57,-701.55 250.55,-695.21"/>
</g>
<!-- startevent&#45;&gt;Vendor creates invoice -->
<g id="edge2" class="edge">
<title>startevent&#45;&gt;Vendor creates invoice</title>
<path fill="none" stroke="black" d="M348.65,-731.63C345.03,-721.01 340.52,-706.82 337.5,-694 326.47,-647.11 318.76,-591.55 314.74,-558.63"/>
<polygon fill="black" stroke="black" points="318.17,-557.89 313.51,-548.37 311.22,-558.72 318.17,-557.89"/>
</g>
<!-- startevent&#45;&gt;Change Quantity -->
<g id="edge3" class="edge">
<title>startevent&#45;&gt;Change Quantity</title>
<path fill="none" stroke="black" d="M368.93,-738.06C372.96,-735.38 377.36,-732.52 381.5,-730 409.71,-712.83 428.79,-721.87 446.5,-694 472.78,-652.64 468.75,-592.97 463.25,-558.16"/>
<polygon fill="black" stroke="black" points="466.68,-557.47 461.53,-548.21 459.79,-558.66 466.68,-557.47"/>
</g>
<!-- startevent&#45;&gt;Change Price -->
<g id="edge4" class="edge">
<title>startevent&#45;&gt;Change Price</title>
<path fill="none" stroke="black" d="M362.35,-732.73C366.75,-724.16 372.38,-713.21 377.51,-703.22"/>
<polygon fill="black" stroke="black" points="380.77,-704.54 382.23,-694.05 374.54,-701.34 380.77,-704.54"/>
</g>
<!-- startevent&#45;&gt;Delete Purchase Order Item -->
<g id="edge5" class="edge">
<title>startevent&#45;&gt;Delete Purchase Order Item</title>
<path fill="none" stroke="black" d="M368.76,-737.76C372.78,-735.07 377.23,-732.29 381.5,-730 418.02,-710.42 433.65,-717.9 467.5,-694 522.83,-654.93 572.54,-592.02 598.18,-556.55"/>
<polygon fill="black" stroke="black" points="601.21,-558.33 604.17,-548.15 595.51,-554.26 601.21,-558.33"/>
</g>
<!-- Change Quantity &#45;&gt; Record Invoice Receipt&#45;&gt;Record Invoice Receipt -->
<g id="edge13" class="edge">
<title>Change Quantity &#45;&gt; Record Invoice Receipt&#45;&gt;Record Invoice Receipt</title>
<path fill="none" stroke="black" d="M388.26,-441.98C375.74,-432.52 358.43,-419.45 343.42,-408.11"/>
<polygon fill="black" stroke="black" points="345.45,-405.25 335.36,-402.02 341.23,-410.84 345.45,-405.25"/>
</g>
<!-- Vendor creates invoice &#45;&gt; Record Invoice Receipt&#45;&gt;Record Invoice Receipt -->
<g id="edge15" class="edge">
<title>Vendor creates invoice &#45;&gt; Record Invoice Receipt&#45;&gt;Record Invoice Receipt</title>
<path fill="none" stroke="black" d="M311.5,-437.81C311.5,-430.11 311.5,-420.82 311.5,-412.15"/>
<polygon fill="black" stroke="black" points="315,-412.02 311.5,-402.02 308,-412.02 315,-412.02"/>
</g>
<!-- Record Invoice Receipt &#45;&gt; Remove Payment Block&#45;&gt;Remove Payment Block -->
<g id="edge17" class="edge">
<title>Record Invoice Receipt &#45;&gt; Remove Payment Block&#45;&gt;Remove Payment Block</title>
<path fill="none" stroke="black" d="M307.77,-291.81C307.45,-284.11 307.06,-274.82 306.69,-266.15"/>
<polygon fill="black" stroke="black" points="310.18,-265.86 306.26,-256.02 303.19,-266.16 310.18,-265.86"/>
</g>
<!-- Record Invoice Receipt &#45;&gt; Clear Invoice&#45;&gt;Clear Invoice -->
<g id="edge19" class="edge">
<title>Record Invoice Receipt &#45;&gt; Clear Invoice&#45;&gt;Clear Invoice</title>
<path fill="none" stroke="black" d="M419.5,-219.48C409.16,-195.06 389.65,-149.02 377.13,-119.46"/>
<polygon fill="black" stroke="black" points="380.3,-117.97 373.18,-110.13 373.86,-120.7 380.3,-117.97"/>
</g>
<!-- Remove Payment Block &#45;&gt; Clear Invoice&#45;&gt;Clear Invoice -->
<g id="edge21" class="edge">
<title>Remove Payment Block &#45;&gt; Clear Invoice&#45;&gt;Clear Invoice</title>
<path fill="none" stroke="black" d="M331.48,-146.89C336.63,-138.58 343.05,-128.23 348.92,-118.76"/>
<polygon fill="black" stroke="black" points="352.02,-120.39 354.32,-110.05 346.07,-116.7 352.02,-120.39"/>
</g>
<!-- Create Purchase Order Item &#45;&gt; Record Invoice Receipt&#45;&gt;Record Invoice Receipt -->
<g id="edge23" class="edge">
<title>Create Purchase Order Item &#45;&gt; Record Invoice Receipt&#45;&gt;Record Invoice Receipt</title>
<path fill="none" stroke="black" d="M167.54,-445.57C190.96,-435.56 228.81,-419.37 259.82,-406.1"/>
<polygon fill="black" stroke="black" points="261.38,-409.24 269.2,-402.09 258.63,-402.81 261.38,-409.24"/>
</g>
<!-- Change Price,Receive Order Confirmation &#45;&gt; Delete Purchase Order Item,Vendor creates invoice&#45;&gt;Vendor creates invoice -->
<g id="edge27" class="edge">
<title>Change Price,Receive Order Confirmation &#45;&gt; Delete Purchase Order Item,Vendor creates invoice&#45;&gt;Vendor creates invoice</title>
<path fill="none" stroke="black" d="M368.13,-586.63C359.2,-577.7 347.46,-565.96 336.98,-555.48"/>
<polygon fill="black" stroke="black" points="339.18,-552.73 329.64,-548.14 334.23,-557.68 339.18,-552.73"/>
</g>
<!-- Change Price,Receive Order Confirmation &#45;&gt; Delete Purchase Order Item,Vendor creates invoice&#45;&gt;Delete Purchase Order Item -->
<g id="edge26" class="edge">
<title>Change Price,Receive Order Confirmation &#45;&gt; Delete Purchase Order Item,Vendor creates invoice&#45;&gt;Delete Purchase Order Item</title>
<path fill="none" stroke="black" d="M406.66,-593.67C439.54,-583.69 499.73,-565.43 547.24,-551.01"/>
<polygon fill="black" stroke="black" points="548.31,-554.35 556.87,-548.09 546.28,-547.65 548.31,-554.35"/>
</g>
</g>
</svg>
