<?xml version="1.0" encoding="UTF-8" standalone="no"?>
<!DOCTYPE svg PUBLIC "-//W3C//DTD SVG 1.1//EN"
 "http://www.w3.org/Graphics/SVG/1.1/DTD/svg11.dtd">
<!-- Generated by graphviz version 7.1.0 (20230121.1956)
 -->
<!-- Title: graph4 Pages: 1 -->
<svg width="1066pt" height="764pt"
 viewBox="0.00 0.00 1065.87 764.00" xmlns="http://www.w3.org/2000/svg" xmlns:xlink="http://www.w3.org/1999/xlink">
<g id="graph0" class="graph" transform="scale(1 1) rotate(0) translate(4 760)">
<title>graph4</title>
<polygon fill="white" stroke="none" points="-4,4 -4,-760 1061.87,-760 1061.87,4 -4,4"/>
<!-- Create Purchase Order Item -->
<g id="node1" class="node">
<title>Create Purchase Order Item</title>
<image xlink:href="1.png" width="208px" height="36px" preserveAspectRatio="xMinYMin meet" x="60.8735" y="-540"/>
<text text-anchor="middle" x="164.87" y="-525.4" font-family="Times New Roman,serif" font-size="12.00" fill="#2d137d">Create Purchase Order Item</text>
<text text-anchor="middle" x="164.87" y="-512.4" font-family="Times New Roman,serif" font-size="12.00" fill="#2d137d">63797</text>
</g>
<!-- endevent -->
<g id="node12" class="node">
<title>endevent</title>
</g>
<!-- Create Purchase Order Item&#45;&gt;endevent -->
<g id="edge8" class="edge">
<title>Create Purchase Order Item&#45;&gt;endevent</title>
<path fill="none" stroke="#2d137d" d="M76.69,-504.13C55.83,-496.29 35.44,-484.81 20.87,-468 -5.62,-437.44 1.87,-419.45 1.87,-379 1.87,-379 1.87,-379 1.87,-161 1.87,-71.22 320.66,-32.96 432.59,-22.29"/>
<polygon fill="#2d137d" stroke="#2d137d" points="432.83,-25.78 442.47,-21.37 432.19,-18.81 432.83,-25.78"/>
</g>
<!-- Create Purchase Order Item &#45;&gt; Record Invoice Receipt -->
<g id="node17" class="node">
<title>Create Purchase Order Item &#45;&gt; Record Invoice Receipt</title>
<image xlink:href="1.png" width="270px" height="36px" preserveAspectRatio="xMinYMin meet" x="29.8735" y="-468"/>
<text text-anchor="middle" x="164.87" y="-453.4" font-family="Times New Roman,serif" font-size="12.00" fill="#2d137d">Create Purchase Order Item &#45;&gt; Record Invoice Receipt</text>
<text text-anchor="middle" x="164.87" y="-440.4" font-family="Times New Roman,serif" font-size="12.00" fill="#2d137d">None</text>
</g>
<!-- Create Purchase Order Item&#45;&gt;Create Purchase Order Item &#45;&gt; Record Invoice Receipt -->
<g id="edge20" class="edge">
<title>Create Purchase Order Item&#45;&gt;Create Purchase Order Item &#45;&gt; Record Invoice Receipt</title>
<path fill="none" stroke="#2d137d" d="M164.87,-504.05C164.87,-496.57 164.87,-487.58 164.87,-479.14"/>
<polygon fill="#2d137d" stroke="#2d137d" points="168.37,-479.3 164.87,-469.3 161.37,-479.3 168.37,-479.3"/>
</g>
<!-- Receive Order Confirmation -->
<g id="node2" class="node">
<title>Receive Order Confirmation</title>
<image xlink:href="1.png" width="208px" height="36px" preserveAspectRatio="xMinYMin meet" x="215.874" y="-684"/>
<text text-anchor="middle" x="319.87" y="-669.4" font-family="Times New Roman,serif" font-size="12.00" fill="#2d137d">Receive Order Confirmation</text>
<text text-anchor="middle" x="319.87" y="-656.4" font-family="Times New Roman,serif" font-size="12.00" fill="#2d137d">7212</text>
</g>
<!-- Receive Order Confirmation&#45;&gt;endevent -->
<g id="edge11" class="edge">
<title>Receive Order Confirmation&#45;&gt;endevent</title>
<path fill="none" stroke="#2d137d" d="M321.42,-648.4C323.74,-621.91 327.87,-568.43 327.87,-523 327.87,-523 327.87,-523 327.87,-161 327.87,-119.26 330.08,-103.14 357.87,-72 377.64,-49.85 408.62,-36.23 433.15,-28.35"/>
<polygon fill="#2d137d" stroke="#2d137d" points="433.87,-31.79 442.45,-25.56 431.86,-25.08 433.87,-31.79"/>
</g>
<!-- Change Price,Receive Order Confirmation &#45;&gt; Vendor creates invoice,Delete Purchase Order Item -->
<g id="node19" class="node">
<title>Change Price,Receive Order Confirmation &#45;&gt; Vendor creates invoice,Delete Purchase Order Item</title>
<image xlink:href="1.png" width="275px" height="36px" preserveAspectRatio="xMinYMin meet" x="519.374" y="-612"/>
<text text-anchor="middle" x="656.87" y="-597.4" font-family="Times New Roman,serif" font-size="12.00" fill="#2d137d">Change Price,Receive Order Confirmation &#45;&gt; Vendor creates invoice,Delete Purchase Order Item</text>
<text text-anchor="middle" x="656.87" y="-584.4" font-family="Times New Roman,serif" font-size="12.00" fill="#2d137d">None</text>
</g>
<!-- Receive Order Confirmation&#45;&gt;Change Price,Receive Order Confirmation &#45;&gt; Vendor creates invoice,Delete Purchase Order Item -->
<g id="edge25" class="edge">
<title>Receive Order Confirmation&#45;&gt;Change Price,Receive Order Confirmation &#45;&gt; Vendor creates invoice,Delete Purchase Order Item</title>
<path fill="none" stroke="#2d137d" d="M401.45,-648.05C450.54,-637.86 513.19,-624.85 564.15,-614.26"/>
<polygon fill="#2d137d" stroke="#2d137d" points="564.61,-617.74 573.69,-612.28 563.19,-610.89 564.61,-617.74"/>
</g>
<!-- Record Goods Receipt -->
<g id="node3" class="node">
<title>Record Goods Receipt</title>
<image xlink:href="1.png" width="208px" height="36px" preserveAspectRatio="xMinYMin meet" x="594.874" y="-756"/>
<text text-anchor="middle" x="698.87" y="-741.4" font-family="Times New Roman,serif" font-size="12.00" fill="#2d137d">Record Goods Receipt</text>
<text text-anchor="middle" x="698.87" y="-728.4" font-family="Times New Roman,serif" font-size="12.00" fill="#2d137d">60246</text>
</g>
<!-- Vendor creates invoice -->
<g id="node4" class="node">
<title>Vendor creates invoice</title>
<image xlink:href="1.png" width="208px" height="36px" preserveAspectRatio="xMinYMin meet" x="374.874" y="-540"/>
<text text-anchor="middle" x="478.87" y="-525.4" font-family="Times New Roman,serif" font-size="12.00" fill="#2d137d">Vendor creates invoice</text>
<text text-anchor="middle" x="478.87" y="-512.4" font-family="Times New Roman,serif" font-size="12.00" fill="#2d137d">53326</text>
</g>
<!-- Vendor creates invoice &#45;&gt; Record Invoice Receipt -->
<g id="node13" class="node">
<title>Vendor creates invoice &#45;&gt; Record Invoice Receipt</title>
<image xlink:href="1.png" width="245px" height="36px" preserveAspectRatio="xMinYMin meet" x="356.374" y="-468"/>
<text text-anchor="middle" x="478.87" y="-453.4" font-family="Times New Roman,serif" font-size="12.00" fill="#2d137d">Vendor creates invoice &#45;&gt; Record Invoice Receipt</text>
<text text-anchor="middle" x="478.87" y="-440.4" font-family="Times New Roman,serif" font-size="12.00" fill="#2d137d">None</text>
</g>
<!-- Vendor creates invoice&#45;&gt;Vendor creates invoice &#45;&gt; Record Invoice Receipt -->
<g id="edge12" class="edge">
<title>Vendor creates invoice&#45;&gt;Vendor creates invoice &#45;&gt; Record Invoice Receipt</title>
<path fill="none" stroke="#2d137d" d="M478.87,-504.05C478.87,-496.57 478.87,-487.58 478.87,-479.14"/>
<polygon fill="#2d137d" stroke="#2d137d" points="482.37,-479.3 478.87,-469.3 475.37,-479.3 482.37,-479.3"/>
</g>
<!-- Record Invoice Receipt -->
<g id="node5" class="node">
<title>Record Invoice Receipt</title>
<image xlink:href="1.png" width="208px" height="36px" preserveAspectRatio="xMinYMin meet" x="377.874" y="-396"/>
<text text-anchor="middle" x="481.87" y="-381.4" font-family="Times New Roman,serif" font-size="12.00" fill="#2d137d">Record Invoice Receipt</text>
<text text-anchor="middle" x="481.87" y="-368.4" font-family="Times New Roman,serif" font-size="12.00" fill="#2d137d">53326</text>
</g>
<!-- Record Invoice Receipt &#45;&gt; Clear Invoice -->
<g id="node15" class="node">
<title>Record Invoice Receipt &#45;&gt; Clear Invoice</title>
<image xlink:href="1.png" width="208px" height="36px" preserveAspectRatio="xMinYMin meet" x="592.874" y="-252"/>
<text text-anchor="middle" x="696.87" y="-237.4" font-family="Times New Roman,serif" font-size="12.00" fill="#2d137d">Record Invoice Receipt &#45;&gt; Clear Invoice</text>
<text text-anchor="middle" x="696.87" y="-224.4" font-family="Times New Roman,serif" font-size="12.00" fill="#2d137d">None</text>
</g>
<!-- Record Invoice Receipt&#45;&gt;Record Invoice Receipt &#45;&gt; Clear Invoice -->
<g id="edge16" class="edge">
<title>Record Invoice Receipt&#45;&gt;Record Invoice Receipt &#45;&gt; Clear Invoice</title>
<path fill="none" stroke="#2d137d" d="M541.15,-360.09C565.56,-351.52 593.33,-339.57 615.87,-324 640.84,-306.75 663.55,-280.43 678.53,-260.88"/>
<polygon fill="#2d137d" stroke="#2d137d" points="681.15,-263.22 684.33,-253.11 675.54,-259.03 681.15,-263.22"/>
</g>
<!-- Record Invoice Receipt &#45;&gt; Remove Payment Block -->
<g id="node16" class="node">
<title>Record Invoice Receipt &#45;&gt; Remove Payment Block</title>
<image xlink:href="1.png" width="251px" height="36px" preserveAspectRatio="xMinYMin meet" x="356.374" y="-324"/>
<text text-anchor="middle" x="481.87" y="-309.4" font-family="Times New Roman,serif" font-size="12.00" fill="#2d137d">Record Invoice Receipt &#45;&gt; Remove Payment Block</text>
<text text-anchor="middle" x="481.87" y="-296.4" font-family="Times New Roman,serif" font-size="12.00" fill="#2d137d">None</text>
</g>
<!-- Record Invoice Receipt&#45;&gt;Record Invoice Receipt &#45;&gt; Remove Payment Block -->
<g id="edge18" class="edge">
<title>Record Invoice Receipt&#45;&gt;Record Invoice Receipt &#45;&gt; Remove Payment Block</title>
<path fill="none" stroke="#2d137d" d="M481.87,-360.05C481.87,-352.57 481.87,-343.58 481.87,-335.14"/>
<polygon fill="#2d137d" stroke="#2d137d" points="485.37,-335.3 481.87,-325.3 478.37,-335.3 485.37,-335.3"/>
</g>
<!-- Clear Invoice -->
<g id="node6" class="node">
<title>Clear Invoice</title>
<image xlink:href="1.png" width="208px" height="36px" preserveAspectRatio="xMinYMin meet" x="366.874" y="-108"/>
<text text-anchor="middle" x="470.87" y="-93.4" font-family="Times New Roman,serif" font-size="12.00" fill="#2d137d">Clear Invoice</text>
<text text-anchor="middle" x="470.87" y="-80.4" font-family="Times New Roman,serif" font-size="12.00" fill="#2d137d">53326</text>
</g>
<!-- Clear Invoice&#45;&gt;endevent -->
<g id="edge7" class="edge">
<title>Clear Invoice&#45;&gt;endevent</title>
<path fill="none" stroke="#2d137d" d="M470.87,-72.05C470.87,-64.57 470.87,-55.58 470.87,-47.14"/>
<polygon fill="#2d137d" stroke="#2d137d" points="474.37,-47.3 470.87,-37.3 467.37,-47.3 474.37,-47.3"/>
</g>
<!-- Change Quantity -->
<g id="node7" class="node">
<title>Change Quantity</title>
<image xlink:href="1.png" width="208px" height="36px" preserveAspectRatio="xMinYMin meet" x="623.874" y="-540"/>
<text text-anchor="middle" x="727.87" y="-525.4" font-family="Times New Roman,serif" font-size="12.00" fill="#2d137d">Change Quantity</text>
<text text-anchor="middle" x="727.87" y="-512.4" font-family="Times New Roman,serif" font-size="12.00" fill="#2d137d">1717</text>
</g>
<!-- Change Quantity&#45;&gt;endevent -->
<g id="edge10" class="edge">
<title>Change Quantity&#45;&gt;endevent</title>
<path fill="none" stroke="#2d137d" d="M793.58,-504.04C812.97,-496.05 832.54,-484.51 845.87,-468 871.29,-436.54 864.87,-419.45 864.87,-379 864.87,-379 864.87,-379 864.87,-161 864.87,-85.8 607.66,-39.42 508.88,-24.38"/>
<polygon fill="#2d137d" stroke="#2d137d" points="509.55,-20.94 499.14,-22.92 508.51,-27.86 509.55,-20.94"/>
</g>
<!-- Change Quantity &#45;&gt; Record Invoice Receipt -->
<g id="node18" class="node">
<title>Change Quantity &#45;&gt; Record Invoice Receipt</title>
<image xlink:href="1.png" width="217px" height="36px" preserveAspectRatio="xMinYMin meet" x="619.374" y="-468"/>
<text text-anchor="middle" x="727.87" y="-453.4" font-family="Times New Roman,serif" font-size="12.00" fill="#2d137d">Change Quantity &#45;&gt; Record Invoice Receipt</text>
<text text-anchor="middle" x="727.87" y="-440.4" font-family="Times New Roman,serif" font-size="12.00" fill="#2d137d">None</text>
</g>
<!-- Change Quantity&#45;&gt;Change Quantity &#45;&gt; Record Invoice Receipt -->
<g id="edge22" class="edge">
<title>Change Quantity&#45;&gt;Change Quantity &#45;&gt; Record Invoice Receipt</title>
<path fill="none" stroke="#2d137d" d="M727.87,-504.05C727.87,-496.57 727.87,-487.58 727.87,-479.14"/>
<polygon fill="#2d137d" stroke="#2d137d" points="731.37,-479.3 727.87,-469.3 724.37,-479.3 731.37,-479.3"/>
</g>
<!-- Remove Payment Block -->
<g id="node8" class="node">
<title>Remove Payment Block</title>
<image xlink:href="1.png" width="208px" height="36px" preserveAspectRatio="xMinYMin meet" x="366.874" y="-252"/>
<text text-anchor="middle" x="470.87" y="-237.4" font-family="Times New Roman,serif" font-size="12.00" fill="#2d137d">Remove Payment Block</text>
<text text-anchor="middle" x="470.87" y="-224.4" font-family="Times New Roman,serif" font-size="12.00" fill="#2d137d">10850</text>
</g>
<!-- Remove Payment Block &#45;&gt; Clear Invoice -->
<g id="node14" class="node">
<title>Remove Payment Block &#45;&gt; Clear Invoice</title>
<image xlink:href="1.png" width="208px" height="36px" preserveAspectRatio="xMinYMin meet" x="366.874" y="-180"/>
<text text-anchor="middle" x="470.87" y="-165.4" font-family="Times New Roman,serif" font-size="12.00" fill="#2d137d">Remove Payment Block &#45;&gt; Clear Invoice</text>
<text text-anchor="middle" x="470.87" y="-152.4" font-family="Times New Roman,serif" font-size="12.00" fill="#2d137d">None</text>
</g>
<!-- Remove Payment Block&#45;&gt;Remove Payment Block &#45;&gt; Clear Invoice -->
<g id="edge14" class="edge">
<title>Remove Payment Block&#45;&gt;Remove Payment Block &#45;&gt; Clear Invoice</title>
<path fill="none" stroke="#2d137d" d="M470.87,-216.05C470.87,-208.57 470.87,-199.58 470.87,-191.14"/>
<polygon fill="#2d137d" stroke="#2d137d" points="474.37,-191.3 470.87,-181.3 467.37,-191.3 474.37,-191.3"/>
</g>
<!-- Change Price -->
<g id="node9" class="node">
<title>Change Price</title>
<image xlink:href="1.png" width="208px" height="36px" preserveAspectRatio="xMinYMin meet" x="516.874" y="-684"/>
<text text-anchor="middle" x="620.87" y="-669.4" font-family="Times New Roman,serif" font-size="12.00" fill="#2d137d">Change Price</text>
<text text-anchor="middle" x="620.87" y="-656.4" font-family="Times New Roman,serif" font-size="12.00" fill="#2d137d">1087</text>
</g>
<!-- Change Price&#45;&gt;Change Price,Receive Order Confirmation &#45;&gt; Vendor creates invoice,Delete Purchase Order Item -->
<g id="edge24" class="edge">
<title>Change Price&#45;&gt;Change Price,Receive Order Confirmation &#45;&gt; Vendor creates invoice,Delete Purchase Order Item</title>
<path fill="none" stroke="#2d137d" d="M629.59,-648.05C633.61,-640.23 638.49,-630.75 643,-621.98"/>
<polygon fill="#2d137d" stroke="#2d137d" points="646.09,-623.63 647.55,-613.13 639.86,-620.43 646.09,-623.63"/>
</g>
<!-- Delete Purchase Order Item -->
<g id="node10" class="node">
<title>Delete Purchase Order Item</title>
<image xlink:href="1.png" width="208px" height="36px" preserveAspectRatio="xMinYMin meet" x="849.874" y="-540"/>
<text text-anchor="middle" x="953.87" y="-525.4" font-family="Times New Roman,serif" font-size="12.00" fill="#2d137d">Delete Purchase Order Item</text>
<text text-anchor="middle" x="953.87" y="-512.4" font-family="Times New Roman,serif" font-size="12.00" fill="#2d137d">3834</text>
</g>
<!-- Delete Purchase Order Item&#45;&gt;endevent -->
<g id="edge9" class="edge">
<title>Delete Purchase Order Item&#45;&gt;endevent</title>
<path fill="none" stroke="#2d137d" d="M948.93,-504.12C941.65,-477.69 928.87,-424.81 928.87,-379 928.87,-379 928.87,-379 928.87,-161 928.87,-73.35 618.98,-33.82 509.01,-22.55"/>
<polygon fill="#2d137d" stroke="#2d137d" points="509.62,-19.09 499.32,-21.58 508.92,-26.06 509.62,-19.09"/>
</g>
<!-- startevent -->
<g id="node11" class="node">
<title>startevent</title>
</g>
<!-- startevent&#45;&gt;Create Purchase Order Item -->
<g id="edge1" class="edge">
<title>startevent&#45;&gt;Create Purchase Order Item</title>
<path fill="none" stroke="#2d137d" d="M523.13,-736.54C450.75,-734.74 253.38,-726 206.87,-684 169.41,-650.17 163.52,-587.51 163.56,-551.14"/>
<polygon fill="#2d137d" stroke="#2d137d" points="167.05,-551.47 163.73,-541.4 160.05,-551.34 167.05,-551.47"/>
</g>
<!-- startevent&#45;&gt;Receive Order Confirmation -->
<g id="edge6" class="edge">
<title>startevent&#45;&gt;Receive Order Confirmation</title>
<path fill="none" stroke="#2d137d" d="M523.04,-728.83C489.76,-718.7 431.86,-701.08 386.37,-687.24"/>
<polygon fill="#2d137d" stroke="#2d137d" points="387.42,-683.9 376.83,-684.34 385.38,-690.6 387.42,-683.9"/>
</g>
<!-- startevent&#45;&gt;Vendor creates invoice -->
<g id="edge2" class="edge">
<title>startevent&#45;&gt;Vendor creates invoice</title>
<path fill="none" stroke="#2d137d" d="M523.02,-721.44C490.8,-701.03 438.45,-661.88 416.87,-612 410.52,-597.31 410.18,-590.53 416.87,-576 422.14,-564.58 431.21,-554.7 440.82,-546.67"/>
<polygon fill="#2d137d" stroke="#2d137d" points="442.71,-549.63 448.5,-540.75 438.44,-544.09 442.71,-549.63"/>
</g>
<!-- startevent&#45;&gt;Change Quantity -->
<g id="edge3" class="edge">
<title>startevent&#45;&gt;Change Quantity</title>
<path fill="none" stroke="#2d137d" d="M576.75,-723.59C579.79,-722.29 582.88,-721.06 585.87,-720 723.82,-671.22 817,-734.6 896.87,-612 918.78,-578.37 882.19,-556.64 837.52,-543.08"/>
<polygon fill="#2d137d" stroke="#2d137d" points="838.68,-539.78 828.1,-540.39 836.76,-546.51 838.68,-539.78"/>
</g>
<!-- startevent&#45;&gt;Change Price -->
<g id="edge4" class="edge">
<title>startevent&#45;&gt;Change Price</title>
<path fill="none" stroke="#2d137d" d="M567.06,-720.05C575.69,-711.54 586.32,-701.07 595.84,-691.68"/>
<polygon fill="#2d137d" stroke="#2d137d" points="598.1,-694.36 602.77,-684.85 593.19,-689.38 598.1,-694.36"/>
</g>
<!-- startevent&#45;&gt;Delete Purchase Order Item -->
<g id="edge5" class="edge">
<title>startevent&#45;&gt;Delete Purchase Order Item</title>
<path fill="none" stroke="#2d137d" d="M576.65,-723.27C579.71,-722.03 582.82,-720.9 585.87,-720 700.7,-686.04 747.85,-741.51 852.87,-684 904.54,-655.71 933.27,-588.57 945.92,-550.53"/>
<polygon fill="#2d137d" stroke="#2d137d" points="949.2,-551.77 948.88,-541.18 942.53,-549.66 949.2,-551.77"/>
</g>
<!-- Vendor creates invoice &#45;&gt; Record Invoice Receipt&#45;&gt;Record Invoice Receipt -->
<g id="edge13" class="edge">
<title>Vendor creates invoice &#45;&gt; Record Invoice Receipt&#45;&gt;Record Invoice Receipt</title>
<path fill="none" stroke="#2d137d" d="M479.6,-432.05C479.92,-424.57 480.31,-415.58 480.67,-407.14"/>
<polygon fill="#2d137d" stroke="#2d137d" points="484.16,-407.44 481.09,-397.3 477.16,-407.14 484.16,-407.44"/>
</g>
<!-- Remove Payment Block &#45;&gt; Clear Invoice&#45;&gt;Clear Invoice -->
<g id="edge15" class="edge">
<title>Remove Payment Block &#45;&gt; Clear Invoice&#45;&gt;Clear Invoice</title>
<path fill="none" stroke="#2d137d" d="M470.87,-144.05C470.87,-136.57 470.87,-127.58 470.87,-119.14"/>
<polygon fill="#2d137d" stroke="#2d137d" points="474.37,-119.3 470.87,-109.3 467.37,-119.3 474.37,-119.3"/>
</g>
<!-- Record Invoice Receipt &#45;&gt; Clear Invoice&#45;&gt;Clear Invoice -->
<g id="edge17" class="edge">
<title>Record Invoice Receipt &#45;&gt; Clear Invoice&#45;&gt;Clear Invoice</title>
<path fill="none" stroke="#2d137d" d="M678.27,-216.15C656.64,-197.1 619.36,-165.9 583.87,-144 564.8,-132.23 542.7,-121.32 523.13,-112.5"/>
<polygon fill="#2d137d" stroke="#2d137d" points="524.8,-109.41 514.24,-108.56 521.96,-115.81 524.8,-109.41"/>
</g>
<!-- Record Invoice Receipt &#45;&gt; Remove Payment Block&#45;&gt;Remove Payment Block -->
<g id="edge19" class="edge">
<title>Record Invoice Receipt &#45;&gt; Remove Payment Block&#45;&gt;Remove Payment Block</title>
<path fill="none" stroke="#2d137d" d="M479.21,-288.05C478.04,-280.57 476.62,-271.58 475.3,-263.14"/>
<polygon fill="#2d137d" stroke="#2d137d" points="478.76,-262.62 473.75,-253.28 471.84,-263.71 478.76,-262.62"/>
</g>
<!-- Create Purchase Order Item &#45;&gt; Record Invoice Receipt&#45;&gt;Record Invoice Receipt -->
<g id="edge21" class="edge">
<title>Create Purchase Order Item &#45;&gt; Record Invoice Receipt&#45;&gt;Record Invoice Receipt</title>
<path fill="none" stroke="#2d137d" d="M241.61,-432.05C287.59,-421.9 346.22,-408.95 394.05,-398.39"/>
<polygon fill="#2d137d" stroke="#2d137d" points="394.53,-401.87 403.54,-396.3 393.02,-395.04 394.53,-401.87"/>
</g>
<!-- Change Quantity &#45;&gt; Record Invoice Receipt&#45;&gt;Record Invoice Receipt -->
<g id="edge23" class="edge">
<title>Change Quantity &#45;&gt; Record Invoice Receipt&#45;&gt;Record Invoice Receipt</title>
<path fill="none" stroke="#2d137d" d="M668.32,-432.05C633.25,-422.07 588.7,-409.4 551.94,-398.94"/>
<polygon fill="#2d137d" stroke="#2d137d" points="553.33,-395.7 542.76,-396.32 551.42,-402.43 553.33,-395.7"/>
</g>
<!-- Change Price,Receive Order Confirmation &#45;&gt; Vendor creates invoice,Delete Purchase Order Item&#45;&gt;Vendor creates invoice -->
<g id="edge26" class="edge">
<title>Change Price,Receive Order Confirmation &#45;&gt; Vendor creates invoice,Delete Purchase Order Item&#45;&gt;Vendor creates invoice</title>
<path fill="none" stroke="#2d137d" d="M613.78,-576.05C589.28,-566.42 558.38,-554.26 532.33,-544.02"/>
<polygon fill="#2d137d" stroke="#2d137d" points="533.87,-540.87 523.28,-540.46 531.31,-547.38 533.87,-540.87"/>
</g>
<!-- Change Price,Receive Order Confirmation &#45;&gt; Vendor creates invoice,Delete Purchase Order Item&#45;&gt;Delete Purchase Order Item -->
<g id="edge27" class="edge">
<title>Change Price,Receive Order Confirmation &#45;&gt; Vendor creates invoice,Delete Purchase Order Item&#45;&gt;Delete Purchase Order Item</title>
<path fill="none" stroke="#2d137d" d="M728.77,-576.05C771.58,-565.96 826.09,-553.12 870.74,-542.59"/>
<polygon fill="#2d137d" stroke="#2d137d" points="871.47,-546.02 880.4,-540.32 869.86,-539.21 871.47,-546.02"/>
</g>
</g>
</svg>
