<?xml version="1.0" encoding="UTF-8" standalone="no"?>
<!DOCTYPE svg PUBLIC "-//W3C//DTD SVG 1.1//EN"
 "http://www.w3.org/Graphics/SVG/1.1/DTD/svg11.dtd">
<!-- Generated by graphviz version 5.0.0 (20220707.1540)
 -->
<!-- Title: graph2 Pages: 1 -->
<svg width="981pt" height="559pt"
 viewBox="0.00 0.00 981.00 559.00" xmlns="http://www.w3.org/2000/svg" xmlns:xlink="http://www.w3.org/1999/xlink">
<g id="graph0" class="graph" transform="scale(1 1) rotate(0) translate(4 555)">
<title>graph2</title>
<polygon fill="white" stroke="transparent" points="-4,4 -4,-555 977,-555 977,4 -4,4"/>
<!-- Create Purchase Order Item -->
<g id="node1" class="node">
<title>Create Purchase Order Item</title>
<image xlink:href="1.png" width="208px" height="36px" preserveAspectRatio="xMinYMin meet" x="226" y="-370"/>
<text text-anchor="middle" x="330" y="-355.4" font-family="Times New Roman,serif" font-size="12.00" fill="#2d137d">Create Purchase Order Item</text>
<text text-anchor="start" x="234" y="-342.4" font-family="Times New Roman,serif" font-size="12.00" fill="#2d137d"> &#160;&#160;&#160;&#160;&#160;&#160;&#160;&#160;&#160;&#160;&#160;&#160;63797</text>
</g>
<!-- Record Goods Receipt -->
<g id="node3" class="node">
<title>Record Goods Receipt</title>
<image xlink:href="1.png" width="208px" height="36px" preserveAspectRatio="xMinYMin meet" x="361" y="-283"/>
<text text-anchor="middle" x="465" y="-268.4" font-family="Times New Roman,serif" font-size="12.00" fill="#2d137d">Record Goods Receipt</text>
<text text-anchor="start" x="369" y="-255.4" font-family="Times New Roman,serif" font-size="12.00" fill="#2d137d"> &#160;&#160;&#160;&#160;&#160;&#160;&#160;&#160;&#160;&#160;&#160;&#160;60246</text>
</g>
<!-- Create Purchase Order Item&#45;&gt;Record Goods Receipt -->
<g id="edge19" class="edge">
<title>Create Purchase Order Item&#45;&gt;Record Goods Receipt</title>
<path fill="none" stroke="#2d137d" d="M357.32,-333.8C378,-320.78 406.58,-302.78 429.11,-288.6"/>
<polygon fill="#2d137d" stroke="#2d137d" points="431.12,-291.47 437.72,-283.18 427.39,-285.54 431.12,-291.47"/>
<text text-anchor="middle" x="414" y="-304.8" font-family="Times New Roman,serif" font-size="14.00" fill="#2d137d">0.0</text>
</g>
<!-- endevent -->
<g id="node12" class="node">
<title>endevent</title>
</g>
<!-- Create Purchase Order Item&#45;&gt;endevent -->
<g id="edge8" class="edge">
<title>Create Purchase Order Item&#45;&gt;endevent</title>
<path fill="none" stroke="#2d137d" d="M330,-333.74C330,-316.57 330,-289.46 330,-266 330,-266 330,-266 330,-90 330,-75.1 333.95,-59.02 338.25,-45.93"/>
<polygon fill="#2d137d" stroke="#2d137d" points="341.67,-46.76 341.71,-36.16 335.08,-44.43 341.67,-46.76"/>
</g>
<!-- Receive Order Confirmation -->
<g id="node2" class="node">
<title>Receive Order Confirmation</title>
<image xlink:href="1.png" width="208px" height="36px" preserveAspectRatio="xMinYMin meet" x="366" y="-478"/>
<text text-anchor="middle" x="470" y="-463.4" font-family="Times New Roman,serif" font-size="12.00" fill="#2d137d">Receive Order Confirmation</text>
<text text-anchor="start" x="374" y="-450.4" font-family="Times New Roman,serif" font-size="12.00" fill="#2d137d"> &#160;&#160;&#160;&#160;&#160;&#160;&#160;&#160;&#160;&#160;&#160;&#160;7212</text>
</g>
<!-- Receive Order Confirmation&#45;&gt;Record Goods Receipt -->
<g id="edge13" class="edge">
<title>Receive Order Confirmation&#45;&gt;Record Goods Receipt</title>
<path fill="none" stroke="#2d137d" d="M469.56,-441.87C468.69,-408.32 466.75,-333.71 465.71,-293.29"/>
<polygon fill="#2d137d" stroke="#2d137d" points="469.2,-293 465.44,-283.09 462.2,-293.18 469.2,-293"/>
<text text-anchor="middle" x="476" y="-348.3" font-family="Times New Roman,serif" font-size="14.00" fill="#2d137d">0.0</text>
</g>
<!-- Vendor creates invoice -->
<g id="node4" class="node">
<title>Vendor creates invoice</title>
<image xlink:href="1.png" width="208px" height="36px" preserveAspectRatio="xMinYMin meet" x="506" y="-370"/>
<text text-anchor="middle" x="610" y="-355.4" font-family="Times New Roman,serif" font-size="12.00" fill="#2d137d">Vendor creates invoice</text>
<text text-anchor="start" x="514" y="-342.4" font-family="Times New Roman,serif" font-size="12.00" fill="#2d137d"> &#160;&#160;&#160;&#160;&#160;&#160;&#160;&#160;&#160;&#160;&#160;&#160;53326</text>
</g>
<!-- Receive Order Confirmation&#45;&gt;Vendor creates invoice -->
<g id="edge22" class="edge">
<title>Receive Order Confirmation&#45;&gt;Vendor creates invoice</title>
<path fill="none" stroke="#2d137d" d="M492.49,-441.97C515.93,-424.23 552.81,-396.3 579,-376.47"/>
<polygon fill="#2d137d" stroke="#2d137d" points="581.24,-379.17 587.1,-370.34 577.01,-373.59 581.24,-379.17"/>
<text text-anchor="middle" x="569" y="-402.3" font-family="Times New Roman,serif" font-size="14.00" fill="#2d137d">0.0</text>
</g>
<!-- Delete Purchase Order Item -->
<g id="node10" class="node">
<title>Delete Purchase Order Item</title>
<image xlink:href="1.png" width="208px" height="36px" preserveAspectRatio="xMinYMin meet" x="0" y="-370"/>
<text text-anchor="middle" x="104" y="-355.4" font-family="Times New Roman,serif" font-size="12.00" fill="#2d137d">Delete Purchase Order Item</text>
<text text-anchor="start" x="8" y="-342.4" font-family="Times New Roman,serif" font-size="12.00" fill="#2d137d"> &#160;&#160;&#160;&#160;&#160;&#160;&#160;&#160;&#160;&#160;&#160;&#160;3834</text>
</g>
<!-- Receive Order Confirmation&#45;&gt;Delete Purchase Order Item -->
<g id="edge12" class="edge">
<title>Receive Order Confirmation&#45;&gt;Delete Purchase Order Item</title>
<path fill="none" stroke="#2d137d" d="M411.2,-441.97C346.19,-423.14 241.61,-392.85 172.84,-372.94"/>
<polygon fill="#2d137d" stroke="#2d137d" points="173.54,-369.5 162.96,-370.08 171.59,-376.22 173.54,-369.5"/>
<text text-anchor="middle" x="350" y="-402.3" font-family="Times New Roman,serif" font-size="14.00" fill="#2d137d">0.0</text>
</g>
<!-- Clear Invoice -->
<g id="node6" class="node">
<title>Clear Invoice</title>
<image xlink:href="1.png" width="208px" height="36px" preserveAspectRatio="xMinYMin meet" x="410" y="-109"/>
<text text-anchor="middle" x="514" y="-94.4" font-family="Times New Roman,serif" font-size="12.00" fill="#2d137d">Clear Invoice</text>
<text text-anchor="start" x="418" y="-81.4" font-family="Times New Roman,serif" font-size="12.00" fill="#2d137d"> &#160;&#160;&#160;&#160;&#160;&#160;&#160;&#160;&#160;&#160;&#160;&#160;53326</text>
</g>
<!-- Record Goods Receipt&#45;&gt;Clear Invoice -->
<g id="edge16" class="edge">
<title>Record Goods Receipt&#45;&gt;Clear Invoice</title>
<path fill="none" stroke="#2d137d" d="M448.94,-246.7C431.56,-225.75 408.17,-189.6 423,-160 432.63,-140.78 450.56,-125.6 467.97,-114.5"/>
<polygon fill="#2d137d" stroke="#2d137d" points="470.22,-117.23 476.98,-109.07 466.61,-111.24 470.22,-117.23"/>
<text text-anchor="middle" x="432" y="-174.3" font-family="Times New Roman,serif" font-size="14.00" fill="#2d137d">0.0</text>
</g>
<!-- Remove Payment Block -->
<g id="node8" class="node">
<title>Remove Payment Block</title>
<image xlink:href="1.png" width="208px" height="36px" preserveAspectRatio="xMinYMin meet" x="450" y="-196"/>
<text text-anchor="middle" x="554" y="-181.4" font-family="Times New Roman,serif" font-size="12.00" fill="#2d137d">Remove Payment Block</text>
<text text-anchor="start" x="458" y="-168.4" font-family="Times New Roman,serif" font-size="12.00" fill="#2d137d"> &#160;&#160;&#160;&#160;&#160;&#160;&#160;&#160;&#160;&#160;&#160;&#160;10850</text>
</g>
<!-- Record Goods Receipt&#45;&gt;Remove Payment Block -->
<g id="edge14" class="edge">
<title>Record Goods Receipt&#45;&gt;Remove Payment Block</title>
<path fill="none" stroke="#2d137d" d="M483.01,-246.8C496.16,-234.24 514.16,-217.05 528.74,-203.12"/>
<polygon fill="#2d137d" stroke="#2d137d" points="531.2,-205.61 536.02,-196.18 526.37,-200.55 531.2,-205.61"/>
<text text-anchor="middle" x="523" y="-217.8" font-family="Times New Roman,serif" font-size="14.00" fill="#2d137d">0.0</text>
</g>
<!-- Record Goods Receipt&#45;&gt;endevent -->
<g id="edge10" class="edge">
<title>Record Goods Receipt&#45;&gt;endevent</title>
<path fill="none" stroke="#2d137d" d="M439.76,-246.7C433.64,-241.57 427.55,-235.55 423,-229 382.61,-170.89 362.14,-88.5 353.76,-46.28"/>
<polygon fill="#2d137d" stroke="#2d137d" points="357.15,-45.37 351.84,-36.2 350.28,-46.68 357.15,-45.37"/>
</g>
<!-- Record Invoice Receipt -->
<g id="node5" class="node">
<title>Record Invoice Receipt</title>
<image xlink:href="1.png" width="208px" height="36px" preserveAspectRatio="xMinYMin meet" x="588" y="-283"/>
<text text-anchor="middle" x="692" y="-268.4" font-family="Times New Roman,serif" font-size="12.00" fill="#2d137d">Record Invoice Receipt</text>
<text text-anchor="start" x="596" y="-255.4" font-family="Times New Roman,serif" font-size="12.00" fill="#2d137d"> &#160;&#160;&#160;&#160;&#160;&#160;&#160;&#160;&#160;&#160;&#160;&#160;53326</text>
</g>
<!-- Vendor creates invoice&#45;&gt;Record Invoice Receipt -->
<g id="edge20" class="edge">
<title>Vendor creates invoice&#45;&gt;Record Invoice Receipt</title>
<path fill="none" stroke="#2d137d" d="M626.59,-333.8C638.6,-321.36 654.99,-304.36 668.36,-290.5"/>
<polygon fill="#2d137d" stroke="#2d137d" points="671.01,-292.8 675.43,-283.18 665.97,-287.94 671.01,-292.8"/>
<text text-anchor="middle" x="664" y="-304.8" font-family="Times New Roman,serif" font-size="14.00" fill="#2d137d">0.0</text>
</g>
<!-- Record Invoice Receipt&#45;&gt;Clear Invoice -->
<g id="edge11" class="edge">
<title>Record Invoice Receipt&#45;&gt;Clear Invoice</title>
<path fill="none" stroke="#2d137d" d="M692.32,-246.85C691.84,-224.4 687.79,-184.98 667,-160 648.7,-138.01 621.86,-122.88 595.74,-112.59"/>
<polygon fill="#2d137d" stroke="#2d137d" points="596.77,-109.23 586.18,-109.01 594.32,-115.79 596.77,-109.23"/>
<text text-anchor="middle" x="693" y="-174.3" font-family="Times New Roman,serif" font-size="14.00" fill="#2d137d">0.0</text>
</g>
<!-- Record Invoice Receipt&#45;&gt;Remove Payment Block -->
<g id="edge21" class="edge">
<title>Record Invoice Receipt&#45;&gt;Remove Payment Block</title>
<path fill="none" stroke="#2d137d" d="M664.07,-246.8C642.94,-233.78 613.72,-215.78 590.69,-201.6"/>
<polygon fill="#2d137d" stroke="#2d137d" points="592.23,-198.44 581.88,-196.18 588.56,-204.4 592.23,-198.44"/>
<text text-anchor="middle" x="640" y="-217.8" font-family="Times New Roman,serif" font-size="14.00" fill="#2d137d">0.0</text>
</g>
<!-- Clear Invoice&#45;&gt;endevent -->
<g id="edge7" class="edge">
<title>Clear Invoice&#45;&gt;endevent</title>
<path fill="none" stroke="#2d137d" d="M474.48,-72.99C447.39,-61.34 411.73,-45.99 385.35,-34.64"/>
<polygon fill="#2d137d" stroke="#2d137d" points="386.65,-31.39 376.08,-30.65 383.88,-37.82 386.65,-31.39"/>
</g>
<!-- Change Quantity -->
<g id="node7" class="node">
<title>Change Quantity</title>
<image xlink:href="1.png" width="208px" height="36px" preserveAspectRatio="xMinYMin meet" x="765" y="-424"/>
<text text-anchor="middle" x="869" y="-409.4" font-family="Times New Roman,serif" font-size="12.00" fill="#2d137d">Change Quantity</text>
<text text-anchor="start" x="773" y="-396.4" font-family="Times New Roman,serif" font-size="12.00" fill="#2d137d"> &#160;&#160;&#160;&#160;&#160;&#160;&#160;&#160;&#160;&#160;&#160;&#160;1717</text>
</g>
<!-- Change Quantity&#45;&gt;Record Invoice Receipt -->
<g id="edge18" class="edge">
<title>Change Quantity&#45;&gt;Record Invoice Receipt</title>
<path fill="none" stroke="#2d137d" d="M854.79,-387.77C835.84,-365.58 800.42,-326.81 764,-301 757.15,-296.15 749.53,-291.64 741.88,-287.58"/>
<polygon fill="#2d137d" stroke="#2d137d" points="743.43,-284.44 732.93,-283.03 740.26,-290.68 743.43,-284.44"/>
<text text-anchor="middle" x="847" y="-348.3" font-family="Times New Roman,serif" font-size="14.00" fill="#2d137d">0.0</text>
</g>
<!-- Remove Payment Block&#45;&gt;Clear Invoice -->
<g id="edge15" class="edge">
<title>Remove Payment Block&#45;&gt;Clear Invoice</title>
<path fill="none" stroke="#2d137d" d="M545.91,-159.8C540.32,-147.93 532.79,-131.93 526.45,-118.45"/>
<polygon fill="#2d137d" stroke="#2d137d" points="529.51,-116.73 522.08,-109.18 523.17,-119.71 529.51,-116.73"/>
<text text-anchor="middle" x="545" y="-130.8" font-family="Times New Roman,serif" font-size="14.00" fill="#2d137d">0.0</text>
</g>
<!-- Change Price -->
<g id="node9" class="node">
<title>Change Price</title>
<image xlink:href="1.png" width="208px" height="36px" preserveAspectRatio="xMinYMin meet" x="630" y="-478"/>
<text text-anchor="middle" x="734" y="-463.4" font-family="Times New Roman,serif" font-size="12.00" fill="#2d137d">Change Price</text>
<text text-anchor="start" x="638" y="-450.4" font-family="Times New Roman,serif" font-size="12.00" fill="#2d137d"> &#160;&#160;&#160;&#160;&#160;&#160;&#160;&#160;&#160;&#160;&#160;&#160;1087</text>
</g>
<!-- Change Price&#45;&gt;Record Goods Receipt -->
<g id="edge23" class="edge">
<title>Change Price&#45;&gt;Record Goods Receipt</title>
<path fill="none" stroke="#2d137d" d="M736.75,-441.92C739.94,-416.56 742.53,-368.26 723,-334 710.54,-312.14 700.24,-310.63 677,-301 671.93,-298.9 626.76,-291.34 579.41,-283.78"/>
<polygon fill="#2d137d" stroke="#2d137d" points="579.71,-280.28 569.29,-282.17 578.61,-287.2 579.71,-280.28"/>
<text text-anchor="middle" x="744" y="-348.3" font-family="Times New Roman,serif" font-size="14.00" fill="#2d137d">0.0</text>
</g>
<!-- Change Price&#45;&gt;Vendor creates invoice -->
<g id="edge17" class="edge">
<title>Change Price&#45;&gt;Vendor creates invoice</title>
<path fill="none" stroke="#2d137d" d="M714.08,-441.97C693.5,-424.38 661.22,-396.78 638.06,-376.99"/>
<polygon fill="#2d137d" stroke="#2d137d" points="640.16,-374.18 630.29,-370.34 635.61,-379.5 640.16,-374.18"/>
<text text-anchor="middle" x="699" y="-402.3" font-family="Times New Roman,serif" font-size="14.00" fill="#2d137d">0.0</text>
</g>
<!-- Delete Purchase Order Item&#45;&gt;endevent -->
<g id="edge9" class="edge">
<title>Delete Purchase Order Item&#45;&gt;endevent</title>
<path fill="none" stroke="#2d137d" d="M143.59,-333.88C169.28,-319.82 198,-297.13 198,-266 198,-266 198,-266 198,-90 198,-39.98 266.69,-25.14 311.41,-20.77"/>
<polygon fill="#2d137d" stroke="#2d137d" points="311.98,-24.24 321.66,-19.91 311.4,-17.26 311.98,-24.24"/>
</g>
<!-- startevent -->
<g id="node11" class="node">
<title>startevent</title>
</g>
<!-- startevent&#45;&gt;Create Purchase Order Item -->
<g id="edge3" class="edge">
<title>startevent&#45;&gt;Create Purchase Order Item</title>
<path fill="none" stroke="#2d137d" d="M541.82,-528.65C490.57,-521.77 382.5,-504.46 357,-478 331.97,-452.04 327.83,-408.69 328.15,-380.48"/>
<polygon fill="#2d137d" stroke="#2d137d" points="331.66,-380.23 328.48,-370.12 324.67,-380.01 331.66,-380.23"/>
</g>
<!-- startevent&#45;&gt;Receive Order Confirmation -->
<g id="edge5" class="edge">
<title>startevent&#45;&gt;Receive Order Confirmation</title>
<path fill="none" stroke="#2d137d" d="M545.29,-514.99C532.4,-505.75 516.28,-494.19 502.27,-484.14"/>
<polygon fill="#2d137d" stroke="#2d137d" points="504.03,-481.1 493.86,-478.11 499.95,-486.79 504.03,-481.1"/>
</g>
<!-- startevent&#45;&gt;Vendor creates invoice -->
<g id="edge6" class="edge">
<title>startevent&#45;&gt;Vendor creates invoice</title>
<path fill="none" stroke="#2d137d" d="M573.72,-514.54C576.53,-503.98 580.09,-490.25 583,-478 590.99,-444.36 599.25,-405.38 604.5,-380.02"/>
<polygon fill="#2d137d" stroke="#2d137d" points="607.96,-380.53 606.55,-370.03 601.11,-379.12 607.96,-380.53"/>
</g>
<!-- startevent&#45;&gt;Change Quantity -->
<g id="edge2" class="edge">
<title>startevent&#45;&gt;Change Quantity</title>
<path fill="none" stroke="#2d137d" d="M596.42,-530.2C659.07,-525.54 810.12,-511.07 847,-478 859.21,-467.05 864.72,-449.46 867.17,-434.53"/>
<polygon fill="#2d137d" stroke="#2d137d" points="870.69,-434.62 868.47,-424.26 863.74,-433.75 870.69,-434.62"/>
</g>
<!-- startevent&#45;&gt;Change Price -->
<g id="edge1" class="edge">
<title>startevent&#45;&gt;Change Price</title>
<path fill="none" stroke="#2d137d" d="M596.25,-520.28C620.26,-509.94 655.83,-494.64 684.81,-482.17"/>
<polygon fill="#2d137d" stroke="#2d137d" points="686.56,-485.22 694.36,-478.06 683.79,-478.79 686.56,-485.22"/>
</g>
<!-- startevent&#45;&gt;Delete Purchase Order Item -->
<g id="edge4" class="edge">
<title>startevent&#45;&gt;Delete Purchase Order Item</title>
<path fill="none" stroke="#2d137d" d="M541.88,-528.2C505.73,-522.82 439.9,-511.96 385,-497 288.96,-470.82 187.77,-409.32 137.07,-375.79"/>
<polygon fill="#2d137d" stroke="#2d137d" points="138.76,-372.7 128.5,-370.06 134.87,-378.53 138.76,-372.7"/>
</g>
</g>
</svg>
