<?xml version="1.0" encoding="UTF-8" standalone="no"?>
<!DOCTYPE svg PUBLIC "-//W3C//DTD SVG 1.1//EN"
 "http://www.w3.org/Graphics/SVG/1.1/DTD/svg11.dtd">
<!-- Generated by graphviz version 7.1.0 (20230121.1956)
 -->
<!-- Title: graph2 Pages: 1 -->
<svg width="982pt" height="544pt"
 viewBox="0.00 0.00 982.00 544.00" xmlns="http://www.w3.org/2000/svg" xmlns:xlink="http://www.w3.org/1999/xlink">
<g id="graph0" class="graph" transform="scale(1 1) rotate(0) translate(4 540)">
<title>graph2</title>
<polygon fill="white" stroke="none" points="-4,4 -4,-540 978,-540 978,4 -4,4"/>
<!-- Create Purchase Order Item -->
<g id="node1" class="node">
<title>Create Purchase Order Item</title>
<image xlink:href="1.png" width="208px" height="36px" preserveAspectRatio="xMinYMin meet" x="226" y="-355"/>
<text text-anchor="middle" x="330" y="-340.4" font-family="Times New Roman,serif" font-size="12.00" fill="#2d137d">Create Purchase Order Item</text>
<text text-anchor="middle" x="330" y="-327.4" font-family="Times New Roman,serif" font-size="12.00" fill="#2d137d">63797</text>
</g>
<!-- Record Goods Receipt -->
<g id="node3" class="node">
<title>Record Goods Receipt</title>
<image xlink:href="1.png" width="208px" height="36px" preserveAspectRatio="xMinYMin meet" x="358" y="-273"/>
<text text-anchor="middle" x="462" y="-258.4" font-family="Times New Roman,serif" font-size="12.00" fill="#2d137d">Record Goods Receipt</text>
<text text-anchor="middle" x="462" y="-245.4" font-family="Times New Roman,serif" font-size="12.00" fill="#2d137d">60246</text>
</g>
<!-- Create Purchase Order Item&#45;&gt;Record Goods Receipt -->
<g id="edge16" class="edge">
<title>Create Purchase Order Item&#45;&gt;Record Goods Receipt</title>
<path fill="none" stroke="#2d137d" d="M357.99,-319.03C377.33,-307.31 403.27,-291.59 424.41,-278.78"/>
<polygon fill="#2d137d" stroke="#2d137d" points="426.01,-281.9 432.75,-273.73 422.39,-275.92 426.01,-281.9"/>
<text text-anchor="middle" x="414.5" y="-293.8" font-family="Times New Roman,serif" font-size="9.00" fill="#2d137d">20497</text>
</g>
<!-- endevent -->
<g id="node12" class="node">
<title>endevent</title>
</g>
<!-- Create Purchase Order Item&#45;&gt;endevent -->
<g id="edge10" class="edge">
<title>Create Purchase Order Item&#45;&gt;endevent</title>
<path fill="none" stroke="#2d137d" d="M330,-319.14C330,-302.95 330,-277.81 330,-256 330,-256 330,-256 330,-90 330,-75.13 334.46,-59.26 339.36,-46.3"/>
<polygon fill="#2d137d" stroke="#2d137d" points="342.55,-47.75 343.11,-37.17 336.08,-45.09 342.55,-47.75"/>
</g>
<!-- Receive Order Confirmation -->
<g id="node2" class="node">
<title>Receive Order Confirmation</title>
<image xlink:href="1.png" width="208px" height="36px" preserveAspectRatio="xMinYMin meet" x="366" y="-463"/>
<text text-anchor="middle" x="470" y="-448.4" font-family="Times New Roman,serif" font-size="12.00" fill="#2d137d">Receive Order Confirmation</text>
<text text-anchor="middle" x="470" y="-435.4" font-family="Times New Roman,serif" font-size="12.00" fill="#2d137d">7212</text>
</g>
<!-- Receive Order Confirmation&#45;&gt;Record Goods Receipt -->
<g id="edge14" class="edge">
<title>Receive Order Confirmation&#45;&gt;Record Goods Receipt</title>
<path fill="none" stroke="#2d137d" d="M469.29,-427.32C467.92,-395.14 464.9,-324.17 463.21,-284.41"/>
<polygon fill="#2d137d" stroke="#2d137d" points="466.71,-284.27 462.78,-274.43 459.71,-284.57 466.71,-284.27"/>
<text text-anchor="middle" x="475.5" y="-334.8" font-family="Times New Roman,serif" font-size="9.00" fill="#2d137d">3795</text>
</g>
<!-- Vendor creates invoice -->
<g id="node4" class="node">
<title>Vendor creates invoice</title>
<image xlink:href="1.png" width="208px" height="36px" preserveAspectRatio="xMinYMin meet" x="507" y="-355"/>
<text text-anchor="middle" x="611" y="-340.4" font-family="Times New Roman,serif" font-size="12.00" fill="#2d137d">Vendor creates invoice</text>
<text text-anchor="middle" x="611" y="-327.4" font-family="Times New Roman,serif" font-size="12.00" fill="#2d137d">53326</text>
</g>
<!-- Receive Order Confirmation&#45;&gt;Vendor creates invoice -->
<g id="edge19" class="edge">
<title>Receive Order Confirmation&#45;&gt;Vendor creates invoice</title>
<path fill="none" stroke="#2d137d" d="M492.34,-427.2C515.96,-409.45 553.39,-381.31 579.89,-361.39"/>
<polygon fill="#2d137d" stroke="#2d137d" points="581.66,-364.43 587.55,-355.63 577.46,-358.84 581.66,-364.43"/>
<text text-anchor="middle" x="570.5" y="-388.8" font-family="Times New Roman,serif" font-size="9.00" fill="#2d137d">2584</text>
</g>
<!-- Delete Purchase Order Item -->
<g id="node10" class="node">
<title>Delete Purchase Order Item</title>
<image xlink:href="1.png" width="208px" height="36px" preserveAspectRatio="xMinYMin meet" x="0" y="-355"/>
<text text-anchor="middle" x="104" y="-340.4" font-family="Times New Roman,serif" font-size="12.00" fill="#2d137d">Delete Purchase Order Item</text>
<text text-anchor="middle" x="104" y="-327.4" font-family="Times New Roman,serif" font-size="12.00" fill="#2d137d">3834</text>
</g>
<!-- Receive Order Confirmation&#45;&gt;Delete Purchase Order Item -->
<g id="edge15" class="edge">
<title>Receive Order Confirmation&#45;&gt;Delete Purchase Order Item</title>
<path fill="none" stroke="#2d137d" d="M411.6,-427.09C346.75,-408.31 242.16,-378.01 173.24,-358.05"/>
<polygon fill="#2d137d" stroke="#2d137d" points="174.53,-354.78 163.95,-355.36 172.58,-361.51 174.53,-354.78"/>
<text text-anchor="middle" x="348" y="-388.8" font-family="Times New Roman,serif" font-size="9.00" fill="#2d137d">465</text>
</g>
<!-- Clear Invoice -->
<g id="node6" class="node">
<title>Clear Invoice</title>
<image xlink:href="1.png" width="208px" height="36px" preserveAspectRatio="xMinYMin meet" x="414" y="-109"/>
<text text-anchor="middle" x="518" y="-94.4" font-family="Times New Roman,serif" font-size="12.00" fill="#2d137d">Clear Invoice</text>
<text text-anchor="middle" x="518" y="-81.4" font-family="Times New Roman,serif" font-size="12.00" fill="#2d137d">53326</text>
</g>
<!-- Record Goods Receipt&#45;&gt;Clear Invoice -->
<g id="edge20" class="edge">
<title>Record Goods Receipt&#45;&gt;Clear Invoice</title>
<path fill="none" stroke="#2d137d" d="M448.84,-237.24C434.68,-217.01 415.96,-182.31 430,-155 438.68,-138.12 454.21,-124.75 469.84,-114.75"/>
<polygon fill="#2d137d" stroke="#2d137d" points="471.44,-117.87 478.22,-109.73 467.84,-111.86 471.44,-117.87"/>
<text text-anchor="middle" x="432.5" y="-170.8" font-family="Times New Roman,serif" font-size="9.00" fill="#2d137d">1</text>
</g>
<!-- Remove Payment Block -->
<g id="node8" class="node">
<title>Remove Payment Block</title>
<image xlink:href="1.png" width="208px" height="36px" preserveAspectRatio="xMinYMin meet" x="444" y="-191"/>
<text text-anchor="middle" x="548" y="-176.4" font-family="Times New Roman,serif" font-size="12.00" fill="#2d137d">Remove Payment Block</text>
<text text-anchor="middle" x="548" y="-163.4" font-family="Times New Roman,serif" font-size="12.00" fill="#2d137d">10850</text>
</g>
<!-- Record Goods Receipt&#45;&gt;Remove Payment Block -->
<g id="edge21" class="edge">
<title>Record Goods Receipt&#45;&gt;Remove Payment Block</title>
<path fill="none" stroke="#2d137d" d="M480.24,-237.03C492.21,-225.9 508.07,-211.15 521.43,-198.71"/>
<polygon fill="#2d137d" stroke="#2d137d" points="523.74,-201.35 528.68,-191.97 518.97,-196.22 523.74,-201.35"/>
<text text-anchor="middle" x="519.5" y="-211.8" font-family="Times New Roman,serif" font-size="9.00" fill="#2d137d">4847</text>
</g>
<!-- Record Goods Receipt&#45;&gt;endevent -->
<g id="edge8" class="edge">
<title>Record Goods Receipt&#45;&gt;endevent</title>
<path fill="none" stroke="#2d137d" d="M442.82,-237.05C437.51,-231.67 432.1,-225.43 428,-219 392.21,-162.8 369.26,-87.17 358.73,-46.93"/>
<polygon fill="#2d137d" stroke="#2d137d" points="362.15,-46.16 356.29,-37.33 355.37,-47.89 362.15,-46.16"/>
</g>
<!-- Record Invoice Receipt -->
<g id="node5" class="node">
<title>Record Invoice Receipt</title>
<image xlink:href="1.png" width="208px" height="36px" preserveAspectRatio="xMinYMin meet" x="584" y="-273"/>
<text text-anchor="middle" x="688" y="-258.4" font-family="Times New Roman,serif" font-size="12.00" fill="#2d137d">Record Invoice Receipt</text>
<text text-anchor="middle" x="688" y="-245.4" font-family="Times New Roman,serif" font-size="12.00" fill="#2d137d">53326</text>
</g>
<!-- Vendor creates invoice&#45;&gt;Record Invoice Receipt -->
<g id="edge11" class="edge">
<title>Vendor creates invoice&#45;&gt;Record Invoice Receipt</title>
<path fill="none" stroke="#2d137d" d="M627.33,-319.03C637.95,-308 651.98,-293.43 663.87,-281.07"/>
<polygon fill="#2d137d" stroke="#2d137d" points="666.23,-283.66 670.64,-274.03 661.19,-278.81 666.23,-283.66"/>
<text text-anchor="middle" x="665.5" y="-293.8" font-family="Times New Roman,serif" font-size="9.00" fill="#2d137d">22799</text>
</g>
<!-- Record Invoice Receipt&#45;&gt;Clear Invoice -->
<g id="edge17" class="edge">
<title>Record Invoice Receipt&#45;&gt;Clear Invoice</title>
<path fill="none" stroke="#2d137d" d="M687.69,-237.26C686.43,-215.78 681.23,-178.49 661,-155 644.65,-136.02 621.48,-122.53 598.55,-113.05"/>
<polygon fill="#2d137d" stroke="#2d137d" points="600.05,-109.88 589.46,-109.51 597.52,-116.4 600.05,-109.88"/>
<text text-anchor="middle" x="690.5" y="-170.8" font-family="Times New Roman,serif" font-size="9.00" fill="#2d137d">42475</text>
</g>
<!-- Record Invoice Receipt&#45;&gt;Remove Payment Block -->
<g id="edge18" class="edge">
<title>Record Invoice Receipt&#45;&gt;Remove Payment Block</title>
<path fill="none" stroke="#2d137d" d="M658.31,-237.03C637.71,-225.26 610.04,-209.45 587.56,-196.61"/>
<polygon fill="#2d137d" stroke="#2d137d" points="589.38,-193.61 578.96,-191.69 585.91,-199.69 589.38,-193.61"/>
<text text-anchor="middle" x="635.5" y="-211.8" font-family="Times New Roman,serif" font-size="9.00" fill="#2d137d">6003</text>
</g>
<!-- Clear Invoice&#45;&gt;endevent -->
<g id="edge7" class="edge">
<title>Clear Invoice&#45;&gt;endevent</title>
<path fill="none" stroke="#2d137d" d="M478.66,-73.17C451.61,-61.6 415.91,-46.34 389.31,-34.96"/>
<polygon fill="#2d137d" stroke="#2d137d" points="390.84,-31.81 380.27,-31.09 388.09,-38.24 390.84,-31.81"/>
</g>
<!-- Change Quantity -->
<g id="node7" class="node">
<title>Change Quantity</title>
<image xlink:href="1.png" width="208px" height="36px" preserveAspectRatio="xMinYMin meet" x="766" y="-409"/>
<text text-anchor="middle" x="870" y="-394.4" font-family="Times New Roman,serif" font-size="12.00" fill="#2d137d">Change Quantity</text>
<text text-anchor="middle" x="870" y="-381.4" font-family="Times New Roman,serif" font-size="12.00" fill="#2d137d">1717</text>
</g>
<!-- Change Quantity&#45;&gt;Record Invoice Receipt -->
<g id="edge22" class="edge">
<title>Change Quantity&#45;&gt;Record Invoice Receipt</title>
<path fill="none" stroke="#2d137d" d="M855.39,-373.15C836.29,-351.88 800.98,-315.16 765,-291 757.88,-286.22 750,-281.8 742.08,-277.82"/>
<polygon fill="#2d137d" stroke="#2d137d" points="743.6,-274.67 733.07,-273.51 740.58,-280.98 743.6,-274.67"/>
<text text-anchor="middle" x="839.5" y="-334.8" font-family="Times New Roman,serif" font-size="9.00" fill="#2d137d">5</text>
</g>
<!-- Remove Payment Block&#45;&gt;Clear Invoice -->
<g id="edge12" class="edge">
<title>Remove Payment Block&#45;&gt;Clear Invoice</title>
<path fill="none" stroke="#2d137d" d="M541.64,-155.03C537.78,-144.75 532.77,-131.37 528.35,-119.59"/>
<polygon fill="#2d137d" stroke="#2d137d" points="531.67,-118.49 524.88,-110.36 525.12,-120.95 531.67,-118.49"/>
<text text-anchor="middle" x="545.5" y="-129.8" font-family="Times New Roman,serif" font-size="9.00" fill="#2d137d">10850</text>
</g>
<!-- Change Price -->
<g id="node9" class="node">
<title>Change Price</title>
<image xlink:href="1.png" width="208px" height="36px" preserveAspectRatio="xMinYMin meet" x="630" y="-463"/>
<text text-anchor="middle" x="734" y="-448.4" font-family="Times New Roman,serif" font-size="12.00" fill="#2d137d">Change Price</text>
<text text-anchor="middle" x="734" y="-435.4" font-family="Times New Roman,serif" font-size="12.00" fill="#2d137d">1087</text>
</g>
<!-- Change Price&#45;&gt;Record Goods Receipt -->
<g id="edge23" class="edge">
<title>Change Price&#45;&gt;Record Goods Receipt</title>
<path fill="none" stroke="#2d137d" d="M737.05,-427.24C740.77,-401.87 744.26,-353.05 724,-319 712.34,-299.4 702.28,-299.2 681,-291 675.61,-288.92 627.21,-281.11 577.28,-273.39"/>
<polygon fill="#2d137d" stroke="#2d137d" points="577.85,-269.94 567.44,-271.88 576.79,-276.86 577.85,-269.94"/>
<text text-anchor="middle" x="743" y="-334.8" font-family="Times New Roman,serif" font-size="9.00" fill="#2d137d">254</text>
</g>
<!-- Change Price&#45;&gt;Vendor creates invoice -->
<g id="edge13" class="edge">
<title>Change Price&#45;&gt;Vendor creates invoice</title>
<path fill="none" stroke="#2d137d" d="M714.51,-427.2C694.18,-409.68 662.11,-382.05 639.05,-362.18"/>
<polygon fill="#2d137d" stroke="#2d137d" points="641.41,-359.58 631.55,-355.71 636.84,-364.89 641.41,-359.58"/>
<text text-anchor="middle" x="697" y="-388.8" font-family="Times New Roman,serif" font-size="9.00" fill="#2d137d">812</text>
</g>
<!-- Delete Purchase Order Item&#45;&gt;endevent -->
<g id="edge9" class="edge">
<title>Delete Purchase Order Item&#45;&gt;endevent</title>
<path fill="none" stroke="#2d137d" d="M146.33,-319.1C171.28,-306.05 198,-285.25 198,-256 198,-256 198,-256 198,-90 198,-39.08 268.28,-24.56 313.89,-20.49"/>
<polygon fill="#2d137d" stroke="#2d137d" points="313.95,-24 323.67,-19.76 313.43,-17.02 313.95,-24"/>
</g>
<!-- startevent -->
<g id="node11" class="node">
<title>startevent</title>
</g>
<!-- startevent&#45;&gt;Create Purchase Order Item -->
<g id="edge1" class="edge">
<title>startevent&#45;&gt;Create Purchase Order Item</title>
<path fill="none" stroke="#2d137d" d="M542.22,-513.7C491.13,-506.86 382.57,-489.52 357,-463 332.17,-437.24 327.9,-394.38 328.15,-366.15"/>
<polygon fill="#2d137d" stroke="#2d137d" points="331.64,-366.3 328.45,-356.2 324.65,-366.09 331.64,-366.3"/>
</g>
<!-- startevent&#45;&gt;Receive Order Confirmation -->
<g id="edge6" class="edge">
<title>startevent&#45;&gt;Receive Order Confirmation</title>
<path fill="none" stroke="#2d137d" d="M545.54,-500.17C532.81,-491.04 516.87,-479.61 502.91,-469.61"/>
<polygon fill="#2d137d" stroke="#2d137d" points="505.03,-466.82 494.87,-463.83 500.95,-472.51 505.03,-466.82"/>
</g>
<!-- startevent&#45;&gt;Vendor creates invoice -->
<g id="edge2" class="edge">
<title>startevent&#45;&gt;Vendor creates invoice</title>
<path fill="none" stroke="#2d137d" d="M573.56,-500.01C576.37,-489.4 580,-475.43 583,-463 591.07,-429.6 599.6,-390.97 605.09,-365.6"/>
<polygon fill="#2d137d" stroke="#2d137d" points="608.46,-366.61 607.14,-356.1 601.61,-365.14 608.46,-366.61"/>
</g>
<!-- startevent&#45;&gt;Change Quantity -->
<g id="edge3" class="edge">
<title>startevent&#45;&gt;Change Quantity</title>
<path fill="none" stroke="#2d137d" d="M595.93,-515.2C658.23,-510.51 809.82,-495.92 847,-463 859.17,-452.22 864.94,-434.96 867.65,-420.15"/>
<polygon fill="#2d137d" stroke="#2d137d" points="871.09,-420.86 869.03,-410.47 864.15,-419.88 871.09,-420.86"/>
</g>
<!-- startevent&#45;&gt;Change Price -->
<g id="edge4" class="edge">
<title>startevent&#45;&gt;Change Price</title>
<path fill="none" stroke="#2d137d" d="M595.88,-505.43C619.79,-495.15 655.37,-479.84 684.43,-467.33"/>
<polygon fill="#2d137d" stroke="#2d137d" points="685.61,-470.63 693.41,-463.46 682.84,-464.2 685.61,-470.63"/>
</g>
<!-- startevent&#45;&gt;Delete Purchase Order Item -->
<g id="edge5" class="edge">
<title>startevent&#45;&gt;Delete Purchase Order Item</title>
<path fill="none" stroke="#2d137d" d="M542.19,-513.25C506.1,-507.89 440.06,-497.01 385,-482 289.31,-455.92 188.51,-394.77 137.63,-361.15"/>
<polygon fill="#2d137d" stroke="#2d137d" points="139.65,-358.3 129.39,-355.66 135.77,-364.12 139.65,-358.3"/>
</g>
</g>
</svg>
