<?xml version="1.0" encoding="UTF-8" standalone="no"?>
<!DOCTYPE svg PUBLIC "-//W3C//DTD SVG 1.1//EN"
 "http://www.w3.org/Graphics/SVG/1.1/DTD/svg11.dtd">
<!-- Generated by graphviz version 8.0.5 (20230430.1635)
 -->
<!-- Title: graph0 Pages: 1 -->
<svg width="907pt" height="632pt"
 viewBox="0.00 0.00 907.28 631.75" xmlns="http://www.w3.org/2000/svg" xmlns:xlink="http://www.w3.org/1999/xlink">
<g id="graph0" class="graph" transform="scale(1 1) rotate(0) translate(4 627.75)">
<title>graph0</title>
<polygon fill="white" stroke="none" points="-4,4 -4,-627.75 903.28,-627.75 903.28,4 -4,4"/>
<!-- Create Purchase Order Item -->
<g id="node1" class="node">
<title>Create Purchase Order Item</title>
<image xlink:href="1.png" width="208px" height="36.5px" preserveAspectRatio="xMinYMin meet" x="260" y="-550.75"/>
<text text-anchor="middle" x="364" y="-535.35" font-family="Times New Roman,serif" font-size="12.00" fill="#2d137d">Create Purchase Order Item</text>
<text text-anchor="start" x="268" y="-521.1" font-family="Times New Roman,serif" font-size="12.00" fill="#2d137d"> &#160;&#160;&#160;&#160;&#160;&#160;&#160;&#160;&#160;&#160;&#160;&#160;63797</text>
</g>
<!-- Receive Order Confirmation -->
<g id="node2" class="node">
<title>Receive Order Confirmation</title>
<image xlink:href="1.png" width="208px" height="36.5px" preserveAspectRatio="xMinYMin meet" x="79" y="-462.5"/>
<text text-anchor="middle" x="183" y="-447.1" font-family="Times New Roman,serif" font-size="12.00" fill="#2d137d">Receive Order Confirmation</text>
<text text-anchor="start" x="87" y="-432.85" font-family="Times New Roman,serif" font-size="12.00" fill="#2d137d"> &#160;&#160;&#160;&#160;&#160;&#160;&#160;&#160;&#160;&#160;&#160;&#160;7212</text>
</g>
<!-- Create Purchase Order Item&#45;&gt;Receive Order Confirmation -->
<g id="edge18" class="edge">
<title>Create Purchase Order Item&#45;&gt;Receive Order Confirmation</title>
<path fill="none" stroke="#2d137d" d="M323.8,-514.36C310.94,-508.73 296.68,-502.36 283.75,-496.25 264.46,-487.14 243.36,-476.55 225.47,-467.4"/>
<polygon fill="#2d137d" stroke="#2d137d" points="227.39,-463.94 216.9,-462.48 224.19,-470.16 227.39,-463.94"/>
<text text-anchor="middle" x="291.62" y="-482.95" font-family="Times New Roman,serif" font-size="14.00" fill="#2d137d">0.0</text>
</g>
<!-- Record Goods Receipt -->
<g id="node3" class="node">
<title>Record Goods Receipt</title>
<image xlink:href="1.png" width="208px" height="36.5px" preserveAspectRatio="xMinYMin meet" x="324" y="-374.25"/>
<text text-anchor="middle" x="428" y="-358.85" font-family="Times New Roman,serif" font-size="12.00" fill="#2d137d">Record Goods Receipt</text>
<text text-anchor="start" x="332" y="-344.6" font-family="Times New Roman,serif" font-size="12.00" fill="#2d137d"> &#160;&#160;&#160;&#160;&#160;&#160;&#160;&#160;&#160;&#160;&#160;&#160;60246</text>
</g>
<!-- Create Purchase Order Item&#45;&gt;Record Goods Receipt -->
<g id="edge26" class="edge">
<title>Create Purchase Order Item&#45;&gt;Record Goods Receipt</title>
<path fill="none" stroke="#2d137d" d="M361.69,-514.35C359.52,-492.87 358.11,-455.33 369.75,-426 376.39,-409.27 388.8,-393.66 400.46,-381.54"/>
<polygon fill="#2d137d" stroke="#2d137d" points="402.32,-384.63 406.95,-375.1 397.38,-379.66 402.32,-384.63"/>
<text text-anchor="middle" x="377.62" y="-438.82" font-family="Times New Roman,serif" font-size="14.00" fill="#2d137d">0.0</text>
</g>
<!-- Vendor creates invoice -->
<g id="node4" class="node">
<title>Vendor creates invoice</title>
<image xlink:href="1.png" width="208px" height="36.5px" preserveAspectRatio="xMinYMin meet" x="638" y="-374.25"/>
<text text-anchor="middle" x="742" y="-358.85" font-family="Times New Roman,serif" font-size="12.00" fill="#2d137d">Vendor creates invoice</text>
<text text-anchor="start" x="646" y="-344.6" font-family="Times New Roman,serif" font-size="12.00" fill="#2d137d"> &#160;&#160;&#160;&#160;&#160;&#160;&#160;&#160;&#160;&#160;&#160;&#160;53326</text>
</g>
<!-- Create Purchase Order Item&#45;&gt;Vendor creates invoice -->
<g id="edge20" class="edge">
<title>Create Purchase Order Item&#45;&gt;Vendor creates invoice</title>
<path fill="none" stroke="#2d137d" d="M467.88,-515.42C514.52,-505.08 568.86,-488.54 613,-462.5 632.56,-450.96 631.62,-440.91 648.75,-426 667.55,-409.63 689.96,-392.97 708.1,-380.11"/>
<polygon fill="#2d137d" stroke="#2d137d" points="709.46,-382.74 715.63,-374.13 705.43,-377.01 709.46,-382.74"/>
<text text-anchor="middle" x="656.62" y="-438.82" font-family="Times New Roman,serif" font-size="14.00" fill="#2d137d">0.0</text>
</g>
<!-- Change Quantity -->
<g id="node7" class="node">
<title>Change Quantity</title>
<image xlink:href="1.png" width="208px" height="36.5px" preserveAspectRatio="xMinYMin meet" x="396" y="-462.5"/>
<text text-anchor="middle" x="500" y="-447.1" font-family="Times New Roman,serif" font-size="12.00" fill="#2d137d">Change Quantity</text>
<text text-anchor="start" x="404" y="-432.85" font-family="Times New Roman,serif" font-size="12.00" fill="#2d137d"> &#160;&#160;&#160;&#160;&#160;&#160;&#160;&#160;&#160;&#160;&#160;&#160;1717</text>
</g>
<!-- Create Purchase Order Item&#45;&gt;Change Quantity -->
<g id="edge13" class="edge">
<title>Create Purchase Order Item&#45;&gt;Change Quantity</title>
<path fill="none" stroke="#2d137d" d="M391.19,-514.25C412.04,-501.03 441.01,-482.66 463.81,-468.2"/>
<polygon fill="#2d137d" stroke="#2d137d" points="465.28,-470.78 471.85,-462.47 461.53,-464.87 465.28,-470.78"/>
<text text-anchor="middle" x="452.62" y="-482.95" font-family="Times New Roman,serif" font-size="14.00" fill="#2d137d">0.0</text>
</g>
<!-- Change Price -->
<g id="node9" class="node">
<title>Change Price</title>
<image xlink:href="1.png" width="208px" height="36.5px" preserveAspectRatio="xMinYMin meet" x="675" y="-462.5"/>
<text text-anchor="middle" x="779" y="-447.1" font-family="Times New Roman,serif" font-size="12.00" fill="#2d137d">Change Price</text>
<text text-anchor="start" x="683" y="-432.85" font-family="Times New Roman,serif" font-size="12.00" fill="#2d137d"> &#160;&#160;&#160;&#160;&#160;&#160;&#160;&#160;&#160;&#160;&#160;&#160;1087</text>
</g>
<!-- Create Purchase Order Item&#45;&gt;Change Price -->
<g id="edge14" class="edge">
<title>Create Purchase Order Item&#45;&gt;Change Price</title>
<path fill="none" stroke="#2d137d" d="M467.92,-525.6C523.75,-520.76 593.38,-512 654,-496.25 681.37,-489.14 710.7,-477.4 734.07,-466.98"/>
<polygon fill="#2d137d" stroke="#2d137d" points="735.37,-469.78 743.03,-462.46 732.48,-463.41 735.37,-469.78"/>
<text text-anchor="middle" x="707.62" y="-482.95" font-family="Times New Roman,serif" font-size="14.00" fill="#2d137d">0.0</text>
</g>
<!-- Delete Purchase Order Item -->
<g id="node10" class="node">
<title>Delete Purchase Order Item</title>
<image xlink:href="1.png" width="208px" height="36.5px" preserveAspectRatio="xMinYMin meet" x="0" y="-374.25"/>
<text text-anchor="middle" x="104" y="-358.85" font-family="Times New Roman,serif" font-size="12.00" fill="#2d137d">Delete Purchase Order Item</text>
<text text-anchor="start" x="8" y="-344.6" font-family="Times New Roman,serif" font-size="12.00" fill="#2d137d"> &#160;&#160;&#160;&#160;&#160;&#160;&#160;&#160;&#160;&#160;&#160;&#160;3834</text>
</g>
<!-- Create Purchase Order Item&#45;&gt;Delete Purchase Order Item -->
<g id="edge28" class="edge">
<title>Create Purchase Order Item&#45;&gt;Delete Purchase Order Item</title>
<path fill="none" stroke="#2d137d" d="M260.26,-522.32C180.1,-512.82 78.6,-494.71 52.75,-462.5 33,-437.89 55.94,-404.42 77.12,-381.83"/>
<polygon fill="#2d137d" stroke="#2d137d" points="79.26,-384.62 83.77,-375.03 74.27,-379.72 79.26,-384.62"/>
<text text-anchor="middle" x="61.62" y="-438.82" font-family="Times New Roman,serif" font-size="14.00" fill="#2d137d">0.0</text>
</g>
<!-- endevent -->
<g id="node12" class="node">
<title>endevent</title>
</g>
<!-- Create Purchase Order Item&#45;&gt;endevent -->
<g id="edge8" class="edge">
<title>Create Purchase Order Item&#45;&gt;endevent</title>
<path fill="none" stroke="#2d137d" d="M352.46,-514.53C333.06,-484.28 296,-418.45 296,-357 296,-357 296,-357 296,-90.25 296,-75.35 299.93,-59.27 304.21,-46.16"/>
<polygon fill="#2d137d" stroke="#2d137d" points="307.79,-47.53 307.82,-36.94 301.19,-45.21 307.79,-47.53"/>
</g>
<!-- Receive Order Confirmation&#45;&gt;Record Goods Receipt -->
<g id="edge22" class="edge">
<title>Receive Order Confirmation&#45;&gt;Record Goods Receipt</title>
<path fill="none" stroke="#2d137d" d="M231.99,-426C271.38,-412.14 326.87,-392.6 368.76,-377.86"/>
<polygon fill="#2d137d" stroke="#2d137d" points="369.82,-380.84 378.09,-374.22 367.5,-374.24 369.82,-380.84"/>
<text text-anchor="middle" x="335.62" y="-394.7" font-family="Times New Roman,serif" font-size="14.00" fill="#2d137d">0.0</text>
</g>
<!-- Receive Order Confirmation&#45;&gt;Vendor creates invoice -->
<g id="edge17" class="edge">
<title>Receive Order Confirmation&#45;&gt;Vendor creates invoice</title>
<path fill="none" stroke="#2d137d" d="M286.63,-431.77C366.18,-422.85 465.61,-411.44 485,-408 514.59,-402.75 521.35,-398.48 550.75,-392.25 577.14,-386.66 605.68,-381.13 632.47,-376.16"/>
<polygon fill="#2d137d" stroke="#2d137d" points="632.83,-379.47 642.03,-374.21 631.57,-372.58 632.83,-379.47"/>
<text text-anchor="middle" x="558.62" y="-394.7" font-family="Times New Roman,serif" font-size="14.00" fill="#2d137d">0.0</text>
</g>
<!-- Receive Order Confirmation&#45;&gt;Delete Purchase Order Item -->
<g id="edge23" class="edge">
<title>Receive Order Confirmation&#45;&gt;Delete Purchase Order Item</title>
<path fill="none" stroke="#2d137d" d="M167.39,-426.21C155.81,-413.57 139.85,-396.14 126.84,-381.94"/>
<polygon fill="#2d137d" stroke="#2d137d" points="129.91,-380.02 120.58,-375 124.75,-384.74 129.91,-380.02"/>
<text text-anchor="middle" x="159.62" y="-394.7" font-family="Times New Roman,serif" font-size="14.00" fill="#2d137d">0.0</text>
</g>
<!-- Record Goods Receipt&#45;&gt;Record Goods Receipt -->
<g id="edge25" class="edge">
<title>Record Goods Receipt&#45;&gt;Record Goods Receipt</title>
<path fill="none" stroke="#2d137d" d="M531.69,-362.91C542.83,-361.58 550,-359.27 550,-356 550,-353.95 547.2,-352.29 542.38,-351"/>
<polygon fill="#2d137d" stroke="#2d137d" points="543.15,-347.4 532.69,-349.09 541.92,-354.29 543.15,-347.4"/>
<text text-anchor="middle" x="558.62" y="-350.57" font-family="Times New Roman,serif" font-size="14.00" fill="#2d137d">0.0</text>
</g>
<!-- Remove Payment Block -->
<g id="node8" class="node">
<title>Remove Payment Block</title>
<image xlink:href="1.png" width="208px" height="36.5px" preserveAspectRatio="xMinYMin meet" x="499" y="-197.75"/>
<text text-anchor="middle" x="603" y="-182.35" font-family="Times New Roman,serif" font-size="12.00" fill="#2d137d">Remove Payment Block</text>
<text text-anchor="start" x="507" y="-168.1" font-family="Times New Roman,serif" font-size="12.00" fill="#2d137d"> &#160;&#160;&#160;&#160;&#160;&#160;&#160;&#160;&#160;&#160;&#160;&#160;10850</text>
</g>
<!-- Record Goods Receipt&#45;&gt;Remove Payment Block -->
<g id="edge11" class="edge">
<title>Record Goods Receipt&#45;&gt;Remove Payment Block</title>
<path fill="none" stroke="#2d137d" d="M431.44,-338.09C436.8,-315.49 449.08,-275.3 472.75,-249.5 491.76,-228.78 518.44,-213.14 542.71,-202.03"/>
<polygon fill="#2d137d" stroke="#2d137d" points="543.83,-204.92 551.57,-197.7 541.01,-198.51 543.83,-204.92"/>
<text text-anchor="middle" x="480.62" y="-262.32" font-family="Times New Roman,serif" font-size="14.00" fill="#2d137d">0.0</text>
</g>
<!-- Record Goods Receipt&#45;&gt;endevent -->
<g id="edge10" class="edge">
<title>Record Goods Receipt&#45;&gt;endevent</title>
<path fill="none" stroke="#2d137d" d="M388.95,-337.78C363.13,-323.46 334,-300.31 334,-268.75 334,-268.75 334,-268.75 334,-90.25 334,-75.35 330.07,-59.27 325.79,-46.16"/>
<polygon fill="#2d137d" stroke="#2d137d" points="328.81,-45.21 322.18,-36.94 322.21,-47.53 328.81,-45.21"/>
</g>
<!-- Record Invoice Receipt -->
<g id="node5" class="node">
<title>Record Invoice Receipt</title>
<image xlink:href="1.png" width="208px" height="36.5px" preserveAspectRatio="xMinYMin meet" x="499" y="-286"/>
<text text-anchor="middle" x="603" y="-270.6" font-family="Times New Roman,serif" font-size="12.00" fill="#2d137d">Record Invoice Receipt</text>
<text text-anchor="start" x="507" y="-256.35" font-family="Times New Roman,serif" font-size="12.00" fill="#2d137d"> &#160;&#160;&#160;&#160;&#160;&#160;&#160;&#160;&#160;&#160;&#160;&#160;53326</text>
</g>
<!-- Vendor creates invoice&#45;&gt;Record Invoice Receipt -->
<g id="edge21" class="edge">
<title>Vendor creates invoice&#45;&gt;Record Invoice Receipt</title>
<path fill="none" stroke="#2d137d" d="M714.21,-337.75C692.9,-324.53 663.29,-306.16 639.98,-291.7"/>
<polygon fill="#2d137d" stroke="#2d137d" points="642.09,-288.27 631.75,-285.97 638.4,-294.21 642.09,-288.27"/>
<text text-anchor="middle" x="692.62" y="-306.45" font-family="Times New Roman,serif" font-size="14.00" fill="#2d137d">0.0</text>
</g>
<!-- Clear Invoice -->
<g id="node6" class="node">
<title>Clear Invoice</title>
<image xlink:href="1.png" width="208px" height="36.5px" preserveAspectRatio="xMinYMin meet" x="362" y="-109.5"/>
<text text-anchor="middle" x="466" y="-94.1" font-family="Times New Roman,serif" font-size="12.00" fill="#2d137d">Clear Invoice</text>
<text text-anchor="start" x="370" y="-79.85" font-family="Times New Roman,serif" font-size="12.00" fill="#2d137d"> &#160;&#160;&#160;&#160;&#160;&#160;&#160;&#160;&#160;&#160;&#160;&#160;53326</text>
</g>
<!-- Record Invoice Receipt&#45;&gt;Clear Invoice -->
<g id="edge19" class="edge">
<title>Record Invoice Receipt&#45;&gt;Clear Invoice</title>
<path fill="none" stroke="#2d137d" d="M542.52,-249.51C516.63,-238.9 488.72,-222.47 472.75,-197.75 457.84,-174.67 458.06,-142.51 460.81,-119.78"/>
<polygon fill="#2d137d" stroke="#2d137d" points="464.38,-120.55 462.36,-110.15 457.45,-119.54 464.38,-120.55"/>
<text text-anchor="middle" x="480.62" y="-174.07" font-family="Times New Roman,serif" font-size="14.00" fill="#2d137d">0.0</text>
</g>
<!-- Record Invoice Receipt&#45;&gt;Remove Payment Block -->
<g id="edge24" class="edge">
<title>Record Invoice Receipt&#45;&gt;Remove Payment Block</title>
<path fill="none" stroke="#2d137d" d="M603,-249.71C603,-237.9 603,-221.9 603,-208.26"/>
<polygon fill="#2d137d" stroke="#2d137d" points="606.5,-208.5 603,-198.5 599.5,-208.5 606.5,-208.5"/>
<text text-anchor="middle" x="611.62" y="-218.2" font-family="Times New Roman,serif" font-size="14.00" fill="#2d137d">0.0</text>
</g>
<!-- Clear Invoice&#45;&gt;endevent -->
<g id="edge7" class="edge">
<title>Clear Invoice&#45;&gt;endevent</title>
<path fill="none" stroke="#2d137d" d="M429.45,-73C405.77,-61.83 375.06,-47.34 351.41,-36.18"/>
<polygon fill="#2d137d" stroke="#2d137d" points="353.29,-32.72 342.75,-31.62 350.3,-39.06 353.29,-32.72"/>
</g>
<!-- Change Quantity&#45;&gt;Record Goods Receipt -->
<g id="edge16" class="edge">
<title>Change Quantity&#45;&gt;Record Goods Receipt</title>
<path fill="none" stroke="#2d137d" d="M483.98,-426.28C478.71,-420.56 472.89,-414.08 467.75,-408 460.83,-399.81 453.55,-390.64 447.13,-382.35"/>
<polygon fill="#2d137d" stroke="#2d137d" points="449.43,-380.6 440.56,-374.8 443.88,-384.86 449.43,-380.6"/>
<text text-anchor="middle" x="475.62" y="-394.7" font-family="Times New Roman,serif" font-size="14.00" fill="#2d137d">0.0</text>
</g>
<!-- Change Quantity&#45;&gt;Record Invoice Receipt -->
<g id="edge27" class="edge">
<title>Change Quantity&#45;&gt;Record Invoice Receipt</title>
<path fill="none" stroke="#2d137d" d="M567.38,-426.17C575.71,-421.5 583.29,-415.56 589,-408 613.28,-375.85 611.98,-326.93 608.05,-296.45"/>
<polygon fill="#2d137d" stroke="#2d137d" points="611.39,-296.12 606.47,-286.74 604.47,-297.15 611.39,-296.12"/>
<text text-anchor="middle" x="618.62" y="-350.57" font-family="Times New Roman,serif" font-size="14.00" fill="#2d137d">0.0</text>
</g>
<!-- Remove Payment Block&#45;&gt;Clear Invoice -->
<g id="edge12" class="edge">
<title>Remove Payment Block&#45;&gt;Clear Invoice</title>
<path fill="none" stroke="#2d137d" d="M575.61,-161.25C554.6,-148.03 525.42,-129.66 502.45,-115.2"/>
<polygon fill="#2d137d" stroke="#2d137d" points="504.67,-111.83 494.35,-109.47 500.95,-117.76 504.67,-111.83"/>
<text text-anchor="middle" x="554.62" y="-129.95" font-family="Times New Roman,serif" font-size="14.00" fill="#2d137d">0.0</text>
</g>
<!-- Change Price&#45;&gt;Record Goods Receipt -->
<g id="edge15" class="edge">
<title>Change Price&#45;&gt;Record Goods Receipt</title>
<path fill="none" stroke="#2d137d" d="M708.81,-426C651.06,-411.81 569.17,-391.69 508.71,-376.83"/>
<polygon fill="#2d137d" stroke="#2d137d" points="509.61,-373.2 499.06,-374.22 507.94,-380 509.61,-373.2"/>
<text text-anchor="middle" x="642.62" y="-394.7" font-family="Times New Roman,serif" font-size="14.00" fill="#2d137d">0.0</text>
</g>
<!-- Change Price&#45;&gt;Vendor creates invoice -->
<g id="edge29" class="edge">
<title>Change Price&#45;&gt;Vendor creates invoice</title>
<path fill="none" stroke="#2d137d" d="M771.69,-426.21C766.52,-414.16 759.49,-397.76 753.56,-383.95"/>
<polygon fill="#2d137d" stroke="#2d137d" points="756.45,-382.82 749.29,-375 750.02,-385.57 756.45,-382.82"/>
<text text-anchor="middle" x="771.62" y="-394.7" font-family="Times New Roman,serif" font-size="14.00" fill="#2d137d">0.0</text>
</g>
<!-- Delete Purchase Order Item&#45;&gt;endevent -->
<g id="edge9" class="edge">
<title>Delete Purchase Order Item&#45;&gt;endevent</title>
<path fill="none" stroke="#2d137d" d="M151.55,-337.76C180.13,-324 211,-301.56 211,-268.75 211,-268.75 211,-268.75 211,-90.25 211,-56.77 248.13,-37.86 278.02,-28.07"/>
<polygon fill="#2d137d" stroke="#2d137d" points="278.66,-31.22 287.22,-24.97 276.63,-24.53 278.66,-31.22"/>
</g>
<!-- startevent -->
<g id="node11" class="node">
<title>startevent</title>
</g>
<!-- startevent&#45;&gt;Create Purchase Order Item -->
<g id="edge3" class="edge">
<title>startevent&#45;&gt;Create Purchase Order Item</title>
<path fill="none" stroke="#2d137d" d="M441.83,-587.86C428.46,-578.53 411.66,-566.79 397.08,-556.61"/>
<polygon fill="#2d137d" stroke="#2d137d" points="399.55,-553.37 389.35,-550.51 395.55,-559.11 399.55,-553.37"/>
</g>
<!-- startevent&#45;&gt;Receive Order Confirmation -->
<g id="edge5" class="edge">
<title>startevent&#45;&gt;Receive Order Confirmation</title>
<path fill="none" stroke="#2d137d" d="M439.26,-604.19C395.84,-602.02 309.01,-592.36 251,-550.75 223.54,-531.06 204.4,-496.52 193.57,-472.34"/>
<polygon fill="#2d137d" stroke="#2d137d" points="196.46,-471.19 189.31,-463.37 190.02,-473.94 196.46,-471.19"/>
</g>
<!-- startevent&#45;&gt;Vendor creates invoice -->
<g id="edge6" class="edge">
<title>startevent&#45;&gt;Vendor creates invoice</title>
<path fill="none" stroke="#2d137d" d="M492.83,-600.08C578.86,-584.5 844.89,-531.36 892,-462.5 918.11,-424.33 866.31,-395.52 816.6,-377.72"/>
<polygon fill="#2d137d" stroke="#2d137d" points="817.97,-374.15 807.38,-374.2 815.69,-380.77 817.97,-374.15"/>
</g>
<!-- startevent&#45;&gt;Change Quantity -->
<g id="edge2" class="edge">
<title>startevent&#45;&gt;Change Quantity</title>
<path fill="none" stroke="#2d137d" d="M469.57,-587.98C475.43,-560.53 487.1,-505.75 494.17,-472.61"/>
<polygon fill="#2d137d" stroke="#2d137d" points="497.71,-473.78 496.37,-463.27 490.86,-472.32 497.71,-473.78"/>
</g>
<!-- startevent&#45;&gt;Change Price -->
<g id="edge1" class="edge">
<title>startevent&#45;&gt;Change Price</title>
<path fill="none" stroke="#2d137d" d="M492.91,-596.33C540.78,-580.71 642.93,-544.38 720,-496.25 732.02,-488.74 744.08,-478.85 754.13,-469.77"/>
<polygon fill="#2d137d" stroke="#2d137d" points="756.11,-472.78 761.06,-463.41 751.35,-467.65 756.11,-472.78"/>
</g>
<!-- startevent&#45;&gt;Delete Purchase Order Item -->
<g id="edge4" class="edge">
<title>startevent&#45;&gt;Delete Purchase Order Item</title>
<path fill="none" stroke="#2d137d" d="M439.04,-600.64C402.36,-594.84 334.81,-583.43 278,-569.75 165.99,-542.78 102.06,-560.82 42,-462.5 25.53,-435.53 34.11,-417.59 53,-392.25 56.09,-388.1 59.82,-384.26 63.84,-380.77"/>
<polygon fill="#2d137d" stroke="#2d137d" points="65.66,-383.01 71.39,-374.1 61.36,-377.5 65.66,-383.01"/>
</g>
</g>
</svg>
