<?xml version="1.0" encoding="UTF-8" standalone="no"?>
<!DOCTYPE svg PUBLIC "-//W3C//DTD SVG 1.1//EN"
 "http://www.w3.org/Graphics/SVG/1.1/DTD/svg11.dtd">
<!-- Generated by graphviz version 7.1.0 (20230121.1956)
 -->
<!-- Title: hueta Pages: 1 -->
<svg width="1209pt" height="111pt"
 viewBox="0.00 0.00 1209.00 111.00" xmlns="http://www.w3.org/2000/svg" xmlns:xlink="http://www.w3.org/1999/xlink">
<g id="graph0" class="graph" transform="scale(1 1) rotate(0) translate(4 107)">
<title>hueta</title>
<polygon fill="white" stroke="none" points="-4,4 -4,-107 1205,-107 1205,4 -4,4"/>
<!-- start -->
<g id="node1" class="node">
<title>start</title>
</g>
<!-- A_SUBMITTED -->
<g id="node3" class="node">
<title>A_SUBMITTED</title>
<text text-anchor="middle" x="144.5" y="-34.8" font-family="monospace" font-size="14.00" fill="#2d137d">A_SUBMITTED</text>
<text text-anchor="start" x="99" y="-19.8" font-family="monospace" font-size="14.00" fill="#2d137d">126</text>
</g>
<!-- start&#45;&gt;A_SUBMITTED -->
<g id="edge1" class="edge">
<title>start&#45;&gt;A_SUBMITTED</title>
<path fill="none" stroke="#2d137d" stroke-dasharray="5,2" d="M53.92,-31C61.77,-31 70.76,-31 79.95,-31"/>
<polygon fill="#2d137d" stroke="#2d137d" points="79.68,-34.5 89.68,-31 79.68,-27.5 79.68,-34.5"/>
</g>
<!-- krug_blyat -->
<g id="node2" class="node">
<title>krug_blyat</title>
</g>
<!-- A_PARTLYSUBMITTED -->
<g id="node4" class="node">
<title>A_PARTLYSUBMITTED</title>
<text text-anchor="middle" x="343.5" y="-34.8" font-family="monospace" font-size="14.00" fill="#2d137d">A_PARTLYSUBMITTED</text>
<text text-anchor="start" x="273" y="-19.8" font-family="monospace" font-size="14.00" fill="#2d137d">126</text>
</g>
<!-- A_SUBMITTED&#45;&gt;A_PARTLYSUBMITTED -->
<g id="edge2" class="edge">
<title>A_SUBMITTED&#45;&gt;A_PARTLYSUBMITTED</title>
<path fill="none" stroke="#2d137d" d="M197.78,-31C214.94,-31 234.53,-31 253.63,-31"/>
<polygon fill="#2d137d" stroke="#2d137d" points="253.6,-34.5 263.6,-31 253.6,-27.5 253.6,-34.5"/>
<text text-anchor="middle" x="231.5" y="-34.4" font-family="Courier,monospace" font-size="12.00" fill="#2d137d">0.0d</text>
</g>
<!-- W_Afhandelen leads -->
<g id="node5" class="node">
<title>W_Afhandelen leads</title>
<text text-anchor="middle" x="571.5" y="-34.8" font-family="monospace" font-size="14.00" fill="#2d137d">W_Afhandelen leads</text>
<text text-anchor="start" x="497" y="-19.8" font-family="monospace" font-size="14.00" fill="#2d137d">378</text>
</g>
<!-- A_PARTLYSUBMITTED&#45;&gt;W_Afhandelen leads -->
<g id="edge3" class="edge">
<title>A_PARTLYSUBMITTED&#45;&gt;W_Afhandelen leads</title>
<path fill="none" stroke="#2d137d" d="M421.96,-31C439.95,-31 459.28,-31 477.84,-31"/>
<polygon fill="#2d137d" stroke="#2d137d" points="477.78,-34.5 487.78,-31 477.78,-27.5 477.78,-34.5"/>
<text text-anchor="middle" x="455.5" y="-34.4" font-family="Courier,monospace" font-size="12.00" fill="#2d137d">0.0d</text>
</g>
<!-- W_Afhandelen leads&#45;&gt;W_Afhandelen leads -->
<g id="edge4" class="edge">
<title>W_Afhandelen leads&#45;&gt;W_Afhandelen leads</title>
<path fill="none" stroke="#2d137d" d="M550.51,-49.66C547.29,-59.3 554.28,-68 571.5,-68 581.45,-68 587.99,-65.09 591.11,-60.78"/>
<polygon fill="#2d137d" stroke="#2d137d" points="594.55,-61.51 592.3,-51.16 587.6,-60.65 594.55,-61.51"/>
<text text-anchor="middle" x="571.5" y="-71.4" font-family="Courier,monospace" font-size="12.00" fill="#2d137d">0.26d</text>
</g>
<!-- A_PREACCEPTED -->
<g id="node6" class="node">
<title>A_PREACCEPTED</title>
<text text-anchor="middle" x="783" y="-72.8" font-family="monospace" font-size="14.00" fill="#2d137d">A_PREACCEPTED</text>
<text text-anchor="start" x="729" y="-57.8" font-family="monospace" font-size="14.00" fill="#2d137d">126</text>
</g>
<!-- W_Afhandelen leads&#45;&gt;A_PREACCEPTED -->
<g id="edge5" class="edge">
<title>W_Afhandelen leads&#45;&gt;A_PREACCEPTED</title>
<path fill="none" stroke="#2d137d" d="M647.29,-49.97C655.6,-51.8 663.96,-53.52 672,-55 684.23,-57.25 697.29,-59.25 709.98,-60.99"/>
<polygon fill="#2d137d" stroke="#2d137d" points="709.14,-64.41 719.51,-62.25 710.06,-57.47 709.14,-64.41"/>
<text text-anchor="middle" x="687.5" y="-62.4" font-family="Courier,monospace" font-size="12.00" fill="#2d137d">0.0d</text>
</g>
<!-- W_Completeren aanvraag -->
<g id="node7" class="node">
<title>W_Completeren aanvraag</title>
<text text-anchor="middle" x="1011" y="-22.8" font-family="monospace" font-size="14.00" fill="#2d137d">W_Completeren aanvraag</text>
<text text-anchor="start" x="920" y="-7.8" font-family="monospace" font-size="14.00" fill="#2d137d">630</text>
</g>
<!-- W_Afhandelen leads&#45;&gt;W_Completeren aanvraag -->
<g id="edge6" class="edge">
<title>W_Afhandelen leads&#45;&gt;W_Completeren aanvraag</title>
<path fill="none" stroke="#2d137d" d="M653.77,-28.77C723.48,-26.86 824.53,-24.09 901.21,-21.98"/>
<polygon fill="#2d137d" stroke="#2d137d" points="900.93,-25.49 910.83,-21.72 900.74,-18.5 900.93,-25.49"/>
<text text-anchor="middle" x="783" y="-29.4" font-family="Courier,monospace" font-size="12.00" fill="#2d137d">0.18d</text>
</g>
<!-- A_PREACCEPTED&#45;&gt;W_Afhandelen leads -->
<g id="edge7" class="edge">
<title>A_PREACCEPTED&#45;&gt;W_Afhandelen leads</title>
<path fill="none" stroke="#2d137d" d="M721.21,-57.97C703.62,-54.78 684,-51.23 664.94,-47.77"/>
<polygon fill="#2d137d" stroke="#2d137d" points="665.75,-44.36 655.29,-46.02 664.5,-51.24 665.75,-44.36"/>
</g>
<!-- A_PREACCEPTED&#45;&gt;W_Completeren aanvraag -->
<g id="edge9" class="edge">
<title>A_PREACCEPTED&#45;&gt;W_Completeren aanvraag</title>
<path fill="none" stroke="#2d137d" d="M844.86,-55.54C865.97,-50.87 890.18,-45.51 913.44,-40.36"/>
<polygon fill="#2d137d" stroke="#2d137d" points="913.92,-43.84 922.93,-38.26 912.41,-37.01 913.92,-43.84"/>
<text text-anchor="middle" x="878.5" y="-54.4" font-family="Courier,monospace" font-size="12.00" fill="#2d137d">0.0d</text>
</g>
<!-- W_Completeren aanvraag&#45;&gt;W_Afhandelen leads -->
<g id="edge8" class="edge">
<title>W_Completeren aanvraag&#45;&gt;W_Afhandelen leads</title>
<path fill="none" stroke="#2d137d" d="M912.23,-8.38C856.19,-3.84 784.56,-0.69 721,-6 702.88,-7.51 683.64,-10.05 665.23,-12.94"/>
<polygon fill="#2d137d" stroke="#2d137d" points="664.69,-9.49 655.38,-14.54 665.82,-16.4 664.69,-9.49"/>
<text text-anchor="middle" x="783" y="-9.4" font-family="Courier,monospace" font-size="12.00" fill="#2d137d">0.0d</text>
</g>
<!-- W_Completeren aanvraag&#45;&gt;W_Completeren aanvraag -->
<g id="edge10" class="edge">
<title>W_Completeren aanvraag&#45;&gt;W_Completeren aanvraag</title>
<path fill="none" stroke="#2d137d" d="M989.74,-37.66C986.47,-47.3 993.56,-56 1011,-56 1021.08,-56 1027.71,-53.09 1030.87,-48.78"/>
<polygon fill="#2d137d" stroke="#2d137d" points="1034.3,-49.52 1032.07,-39.16 1027.36,-48.65 1034.3,-49.52"/>
<text text-anchor="middle" x="1011" y="-59.4" font-family="Courier,monospace" font-size="12.00" fill="#2d137d">0.22d</text>
</g>
<!-- end -->
<g id="node8" class="node">
<title>end</title>
</g>
<!-- W_Completeren aanvraag&#45;&gt;end -->
<g id="edge11" class="edge">
<title>W_Completeren aanvraag&#45;&gt;end</title>
<path fill="none" stroke="#2d137d" stroke-dasharray="5,2" d="M1109.83,-19C1118.93,-19 1127.71,-19 1135.69,-19"/>
<polygon fill="#2d137d" stroke="#2d137d" points="1135.61,-22.5 1145.61,-19 1135.61,-15.5 1135.61,-22.5"/>
</g>
</g>
</svg>
