<?xml version="1.0" encoding="UTF-8" standalone="no"?>
<!DOCTYPE svg PUBLIC "-//W3C//DTD SVG 1.1//EN"
 "http://www.w3.org/Graphics/SVG/1.1/DTD/svg11.dtd">
<!-- Generated by graphviz version 2.43.0 (0)
 -->
<!-- Title: %3 Pages: 1 -->
<svg width="361pt" height="593pt"
 viewBox="0.00 0.00 361.00 593.00" xmlns="http://www.w3.org/2000/svg" xmlns:xlink="http://www.w3.org/1999/xlink">
<g id="graph0" class="graph" transform="scale(1 1) rotate(0) translate(4 589)">
<title>%3</title>
<!-- A_SUBMITTED -->
<g id="node1" class="node">
<title>A_SUBMITTED</title>
<polygon fill="transparent" stroke="transparent" points="234.5,-504 100.5,-504 100.5,-465 234.5,-465 234.5,-504"/>
<path fill="#ffffff" stroke="transparent" d="M112.5,-465C112.5,-465 222.5,-465 222.5,-465 228.5,-465 234.5,-471 234.5,-477 234.5,-477 234.5,-492 234.5,-492 234.5,-498 228.5,-504 222.5,-504 222.5,-504 112.5,-504 112.5,-504 106.5,-504 100.5,-498 100.5,-492 100.5,-492 100.5,-477 100.5,-477 100.5,-471 106.5,-465 112.5,-465"/>
<text text-anchor="start" x="103.5" y="-476.5" font-family="Times,serif" font-size="30.00" fill="#6a45ff">◉</text>
<text text-anchor="start" x="138.5" y="-490.9" font-family="Courier,monospace" font-weight="bold" font-size="12.00" fill="#6a45ff">A_SUBMITTED</text>
<text text-anchor="start" x="138.5" y="-473" font-family="Times,serif" font-weight="bold" font-size="10.00" fill="#b36dff">126</text>
<path fill="none" stroke="#ffffff" d="M112.5,-465C112.5,-465 222.5,-465 222.5,-465 228.5,-465 234.5,-471 234.5,-477 234.5,-477 234.5,-492 234.5,-492 234.5,-498 228.5,-504 222.5,-504 222.5,-504 112.5,-504 112.5,-504 106.5,-504 100.5,-498 100.5,-492 100.5,-492 100.5,-477 100.5,-477 100.5,-471 106.5,-465 112.5,-465"/>
</g>
<!-- A_PARTLYSUBMITTED -->
<g id="node2" class="node">
<title>A_PARTLYSUBMITTED</title>
<polygon fill="transparent" stroke="transparent" points="257,-408 78,-408 78,-369 257,-369 257,-408"/>
<path fill="#ffffff" stroke="transparent" d="M90,-369C90,-369 245,-369 245,-369 251,-369 257,-375 257,-381 257,-381 257,-396 257,-396 257,-402 251,-408 245,-408 245,-408 90,-408 90,-408 84,-408 78,-402 78,-396 78,-396 78,-381 78,-381 78,-375 84,-369 90,-369"/>
<text text-anchor="start" x="81.5" y="-380.5" font-family="Times,serif" font-size="30.00" fill="#6a45ff">◉</text>
<text text-anchor="start" x="116.5" y="-394.9" font-family="Courier,monospace" font-weight="bold" font-size="12.00" fill="#6a45ff">A_PARTLYSUBMITTED</text>
<text text-anchor="start" x="116.5" y="-377" font-family="Times,serif" font-weight="bold" font-size="10.00" fill="#b36dff">126</text>
<path fill="none" stroke="#ffffff" d="M90,-369C90,-369 245,-369 245,-369 251,-369 257,-375 257,-381 257,-381 257,-396 257,-396 257,-402 251,-408 245,-408 245,-408 90,-408 90,-408 84,-408 78,-402 78,-396 78,-396 78,-381 78,-381 78,-375 84,-369 90,-369"/>
</g>
<!-- A_SUBMITTED&#45;&gt;A_PARTLYSUBMITTED -->
<g id="edge3" class="edge">
<title>A_SUBMITTED&#45;&gt;A_PARTLYSUBMITTED</title>
<path fill="none" stroke="#7018f2" d="M167.5,-464.93C167.5,-451.67 167.5,-433.57 167.5,-418.43"/>
<polygon fill="#7018f2" stroke="#7018f2" points="171,-418.03 167.5,-408.03 164,-418.03 171,-418.03"/>
<path fill="#ffffff" fill-opacity="0.501961" stroke="transparent" d="M174.5,-426C174.5,-426 195.5,-426 195.5,-426 199,-426 202.5,-429.5 202.5,-433 202.5,-433 202.5,-440 202.5,-440 202.5,-443.5 199,-447 195.5,-447 195.5,-447 174.5,-447 174.5,-447 171,-447 167.5,-443.5 167.5,-440 167.5,-440 167.5,-433 167.5,-433 167.5,-429.5 171,-426 174.5,-426"/>
<text text-anchor="start" x="172" y="-432.9" font-family="Times,serif" font-size="12.00" fill="#ad5ff5">0.0d</text>
</g>
<!-- W_Afhandelen leads -->
<g id="node3" class="node">
<title>W_Afhandelen leads</title>
<polygon fill="transparent" stroke="transparent" points="261,-312 74,-312 74,-273 261,-273 261,-312"/>
<path fill="#ffffff" stroke="transparent" d="M86,-273C86,-273 249,-273 249,-273 255,-273 261,-279 261,-285 261,-285 261,-300 261,-300 261,-306 255,-312 249,-312 249,-312 86,-312 86,-312 80,-312 74,-306 74,-300 74,-300 74,-285 74,-285 74,-279 80,-273 86,-273"/>
<text text-anchor="start" x="77.5" y="-284.5" font-family="Times,serif" font-size="30.00" fill="#6a45ff">◉</text>
<text text-anchor="start" x="112.5" y="-298.9" font-family="Courier,monospace" font-weight="bold" font-size="12.00" fill="#6a45ff">W_Afhandelen leads</text>
<text text-anchor="start" x="112.5" y="-281" font-family="Times,serif" font-weight="bold" font-size="10.00" fill="#b36dff">378</text>
<path fill="none" stroke="#ffffff" d="M86,-273C86,-273 249,-273 249,-273 255,-273 261,-279 261,-285 261,-285 261,-300 261,-300 261,-306 255,-312 249,-312 249,-312 86,-312 86,-312 80,-312 74,-306 74,-300 74,-300 74,-285 74,-285 74,-279 80,-273 86,-273"/>
</g>
<!-- A_PARTLYSUBMITTED&#45;&gt;W_Afhandelen leads -->
<g id="edge5" class="edge">
<title>A_PARTLYSUBMITTED&#45;&gt;W_Afhandelen leads</title>
<path fill="none" stroke="#7018f2" d="M167.5,-368.93C167.5,-355.67 167.5,-337.57 167.5,-322.43"/>
<polygon fill="#7018f2" stroke="#7018f2" points="171,-322.03 167.5,-312.03 164,-322.03 171,-322.03"/>
<path fill="#ffffff" fill-opacity="0.501961" stroke="transparent" d="M174.5,-330C174.5,-330 195.5,-330 195.5,-330 199,-330 202.5,-333.5 202.5,-337 202.5,-337 202.5,-344 202.5,-344 202.5,-347.5 199,-351 195.5,-351 195.5,-351 174.5,-351 174.5,-351 171,-351 167.5,-347.5 167.5,-344 167.5,-344 167.5,-337 167.5,-337 167.5,-333.5 171,-330 174.5,-330"/>
<text text-anchor="start" x="172" y="-336.9" font-family="Times,serif" font-size="12.00" fill="#ad5ff5">0.0d</text>
</g>
<!-- W_Afhandelen leads&#45;&gt;W_Afhandelen leads -->
<g id="edge8" class="edge">
<title>W_Afhandelen leads&#45;&gt;W_Afhandelen leads</title>
<path fill="none" stroke="#7018f2" d="M261.04,-300.18C271.92,-298.76 279,-296.2 279,-292.5 279,-290.13 276.09,-288.22 271.15,-286.79"/>
<polygon fill="#7018f2" stroke="#7018f2" points="271.53,-283.3 261.04,-284.82 270.19,-290.17 271.53,-283.3"/>
<path fill="#ffffff" fill-opacity="0.501961" stroke="transparent" d="M286,-282C286,-282 314,-282 314,-282 317.5,-282 321,-285.5 321,-289 321,-289 321,-296 321,-296 321,-299.5 317.5,-303 314,-303 314,-303 286,-303 286,-303 282.5,-303 279,-299.5 279,-296 279,-296 279,-289 279,-289 279,-285.5 282.5,-282 286,-282"/>
<text text-anchor="start" x="283" y="-288.9" font-family="Times,serif" font-size="12.00" fill="#ad5ff5">0.26d</text>
</g>
<!-- A_PREACCEPTED -->
<g id="node4" class="node">
<title>A_PREACCEPTED</title>
<polygon fill="transparent" stroke="transparent" points="149,-216 0,-216 0,-177 149,-177 149,-216"/>
<path fill="#ffffff" stroke="transparent" d="M12,-177C12,-177 137,-177 137,-177 143,-177 149,-183 149,-189 149,-189 149,-204 149,-204 149,-210 143,-216 137,-216 137,-216 12,-216 12,-216 6,-216 0,-210 0,-204 0,-204 0,-189 0,-189 0,-183 6,-177 12,-177"/>
<text text-anchor="start" x="3.5" y="-188.5" font-family="Times,serif" font-size="30.00" fill="#6a45ff">◉</text>
<text text-anchor="start" x="38.5" y="-202.9" font-family="Courier,monospace" font-weight="bold" font-size="12.00" fill="#6a45ff">A_PREACCEPTED</text>
<text text-anchor="start" x="38.5" y="-185" font-family="Times,serif" font-weight="bold" font-size="10.00" fill="#b36dff">126</text>
<path fill="none" stroke="#ffffff" d="M12,-177C12,-177 137,-177 137,-177 143,-177 149,-183 149,-189 149,-189 149,-204 149,-204 149,-210 143,-216 137,-216 137,-216 12,-216 12,-216 6,-216 0,-210 0,-204 0,-204 0,-189 0,-189 0,-183 6,-177 12,-177"/>
</g>
<!-- W_Afhandelen leads&#45;&gt;A_PREACCEPTED -->
<g id="edge6" class="edge">
<title>W_Afhandelen leads&#45;&gt;A_PREACCEPTED</title>
<path fill="none" stroke="#7018f2" d="M124.55,-272.91C116.2,-267.95 108.03,-261.98 101.5,-255 93.68,-246.64 87.76,-235.6 83.49,-225.44"/>
<polygon fill="#7018f2" stroke="#7018f2" points="86.74,-224.15 79.89,-216.07 80.21,-226.66 86.74,-224.15"/>
<path fill="#ffffff" fill-opacity="0.501961" stroke="transparent" d="M108.5,-234C108.5,-234 129.5,-234 129.5,-234 133,-234 136.5,-237.5 136.5,-241 136.5,-241 136.5,-248 136.5,-248 136.5,-251.5 133,-255 129.5,-255 129.5,-255 108.5,-255 108.5,-255 105,-255 101.5,-251.5 101.5,-248 101.5,-248 101.5,-241 101.5,-241 101.5,-237.5 105,-234 108.5,-234"/>
<text text-anchor="start" x="106" y="-240.9" font-family="Times,serif" font-size="12.00" fill="#ad5ff5">0.0d</text>
</g>
<!-- W_Completeren aanvraag -->
<g id="node5" class="node">
<title>W_Completeren aanvraag</title>
<polygon fill="transparent" stroke="transparent" points="293,-120 76,-120 76,-81 293,-81 293,-120"/>
<path fill="#ffffff" stroke="transparent" d="M88,-81C88,-81 281,-81 281,-81 287,-81 293,-87 293,-93 293,-93 293,-108 293,-108 293,-114 287,-120 281,-120 281,-120 88,-120 88,-120 82,-120 76,-114 76,-108 76,-108 76,-93 76,-93 76,-87 82,-81 88,-81"/>
<text text-anchor="start" x="79.5" y="-92.5" font-family="Times,serif" font-size="30.00" fill="#6a45ff">◉</text>
<text text-anchor="start" x="114.5" y="-106.9" font-family="Courier,monospace" font-weight="bold" font-size="12.00" fill="#6a45ff">W_Completeren aanvraag</text>
<text text-anchor="start" x="114.5" y="-89" font-family="Times,serif" font-weight="bold" font-size="10.00" fill="#b36dff">630</text>
<path fill="none" stroke="#ffffff" d="M88,-81C88,-81 281,-81 281,-81 287,-81 293,-87 293,-93 293,-93 293,-108 293,-108 293,-114 287,-120 281,-120 281,-120 88,-120 88,-120 82,-120 76,-114 76,-108 76,-108 76,-93 76,-93 76,-87 82,-81 88,-81"/>
</g>
<!-- W_Afhandelen leads&#45;&gt;W_Completeren aanvraag -->
<g id="edge10" class="edge">
<title>W_Afhandelen leads&#45;&gt;W_Completeren aanvraag</title>
<path fill="none" stroke="#7018f2" d="M169.16,-272.94C172.14,-239.66 178.4,-169.67 181.93,-130.18"/>
<polygon fill="#7018f2" stroke="#7018f2" points="185.43,-130.41 182.83,-120.14 178.45,-129.79 185.43,-130.41"/>
<path fill="#ffffff" fill-opacity="0.501961" stroke="transparent" d="M184.5,-186C184.5,-186 212.5,-186 212.5,-186 216,-186 219.5,-189.5 219.5,-193 219.5,-193 219.5,-200 219.5,-200 219.5,-203.5 216,-207 212.5,-207 212.5,-207 184.5,-207 184.5,-207 181,-207 177.5,-203.5 177.5,-200 177.5,-200 177.5,-193 177.5,-193 177.5,-189.5 181,-186 184.5,-186"/>
<text text-anchor="start" x="181.5" y="-192.9" font-family="Times,serif" font-size="12.00" fill="#ad5ff5">0.18d</text>
</g>
<!-- A_PREACCEPTED&#45;&gt;W_Afhandelen leads -->
<g id="edge11" class="edge">
<title>A_PREACCEPTED&#45;&gt;W_Afhandelen leads</title>
<path fill="none" stroke="#7018f2" d="M113.58,-216.12C121.78,-221.17 129.91,-227.16 136.5,-234 144.61,-242.42 151.21,-253.38 156.21,-263.47"/>
<polygon fill="#7018f2" stroke="#7018f2" points="153.13,-265.15 160.5,-272.76 159.49,-262.22 153.13,-265.15"/>
</g>
<!-- A_PREACCEPTED&#45;&gt;W_Completeren aanvraag -->
<g id="edge4" class="edge">
<title>A_PREACCEPTED&#45;&gt;W_Completeren aanvraag</title>
<path fill="none" stroke="#7018f2" d="M93.21,-176.79C105.02,-165.25 120.78,-150.35 135.5,-138 140.13,-134.11 145.13,-130.15 150.11,-126.33"/>
<polygon fill="#7018f2" stroke="#7018f2" points="152.51,-128.9 158.38,-120.09 148.29,-123.31 152.51,-128.9"/>
<path fill="#ffffff" fill-opacity="0.501961" stroke="transparent" d="M142.5,-138C142.5,-138 163.5,-138 163.5,-138 167,-138 170.5,-141.5 170.5,-145 170.5,-145 170.5,-152 170.5,-152 170.5,-155.5 167,-159 163.5,-159 163.5,-159 142.5,-159 142.5,-159 139,-159 135.5,-155.5 135.5,-152 135.5,-152 135.5,-145 135.5,-145 135.5,-141.5 139,-138 142.5,-138"/>
<text text-anchor="start" x="140" y="-144.9" font-family="Times,serif" font-size="12.00" fill="#ad5ff5">0.0d</text>
</g>
<!-- W_Completeren aanvraag&#45;&gt;W_Afhandelen leads -->
<g id="edge9" class="edge">
<title>W_Completeren aanvraag&#45;&gt;W_Afhandelen leads</title>
<path fill="none" stroke="#7018f2" d="M201.05,-120.37C218.74,-142.93 242.7,-181.91 230.5,-216 223.77,-234.81 210.03,-252.2 197.09,-265.54"/>
<polygon fill="#7018f2" stroke="#7018f2" points="194.29,-263.39 189.62,-272.9 199.2,-268.37 194.29,-263.39"/>
<path fill="#ffffff" fill-opacity="0.501961" stroke="transparent" d="M240.5,-186C240.5,-186 261.5,-186 261.5,-186 265,-186 268.5,-189.5 268.5,-193 268.5,-193 268.5,-200 268.5,-200 268.5,-203.5 265,-207 261.5,-207 261.5,-207 240.5,-207 240.5,-207 237,-207 233.5,-203.5 233.5,-200 233.5,-200 233.5,-193 233.5,-193 233.5,-189.5 237,-186 240.5,-186"/>
<text text-anchor="start" x="238" y="-192.9" font-family="Times,serif" font-size="12.00" fill="#ad5ff5">0.0d</text>
</g>
<!-- W_Completeren aanvraag&#45;&gt;W_Completeren aanvraag -->
<g id="edge7" class="edge">
<title>W_Completeren aanvraag&#45;&gt;W_Completeren aanvraag</title>
<path fill="none" stroke="#7018f2" d="M293.36,-106.31C304.14,-105.15 311,-103.21 311,-100.5 311,-98.76 308.19,-97.35 303.33,-96.24"/>
<polygon fill="#7018f2" stroke="#7018f2" points="303.78,-92.77 293.36,-94.69 302.7,-99.69 303.78,-92.77"/>
<path fill="#ffffff" fill-opacity="0.501961" stroke="transparent" d="M318,-90C318,-90 346,-90 346,-90 349.5,-90 353,-93.5 353,-97 353,-97 353,-104 353,-104 353,-107.5 349.5,-111 346,-111 346,-111 318,-111 318,-111 314.5,-111 311,-107.5 311,-104 311,-104 311,-97 311,-97 311,-93.5 314.5,-90 318,-90"/>
<text text-anchor="start" x="315" y="-96.9" font-family="Times,serif" font-size="12.00" fill="#ad5ff5">0.22d</text>
</g>
<!-- endevent -->
<g id="node7" class="node">
<title>endevent</title>
<image xlink:href="/images/icons/endEvent.svg" width="36px" height="36px" preserveAspectRatio="xMinYMin meet" x="166.5" y="-40"/>
</g>
<!-- W_Completeren aanvraag&#45;&gt;endevent -->
<g id="edge2" class="edge">
<title>W_Completeren aanvraag&#45;&gt;endevent</title>
<path fill="none" stroke="#7018f2" stroke-dasharray="5,2" d="M184.5,-80.98C184.5,-72.97 184.5,-63.37 184.5,-54.31"/>
<polygon fill="#7018f2" stroke="#7018f2" points="188,-54.05 184.5,-44.05 181,-54.05 188,-54.05"/>
</g>
<!-- startevent -->
<g id="node6" class="node">
<title>startevent</title>
<image xlink:href="/images/icons/startEvent.svg" width="36px" height="36px" preserveAspectRatio="xMinYMin meet" x="149.5" y="-581"/>
</g>
<!-- startevent&#45;&gt;A_SUBMITTED -->
<g id="edge1" class="edge">
<title>startevent&#45;&gt;A_SUBMITTED</title>
<path fill="none" stroke="#7018f2" stroke-dasharray="5,2" d="M167.5,-540.69C167.5,-532.52 167.5,-523.05 167.5,-514.29"/>
<polygon fill="#7018f2" stroke="#7018f2" points="171,-514.09 167.5,-504.09 164,-514.09 171,-514.09"/>
</g>
</g>
</svg>
